<svg id="main" xmlns="http://www.w3.org/2000/svg" width="427.81" height="540.4" viewBox="0 0 427.81 540.4"><title>plan_1_alt</title><path fill="#6bbc3a" d="M1.51 295.31l23.35 38.28 4.46 9.45-.49 16.4-.99-1.99-13.91-13.92-12.42-39.77v-8.45z"/><path id="id318" class="area" fill="#6bbc3a" d="M90.94 253.68l1.1-18.28-31.47-1.7-1.84 18.14 32.21 1.84z"/><path id="id317" class="area" fill="#6bbc3a" d="M92.16 233.42l1.11-18.43-31.41-1.53-1.15 18.26 31.45 1.7z"/><path id="id316" class="area" fill="#6bbc3a" d="M93.38 213.01l1.07-17.87-31.33-1.76-1.14 18.1 31.4 1.53z"/><path id="id315" class="area" fill="#6bbc3a" d="M94.57 193.16l1.11-18.43-31.29-1.53-1.14 18.2 31.32 1.76z"/><path id="id314" class="area" fill="#6bbc3a" d="M95.8 172.75l1.1-18.4-31.22-1.65-1.16 18.52 31.28 1.53z"/><path id="id313" class="area" fill="#6bbc3a" d="M97.02 152.37l1.21-20.16-31.14-1.86-1.28 20.37 31.21 1.65z"/><path id="id312" class="area" fill="#6bbc3a" d="M98.35 130.23l1.1-18.38-31.09-1.68-1.15 18.2 31.14 1.86z"/><path id="id311" class="area" fill="#6bbc3a" d="M99.57 109.87l1.09-18.13-31.04-1.56-1.14 18.01 31.09 1.68z"/><path id="id310" class="area" fill="#6bbc3a" d="M100.77 89.76l1.09-18.04-30.97-1.78-1.15 18.26 31.03 1.56z"/><path id="id309" class="area" fill="#6bbc3a" d="M71.01 67.96l30.96 1.78 1.11-18.51-30.91-1.65-1.16 18.38z"/><path id="id308" class="area" fill="#6bbc3a" d="M73.47 28.96L72.3 47.6l30.9 1.65 1.14-18.91-30.87-1.38z"/><path id="id307" class="area" fill="#6bbc3a" d="M76.86 7.63l.14.02-3.3 19.33 30.58 1.45 1.55-22.93-1.37.07-27.6 2.06z"/><path id="id306" class="area" fill="#6bbc3a" d="M56.2 273.83l-38.65-2.34-1.14 14.88 4.47 16.9 11.43 19.38 57.44-43.74 1.08-23.25-32.3-1.84-2.2 20.44-.13-.43z"/><path id="id305" class="area" fill="#6bbc3a" d="M19.07 251.58l-1.37 17.93 37.05 2.01 1.8-17.81-37.48-2.13z"/><path id="id304" class="area" fill="#6bbc3a" d="M20.59 231.54l38 2.05-1.84 18.14-37.53-2.13 1.37-18.06z"/><path id="id303" class="area" fill="#6bbc3a" d="M22.12 211.53l37.76 1.84-1.15 18.25-37.98-2.06 1.37-18.03z"/><path id="id302" class="area" fill="#6bbc3a" d="M23.7 190.87l37.44 2.4L60 211.39l-37.73-1.84 1.43-18.68z"/><path id="id301" class="area" fill="#6bbc3a" d="M25.19 171.28l-1.36 17.91 37.44 2.1 1.14-18.19-37.22-1.82z"/><path id="id300" class="area" fill="#6bbc3a" d="M26.99 149.09l-.15.57-1.5 19.64 37.2 1.82 1.16-18.53-36.79-1.94.08-1.56z"/><path id="id299" class="area" fill="#6bbc3a" d="M32.52 128.29l-5.42 20.38 36.73 1.94 1.28-20.37-32.59-1.95z"/><path id="id298" class="area" fill="#6bbc3a" d="M35.72 108.41l-.43 9.43-2.26 8.49 32.2 1.92 1.15-18.18-30.66-1.66z"/><path id="id297" class="area" fill="#6bbc3a" d="M36.63 88.53l-.82 17.9 30.69 1.66 1.14-18.01-31.01-1.55z"/><path id="id296" class="area" fill="#6bbc3a" d="M37.56 68.02l-.84 18.53 31.04 1.56 1.15-18.28-31.35-1.81z"/><path id="id295" class="area" fill="#6bbc3a" d="M38.48 47.78l-.83 18.26 31.38 1.81 1.16-18.38-31.71-1.69z"/><path id="id294" class="area" fill="#6bbc3a" d="M39.41 27.4l-.84 18.4 31.74 1.69 1.18-18.62-32.08-1.47z"/><path id="id293" class="area" fill="#6bbc3a" d="M39.51 25.42l32.19 1.47 3.27-19.12-34.78 2.59-.68 15.06z"/><path id="id320" class="area" fill="#6bbc3a" d="M116.81 29.47l31.55 1.86 1.65-29.35L118.24 4l-1.43 25.47z"/><path id="id321" class="area" fill="#6bbc3a" d="M116.76 31.39l-1.13 18.95 31.57 1.68 1.05-18.71-31.49-1.92z"/><path id="id322" class="area" fill="#6bbc3a" d="M115.58 51.24l-1.08 19.03 31.56 1.92L147.09 54l-31.57-1.68.06-1.08z"/><path id="id325" class="area" fill="#6bbc3a" d="M112.1 112.64l-1.03 18.42 31.59 1.68 1.04-18.45-31.6-1.65z"/><path id="id323" class="area" fill="#6bbc3a" d="M113.35 90.74l31.59 1.53 1.01-18.1-31.56-1.92-1.04 18.49z"/><path id="id324" class="area" fill="#6bbc3a" d="M113.29 92.67l-1.07 17.96 31.59 1.68 1.01-18.06-31.53-1.58z"/><path id="id328" class="area" fill="#6bbc3a" d="M108.2 179.86l-1.15 22.43 31.59 1.93 1.27-22.46-31.71-1.9z"/><path id="id327" class="area" fill="#6bbc3a" d="M109.58 155.58l-1.15 22.22 31.59 1.98 1.25-22.28-31.69-1.92z"/><path id="id326" class="area" fill="#6bbc3a" d="M109.8 153.56l31.58 1.96 1.17-20.8-31.59-1.69-1.16 20.53z"/><path id="id329" class="area" fill="#6bbc3a" d="M106.94 204.28l-1.3 22.92 31.68.48 1.21-21.48-31.59-1.92z"/><path id="id330" class="area" fill="#6bbc3a" d="M136.52 241.8l.69-12.14-31.68-.48-2.19 38.79 33.18-26.17z"/><path id="id340" class="area" fill="#6bbc3a" d="M138.64 240.12l32.76-25.84.34-6.06-31.23-1.9-1.87 33.8z"/><path id="id339" class="area" fill="#6bbc3a" d="M171.85 206.24l1.25-22.44-31.22-1.92-1.26 22.46 31.23 1.9z"/><path id="id338" class="area" fill="#6bbc3a" d="M173.21 181.82l1.25-22.41-31.21-1.8L142 179.9l31.21 1.92z"/><path id="id337" class="area" fill="#6bbc3a" d="M174.57 157.43l1.17-20.93-31.21-1.67-1.17 20.8 31.21 1.8z"/><path id="id336" class="area" fill="#6bbc3a" d="M175.85 134.52l1.03-18.44-31.2-1.69-1.04 18.46 31.21 1.67z"/><path id="id335" class="area" fill="#6bbc3a" d="M176.99 114.1L178 95.9l-31.19-1.56-1.02 18.07 31.2 1.69z"/><path id="id334" class="area" fill="#6bbc3a" d="M178.11 93.92l.99-17.73-31.17-1.89-1.01 18.06 31.19 1.56z"/><path id="id333" class="area" fill="#6bbc3a" d="M179.21 74.21l1.03-18.44-31.17-1.66-1.03 18.2 31.17 1.9z"/><path id="id332" class="area" fill="#6bbc3a" d="M180.35 53.79l1.03-18.46-31.15-1.9-1.05 18.7 31.17 1.66z"/><path id="id331" class="area" fill="#6bbc3a" d="M181.49 33.35l.83-14.93-4.96-8.45-12.42-8.95-12.94.83-1.66 29.6 31.15 1.9z"/><path id="id341" class="area" fill="#6bbc3a" d="M194.74 35.82l-2.69 45.33 34.51.43-31.82-45.76z"/><path id="id342" class="area" fill="#6bbc3a" d="M191.93 83.13l-1.06 17.8 49.46.47-12.39-17.82-36.01-.45z"/><path id="id343" class="area" fill="#6bbc3a" d="M190.75 102.91l-1.12 18.93 31.77 1.4 23.63-15.08-3.31-4.77-50.97-.48z"/><path id="id344" class="area" fill="#6bbc3a" d="M189.51 123.82l-1.08 18.2 31.22 1.13.88-17.97-31.02-1.36z"/><path id="id345" class="area" fill="#6bbc3a" d="M188.31 144l-1.09 18.4 31.42 1.13.91-18.4-31.24-1.13z"/><path id="id346" class="area" fill="#6bbc3a" d="M187.1 164.38l-2.29 38.47 33.18-26.12.55-11.22-31.44-1.13z"/><path id="id347" class="area" fill="#6bbc3a" d="M220.05 175.11l24.1-18.97-21.71-29.31-2.39 48.28z"/><path id="id348" class="area" fill="#6bbc3a" d="M245.71 154.91l20.56-16.19-20.11-28.93-23.01 14.68 22.56 30.44z"/><path id="id350" class="area" fill="#6bbc3a" d="M40.31 334.01l3.95 6.42-1.97 23.23 4.09 5.74 24.96-19.77-18.15-25.77-12.88 10.15z"/><path id="id364" class="area" fill="#6bbc3a" d="M47.52 371.01l17.98 25.26 24.84-19.69-17.86-25.34-24.96 19.77z"/><path id="id365" class="area" fill="#6bbc3a" d="M91.89 375.36l18.2-14.44-18.78-24.6-17.29 13.69 17.87 25.35z"/><path id="id366" class="area" fill="#6bbc3a" d="M111.64 359.7l13.92-11.03-18.68-24.68-14.02 11.11 18.78 24.6z"/><path id="id367" class="area" fill="#6bbc3a" d="M127.1 347.44l14.27-11.31-18.56-24.76-14.38 11.39 18.67 24.68z"/><path id="id368" class="area" fill="#6bbc3a" d="M142.91 334.91l14.67-11.63-18.66-24.67-14.57 11.54 18.56 24.76z"/><path id="id369" class="area" fill="#6bbc3a" d="M159.13 322.06l13.86-10.99-18.55-24.75-13.98 11.07 18.67 24.67z"/><path id="id370" class="area" fill="#6bbc3a" d="M174.53 309.85l14.85-11.77-18.81-24.54-14.59 11.56 18.55 24.75z"/><path id="id371" class="area" fill="#6bbc3a" d="M190.92 296.85l14.32-11.35-18.65-24.65-14.47 11.47 18.8 24.53z"/><path id="id372" class="area" fill="#6bbc3a" d="M206.79 284.28l13.78-10.93-18.37-24.86-14.06 11.13 18.65 24.66z"/><path id="id373" class="area" fill="#6bbc3a" d="M222.12 272.13l14.7-11.66-18.79-24.51-14.29 11.31 18.38 24.86z"/><path id="id374" class="area" fill="#6bbc3a" d="M238.36 259.25l14.06-11.15-18.55-24.69-14.3 11.32 18.79 24.52z"/><path id="id375" class="area" fill="#6bbc3a" d="M253.97 246.88l14.54-11.53-18.73-24.54-14.37 11.38 18.56 24.69z"/><path id="id376" class="area" fill="#6bbc3a" d="M270.06 234.12l14.26-11.31-18.63-24.6-14.37 11.37 18.74 24.54z"/><path id="id377" class="area" fill="#6bbc3a" d="M285.87 221.59l17.17-13.61-11.86-13.83-5.23-11.99-18.72 14.82 18.64 24.61z"/><path id="id363" class="area" fill="#6bbc3a" d="M285.14 180.29l-12.72-29.14-24.99 19.69 18.61 24.57 19.1-15.12z"/><path id="id362" class="area" fill="#6bbc3a" d="M245.88 172.06l-14.49 11.41 18.74 24.55 14.37-11.38-18.62-24.58z"/><path id="id361" class="area" fill="#6bbc3a" d="M229.84 184.69l-14.2 11.19 18.59 24.73 14.35-11.37-18.74-24.55z"/><path id="id360" class="area" fill="#6bbc3a" d="M214.09 197.1l-14.57 11.48 18.85 24.59 14.31-11.33-18.59-24.74z"/><path id="id359" class="area" fill="#6bbc3a" d="M197.97 209.8l-13.85 10.92 18.45 24.96 14.26-11.29-18.86-24.59z"/><path id="id358" class="area" fill="#6bbc3a" d="M182.57 221.93l-14.37 11.33 18.76 24.8 14.07-11.15-18.46-24.98z"/><path id="id357" class="area" fill="#6bbc3a" d="M166.65 234.48l-14.67 11.55 18.94 24.72 14.49-11.47-18.76-24.8z"/><path id="id356" class="area" fill="#6bbc3a" d="M150.43 247.25l-14.34 11.3 18.71 24.97 14.58-11.54-18.95-24.73z"/><path id="id355" class="area" fill="#6bbc3a" d="M134.54 259.77l-14.12 11.13 18.86 24.92 13.98-11.07-18.72-24.98z"/><path id="id354" class="area" fill="#6bbc3a" d="M118.87 272.12l-14.48 11.4 18.78 25.06 14.56-11.54-18.86-24.92z"/><path id="id353" class="area" fill="#6bbc3a" d="M102.84 284.74l-14.52 11.45 18.92 25 14.39-11.39-18.79-25.06z"/><path id="id352" class="area" fill="#6bbc3a" d="M86.77 297.41L72.6 308.57l19.06 24.96 14.03-11.11-18.92-25.01z"/><path id="id351" class="area" fill="#6bbc3a" d="M71.05 309.79l-16.31 12.85 18.15 25.76 17.23-13.64-19.07-24.97z"/><path id="id378" class="area" fill="#6bbc3a" d="M74.65 406.88l19.04 24 21.37-16.92-18.71-24.27-21.7 17.19z"/><path id="id392" class="area" fill="#6bbc3a" d="M94.92 432.42l19.59 24.7 20.96-16.67-19.22-24.93-21.33 16.9z"/><path id="id393" class="area" fill="#6bbc3a" d="M137 439.23l17.49-13.91-19.68-24.5-17.02 13.48L137 439.23z"/><path id="id394" class="area" fill="#6bbc3a" d="M156.03 424.1l13.64-10.85-19.37-24.7-13.95 11.05 19.68 24.5z"/><path id="id395" class="area" fill="#6bbc3a" d="M171.21 412.03l14.04-11.17-19.38-24.64-14.03 11.11 19.37 24.7z"/><path id="id396" class="area" fill="#6bbc3a" d="M186.79 399.64l14.36-11.42-19.36-24.61L167.41 375l19.38 24.64z"/><path id="id397" class="area" fill="#6bbc3a" d="M202.69 387l14.25-11.33-19.35-24.57-14.26 11.29L202.69 387z"/><path id="id398" class="area" fill="#6bbc3a" d="M218.48 374.44l14.36-11.42-19.5-24.4-14.21 11.26 19.35 24.56z"/><path id="id399" class="area" fill="#6bbc3a" d="M234.38 361.8l15.66-12.45-19.32-24.49-15.84 12.55 19.5 24.39z"/><path id="id400" class="area" fill="#6bbc3a" d="M251.58 348.13l13.96-11.11-19.3-24.45-13.99 11.08 19.33 24.48z"/><path id="id401" class="area" fill="#6bbc3a" d="M267.08 335.8l14.63-11.64-19.35-24.36-14.58 11.55 19.3 24.45z"/><path id="id402" class="area" fill="#6bbc3a" d="M283.25 322.94l13.83-11-19.25-24.39-13.93 11.03 19.35 24.36z"/><path id="id403" class="area" fill="#6bbc3a" d="M298.61 310.73l13.98-11.12-19.2-24.39-14.03 11.11 19.25 24.4z"/><path id="id404" class="area" fill="#6bbc3a" d="M314.13 298.39l15.62-12.43-19.06-24.43L294.94 274l19.19 24.39z"/><path id="id405" class="area" fill="#6bbc3a" d="M331.28 284.74l20.44-16.24-5.42-12.32-11.87-13.46-22.21 17.59 19.06 24.43z"/><path id="id391" class="area" fill="#6bbc3a" d="M333.13 241.25l-20.29-22.99-20.66 16.36 18.84 24.14 22.11-17.51z"/><path id="id390" class="area" fill="#6bbc3a" d="M290.64 235.84l-15.85 12.56 18.93 24.06 15.76-12.48-18.84-24.14z"/><path id="id389" class="area" fill="#6bbc3a" d="M273.24 249.62l-14.06 11.14 18.97 24.04 14.03-11.12-18.94-24.06z"/><path id="id388" class="area" fill="#6bbc3a" d="M257.64 261.97l-14.01 11.1 19.05 23.98 13.93-11.04-18.97-24.04z"/><path id="id387" class="area" fill="#6bbc3a" d="M242.09 274.29l-14.51 11.49 18.98 24.03 14.58-11.54-19.05-23.98z"/><path id="id386" class="area" fill="#6bbc3a" d="M226.04 286.99l-13.98 11.08 18.98 24.04 13.98-11.08-18.98-24.04z"/><path id="id385" class="area" fill="#6bbc3a" d="M210.52 299.28l-15.99 12.67 19.12 23.93 15.85-12.56-18.98-24.04z"/><path id="id384" class="area" fill="#6bbc3a" d="M192.99 313.17l-14.03 11.11 18.96 24.06 14.2-11.25-19.13-23.92z"/><path id="id383" class="area" fill="#6bbc3a" d="M177.42 325.5l-14.24 11.27 18.94 24.08 14.26-11.29-18.96-24.06z"/><path id="id382" class="area" fill="#6bbc3a" d="M161.64 338l-14.38 11.38 18.94 24.08 14.38-11.39L161.64 338z"/><path id="id381" class="area" fill="#6bbc3a" d="M145.72 350.6l-14 11.09 18.91 24.1 14.03-11.11-18.94-24.08z"/><path id="id380" class="area" fill="#6bbc3a" d="M130.18 362.91l-14.25 11.28 19.19 23.88 13.97-11.06-18.91-24.1z"/><path id="id379" class="area" fill="#6bbc3a" d="M114.39 375.41l-16.5 13.07 18.7 24.27 16.99-13.46-19.19-23.88z"/><path id="id406" class="area" fill="#6bbc3a" d="M122.64 468.57l20.91 23.3 21.26-16.92-19.73-24.15-22.44 17.77z"/><path id="id419" class="area" fill="#6bbc3a" d="M144.96 493.27l23.93 20.6 16.79-13.39-19.62-24.01-21.1 16.8z"/><path id="id420" class="area" fill="#6bbc3a" d="M187.22 499.25l15.23-12.15-19.12-24.37-15.73 12.52 19.62 24z"/><path id="id421" class="area" fill="#6bbc3a" d="M203.99 485.88l14.12-11.27-19.17-24.31-14.07 11.2 19.12 24.38z"/><path id="id422" class="area" fill="#6bbc3a" d="M219.64 473.38l14.3-11.4-19.26-24.21-14.21 11.31 19.17 24.3z"/><path id="id423" class="area" fill="#6bbc3a" d="M235.48 460.75l13.9-11.09-19.21-24.21-13.95 11.1 19.26 24.2z"/><path id="id424" class="area" fill="#6bbc3a" d="M250.91 448.44l14.2-11.32-19.04-24.33-14.36 11.44 19.2 24.21z"/><path id="id425" class="area" fill="#6bbc3a" d="M266.64 435.89l13.91-11.09-19.05-24.29-13.89 11.06 19.03 24.32z"/><path id="id426" class="area" fill="#6bbc3a" d="M282.08 423.58l16.49-13.15-19.26-24.09-16.27 12.95 19.04 24.29z"/><path id="id427" class="area" fill="#6bbc3a" d="M300.1 409.2l13.88-11.07-19.22-24.08-13.91 11.07 19.25 24.08z"/><path id="id428" class="area" fill="#6bbc3a" d="M315.51 396.91l14.03-11.2-19.16-24.09-14.09 11.21 19.22 24.08z"/><path id="id429" class="area" fill="#6bbc3a" d="M331.08 384.49l14.42-11.5-19.2-24.05-14.39 11.45 19.17 24.1z"/><path id="id430" class="area" fill="#6bbc3a" d="M347.03 371.76l13.7-10.92-18.62-24.48-14.28 11.36 19.2 24.04z"/><path id="id431" class="area" fill="#6bbc3a" d="M362.26 359.61l12.8-10.21-11.47-30.13-19.94 15.87 18.61 24.47z"/><path id="id418" class="area" fill="#6bbc3a" d="M362.86 317.34l-11.42-29.98-26.09 20.67 17.15 25.51 20.36-16.2z"/><path id="id417" class="area" fill="#6bbc3a" d="M323.81 309.25l-16.36 12.95 19.16 23.99 14.35-11.42-17.15-25.52z"/><path id="id416" class="area" fill="#6bbc3a" d="M305.92 323.42l-14.37 11.38 19.14 24.06 14.39-11.45-19.16-23.99z"/><path id="id415" class="area" fill="#6bbc3a" d="M290.01 336.02l-14.16 11.21 19.21 24.06 14.09-11.21-19.14-24.06z"/><path id="id414" class="area" fill="#6bbc3a" d="M274.31 348.45l-13.95 11.05 19.26 24.08 13.91-11.07-19.22-24.06z"/><path id="id413" class="area" fill="#6bbc3a" d="M258.83 360.71l-16.07 12.72 19.07 24.31 16.26-12.94-19.26-24.09z"/><path id="id412" class="area" fill="#6bbc3a" d="M241.22 374.65l-13.89 11 19.07 24.37 13.89-11.05-19.07-24.32z"/><path id="id411" class="area" fill="#6bbc3a" d="M225.79 386.87l-14.57 11.54 19.27 24.28 14.37-11.44-19.07-24.38z"/><path id="id410" class="area" fill="#6bbc3a" d="M209.68 399.63l-14 11.1L215 435.01l13.95-11.1-19.27-24.28z"/><path id="id409" class="area" fill="#6bbc3a" d="M194.13 411.94L180 423.14l19.26 24.4 14.2-11.3-19.33-24.3z"/><path id="id408" class="area" fill="#6bbc3a" d="M178.47 424.35l-14.03 11.11 19.21 24.5 14.07-11.2-19.25-24.41z"/><path id="id407" class="area" fill="#6bbc3a" d="M162.9 436.68l-16.28 12.9 19.73 24.15 15.77-12.55-19.22-24.5z"/><path id="id432" class="area" fill="#6bbc3a" d="M180.34 521.5l6.95 2.49 40.9.74-20.64-24.99-27.21 21.76z"/><path id="id442" class="area" fill="#6bbc3a" d="M233.42 524.83l35.84.65 12.28-5.46-16.45-20.18-31.67 24.99z"/><path id="id443" class="area" fill="#6bbc3a" d="M283.41 519.19l19.15-8.51-20.17-24.49-15.74 12.42 16.76 20.58z"/><path id="id444" class="area" fill="#6bbc3a" d="M304.44 509.85l17.39-7.72-23.62-28.42-14.27 11.25 20.5 24.89z"/><path id="id445" class="area" fill="#6bbc3a" d="M323.71 501.29l17.07-7.58-26.8-32.45-14.22 11.22 23.95 28.81z"/><path id="id446" class="area" fill="#6bbc3a" d="M342.66 492.87l18.07-8.02-30.64-36.3-14.55 11.48 27.12 32.84z"/><path id="id447" class="area" fill="#6bbc3a" d="M362.41 483.76l10.47-18.04-26.34-30.15-14.89 11.75 30.76 36.44z"/><path id="id448" class="area" fill="#6bbc3a" d="M373.93 463.91l6.1-10.52-2.48-41.75-.11-.45-29.34 23.15 25.83 29.57z"/><path id="id441" class="area" fill="#6bbc3a" d="M376.94 409.05l-8.83-37.68-25.69 20.54 21.3 27.57 13.22-10.43z"/><path id="id440" class="area" fill="#6bbc3a" d="M340.87 393.15l-16.93 13.54 22.85 26.15 15.38-12.13-21.3-27.56z"/><path id="id439" class="area" fill="#6bbc3a" d="M322.39 407.92l-14.33 11.46 22.3 26.42 14.87-11.73-22.84-26.15z"/><path id="id438" class="area" fill="#6bbc3a" d="M306.51 420.62l-14.17 11.33 21.93 26.55 14.54-11.47-22.3-26.41z"/><path id="id437" class="area" fill="#6bbc3a" d="M290.79 433.19l-14.23 11.38 21.93 26.38 14.22-11.22-21.92-26.54z"/><path id="id436" class="area" fill="#6bbc3a" d="M275.01 445.8l-14.06 11.25 21.73 26.38 14.26-11.25-21.93-26.38z"/><path id="id435" class="area" fill="#6bbc3a" d="M259.4 458.29l-15.51 12.4 21.5 26.38 15.73-12.41-21.72-26.37z"/><path id="id433" class="area" fill="#6bbc3a" d="M230.6 524.53l-21.5-26.03 15.92-12.72 21.37 26.29-15.79 12.46z"/><path id="id434" class="area" fill="#6bbc3a" d="M247.94 510.84l-21.38-26.3 15.78-12.61 21.49 26.37-15.89 12.54z"/><path id="roads" d="M36.66 15.67l-5.92 101.81v.23l-.07.26-8.13 31.56L12.39 288.7l4.21 15.76 11.95 18.66c1.57 2.46 6.48 3 8.81 1.16l56.41-44.41 15.61-269.16-2.75.1-.16-5.07 10.21-.36.16 5.07-2.37.08-14.92 257.14c-.21 3.59 3 5.31 6 2.91l70.07-55.17 9.67-182.21-2.21-3.66.62-7.56 6.46 9.16h.32v.36l2.58 3.35v6.48l-3-2.25-8.7 164.25c-.22 4.2 3.42 4.85 6.08 2.76l75.23-59.22-1.81-3.62 4.54-2.25 5.29 10.54-4.53 2.27-1.16-2.28L38.22 330.07a5.8 5.8 0 0 0-1.58 7l1.86 4.55.19.47v.5l-.24 23 24.73 32.23c1.3 1.69 4.69 2 6.37.64l231.91-183.3-2.05-2.51 3.93-3.22 7.19 8.79-3.93 3.22-1.93-2.44L72 402.9c-1.42 1.12-1.91 3.94-.81 5.38l39.46 51.44a4.87 4.87 0 0 0 6.11.78l230.4-182.24-1.41-3.1 4.81-2.68 4.44 10.25-5 2.37-.81-2L119.22 465c-1.35 1.07-1.38 3.82-.3 5.17l18.84 23.54 27.56 23.61a5.22 5.22 0 0 0 6 .22l197.79-158v-3.4l4.68-3.17 2.13 14.8-5.33 1.61-.45-3.71-194.19 154.74c-1.47 1.17-1.93 4.4-.5 5.62l2.49 2.14 88.76 1.64a17.92 17.92 0 0 0 7.7-1.56L364.47 487l16.25-28 4.15 2.76-.1 16.57-16.32 11.93-.45.74-.73.34-79.36 36.31a1.44 1.44 0 0 0 .34 2.79L398 535l-.2 5.07L271.32 535l-94.38-1.74h-.92l-.69-.59-41.05-35.17-.18-.16-.14-.18-23.13-28.9-76.94-100.32-.53-.69v-.88l.25-23.37-2.89-7.07-1.5-2.34-17.11-26.72-.22-.34-.1-.38-4.42-16.55-.11-.41v-.42L17.47 149v-.19l.07-.26L25.68 117l5.88-101-2.49.14-.28-5.14 10.06-.56.28 5.07-2.46.14z" fill="#4d4d4c"/><path id="border" fill="none" stroke="#683200" stroke-miterlimit="22.93" stroke-width="2" d="M271.74 539.4h-96.87l-45.2-43.25-76-97.93-39.74-52.2-12.92-43.75 11.92-152.11 8.45-34.8 5.96-104.89 138.1-9.45 11.42 8.45 88.92 128.76 25.33 56.67 55.64 61.14 4.47 14.42 18.38 46.23 4.97 35.3 12.91 97.93 1.67 36.21-24.26 16.8-58.63 24.57"/><path id="water" d="M358.9 522.38c4.14 5.63 10.8 7.31 22.83 7.31 15.32 0 13.06-10.46 12.31-20.87-.34-4.78-.78-11.1-5.76-11.88-6.4-1-10.26 3-14.94 6.44-2.88 2.11-3.59 3.92-8.11 4.78-8 1.52-10.91 8-6.32 14.22z" fill="#00cdff"/><g id="trees_2" fill-rule="evenodd"><path d="M118.36 232.82a2.2 2.2 0 0 1 3.61.8 1.73 1.73 0 0 1 1.23 3.2 2.73 2.73 0 0 1-3 3.95 1.4 1.4 0 0 1-2.45-.24 2.2 2.2 0 0 1-2.63-2.86 2.09 2.09 0 0 1 .18-.4 1.84 1.84 0 0 1 .75-3.25 1.4 1.4 0 0 1 1.86-1.43 1.42 1.42 0 0 1 .41.23" fill="#227f06"/><path d="M344.07 224.46a4.54 4.54 0 0 1-1.52-7.48 3.58 3.58 0 0 1 5-5 5.64 5.64 0 0 1 9.93 2.28 2.89 2.89 0 0 1 1.6 4.83 4.54 4.54 0 0 1-3.19 7.35 4.62 4.62 0 0 1-.9 0 3.81 3.81 0 0 1-6.76 1.31 2.89 2.89 0 0 1-4.17-3.29" fill="#1d6d03"/><path d="M350.61 213.39a3.5 3.5 0 0 1-5.74-1.27 2.76 2.76 0 0 1-2-5.09 4.35 4.35 0 0 1 4.71-6.28 2.23 2.23 0 0 1 3.9.38 3.5 3.5 0 0 1 4.18 4.55 3.52 3.52 0 0 1-.29.63 2.94 2.94 0 0 1-1.19 5.17 2.23 2.23 0 0 1-3.62 1.91M333.85 225.49a2.51 2.51 0 0 1-4.12-.91 2 2 0 0 1-1.4-3.65 3.12 3.12 0 0 1 3.38-4.51 1.6 1.6 0 0 1 2.8.28 2.51 2.51 0 0 1 3 3.27 2.57 2.57 0 0 1-.21.45 2.11 2.11 0 0 1-.86 3.71 1.58 1.58 0 0 1-.09.65 1.6 1.6 0 0 1-2 1 1.54 1.54 0 0 1-.47-.26" fill="#227f06"/><path d="M339.76 200.21a2.87 2.87 0 0 1-1-4.72 2.26 2.26 0 0 1 3.16-3.16 3.57 3.57 0 0 1 6.27 1.44 1.83 1.83 0 0 1 1 3.05 2.87 2.87 0 0 1-2.59 4.64 2.41 2.41 0 0 1-4.27.82 1.8 1.8 0 0 1-.72.21 1.83 1.83 0 0 1-1.91-2.29M325.48 209.33a3.53 3.53 0 0 1 2.46-5.39 2.78 2.78 0 0 1 5.43-.85 4.38 4.38 0 0 1 5.2 6 2.25 2.25 0 0 1-1.2 3.77A3.53 3.53 0 0 1 332 216a3.56 3.56 0 0 1-.56-.42 3 3 0 0 1-4.84-2.27 2.25 2.25 0 0 1-1.12-4M286.58 89.91a4.54 4.54 0 0 1-7.22 2.46 3.58 3.58 0 0 1-5.6-4.33 5.64 5.64 0 0 1 1-10.14 2.89 2.89 0 0 1 4.59-2.2 4.54 4.54 0 0 1 7.8 3.13 3.81 3.81 0 0 1 2.16 6.54 2.89 2.89 0 0 1-1.75 4.51 2.92 2.92 0 0 1-1 0" fill="#1d6d03"/><path d="M274.78 84.84a3.5 3.5 0 0 1-.53 5.86 2.76 2.76 0 0 1-4.8 2.59 4.35 4.35 0 0 1-6.83-3.88 2.23 2.23 0 0 1-.12-3.92 3.5 3.5 0 0 1 4-4.73 3.55 3.55 0 0 1 .66.21 2.94 2.94 0 0 1 5.28.53 2.2 2.2 0 0 1 .92 0 2.23 2.23 0 0 1 1.71 2.64 2.2 2.2 0 0 1-.28.7M288.91 99.92a2.51 2.51 0 0 1-.38 4.2 2 2 0 0 1 .07 1.08 2 2 0 0 1-3.52.78 3.12 3.12 0 0 1-4.9-2.78 1.6 1.6 0 0 1-.08-2.81A2.51 2.51 0 0 1 283 97a2.54 2.54 0 0 1 .47.15 2.11 2.11 0 0 1 3.79.38 1.58 1.58 0 0 1 .66 0 1.6 1.6 0 0 1 1 2.4" fill="#227f06"/><path d="M263.08 97.28a2.87 2.87 0 0 1-4.56 1.55A2.26 2.26 0 0 1 255 96.1a3.56 3.56 0 0 1 .63-6.41 1.83 1.83 0 0 1 2.9-1.39 2.87 2.87 0 0 1 4.93 2 2.41 2.41 0 0 1 1.36 4.13 1.83 1.83 0 0 1-1.11 2.85 1.81 1.81 0 0 1-.62 0M273.95 110.29a3.53 3.53 0 0 1-5.66-1.75 2.78 2.78 0 0 1-1.54-5.28 4.38 4.38 0 0 1 5.25-5.92 2.25 2.25 0 0 1 3.89.71 3.53 3.53 0 0 1 3.47 5.53 3 3 0 0 1-1.63 5.09 2.25 2.25 0 0 1-3.79 1.61M326.54 179.34a4.54 4.54 0 0 1-7.22 2.46 3.58 3.58 0 0 1-5.6-4.33 5.64 5.64 0 0 1 1-10.14 2.89 2.89 0 0 1 4.59-2.2 4.54 4.54 0 0 1 7.7 2.23 4.59 4.59 0 0 1 .1.89 3.81 3.81 0 0 1 2.16 6.54 2.89 2.89 0 0 1-2.73 4.55M313.91 199.71a3.53 3.53 0 0 1-5.66-1.75 2.78 2.78 0 0 1-1.54-5.28 4.38 4.38 0 0 1 5.26-5.91 2.25 2.25 0 0 1 3.89.71 3.53 3.53 0 0 1 3.47 5.53 3 3 0 0 1-1.63 5.09 2.25 2.25 0 0 1-3.79 1.61M244.86 75.82a4.54 4.54 0 0 1-1.21-7.53 3.58 3.58 0 0 1 5.21-4.79 5.64 5.64 0 0 1 9.83 2.69 2.89 2.89 0 0 1 1.4 4.89 4.54 4.54 0 0 1-4.39 7.16 3.81 3.81 0 0 1-6.81 1 2.89 2.89 0 0 1-4-3.46M226.9 59.95a3.53 3.53 0 0 1 2.68-5.29A2.78 2.78 0 0 1 235 54a4.38 4.38 0 0 1 5 6.21 2.25 2.25 0 0 1-1.35 3.72 3.53 3.53 0 0 1-5.49 2.94 3.62 3.62 0 0 1-.54-.44 3 3 0 0 1-4.77-2.43 2.25 2.25 0 0 1-1-4M293.3 127.66a4.54 4.54 0 0 1-5.33 5.46 3.58 3.58 0 0 1-6.95-1.33 5.64 5.64 0 0 1-3.69-9.5 2.89 2.89 0 0 1 3.1-4 4.54 4.54 0 0 1 8.37-.74 3.81 3.81 0 0 1 4.88 4.86 2.84 2.84 0 0 1 .92.76 2.89 2.89 0 0 1-.44 4.06 2.85 2.85 0 0 1-.85.47M307.09 149a3.53 3.53 0 0 1-5.84 1 2.75 2.75 0 0 1-1.44.48 2.78 2.78 0 0 1-2.32-4.49 4.39 4.39 0 0 1 2-7.65 2.25 2.25 0 0 1 3.79-1.12 3.53 3.53 0 0 1 5.6 3.36 3 3 0 0 1 .85 5.28 2.22 2.22 0 0 1 .23.89 2.25 2.25 0 0 1-2.13 2.35 2.21 2.21 0 0 1-.75-.09M373.8 247.55a4.54 4.54 0 0 1-4.8 5.95 3.58 3.58 0 0 1-7-.66 5.64 5.64 0 0 1-4.58-9.1 2.89 2.89 0 0 1 2.7-4.32 4.54 4.54 0 0 1 7.7-2.24 4.66 4.66 0 0 1 .56.7 3.81 3.81 0 0 1 5.32 4.37 2.89 2.89 0 0 1 .94 4.75 2.9 2.9 0 0 1-.81.56M374 271.52a3.53 3.53 0 0 1-5.72 1.55 2.78 2.78 0 0 1-4.13-3.63 4.38 4.38 0 0 1 1.27-7.81 2.25 2.25 0 0 1 3.67-1.48 3.53 3.53 0 0 1 5.86 2.11 3.61 3.61 0 0 1 0 .7 3 3 0 0 1 1.35 5.17 2.25 2.25 0 0 1-2.34 3.39" fill="#1d6d03"/><path d="M296.69 172.17a3.5 3.5 0 0 1-5.69-1.27 2.76 2.76 0 0 1-2-5.09 4.35 4.35 0 0 1 4.71-6.28 2.23 2.23 0 0 1 3.9.38 3.5 3.5 0 0 1 4.18 4.55 3.52 3.52 0 0 1-.29.63 2.94 2.94 0 0 1-1.19 5.17 2.23 2.23 0 0 1-3.62 1.91" fill="#227f06"/><path d="M285.85 159a2.87 2.87 0 0 1-1-4.72 2.26 2.26 0 0 1 3.16-3.16 3.57 3.57 0 0 1 6.27 1.44 1.83 1.83 0 0 1 1 3.05 2.87 2.87 0 0 1-2.59 4.64 2.41 2.41 0 0 1-4.27.82 1.8 1.8 0 0 1-.72.21 1.83 1.83 0 0 1-1.91-2.29" fill="#1d6d03"/><path d="M324.11 159.88a4.13 4.13 0 0 1-.62 6.9 3.25 3.25 0 0 1-5.66 3.05 5.13 5.13 0 0 1-8.05-4.57 2.63 2.63 0 0 1-.14-4.62 4.13 4.13 0 0 1 5.47-5.33 3.46 3.46 0 0 1 6.22.62 2.59 2.59 0 0 1 1.08 0 2.63 2.63 0 0 1 2 3.12 2.6 2.6 0 0 1-.33.83M360.89 241.06a4.13 4.13 0 0 1-.62 6.9 3.25 3.25 0 0 1-5.66 3.05 5.13 5.13 0 0 1-8.05-4.57 2.63 2.63 0 0 1-.14-4.62 4.13 4.13 0 0 1 5.47-5.33 3.46 3.46 0 0 1 6.22.62 2.63 2.63 0 0 1 2.77 3.95M380.55 285.46a4.13 4.13 0 0 1-.62 6.9 3.25 3.25 0 0 1-5.66 3.05 5.13 5.13 0 0 1-8.05-4.57 2.63 2.63 0 0 1-.14-4.62 4.13 4.13 0 0 1 5.47-5.33 3.46 3.46 0 0 1 6.22.62 2.63 2.63 0 0 1 2.77 3.95M405.92 334.3a4.13 4.13 0 0 1-.62 6.9 3.25 3.25 0 0 1-5.66 3.05 5.13 5.13 0 0 1-8.05-4.57 2.63 2.63 0 0 1-.14-4.62 4.13 4.13 0 0 1 4.69-5.57 4 4 0 0 1 .78.25 3.46 3.46 0 0 1 6.22.62 2.63 2.63 0 0 1 2.77 3.95M404 388.84a4.13 4.13 0 0 1-.62 6.9 3.25 3.25 0 0 1-5.66 3.05 5.13 5.13 0 0 1-8.05-4.57 2.63 2.63 0 0 1-.14-4.62 4.13 4.13 0 0 1 5.47-5.33 3.46 3.46 0 0 1 6.22.62 2.63 2.63 0 0 1 2.77 3.95M418.61 457.34a4.13 4.13 0 0 1-.62 6.9 3.25 3.25 0 0 1-5.66 3.05 5.13 5.13 0 0 1-8.05-4.57 2.63 2.63 0 0 1-.14-4.62 4.13 4.13 0 0 1 5.47-5.33 3.46 3.46 0 0 1 6.22.62 2.63 2.63 0 0 1 2.77 3.95M411 489.05a4.13 4.13 0 0 1-.62 6.9 3.25 3.25 0 0 1-5.66 3.05 5.13 5.13 0 0 1-8.05-4.57 2.63 2.63 0 0 1-.14-4.62 4.13 4.13 0 0 1 5.47-5.33 3.46 3.46 0 0 1 6.22.62 2.63 2.63 0 0 1 2.78 3.95M243.7 27.76a3.5 3.5 0 0 1-.53 5.85 2.76 2.76 0 0 1-4.8 2.59 4.35 4.35 0 0 1-6.83-3.88 2.23 2.23 0 0 1-.12-3.92 3.5 3.5 0 0 1 4.64-4.52 2.94 2.94 0 0 1 5.28.53 2.2 2.2 0 0 1 .92 0 2.23 2.23 0 0 1 1.43 3.34" fill="#227f06"/><path d="M386.4 298a3.5 3.5 0 0 1-.53 5.85 2.76 2.76 0 0 1-4.8 2.59 4.35 4.35 0 0 1-6.83-3.88 2.23 2.23 0 0 1-.12-3.92 3.5 3.5 0 0 1 4-4.73 3.58 3.58 0 0 1 .66.21 2.93 2.93 0 0 1 5.28.53 2.23 2.23 0 0 1 2.34 3.35" fill="#227f06"/><path d="M397.82 344.25a3.5 3.5 0 0 1-.53 5.85 2.76 2.76 0 0 1-4.8 2.59 4.35 4.35 0 0 1-6.83-3.88 2.23 2.23 0 0 1-.12-3.92 3.5 3.5 0 0 1 4-4.73 3.58 3.58 0 0 1 .66.21 2.93 2.93 0 0 1 5.28.53 2.23 2.23 0 0 1 2.35 3.35M390.21 288.44a3.5 3.5 0 0 1-.53 5.86 2.76 2.76 0 0 1-4.8 2.59 4.35 4.35 0 0 1-6.83-3.88 2.23 2.23 0 0 1-.12-3.92 3.5 3.5 0 0 1 4-4.73 3.52 3.52 0 0 1 .66.21 2.94 2.94 0 0 1 5.28.53 2.2 2.2 0 0 1 .92 0 2.23 2.23 0 0 1 1.44 3.34M412.41 366.45a3.5 3.5 0 0 1-.53 5.85 2.76 2.76 0 0 1-4.8 2.59 4.35 4.35 0 0 1-6.83-3.88 2.23 2.23 0 0 1-.12-3.92 3.5 3.5 0 0 1 4-4.73 3.55 3.55 0 0 1 .66.21 2.93 2.93 0 0 1 5.28.53 2.23 2.23 0 0 1 2.35 3.35M408 436.85a3.5 3.5 0 0 1-.53 5.86 2.76 2.76 0 0 1-4.8 2.59 4.35 4.35 0 0 1-6.83-3.88 2.23 2.23 0 0 1-.12-3.92 3.5 3.5 0 0 1 4.64-4.52 2.94 2.94 0 0 1 5.28.53 2.2 2.2 0 0 1 .92 0 2.23 2.23 0 0 1 1.43 3.34M423.19 450.17a3.5 3.5 0 0 1-.53 5.85 2.76 2.76 0 0 1-4.8 2.59 4.35 4.35 0 0 1-6.83-3.88 2.23 2.23 0 0 1-.12-3.92 3.5 3.5 0 0 1 4-4.73 3.55 3.55 0 0 1 .66.21 2.93 2.93 0 0 1 5.28.53 2.23 2.23 0 0 1 2.35 3.35M426.19 524.49a4.2 4.2 0 0 1-.63 7 3.31 3.31 0 0 1-5.76 3.11 5.22 5.22 0 0 1-8.2-4.65 2.67 2.67 0 0 1-.14-4.71 4.2 4.2 0 0 1 4.78-5.68 4.22 4.22 0 0 1 .79.25 3.52 3.52 0 0 1 6.34.63 2.68 2.68 0 0 1 2.82 4M421.29 492a3.5 3.5 0 0 1-.53 5.85 2.76 2.76 0 0 1-4.8 2.59 4.35 4.35 0 0 1-6.83-3.88 2.23 2.23 0 0 1-.12-3.92 3.5 3.5 0 0 1 4.64-4.52 2.94 2.94 0 0 1 5.28.53 2.23 2.23 0 0 1 2.63 2.65 2.2 2.2 0 0 1-.28.7" fill="#1d6d03"/><path d="M198.6 7.13a4.13 4.13 0 0 1 5.71 3.92 3.25 3.25 0 0 1-.11 6.43 5.13 5.13 0 0 1-7.93 4.78 2.63 2.63 0 0 1-4.1-2.15 4.13 4.13 0 0 1-2-7.38 3.46 3.46 0 0 1 3.59-5.12A2.63 2.63 0 0 1 198 6.44a2.6 2.6 0 0 1 .56.69M263.6 55.19a4.13 4.13 0 0 1 5.71 3.92 3.25 3.25 0 0 1-.11 6.43 5.13 5.13 0 0 1-7.93 4.78 2.63 2.63 0 0 1-4.1-2.15 4.13 4.13 0 0 1-2-7.38 3.46 3.46 0 0 1 3.59-5.12 2.6 2.6 0 0 1 .53-.94 2.63 2.63 0 0 1 4.26.46" fill="#227f06"/><path d="M229.8 17.24a3.5 3.5 0 0 1 4.85 3.33 2.76 2.76 0 0 1-.1 5.45 4.35 4.35 0 0 1-6.73 4.05 2.23 2.23 0 0 1-3.48-1.82 3.5 3.5 0 0 1-2.17-5.79 3.56 3.56 0 0 1 .51-.47 2.94 2.94 0 0 1 3-4.34 2.23 2.23 0 0 1 4.07-.41" fill="#1d6d03"/><path d="M221.59 53.29a2.51 2.51 0 0 1-4.12-.91 2 2 0 0 1-1.4-3.65 3.12 3.12 0 0 1 3.38-4.51 1.6 1.6 0 0 1 2.8.28 2.52 2.52 0 0 1 2.75 3.71 2.11 2.11 0 0 1-.86 3.71 1.57 1.57 0 0 1-.09.65 1.6 1.6 0 0 1-2 1 1.62 1.62 0 0 1-.47-.26" fill="#227f06"/><path d="M213.22 40a3.53 3.53 0 0 1 2.46-5.39 2.78 2.78 0 0 1 5.43-.85 4.38 4.38 0 0 1 5.2 6 2.25 2.25 0 0 1-1.2 3.77 3.53 3.53 0 0 1-5.92 2.74 3 3 0 0 1-4.86-2.27 2.25 2.25 0 0 1-1.12-4" fill="#1d6d03"/><path d="M279.22 122.9a3.5 3.5 0 0 1-.53 5.86 2.76 2.76 0 0 1-4.8 2.59 4.35 4.35 0 0 1-6.83-3.88 2.23 2.23 0 0 1-.12-3.92 3.5 3.5 0 0 1 4-4.73 3.53 3.53 0 0 1 .66.21 2.94 2.94 0 0 1 5.28.53 2.2 2.2 0 0 1 .92 0 2.23 2.23 0 0 1 1.43 3.34M248.32 86a2.51 2.51 0 0 1-.38 4.2 2 2 0 0 1-3.44 1.8 3.12 3.12 0 0 1-4.9-2.78 1.6 1.6 0 0 1-.08-2.81 2.51 2.51 0 0 1 2.85-3.41 2.45 2.45 0 0 1 .47.15 2.11 2.11 0 0 1 3.79.38 1.58 1.58 0 0 1 .66 0 1.6 1.6 0 0 1 1 2.4M310.79 185.25a4.13 4.13 0 0 1-.62 6.9 3.25 3.25 0 0 1-5.66 3.05 5.13 5.13 0 0 1-8.05-4.57 2.63 2.63 0 0 1-.14-4.62 4.13 4.13 0 0 1 5.47-5.33 3.46 3.46 0 0 1 6.22.62 2.63 2.63 0 0 1 2.77 3.94" fill="#227f06"/><path d="M421.21 437.66a4.54 4.54 0 0 0 1.21-7.53 3.58 3.58 0 0 0-5.21-4.79 5.64 5.64 0 0 0-9.83 2.69 2.89 2.89 0 0 0-1.4 4.9 4.54 4.54 0 0 0 3.49 7.22 4.59 4.59 0 0 0 .9-.05 3.81 3.81 0 0 0 6.81 1 2.89 2.89 0 0 0 4-3.46M390.53 403.08a3.53 3.53 0 0 1 2.68-5.29 2.78 2.78 0 0 1 5.46-.63 4.38 4.38 0 0 1 4.95 6.18 2.25 2.25 0 0 1-1.35 3.72 3.53 3.53 0 0 1-6 2.5 3 3 0 0 1-4.75-2.46 2.25 2.25 0 0 1-1-4" fill="#1d6d03"/><path d="M402.46 417a4.13 4.13 0 0 0-5.71 3.92 3.25 3.25 0 0 0 .11 6.43 5.13 5.13 0 0 0 7.93 4.78 2.63 2.63 0 0 0 4.1-2.15 4.13 4.13 0 0 0 2-7.38 3.46 3.46 0 0 0-3.59-5.12 2.63 2.63 0 0 0-4.24-1.18 2.65 2.65 0 0 0-.56.69M409.78 509.75a3.17 3.17 0 0 1-.48 5.29 2.49 2.49 0 0 1-4.34 2.34 3.93 3.93 0 0 1-6.18-3.5 2 2 0 0 1-.11-3.55 3.17 3.17 0 0 1 3.6-4.27 3.19 3.19 0 0 1 .6.19 2.65 2.65 0 0 1 4.77.48 2 2 0 0 1 2.13 3M419.73 409.72a4.13 4.13 0 0 1-6.89.77 3.25 3.25 0 0 1-4.12-4.93 5.13 5.13 0 0 1 2.87-8.8 2.63 2.63 0 0 1 4.5-1.06 4.13 4.13 0 0 1 6.31 4.3 3.46 3.46 0 0 1 .64 6.22 2.59 2.59 0 0 1 .21 1.06 2.63 2.63 0 0 1-3.52 2.45" fill="#227f06"/><path d="M394.41 369.52a3.5 3.5 0 0 1-5.84.65 2.76 2.76 0 0 1-3.49-4.19 4.35 4.35 0 0 1 2.43-7.47 2.23 2.23 0 0 1 3.82-.9 3.5 3.5 0 0 1 5.43 3 3.62 3.62 0 0 1-.07.69 2.94 2.94 0 0 1 .54 5.28 2.23 2.23 0 0 1-2.07 3.11 2.25 2.25 0 0 1-.74-.13M387 324.82a3.5 3.5 0 0 1-5.84.66 2.76 2.76 0 0 1-3.49-4.19 4.35 4.35 0 0 1 2.43-7.47 2.23 2.23 0 0 1 3.82-.9 3.5 3.5 0 0 1 5.35 3.64 2.94 2.94 0 0 1 .54 5.28 2.23 2.23 0 0 1-2.81 3" fill="#1d6d03"/><path d="M241.66 51.4a2.51 2.51 0 0 1-.38 4.2 2 2 0 0 1-3.45 1.86 3.12 3.12 0 0 1-4.9-2.78 1.6 1.6 0 0 1-.08-2.81 2.51 2.51 0 0 1 2.86-3.39 2.45 2.45 0 0 1 .47.15A2.11 2.11 0 0 1 240 49a1.58 1.58 0 0 1 .66 0 1.6 1.6 0 0 1 1 2.4M225.17 17.47a2.51 2.51 0 0 1-.38 4.2 2 2 0 0 1-3.45 1.86 3.12 3.12 0 0 1-4.9-2.78 1.6 1.6 0 0 1-.08-2.81 2.51 2.51 0 0 1 2.86-3.39 2.45 2.45 0 0 1 .47.15 2.11 2.11 0 0 1 3.79.38 1.58 1.58 0 0 1 .66 0 1.6 1.6 0 0 1 1 2.4" fill="#227f06"/><path d="M198 23.81a3.53 3.53 0 0 1 2.46-5.39 2.78 2.78 0 0 1 5.43-.85 4.38 4.38 0 0 1 5.2 6 2.25 2.25 0 0 1-1.2 3.77 3.53 3.53 0 0 1-5.37 3.16 3.41 3.41 0 0 1-.52-.5 3 3 0 0 1-4.84-2.27 2.22 2.22 0 0 1-.87-.31 2.25 2.25 0 0 1-.25-3.66" fill="#1d6d03"/><path d="M311.89 137a4.13 4.13 0 0 1 .62-6.9 3.25 3.25 0 0 1 5.66-3.05 5.13 5.13 0 0 1 8.05 4.57 2.63 2.63 0 0 1 .14 4.62 4.13 4.13 0 0 1-4.69 5.57 4.18 4.18 0 0 1-.78-.25 3.46 3.46 0 0 1-6.22-.62 2.63 2.63 0 0 1-2.77-3.94M297.3 68.48a4.13 4.13 0 0 1 .62-6.9 3.25 3.25 0 0 1 5.66-3.05 5.13 5.13 0 0 1 8.05 4.57 2.63 2.63 0 0 1 .14 4.62A4.13 4.13 0 0 1 306.3 73a3.46 3.46 0 0 1-6.22-.62 2.63 2.63 0 0 1-2.77-3.94" fill="#227f06"/><path d="M307.94 89a3.5 3.5 0 0 1 .53-5.86 2.76 2.76 0 0 1 4.8-2.59 4.35 4.35 0 0 1 6.83 3.88 2.23 2.23 0 0 1 .12 3.92 3.5 3.5 0 0 1-4 4.73 3.39 3.39 0 0 1-.66-.21 2.94 2.94 0 0 1-5.28-.52 2.23 2.23 0 0 1-2.63-2.65 2.19 2.19 0 0 1 .28-.7M292.72 75.65a3.5 3.5 0 0 1 .53-5.85 2.76 2.76 0 0 1 4.8-2.59 4.35 4.35 0 0 1 6.83 3.88A2.23 2.23 0 0 1 305 75a3.5 3.5 0 0 1-4 4.73 3.55 3.55 0 0 1-.66-.21 2.94 2.94 0 0 1-5.28-.53 2.19 2.19 0 0 1-.92 0 2.23 2.23 0 0 1-1.71-2.64 2.26 2.26 0 0 1 .28-.7" fill="#1d6d03"/><path d="M294.7 88.16a4.54 4.54 0 0 0-1.21 7.53 3.58 3.58 0 0 0 5.21 4.79 5.64 5.64 0 0 0 9.83-2.69 2.89 2.89 0 0 0 1.4-4.89 4.54 4.54 0 0 0-3.49-7.22 4.48 4.48 0 0 0-.9.05 3.81 3.81 0 0 0-6.81-1 2.89 2.89 0 0 0-4.16 2.48 2.92 2.92 0 0 0 .13 1M325.38 122.75a3.53 3.53 0 0 1-2.68 5.25 2.75 2.75 0 0 1-.47 1.44 2.78 2.78 0 0 1-5-.81 4.38 4.38 0 0 1-4.95-6.18 2.25 2.25 0 0 1 1.35-3.72 3.53 3.53 0 0 1 5.49-2.94 3.62 3.62 0 0 1 .54.44 3 3 0 0 1 4.75 2.46 2.25 2.25 0 0 1 1.48 3.46 2.28 2.28 0 0 1-.52.55" fill="#1d6d03"/><path d="M313.44 108.8a4.13 4.13 0 0 0 5.71-3.92 3.25 3.25 0 0 0-.11-6.43 5.13 5.13 0 0 0-7.93-4.78 2.63 2.63 0 0 0-4.1 2.15 4.13 4.13 0 0 0-2.56 6.82 4.18 4.18 0 0 0 .6.56 3.46 3.46 0 0 0 3.59 5.12 2.63 2.63 0 0 0 4.8.48M296.18 116.1a4.13 4.13 0 0 1 6.89-.77 3.25 3.25 0 0 1 4.12 4.93 5.13 5.13 0 0 1-2.87 8.8 2.63 2.63 0 0 1-4.5 1.06 4.13 4.13 0 0 1-6.4-3.48 4.18 4.18 0 0 1 .09-.81 3.46 3.46 0 0 1-.64-6.22 2.63 2.63 0 0 1 3.31-3.51" fill="#227f06"/><path d="M345.84 168.51a3.53 3.53 0 0 0-5.89-.66 2.78 2.78 0 0 0-3.52 4.22 4.38 4.38 0 0 0 2.45 7.52 2.25 2.25 0 0 0 3.85.91 3.53 3.53 0 0 0 5.47-3 3.39 3.39 0 0 0-.07-.7 3 3 0 0 0 .55-5.32 2.25 2.25 0 0 0-2.83-3" fill="#1d6d03"/><path d="M342.53 150.57a4.13 4.13 0 0 0-1.67-6.73 3.25 3.25 0 0 0-6.06-2.15 5.13 5.13 0 0 0-7.26 5.74 2.63 2.63 0 0 0 .57 4.59 4.13 4.13 0 0 0 5.49 4.79 4.15 4.15 0 0 0 .73-.36 3.46 3.46 0 0 0 6.06-1.56 2.63 2.63 0 0 0 2.59-3.56 2.66 2.66 0 0 0-.45-.76M350 99.07a4.13 4.13 0 0 0-1.67-6.73 3.25 3.25 0 0 0-6.06-2.15 5.13 5.13 0 0 0-7.27 5.75 2.63 2.63 0 0 0 .57 4.59 4.13 4.13 0 0 0 5.49 4.79 4.19 4.19 0 0 0 .73-.36 3.46 3.46 0 0 0 6.06-1.56 2.63 2.63 0 0 0 2.15-4.33" fill="#227f06"/><path d="M346.41 137.34a3.5 3.5 0 0 0-1.41-5.71 2.76 2.76 0 0 0-5.14-1.83 4.35 4.35 0 0 0-6.16 4.87 2.23 2.23 0 0 0 .48 3.89 3.5 3.5 0 0 0 4.65 4.07 3.58 3.58 0 0 0 .62-.31 2.94 2.94 0 0 0 5.14-1.32 2.23 2.23 0 0 0 2.2-3 2.24 2.24 0 0 0-.38-.65" fill="#227f06"/><path d="M340.48 90.47a3.5 3.5 0 0 0-1.41-5.71 2.76 2.76 0 0 0-5.14-1.83 4.35 4.35 0 0 0-6.16 4.87 2.23 2.23 0 0 0 .48 3.89 3.5 3.5 0 0 0 4.65 4.07 3.41 3.41 0 0 0 .62-.31 2.94 2.94 0 0 0 5.14-1.32 2.23 2.23 0 0 0 1.82-3.66M351.62 146.16a3.5 3.5 0 0 0-1.41-5.71 2.76 2.76 0 0 0-5.14-1.83 4.35 4.35 0 0 0-6.16 4.87 2.23 2.23 0 0 0 .48 3.89 3.5 3.5 0 0 0 4.65 4.07 3.43 3.43 0 0 0 .62-.31 2.94 2.94 0 0 0 5.14-1.32 2.23 2.23 0 0 0 1.82-3.66M340.34 104.35a3.5 3.5 0 0 0-5.87.24 2.76 2.76 0 0 0-2.82 4.67 4.35 4.35 0 0 0 3.54 7 2.23 2.23 0 0 0 3.91.31 3.5 3.5 0 0 0 4.73-4.42 2.94 2.94 0 0 0-.27-5.3 2.2 2.2 0 0 0 0-.92 2.23 2.23 0 0 0-3.27-1.59" fill="#1d6d03"/><path d="M252.68 45.47a4.13 4.13 0 0 1-3.12-6.19 3.25 3.25 0 0 1 3.19-5.58 5.13 5.13 0 0 1 9.25-.38 2.63 2.63 0 0 1 2.56 3.85 4.13 4.13 0 0 1-1 7.21 4.18 4.18 0 0 1-.79.2 3.46 3.46 0 0 1-5.61 2.77 2.63 2.63 0 0 1-4.44-1.88" fill="#227f06"/><path d="M254.3 32.74a3.5 3.5 0 0 1-2.65-5.25 2.76 2.76 0 0 1 2.7-4.74 4.35 4.35 0 0 1 7.85-.32 2.23 2.23 0 0 1 2.17 3.27 3.5 3.5 0 0 1-.88 6.12 3.55 3.55 0 0 1-.67.17 2.93 2.93 0 0 1-4.76 2.35 2.19 2.19 0 0 1-.78.48 2.23 2.23 0 0 1-3-2.08M349.92 122.76a2.18 2.18 0 0 1-1.65-3.27 1.72 1.72 0 0 1 1.68-2.95 2.71 2.71 0 0 1 4.88-.2 1.39 1.39 0 0 1 1.35 2 2.18 2.18 0 0 1-.55 3.81 2.23 2.23 0 0 1-.42.11 1.83 1.83 0 0 1-3 1.46 1.39 1.39 0 0 1-2.34-1" fill="#1d6d03"/><path d="M278.08 43.74a3.5 3.5 0 0 1 4.61-3.65 2.76 2.76 0 0 1 5.18 1.7 4.35 4.35 0 0 1 1.88 7.62A2.23 2.23 0 0 1 287 52.2a3.5 3.5 0 0 1-6.47-.26 2.94 2.94 0 0 1-3.25-4.19 2.23 2.23 0 0 1 .11-3.73 2.23 2.23 0 0 1 .7-.28" fill="#288b0c"/><path d="M279.47 55.55a3.5 3.5 0 0 1 4.61-3.65 2.76 2.76 0 0 1 5.18 1.7 4.35 4.35 0 0 1 1.88 7.62 2.23 2.23 0 0 1-2.76 2.78 3.5 3.5 0 0 1-6.17.36 3.44 3.44 0 0 1-.3-.62 2.94 2.94 0 0 1-3.25-4.19 2.23 2.23 0 0 1 .81-4M362.8 142.36a4.54 4.54 0 0 1 7.59-.79 3.58 3.58 0 0 1 4.49 5.47 5.64 5.64 0 0 1-3.24 9.66 2.89 2.89 0 0 1-5 1.12 4.54 4.54 0 0 1-6.91-4.79 3.81 3.81 0 0 1-.64-6.85 2.89 2.89 0 0 1 3.68-3.83" fill="#1d6d03"/><path d="M382.15 256.47a3.5 3.5 0 0 1-3.72-4.55 2.76 2.76 0 0 1 1.61-5.21 4.35 4.35 0 0 1 7.59-2 2.23 2.23 0 0 1 2.83 2.72 3.5 3.5 0 0 1-.15 6.47 2.94 2.94 0 0 1-4.14 3.32 2.23 2.23 0 0 1-4-.74M365.3 226a2.51 2.51 0 0 1 1.31-4 2 2 0 0 1 3.77-1 3.12 3.12 0 0 1 4.16 3.81 1.6 1.6 0 0 1-.55 2.76 2.52 2.52 0 0 1-4 2.42 2.11 2.11 0 0 1-3.61-1.21 1.6 1.6 0 0 1-1.08-2.78" fill="#227f06"/><path d="M381.8 239.4a2.87 2.87 0 0 1 2.17-4.3 2.26 2.26 0 0 1 4.44-.52 3.56 3.56 0 0 1 4 5 1.83 1.83 0 0 1-1.1 3 2.87 2.87 0 0 1-4.46 2.4 2.92 2.92 0 0 1-.44-.36 2.41 2.41 0 0 1-3.86-2 1.83 1.83 0 0 1-1.21-2.81 1.86 1.86 0 0 1 .42-.45" fill="#1d6d03"/><path d="M370.48 168.65a4.13 4.13 0 0 1-4.69-5.1 3.25 3.25 0 0 1 1.55-6.24 5.13 5.13 0 0 1 8.8-2.89 2.63 2.63 0 0 1 3.51 3 4.13 4.13 0 0 1 .26 7.63 3.46 3.46 0 0 1-4.64 4.19 2.63 2.63 0 0 1-4.79-.6M379 180.56a4.13 4.13 0 0 1 1.67 6.73 3.25 3.25 0 0 1-4.35 4.73 5.13 5.13 0 0 1-9.1-1.69 2.63 2.63 0 0 1-1.64-4.33 4.13 4.13 0 0 1 3.44-6.82 3.46 3.46 0 0 1 6.08-1.44 2.63 2.63 0 0 1 3.91 2.82" fill="#227f06"/><path d="M374.54 192.61a3.5 3.5 0 0 1 1.41 5.71 2.76 2.76 0 0 1-3.69 4 4.35 4.35 0 0 1-7.72-1.44 2.23 2.23 0 0 1-1.39-3.67 3.5 3.5 0 0 1 2.22-5.77 3.64 3.64 0 0 1 .69 0 2.94 2.94 0 0 1 5.16-1.22 2.19 2.19 0 0 1 .87-.3 2.23 2.23 0 0 1 2.48 1.94 2.2 2.2 0 0 1 0 .75" fill="#1d6d03"/><path d="M353.81 176.58a3.5 3.5 0 0 1-5.31 2.52 2.76 2.76 0 0 1-4.67-2.82 4.35 4.35 0 0 1-.13-7.85 2.23 2.23 0 0 1 3.32-2.1 3.5 3.5 0 0 1 6.09 1 3.52 3.52 0 0 1 .16.68 2.94 2.94 0 0 1 2.23 4.81 2.23 2.23 0 0 1-1.69 3.73" fill="#288b0c"/><path d="M392.61 210.62a4.13 4.13 0 0 1-.62 6.9 3.25 3.25 0 0 1-5.66 3.05 5.13 5.13 0 0 1-8.05-4.57 2.63 2.63 0 0 1-.14-4.62 4.13 4.13 0 0 1 5.47-5.33 3.46 3.46 0 0 1 6.22.62 2.6 2.6 0 0 1 1.08 0 2.63 2.63 0 0 1 1.69 3.94" fill="#227f06"/><path d="M397.19 203.45a3.5 3.5 0 0 1-.53 5.85 2.76 2.76 0 0 1-4.8 2.59A4.35 4.35 0 0 1 385 208a2.23 2.23 0 0 1-.12-3.92 3.5 3.5 0 0 1 4-4.73 3.54 3.54 0 0 1 .66.21 2.94 2.94 0 0 1 5.28.53 2.23 2.23 0 0 1 2.63 2.65 2.19 2.19 0 0 1-.28.7M408.51 464.72A3.16 3.16 0 0 1 408 470a2.49 2.49 0 0 1-4.34 2.34 3.93 3.93 0 0 1-6.18-3.5 2 2 0 0 1-.11-3.55A3.17 3.17 0 0 1 401 461a3.22 3.22 0 0 1 .6.19 2.65 2.65 0 0 1 4.77.48 2 2 0 0 1 2.13 3" fill="#1d6d03"/><path d="M386.27 269.39a4.13 4.13 0 0 1 3.94-5.7 3.25 3.25 0 0 1 6.43.14 5.13 5.13 0 0 1 4.75 7.95 2.63 2.63 0 0 1-2.16 4.09 4.13 4.13 0 0 1-6.83 2.53 4.2 4.2 0 0 1-.56-.6 3.46 3.46 0 0 1-5.11-3.61 2.63 2.63 0 0 1-.47-4.8" fill="#227f06"/><path d="M398.23 264.73a3.5 3.5 0 0 1 3.35-4.83 2.76 2.76 0 0 1 5.42.1 4.35 4.35 0 0 1 4 6.74 2.23 2.23 0 0 1-1.83 3.47 3.5 3.5 0 0 1-5.79 2.15 3.56 3.56 0 0 1-.47-.51 2.93 2.93 0 0 1-4.33-3.06 2.2 2.2 0 0 1-.8-.46 2.23 2.23 0 0 1 .4-3.62M396.49 238.23a3.5 3.5 0 0 1 3.35-4.83 2.76 2.76 0 0 1 5.45.12 4.35 4.35 0 0 1 4 6.74 2.23 2.23 0 0 1-1.83 3.47 3.5 3.5 0 0 1-5.79 2.15 3.56 3.56 0 0 1-.47-.51 2.94 2.94 0 0 1-4.33-3.06 2.2 2.2 0 0 1-.8-.46 2.23 2.23 0 0 1 .4-3.62M396.85 304a2.37 2.37 0 0 1 3.66 1.57 1.87 1.87 0 0 1 .66 3.64 2.95 2.95 0 0 1-3.93 3.59 1.51 1.51 0 0 1-2.55-.75 2.37 2.37 0 0 1-1.94-3.94 2 2 0 0 1 1.44-3.29 1.51 1.51 0 0 1 2.65-.81" fill="#1d6d03"/><path d="M398.32 299.84a4.13 4.13 0 0 1 3.94-5.7 3.25 3.25 0 0 1 6.43.14 5.13 5.13 0 0 1 4.75 7.95 2.63 2.63 0 0 1-2.16 4.09 4.13 4.13 0 0 1-6.83 2.53 4.19 4.19 0 0 1-.56-.6 3.46 3.46 0 0 1-5.11-3.61 2.63 2.63 0 0 1-.47-4.8" fill="#227f06"/><path d="M400 328.24a3.53 3.53 0 0 1 2.68-5.29 2.78 2.78 0 0 1 5.46-.63 4.38 4.38 0 0 1 4.95 6.18 2.25 2.25 0 0 1-1.35 3.72 3.53 3.53 0 0 1-5.49 2.94 3.48 3.48 0 0 1-.54-.44 3 3 0 0 1-4.75-2.46 2.25 2.25 0 0 1-1-4" fill="#1d6d03"/><path d="M409.78 371.59a2.89 2.89 0 0 0-4 2.75 2.28 2.28 0 0 0 .08 4.51 3.59 3.59 0 0 0 5.56 3.35 1.84 1.84 0 0 0 2.87-1.5 2.89 2.89 0 0 0 1.79-4.78 3 3 0 0 0-.42-.39 2.43 2.43 0 0 0-2.52-3.59 1.82 1.82 0 0 0-.37-.66 1.84 1.84 0 0 0-3 .32M415.13 356.68a3.5 3.5 0 0 1-3.72-4.55 2.76 2.76 0 0 1 1.61-5.21 4.35 4.35 0 0 1 7.59-2 2.23 2.23 0 0 1 2.83 2.72 3.5 3.5 0 0 1-.15 6.47 2.94 2.94 0 0 1-4.14 3.32 2.23 2.23 0 0 1-4-.74" fill="#227f06"/><path d="M414.78 339.61a2.87 2.87 0 0 1 2.17-4.3 2.26 2.26 0 0 1 4.44-.52 3.57 3.57 0 0 1 4 5 1.83 1.83 0 0 1-1.1 3 2.87 2.87 0 0 1-4.9 2 2.41 2.41 0 0 1-3.86-2 1.83 1.83 0 0 1-1.21-2.81 1.81 1.81 0 0 1 .42-.45" fill="#1d6d03"/></g><g id="trees"><path d="M35.57 279.26a4.56 4.56 0 0 1 1.52 7.5 3.59 3.59 0 0 1-5 5 5.66 5.66 0 0 1-10-2.29 2.9 2.9 0 0 1-1.61-4.85 4.56 4.56 0 0 1 4.1-7.36 3.82 3.82 0 0 1 6.81-1.26 2.9 2.9 0 0 1 4.18 3.3z" fill="#1d6d03"/><path d="M29 290.36a3.51 3.51 0 0 1 5.76 1.27 2.77 2.77 0 0 1 2 5.11A4.36 4.36 0 0 1 32 303a2.23 2.23 0 0 1-3.91-.38 3.51 3.51 0 0 1-3.9-5.2 2.95 2.95 0 0 1 1.2-5.19 2.23 2.23 0 0 1 3.61-1.87zM45.82 278.22a2.52 2.52 0 0 1 4.13.91 2 2 0 0 1 1.41 3.67 3.13 3.13 0 0 1-3.36 4.52 1.6 1.6 0 0 1-2.81-.28 2.52 2.52 0 0 1-2.8-3.73 2.11 2.11 0 0 1 .86-3.72 1.6 1.6 0 0 1 2.6-1.37z" fill="#227f06"/><path d="M39.89 303.59a2.88 2.88 0 0 1 1 4.74 2.27 2.27 0 0 1-3.17 3.17 3.57 3.57 0 0 1-6.33-1.5 1.83 1.83 0 0 1-1-3.06 2.88 2.88 0 0 1 2.61-4.61 2.41 2.41 0 0 1 4.28-.83 1.83 1.83 0 0 1 2.64 2.08zM54.21 294.43a3.54 3.54 0 0 1-2.47 5.41 2.79 2.79 0 0 1-5.44.86 4.4 4.4 0 0 1-5.21-6 2.25 2.25 0 0 1 1.2-3.78 3.54 3.54 0 0 1 5.94-2.75 3 3 0 0 1 4.85 2.27 2.25 2.25 0 0 1 1.12 4zM132.07 234.64a3.3 3.3 0 0 1 1.1 5.42 2.6 2.6 0 0 1-3.63 3.63 4.09 4.09 0 0 1-7.2-1.66 2.1 2.1 0 0 1-1.16-3.51 3.3 3.3 0 0 1 3-5.32 2.76 2.76 0 0 1 4.9-.95 2.1 2.1 0 0 1 3 2.38zM116.62 239a2.59 2.59 0 0 1 .86 4.25 2 2 0 0 1-2.85 2.85 3.21 3.21 0 0 1-5.65-1.3 1.65 1.65 0 0 1-.91-2.75 2.59 2.59 0 0 1 2.33-4.18 2.17 2.17 0 0 1 3.84-.74 1.65 1.65 0 0 1 2.37 1.87z" fill="#1d6d03"/><path d="M110.52 245.8a2.52 2.52 0 0 1 4.13.91 2 2 0 0 1 1.41 3.67 3.13 3.13 0 0 1-3.39 4.53 1.6 1.6 0 0 1-2.81-.28 2.52 2.52 0 0 1-3-3.28 2.55 2.55 0 0 1 .21-.45 2.12 2.12 0 0 1 .86-3.72 1.61 1.61 0 0 1 2.61-1.37zM376.86 378.38a3.14 3.14 0 0 1 5.14 1.14 2.47 2.47 0 0 1 1.75 4.57 3.9 3.9 0 0 1-4.23 5.63 2 2 0 0 1-3.5-.34 3.14 3.14 0 0 1-3.49-4.64 2.63 2.63 0 0 1 1.07-4.64 2 2 0 0 1 3.24-1.71z" fill="#227f06"/><path d="M379.42 375.58a2.45 2.45 0 0 1-1.71 3.74 1.93 1.93 0 0 1-3.77.59 3 3 0 0 1-3.6-4.15 1.56 1.56 0 0 1 .83-2.62 2.45 2.45 0 0 1 4.11-1.9 2.05 2.05 0 0 1 3.36 1.57 1.56 1.56 0 0 1 .78 2.76zM383.23 397.53a2.45 2.45 0 0 1-1.71 3.74 1.93 1.93 0 0 1-3.77.59 3 3 0 0 1-3.61-4.15 1.56 1.56 0 0 1 .83-2.62 2.45 2.45 0 0 1 4.11-1.9 2.05 2.05 0 0 1 3.36 1.57 1.56 1.56 0 0 1 .78 2.76zM385.62 418.47a2.89 2.89 0 0 1-2 4.41 2.27 2.27 0 0 1-4.44.7 3.59 3.59 0 0 1-4.25-4.89 1.84 1.84 0 0 1 1-3.08 2.89 2.89 0 0 1 4.85-2.24 2.42 2.42 0 0 1 4 1.85 1.82 1.82 0 0 1 .71.25 1.84 1.84 0 0 1 .2 3z" fill="#1d6d03"/><path d="M386.45 427.34a2.09 2.09 0 0 1-1.45 3.19 1.64 1.64 0 0 1-3.21.51 2.59 2.59 0 0 1-3.07-3.53 1.33 1.33 0 0 1 .71-2.23 2.09 2.09 0 0 1 3.5-1.62 1.75 1.75 0 0 1 2.86 1.34 1.33 1.33 0 0 1 .66 2.35z" fill="#227f06"/><path d="M385.68 439.09a2.55 2.55 0 0 1-1.77 3.89 2 2 0 0 1-3.92.62 3.16 3.16 0 0 1-3.75-4.31 1.62 1.62 0 0 1 .87-2.72 2.55 2.55 0 0 1 4.27-2 2.13 2.13 0 0 1 3.49 1.64 1.62 1.62 0 0 1 .81 2.87z" fill="#1d6d03"/><path d="M389.34 451.16a3.24 3.24 0 0 1-2.26 5 2.55 2.55 0 0 1-5 .79 4 4 0 0 1-4.77-5.49 2.06 2.06 0 0 1 1.1-3.46 3.24 3.24 0 0 1 4.93-2.91 3.29 3.29 0 0 1 .51.39 2.72 2.72 0 0 1 4.45 2.08 2.06 2.06 0 0 1 1 3.65zM388.23 479.5a2.55 2.55 0 0 1-1.77 3.89 2 2 0 0 1-3.92.62 3.16 3.16 0 0 1-3.75-4.31 1.62 1.62 0 0 1 .87-2.72 2.55 2.55 0 0 1 4.27-2 2.13 2.13 0 0 1 3.49 1.64 1.62 1.62 0 0 1 .81 2.87zM382.38 488.67a1.74 1.74 0 0 1-1.21 2.65 1.37 1.37 0 0 1-2.67.42 2.16 2.16 0 0 1-2.56-2.94 1.11 1.11 0 0 1 .59-1.85 1.74 1.74 0 0 1 2.91-1.35 1.46 1.46 0 0 1 2.38 1.12 1.11 1.11 0 0 1 .55 2z" fill="#227f06"/><path d="M377.07 490.4a2.66 2.66 0 0 1-1.85 4.07 2.1 2.1 0 0 1-4.09.65 3.31 3.31 0 0 1-3.92-4.51 1.7 1.7 0 0 1 .91-2.84 2.66 2.66 0 0 1 4-2.39 2.7 2.7 0 0 1 .42.32 2.23 2.23 0 0 1 3.65 1.71 1.7 1.7 0 0 1 .84 3zM361.39 497.9a1.74 1.74 0 0 1-1.21 2.65 1.37 1.37 0 0 1-2.67.42A2.16 2.16 0 0 1 355 498a1.11 1.11 0 0 1 .59-1.85 1.74 1.74 0 0 1 2.91-1.35 1.46 1.46 0 0 1 2.38 1.12 1.11 1.11 0 0 1 .8 1.67 1.09 1.09 0 0 1-.25.28z" fill="#1d6d03"/></g></svg>