<svg id="main" xmlns="http://www.w3.org/2000/svg" viewBox="0 0 562.03324 437.07219"><title>plan_2</title><path fill="#67b437" fill-rule="evenodd" class="area" id="id513" d="M356.653 38.2l-5.051-34.992-16.688 1.428 4.393 34.782 17.346-1.218z"/><path fill="#67b437" fill-rule="evenodd" class="area" id="id512" d="M332.4 4.682l-17.491 1.497 4.64 35.174 16.93-1.405L332.4 4.682z"/><path fill="#67b437" fill-rule="evenodd" class="area" id="id511" d="M312.396 6.383l-18.291 1.481 4.65 35.256 18.282-1.554-4.641-35.183z"/><path fill="#67b437" fill-rule="evenodd" class="area" id="id510" d="M291.592 8.068l-16.488 1.335 4.66 35.33 16.48-1.4-4.652-35.265z"/><path fill="#67b437" fill-rule="evenodd" class="area" id="id509" d="M272.591 9.607l-16.792 1.36 4.671 35.406 16.783-1.426-4.662-35.34z"/><path fill="#67b437" fill-rule="evenodd" class="area" id="id508" d="M253.286 11.17l-17.343 1.405 4.681 35.484 17.334-1.473-4.672-35.416z"/><path fill="#67b437" fill-rule="evenodd" class="area" id="id507" d="M233.43 12.778l-16.708 1.354 4.69 35.559 16.701-1.419-4.683-35.494z"/><path fill="#67b437" fill-rule="evenodd" class="area" id="id506" d="M214.209 14.335l-17.084 1.383 4.701 35.637 17.074-1.45-4.691-35.57z"/><path fill="#67b437" fill-rule="evenodd" class="area" id="id505" d="M194.612 15.922l-16.993 1.376 4.712 35.714 16.983-1.443-4.702-35.647z"/><path fill="#67b437" fill-rule="evenodd" class="area" id="id504" d="M175.106 17.502l-16.52 1.338 4.721 35.788 16.512-1.403-4.713-35.723z"/><path fill="#67b437" fill-rule="evenodd" class="area" id="id503" d="M156.073 19.043l-17.187 1.392 4.732 35.866 17.177-1.459-4.722-35.799z"/><path fill="#67b437" fill-rule="evenodd" class="area" id="id502" d="M136.374 20.639l-16.701 1.352 4.741 35.942 16.692-1.418-4.732-35.876z"/><path fill="#67b437" fill-rule="evenodd" class="area" id="id501" d="M117.16 22.195l-17.375 1.407 4.752 36.02 17.366-1.476-4.743-35.951z"/><path fill="#67b437" fill-rule="evenodd" class="area" id="id500" d="M97.272 23.805l-9.006.73-13.262 11.69 4.105 20.538 7.973-.316 1.105 4.265 13.838-.877-4.753-36.03z"/><path fill="#67b437" fill-rule="evenodd" class="area" id="id514" d="M82.977 75.799l7.973-.632-1.224-4.423 11.231-.715 6.607 32.714-18.672 1.458-5.915-28.402z"/><path fill="#67b437" fill-rule="evenodd" class="area" id="id515" d="M103.484 69.835l17.048-1.31 6.269 32.717-16.711 1.304-6.606-32.711z"/><path fill="#67b437" fill-rule="evenodd" class="area" id="id516" d="M123.062 68.33l16.742-1.286 6.002 32.714-16.475 1.286-6.269-32.714z"/><path fill="#67b437" fill-rule="evenodd" class="area" id="id517" d="M142.328 66.849l16.846-1.294 5.632 32.72-16.476 1.286-6.002-32.712z"/><path fill="#67b437" fill-rule="evenodd" class="area" id="id518" d="M161.7 65.361l17.077-1.313 5.352 32.718-16.797 1.311-5.632-32.716z"/><path fill="#67b437" fill-rule="evenodd" class="area" id="id519" d="M181.298 63.854l16.367-1.257 5.407 32.69-16.422 1.282-5.352-32.715z"/><path fill="#67b437" fill-rule="evenodd" class="area" id="id520" d="M200.186 62.403l16.848-1.295 5.303 32.675-16.744 1.307-5.407-32.687z"/><path fill="#67b437" fill-rule="evenodd" class="area" id="id521" d="M219.555 60.914l16.035-1.232 5.297 32.653-16.029 1.251-5.303-32.672z"/><path fill="#67b437" fill-rule="evenodd" class="area" id="id522" d="M238.111 59.488l17.279-1.328 4.835 32.665-16.817 1.313-5.297-32.65z"/><path fill="#67b437" fill-rule="evenodd" class="area" id="id523" d="M257.912 57.966l17.298-1.329 4.598 32.659-17.061 1.332-4.835-32.662z"/><path fill="#67b437" fill-rule="evenodd" class="area" id="id524" d="M277.729 56.443l17.217-1.323 4.482 32.645-17.102 1.335-4.597-32.657z"/><path fill="#67b437" fill-rule="evenodd" class="area" id="id525" d="M297.463 54.927l17.153-1.319 4.032 32.656-16.703 1.305-4.482-32.642z"/><path fill="#67b437" fill-rule="evenodd" class="area" id="id526" d="M317.136 53.414l17.342-1.332 3.748 32.654-17.058 1.332-4.032-32.654z"/><path fill="#67b437" fill-rule="evenodd" class="area" id="id527" d="M336.995 51.888l17.082-1.312 3.743 32.63-17.078 1.333-3.747-32.651z"/><path fill="#67b437" fill-rule="evenodd" class="area" id="id528" d="M356.594 50.382l42.37-3.256-37.266 35.838-.004-.06-1.358.106-3.742-32.628z"/><path fill="#67b437" fill-rule="evenodd" class="area" id="id541" d="M358.18 86.347l-33.053 31.786-3.649-29.557 36.63-2.86.072.631z"/><path fill="#67b437" fill-rule="evenodd" class="area" id="id540" d="M322.733 119.339l-16.255 1.252-4.19-30.517 16.67-1.301 3.775 30.566z"/><path fill="#67b437" fill-rule="evenodd" class="area" id="id539" d="M303.962 120.784l-16.991 1.309-4.292-30.488 17.094-1.335 4.189 30.514z"/><path fill="#67b437" fill-rule="evenodd" class="area" id="id538" d="M284.453 122.287l-16.828 1.296-4.508-30.451 17.044-1.331 4.292 30.486z"/><path fill="#67b437" fill-rule="evenodd" class="area" id="id537" d="M265.103 123.777l-16.358 1.259-4.932-30.397 16.783-1.31 4.507 30.448z"/><path fill="#67b437" fill-rule="evenodd" class="area" id="id536" d="M246.224 125.23l-16.03 1.235-4.93-30.378 16.029-1.251 4.931 30.394z"/><path fill="#67b437" fill-rule="evenodd" class="area" id="id535" d="M227.673 126.659l-16.645 1.282-5.021-30.35 16.736-1.307 4.93 30.375z"/><path fill="#67b437" fill-rule="evenodd" class="area" id="id534" d="M208.506 128.135l-16.484 1.269-4.963-30.334 16.427-1.283 5.02 30.348z"/><path fill="#67b437" fill-rule="evenodd" class="area" id="id533" d="M189.501 129.598l-16.524 1.272-5.215-30.294 16.776-1.309 4.963 30.331z"/><path fill="#67b437" fill-rule="evenodd" class="area" id="id532" d="M170.451 131.065l-16.114 1.241-5.549-30.248 16.449-1.285 5.214 30.292z"/><path fill="#67b437" fill-rule="evenodd" class="area" id="id531" d="M151.813 132.5l-16.215 1.249-5.789-30.21 16.455-1.284 5.549 30.245z"/><path fill="#67b437" fill-rule="evenodd" class="area" id="id530" d="M133.068 133.943l-16.383 1.262-6.092-30.166 16.686-1.302 5.789 30.206z"/><path fill="#67b437" fill-rule="evenodd" class="area" id="id529" d="M114.158 135.399l-9.474.669-.71-3.08-8.446.552-6.073-26.85 18.612-1.453 6.091 30.162z"/><path fill="#67b437" fill-rule="evenodd" class="area" id="id551" d="M110.528 206.527l8.209.079.868 3.396 9.562-.276-6.091-30.162-17.666 1.209 5.118 25.754z"/><path fill="#67b437" fill-rule="evenodd" class="area" id="id552" d="M131.695 209.533l15.629-1.193-5.757-30.042-15.959 1.092 6.087 30.143z"/><path fill="#67b437" fill-rule="evenodd" class="area" id="id553" d="M149.855 208.147l15.618-1.193-5.489-29.916-15.882 1.087 5.753 30.022z"/><path fill="#67b437" fill-rule="evenodd" class="area" id="id554" d="M167.997 206.762l15.284-1.167-5.13-29.801-15.639 1.071 5.485 29.897z"/><path fill="#67b437" fill-rule="evenodd" class="area" id="id555" d="M185.808 205.403l15.895-1.214-4.854-29.674-16.168 1.106 5.127 29.782z"/><path fill="#67b437" fill-rule="evenodd" class="area" id="id556" d="M204.225 203.996l16.62-1.268-4.883-29.521-16.589 1.135 4.852 29.654z"/><path fill="#67b437" fill-rule="evenodd" class="area" id="id557" d="M223.367 202.535l4.856-.59 36.524-32.055-46.26 3.144 4.88 29.501z"/><path fill="#67b437" fill-rule="evenodd" class="area" id="id550" d="M267.612 167.143l39.628-34.235-56.564 4.029 5.032 31.02 11.904-.814z"/><path fill="#67b437" fill-rule="evenodd" class="area" id="id549" d="M248.152 137.117l-16.043 1.142 5.026 30.969 16.049-1.098-5.032-31.013z"/><path fill="#67b437" fill-rule="evenodd" class="area" id="id548" d="M229.585 138.439l-16.625 1.184 5.113 30.91 16.538-1.132-5.026-30.962z"/><path fill="#67b437" fill-rule="evenodd" class="area" id="id547" d="M210.436 139.802l-16.52 1.177 5.048 30.862 16.584-1.135-5.112-30.904z"/><path fill="#67b437" fill-rule="evenodd" class="area" id="id546" d="M191.392 141.159l-16.442 1.171 5.301 30.792 16.189-1.109-5.048-30.854z"/><path fill="#67b437" fill-rule="evenodd" class="area" id="id545" d="M172.421 142.51l-16.003 1.14 5.636 30.717 15.667-1.072-5.3-30.785z"/><path fill="#67b437" fill-rule="evenodd" class="area" id="id544" d="M153.892 143.829l-16.142 1.15 5.873 30.649 15.903-1.088-5.634-30.711z"/><path fill="#67b437" fill-rule="evenodd" class="area" id="id543" d="M135.217 145.16l-16.287 1.16 6.174 30.576 15.985-1.094-5.872-30.642z"/><path fill="#67b437" fill-rule="evenodd" class="area" id="id542" d="M116.399 146.5l-10.055.784.631 3.634-7.341.789 5.28 26.57 17.659-1.208-6.174-30.569z"/><path fill="#67b437" fill-rule="evenodd" class="area" id="id558" d="M114.474 224.218l7.815-.553-.79-2.922 11.015-.962 5.25 26.806L120 250.443l-5.526-26.225z"/><path fill="#67b437" fill-rule="evenodd" class="area" id="id559" d="M135.057 219.634l19.424-1.126 4.536 23.159-18.793 4.35-5.167-26.383z"/><path fill="#67b437" fill-rule="evenodd" class="area" id="id560" d="M157.024 218.36l19.125-1.108 6.374 32.545-17.055-9.623-3.991.924-4.453-22.738z"/><path fill="#67b437" fill-rule="evenodd" class="area" id="id561" d="M178.691 217.105l38.086-2.208-25.97 39.574-5.393-3.042-6.723-34.324z"/><path fill="#67b437" fill-rule="evenodd" class="area" id="id565" d="M413.723 49.891l30.986 11.175L467.7 32.307l-22.718 4.946-19.734 1.895-11.525 10.743z"/><path fill="#67b437" fill-rule="evenodd" class="area" id="id566" d="M447.158 62.028l20.567 8.075 16.655-30.17-13.986-6.969-23.236 29.064z"/><path fill="#67b437" fill-rule="evenodd" class="area" id="id567" d="M470.092 71.033l17.272 6.782 15.252-28.795-15.977-7.961-16.547 29.974z"/><path fill="#67b437" fill-rule="evenodd" class="area" id="id568" d="M489.726 78.743l21.245 8.342 11.69-28.076-17.788-8.864-15.147 28.598z"/><path fill="#67b437" fill-rule="evenodd" class="area" id="id569" d="M513.318 88.006l27.652 10.858.466-30.499-16.513-8.229-11.605 27.87z"/><path fill="#67b437" fill-rule="evenodd" class="area" id="id564" d="M541.479 65.564l.415-27.185-10.616-7.908-24.434 17.835 34.635 17.258z"/><path fill="#67b437" fill-rule="evenodd" class="area" id="id562" d="M541.941 35.273l.293-19.19-20.161 4.389 19.868 14.801z"/><path fill="#67b437" fill-rule="evenodd" class="area" id="id563" d="M518.809 21.182l-46.21 10.059 31.71 15.801 24.858-18.144-10.358-7.716z"/><path fill="#67b437" fill-rule="evenodd" class="area" id="id570" d="M403.935 60.002l11.884 4.418-14.967 26.342-20.758-7.756 23.841-23.004z"/><path fill="#67b437" fill-rule="evenodd" class="area" id="id571" d="M418.21 65.309l13.175 4.899-10.663 27.978-17.48-6.531 14.968-26.346z"/><path fill="#67b437" fill-rule="evenodd" class="area" id="id572" d="M433.751 71.087l16.486 6.13-10.676 28.008-16.475-6.156 10.665-27.982z"/><path fill="#67b437" fill-rule="evenodd" class="area" id="id573" d="M452.603 78.097l16.485 6.129-10.687 28.038-16.475-6.155 10.677-28.012z"/><path fill="#67b437" fill-rule="evenodd" class="area" id="id574" d="M471.454 85.105l16.486 6.13-10.698 28.069-16.476-6.156 10.688-28.043z"/><path fill="#67b437" fill-rule="evenodd" class="area" id="id575" d="M490.305 92.115l16.486 6.129-10.71 28.098-16.475-6.155 10.699-28.072z"/><path fill="#67b437" fill-rule="evenodd" class="area" id="id576" d="M509.156 99.124l13.289 4.94-6.589 29.667-17.411-6.505 10.711-28.102z"/><path fill="#67b437" fill-rule="evenodd" class="area" id="id577" d="M524.826 104.949l16.776 6.238-.777 31.873-22.589-8.439 6.59-29.672z"/><path fill="#67b437" fill-rule="evenodd" class="area" id="id585" d="M540.76 145.725l-.736 30.234-29.934-10.251 7.555-28.62 23.115 8.637z"/><path fill="#67b437" fill-rule="evenodd" class="area" id="id584" d="M507.699 164.889l-20.883-7.152 10.733-28.158 17.723 6.622-7.573 28.688z"/><path fill="#67b437" fill-rule="evenodd" class="area" id="id583" d="M484.427 156.919l-16.648-5.702 10.93-28.677 16.475 6.156-10.757 28.223z"/><path fill="#67b437" fill-rule="evenodd" class="area" id="id582" d="M465.389 150.399l-16.648-5.702 11.128-29.196 16.475 6.156-10.955 28.742z"/><path fill="#67b437" fill-rule="evenodd" class="area" id="id581" d="M446.351 143.879l-16.648-5.701 11.326-29.716 16.475 6.156-11.153 29.261z"/><path fill="#67b437" fill-rule="evenodd" class="area" id="id580" d="M427.314 137.359l-16.649-5.701 11.524-30.235 16.476 6.156-11.351 29.78z"/><path fill="#67b437" fill-rule="evenodd" class="area" id="id579" d="M408.276 130.84l-22.851-7.826 16.557-29.141 17.843 6.666-11.549 30.301z"/><path fill="#67b437" fill-rule="evenodd" class="area" id="id578" d="M383 122.184l-32.111-10.997 27.197-26.242 21.506 8.035L383 122.184z"/><path fill="#67b437" fill-rule="evenodd" class="area" id="id586" d="M340.627 119.875l16.248 5.787-18.172 27.697-25.557-8.814 27.481-24.67z"/><path fill="#67b437" fill-rule="evenodd" class="area" id="id587" d="M359.338 126.493l13.96 4.709-10.322 30.433-21.815-7.438 18.177-27.704z"/><path fill="#67b437" fill-rule="evenodd" class="area" id="id588" d="M375.687 132.008l19.373 6.535-10.345 30.504-19.352-6.598 10.324-30.441z"/><path fill="#67b437" fill-rule="evenodd" class="area" id="id589" d="M397.45 139.348l19.373 6.535-10.369 30.576-19.352-6.598 10.348-30.513z"/><path fill="#67b437" fill-rule="evenodd" class="area" id="id590" d="M419.213 146.689l19.373 6.535-10.394 30.647-19.352-6.598 10.373-30.584z"/><path fill="#67b437" fill-rule="evenodd" class="area" id="id591" d="M440.975 154.03l19.374 6.534-10.418 30.719-19.352-6.598 10.396-30.655z"/><path fill="#67b437" fill-rule="evenodd" class="area" id="id592" d="M462.738 161.37l19.374 6.535-10.442 30.79-19.352-6.598 10.42-30.727z"/><path fill="#67b437" fill-rule="evenodd" class="area" id="id593" d="M484.501 168.711l19.373 6.535-10.466 30.861-19.352-6.598 10.445-30.798z"/><path fill="#67b437" fill-rule="evenodd" class="area" id="id594" d="M506.264 176.052l13.528 4.563-4.807 32.849-19.19-6.544 10.469-30.868z"/><path fill="#67b437" fill-rule="evenodd" class="area" id="id595" d="M522.223 181.434l17.485 5.898-1.381 34.09-20.913-7.13 4.809-32.858z"/><path fill="#67b437" fill-rule="evenodd" class="area" id="id605" d="M538.22 224.051l-1.354 33.424-24.54-8.419 4.716-32.226 21.178 7.221z"/><path fill="#67b437" fill-rule="evenodd" class="area" id="id604" d="M509.898 248.223l-25.181-8.639 10.267-30.274 19.629 6.692-4.715 32.221z"/><path fill="#67b437" fill-rule="evenodd" class="area" id="id603" d="M482.332 238.765l-19.339-6.635 10.253-30.232 19.352 6.598-10.266 30.269z"/><path fill="#67b437" fill-rule="evenodd" class="area" id="id602" d="M460.608 231.312l-19.34-6.635 10.239-30.191 19.353 6.598-10.252 30.228z"/><path fill="#67b437" fill-rule="evenodd" class="area" id="id601" d="M438.883 223.859l-19.339-6.635 10.225-30.15 19.351 6.598-10.237 30.187z"/><path fill="#67b437" fill-rule="evenodd" class="area" id="id600" d="M417.159 216.406l-19.34-6.636 10.211-30.108 19.352 6.598-10.223 30.146z"/><path fill="#67b437" fill-rule="evenodd" class="area" id="id599" d="M395.434 208.952l-19.34-6.635 10.197-30.067 19.353 6.598-10.21 30.104z"/><path fill="#67b437" fill-rule="evenodd" class="area" id="id598" d="M373.709 201.499l-19.339-6.636 10.183-30.025 19.352 6.598-10.196 30.063z"/><path fill="#67b437" fill-rule="evenodd" class="area" id="id597" d="M351.985 194.045l-27.086-9.292 14.886-28.36 22.381 7.631-10.181 30.021z"/><path fill="#67b437" fill-rule="evenodd" class="area" id="id596" d="M322.486 183.925l-39.01-13.654 27.211-23.214 26.682 8.513-14.883 28.355z"/><path fill="#67b437" fill-rule="evenodd" class="area" id="id606" d="M272.899 179.117l21.31 7.262-8.488 25.484-34.873-11.844 22.051-20.902z"/><path fill="#67b437" fill-rule="evenodd" class="area" id="id607" d="M296.59 187.19l16.374 5.579-8.483 25.466-16.379-5.563 8.488-25.482z"/><path fill="#67b437" fill-rule="evenodd" class="area" id="id608" d="M315.345 193.581l16.374 5.579-8.476 25.447-16.38-5.563 8.482-25.463z"/><path fill="#67b437" fill-rule="evenodd" class="area" id="id609" d="M334.1 199.971l16.374 5.58-8.47 25.427-16.38-5.562 8.476-25.445z"/><path fill="#67b437" fill-rule="evenodd" class="area" id="id610" d="M352.854 206.362l16.374 5.58-8.464 25.408-16.379-5.563 8.469-25.425z"/><path fill="#67b437" fill-rule="evenodd" class="area" id="id611" d="M371.609 212.753l16.373 5.579-8.457 25.39-16.379-5.563 8.463-25.406z"/><path fill="#67b437" fill-rule="evenodd" class="area" id="id612" d="M390.363 219.144l16.374 5.579-8.451 25.37-16.379-5.563 8.456-25.386z"/><path fill="#67b437" fill-rule="evenodd" class="area" id="id613" d="M409.118 225.534l16.373 5.58-8.444 25.351-16.379-5.563 8.45-25.368z"/><path fill="#67b437" fill-rule="evenodd" class="area" id="id614" d="M427.873 231.925l16.373 5.579-8.438 25.332-16.379-5.562 8.444-25.349z"/><path fill="#67b437" fill-rule="evenodd" class="area" id="id615" d="M446.627 238.316L463 243.895l-8.432 25.313-16.378-5.563 8.437-25.329z"/><path fill="#67b437" fill-rule="evenodd" class="area" id="id616" d="M465.381 244.706l16.374 5.58-8.425 25.294-16.38-5.563 8.431-25.311z"/><path fill="#67b437" fill-rule="evenodd" class="area" id="id617" d="M484.136 251.097l16.374 5.579-8.419 25.276-16.38-5.563 8.425-25.292z"/><path fill="#67b437" fill-rule="evenodd" class="area" id="id618" d="M502.891 257.488l16.373 5.579-8.413 25.256-16.379-5.562 8.419-25.273z"/><path fill="#67b437" fill-rule="evenodd" class="area" id="id619" d="M521.645 263.878l14.589 4.972-1.748 27.5-21.253-7.218 8.412-25.254z"/><path fill="#67b437" fill-rule="evenodd" class="area" id="id634" d="M534.32 298.958l-1.559 24.513-6.631 2.567-22.656-7.608 8.961-26.904 21.885 7.432z"/><path fill="#67b437" fill-rule="evenodd" class="area" id="id633" d="M501.089 317.629l-16.398-5.506 8.984-26.969 16.379 5.563-8.965 26.912z"/><path fill="#67b437" fill-rule="evenodd" class="area" id="id632" d="M482.307 311.322l-16.398-5.506 9.005-27.033 16.379 5.562-8.986 26.977z"/><path fill="#67b437" fill-rule="evenodd" class="area" id="id631" d="M463.525 305.015l-16.398-5.507 9.026-27.097 16.38 5.563-9.008 27.041z"/><path fill="#67b437" fill-rule="evenodd" class="area" id="id630" d="M444.742 298.708l-16.397-5.507 9.047-27.162 16.379 5.563-9.029 27.106z"/><path fill="#67b437" fill-rule="evenodd" class="area" id="id629" d="M425.96 292.401l-16.398-5.507 9.069-27.227 16.379 5.563-9.05 27.171z"/><path fill="#67b437" fill-rule="evenodd" class="area" id="id628" d="M407.178 286.093l-16.398-5.506 9.09-27.291 16.38 5.562-9.072 27.235z"/><path fill="#67b437" fill-rule="evenodd" class="area" id="id627" d="M388.395 279.786l-16.398-5.506 9.113-27.356 16.378 5.563-9.093 27.299z"/><path fill="#67b437" fill-rule="evenodd" class="area" id="id626" d="M369.613 273.479l-16.398-5.506 9.134-27.421 16.379 5.563-9.115 27.364z"/><path fill="#67b437" fill-rule="evenodd" class="area" id="id625" d="M350.831 267.172l-16.398-5.506 9.155-27.485 16.379 5.562-9.136 27.429z"/><path fill="#67b437" fill-rule="evenodd" class="area" id="id624" d="M332.048 260.865l-16.398-5.507 9.177-27.549 16.379 5.563-9.158 27.493z"/><path fill="#67b437" fill-rule="evenodd" class="area" id="id623" d="M313.266 254.558l-16.398-5.507 9.198-27.614L322.445 227l-9.179 27.558z"/><path fill="#67b437" fill-rule="evenodd" class="area" id="id622" d="M294.483 248.251l-2.639-.887-13.491-5.423 8.952-26.875 16.379 5.563-9.201 27.622z"/><path fill="#67b437" fill-rule="evenodd" class="area" id="id621" d="M276.015 241.001l-16.214-6.518 8.782-25.776 16.34 5.55-8.908 26.744z"/><path fill="#67b437" fill-rule="evenodd" class="area" id="id620" d="M257.459 233.541l-29.475-11.849 20.794-19.711 17.417 5.915-8.736 25.645z"/><path fill="#67b437" fill-rule="evenodd" class="area" id="id637" d="M201.542 268.136l10.525-17.35 28.359 13.861-9.38 19.032-29.504-15.543z"/><path fill="#67b437" fill-rule="evenodd" class="area" id="id635" d="M213.382 248.617l10.105-16.658 27.192 11.885-9.136 18.537-28.161-13.764z"/><path fill="#67b437" fill-rule="evenodd" class="area" id="id636" d="M253.041 244.75l26.018 9.8-9.226 21.658-26.026-12.72 9.234-18.738z"/><path fill="#67b437" fill-rule="evenodd" class="area" id="id638" d="M268.842 278.535l-6.202 14.562-4.421 4.898-24.943-13.14 9.414-19.102 26.152 12.782z"/><path fill="#67b437" fill-rule="evenodd" class="area" id="id641" d="M271.165 303.05l10.03-23.447 29.01 9.362-6.437 18.164-32.603-4.079z"/><path fill="#67b437" fill-rule="evenodd" class="area" id="id639" d="M282.19 277.276l8.236-19.25 27.304 9.703-6.683 18.86-28.857-9.313z"/><path fill="#67b437" fill-rule="evenodd" class="area" id="id640" d="M320.106 268.573l25.892 9.2-5.049 18.466-27.501-8.875 6.658-18.791z"/><path fill="#67b437" fill-rule="evenodd" class="area" id="id642" d="M340.284 298.672l-3.443 12.594-30.511-3.817 6.276-17.709 27.678 8.932z"/><path fill="#67b437" fill-rule="evenodd" class="area" id="id646" d="M399.361 347.601l7.086-23.173-25.566-11.214-5.717 19.235 24.197 15.152z"/><path fill="#67b437" fill-rule="evenodd" class="area" id="id644" d="M407.189 322.001l6.617-21.636-26.405-9.091-5.797 19.505 25.585 11.222z"/><path fill="#67b437" fill-rule="evenodd" class="area" id="id643" d="M385.016 290.453l-27.65-9.52-4.716 17.146 26.629 11.68 5.737-19.306z"/><path fill="#67b437" fill-rule="evenodd" class="area" id="id645" d="M351.974 300.535l-4.081 14.838 25.055 15.688 5.607-18.867-26.581-11.659z"/><path fill="#67b437" fill-rule="evenodd" class="area" id="id651" d="M409.229 353.761l3.423-11.08 26.071 9.659-5.537 17.456-25.694-16.351 1.737.316z"/><path fill="#67b437" fill-rule="evenodd" class="area" id="id649" d="M413.398 340.265l4.814-15.58 26.28 9.466-5.005 15.78-26.089-9.666z"/><path fill="#67b437" fill-rule="evenodd" class="area" id="id647" d="M418.956 322.277l5.745-18.595 26.521 9.25-5.969 18.818-26.297-9.473z"/><path fill="#67b437" fill-rule="evenodd" class="area" id="id648" d="M453.607 313.764l26.35 9.191-6.504 18.953-25.822-9.302 5.976-18.842z"/><path fill="#67b437" fill-rule="evenodd" class="area" id="id650" d="M472.635 344.29l-5.457 15.902-25.321-9.382 5.012-15.802 25.766 9.282z"/><path fill="#67b437" fill-rule="evenodd" class="area" id="id652" d="M466.359 362.58l-6.136 17.88-16.735-4.108-8.098-5.153 5.703-17.98 25.266 9.361z"/><path fill="#67b437" fill-rule="evenodd" class="area" id="id653" d="M491.482 326.905l18.496 5.973-6.81 27.954-20.714-7.773 9.028-26.154z"/><path fill="#67b437" fill-rule="evenodd" class="area" id="id654" d="M512.381 333.654l13.833 4.467 1.366 31.871-22.037-8.269 6.838-28.069z"/><path fill="#67b437" fill-rule="evenodd" class="area" id="id656" d="M527.395 372.612l-4.654 25.384-24-8.354 6.202-25.455 22.452 8.425z"/><path fill="#67b437" fill-rule="evenodd" class="area" id="id655" d="M496.323 388.931l-24.418-5.311 9.727-28.18 20.936 7.856-6.245 25.635z"/><path id="roads" d="M525.225 394.836l1.852.597 2.972-21.94-1.404-34.938a5.162 5.162 0 0 0-3.13-4.43l-31.983-10.663c-1.954-.652-5.01.511-5.67 2.464l-17.897 52.923 2.362.84-1.678 4.76-9.315-3.318 1.678-4.759 2.202.785 17.632-52.14c.67-1.981-.251-5.2-2.233-5.862l-53.486-17.833c-1.876-.625-4.85.485-5.436 2.373l-13.894 44.726 1.971.977-2.23 4.522-8.446-4.187 2.23-4.522 1.904.944 13.585-43.732c.582-1.875-.629-4.736-2.489-5.356l-55.192-18.401c-1.918-.64-4.737 1.004-5.304 2.945l-8.346 28.582 2.056.815-1.856 4.68-8.367-3.317 1.856-4.68 1.611.639 8.267-28.311c.591-2.024-.781-5.006-2.775-5.685l-54.186-18.454a5.03 5.03 0 0 0-5.57 2.467l-18.203 40.922 2.446 1.006-1.914 4.66-9.789-4.028 1.914-4.66 2.684 1.104 18.01-40.487c.86-1.934-.612-5.019-2.576-5.805l-25.339-10.142-.02-.01-29.391-12.181a5.01 5.01 0 0 0-5.61 1.608l-16.7 26.186 2.62 1.595-2.625 4.304-9.472-5.766 2.625-4.304 2.553 1.553 23.184-36.355c1.236-1.936.741-6.169-3.562-5.898l-99.16 6.235.69 3.042-4.914 1.106-2.685-11.849 4.914-1.105.867 3.822 112.157-7.053.02.318 80.484-70.119c3.366-2.932.398-6.524-1.8-6.368l-204.706 14.653.823 3.609-4.914 1.105-2.685-11.77 4.914-1.105.726 3.181 222.096-15.897 14.83-12.92 61.813-59.959c4.265-4.136 1.187-6.42-2.733-6.19l-40.595 2.367v.003L86.886 68.607l.668 3.038-4.934 1.086-2.605-11.848 4.933-1.086.843 3.831L357.099 41.72h.06l57.11-3.33a2.456 2.456 0 0 1 1.895 4.324l-4.562 4.425c-1.575 1.528-1.091 5.744.963 6.519L542.97 102.91l-.131 5.341-135.657-51.236a7.111 7.111 0 0 0-7.004 1.206l-50.904 49.38c-1.51 1.463-1.554 5.614.436 6.297l191.371 65.69-.13 5.296-196.758-67.538a7.12 7.12 0 0 0-6.613 1.063l-55.698 48.524a3.897 3.897 0 0 0 .904 6.559l262.529 90.303-1.638 4.78-267.28-91.938a7.719 7.719 0 0 0-7.139 1.363l-38.603 33.632-4.329 6.787c-1.105 1.733-.907 5.302.992 6.089l28.305 11.73v-.001l31.756 12.71 65.761 22.396-.002.006 174.916 58.16.195-.818c.663-2.783 4.965-1.875 5.032-.198l1.809 45.026.01.223-.03.211-3.122 23.05 2.592.835-1.54 4.798-9.315-3.002 1.54-4.798z" fill="#4d4d4c"/><path id="water" d="M159.331 247.242c-13.242 0-20.85 6.545-22.529 11.838-2.309.68-4.555 1.51-6.882 2.372-11.963 4.43-26.137 9.676-59.904-2.434-5.299-1.9-10.016-3.144-14.317-4.278-13.217-3.484-22.387-5.902-30.756-23.317-1.768-3.68-3.659-6.96-7.378-9.261-3.648-2.257-8.976-3.478-17.565-3.037l.128 2.517c8.016-.41 12.883.664 16.114 2.663 3.161 1.955 4.84 4.893 6.431 8.204 8.877 18.473 18.506 21.011 32.385 24.67 4.273 1.127 8.96 2.363 14.11 4.21 34.638 12.422 49.271 7.005 61.62 2.434 1.935-.716 3.813-1.412 5.691-2.007a4.625 4.625 0 0 0 .2.942c.875 2.66 5.905 5.603 11.506 4.84 4.459-.609 9.97-3.735 12.987-3.992 4.698-.402 16.925 6.32 21.385 2.637 4.221 2.88 10.83 7.064 17.598 11.166 8.415 5.1 17.08 10.077 21.711 12.263 4.752 2.244 8.088 5.93 12.106 10.373 6.113 6.757 13.755 15.205 30.197 23.269 13.006 6.379 25.834 6.016 36.923 5.703 7.856-.221 14.812-.418 20.083 1.9h.004c2.522 1.109 5.77 4.319 9.597 8.1 5.98 5.908 13.322 13.164 22.17 16.632 4.098 1.606 8.97 2.213 14.035 2.845 6.106.76 12.503 1.558 17.83 4.184a33.447 33.447 0 0 1 2.9 1.817 70.198 70.198 0 0 0 12.056 6.748c2.025.842 4.132 1.747 6.355 2.7 10.235 4.393 22.895 9.827 35.707 12.805a95.088 95.088 0 0 0 12.335 1.664c5.667.523 11.33 1.045 15.506 2.678a133.504 133.504 0 0 0 15.292 4.56c5.941 1.517 11.397 2.91 14.62 4.79 4.462 2.601 7.033 5.605 9.897 8.951 6.504 7.601 14.468 16.906 48.024 27.681l.77-2.4c-32.874-10.555-40.583-19.563-46.88-26.92-3.011-3.519-5.713-6.676-10.548-9.495-3.536-2.061-9.15-3.496-15.261-5.056a132.048 132.048 0 0 1-14.996-4.461c-4.491-1.756-10.342-2.296-16.196-2.836a92.826 92.826 0 0 1-12-1.615c-12.59-2.926-25.139-8.313-35.284-12.667-2.27-.974-4.425-1.899-6.374-2.71a68.026 68.026 0 0 1-11.632-6.52 33.971 33.971 0 0 0-3.176-1.975c-5.722-2.82-12.331-3.645-18.64-4.431-4.907-.612-9.629-1.2-13.422-2.687-8.369-3.28-15.508-10.335-21.322-16.08-4.002-3.954-7.4-7.311-10.352-8.61v-.003c-5.778-2.541-13.005-2.337-21.167-2.106-10.803.304-23.301.658-35.749-5.448-16.007-7.85-23.469-16.098-29.437-22.696-4.207-4.651-7.7-8.511-12.895-10.964-4.583-2.164-13.158-7.089-21.485-12.135-6.781-4.11-13.395-8.299-17.55-11.14a7.557 7.557 0 0 0 .292-1.747c.505-8.763-18.352-15.128-24.868-15.128z" fill="#00cdff" fill-rule="evenodd"/><path id="border" fill="none" stroke="#683200" stroke-miterlimit="22.926" stroke-width="2" d="M539.441 258.111l6.193-246.218-103.093 21.96-83.516 3.949-5.763-36.73L82.902 23.11 65.851 37.328 16.91 64.5l-3.473 18.326L42.17 244.281l60.308 13.27 61.256-14.85 31.575 17.694 2.841 8.531 65.992 36.335 75.149 9.163 104.513 64.771 26.365 6.319 24.999 6.625L560 413.635l-20.84-39.811-.04-102.925"/><g id="trees" fill-rule="evenodd"><path d="M395.2 45.468a2.418 2.418 0 0 1 .809 3.977 1.903 1.903 0 0 1-2.663 2.66 3 3 0 0 1-5.279-1.215 1.538 1.538 0 0 1-.851-2.572 2.418 2.418 0 0 1 2.176-3.904 2.025 2.025 0 0 1 3.593-.694 1.538 1.538 0 0 1 2.216 1.748z" fill="#1d6d03"/><path d="M370.541 47.363a1.936 1.936 0 0 1 3.176.701 1.527 1.527 0 0 1 1.082 2.818 2.407 2.407 0 0 1-2.608 3.476 1.232 1.232 0 0 1-2.16-.212 1.939 1.939 0 0 1-2.151-2.866 1.625 1.625 0 0 1 .66-2.86 1.232 1.232 0 0 1 2.001-1.057zM382.172 46.016a3.012 3.012 0 0 1 4.94 1.09 2.375 2.375 0 0 1 1.683 4.384 3.745 3.745 0 0 1-4.056 5.407 1.917 1.917 0 0 1-3.36-.33 3.016 3.016 0 0 1-3.347-4.459 2.528 2.528 0 0 1 1.027-4.45 1.917 1.917 0 0 1 3.113-1.642z" fill="#227f06"/><path d="M383.274 58.228a2.453 2.453 0 0 1-1.709 3.748 1.931 1.931 0 0 1-3.771.594 3.046 3.046 0 0 1-3.61-4.15 1.561 1.561 0 0 1 .835-2.62 2.452 2.452 0 0 1 3.727-2.198 2.469 2.469 0 0 1 .387.293 2.055 2.055 0 0 1 3.364 1.574 1.562 1.562 0 0 1 .777 2.76z" fill="#1d6d03"/></g></svg>