<svg xmlns="http://www.w3.org/2000/svg" width="594.39" height="437.07" viewBox="0 0 594.39 437.07"><title>plan_2_alt</title><g id="main"><path id="id513" class="area" fill="#67b437" d="M389.01 38.2l-5.05-34.99-16.69 1.43 4.39 34.78 17.35-1.22z"/><path id="id512" class="area" fill="#67b437" d="M364.75 4.68l-17.49 1.5 4.64 35.17 16.93-1.4-4.08-35.27z"/><path id="id511" class="area" fill="#67b437" d="M344.75 6.38l-18.29 1.48 4.65 35.26 18.28-1.55-4.64-35.19z"/><path id="id510" class="area" fill="#67b437" d="M323.95 8.07L307.46 9.4l4.66 35.33 16.48-1.4-4.65-35.26z"/><path id="id509" class="area" fill="#67b437" d="M304.95 9.61l-16.8 1.36 4.67 35.4 16.79-1.42-4.66-35.34z"/><path id="id508" class="area" fill="#67b437" d="M285.64 11.17l-17.34 1.4 4.68 35.49 17.33-1.47-4.67-35.42z"/><path id="id507" class="area" fill="#67b437" d="M265.79 12.78l-16.71 1.35 4.69 35.56 16.7-1.42-4.68-35.49z"/><path id="id506" class="area" fill="#67b437" d="M246.56 14.34l-17.08 1.38 4.7 35.63 17.07-1.44-4.69-35.57z"/><path id="id505" class="area" fill="#67b437" d="M226.97 15.92l-17 1.38 4.72 35.71 16.98-1.44-4.7-35.65z"/><path id="id504" class="area" fill="#67b437" d="M207.46 17.5l-16.52 1.34 4.72 35.79 16.51-1.4-4.71-35.73z"/><path id="id503" class="area" fill="#67b437" d="M188.43 19.04l-17.19 1.39 4.73 35.87 17.18-1.46-4.72-35.8z"/><path id="id502" class="area" fill="#67b437" d="M168.73 20.64l-16.7 1.35 4.74 35.94 16.69-1.41-4.73-35.88z"/><path id="id501" class="area" fill="#67b437" d="M149.51 22.2l-17.37 1.4 4.75 36.02 17.37-1.47-4.75-35.95z"/><path id="id500" class="area" fill="#67b437" d="M129.63 23.8l-9.01.74-13.26 11.69 4.1 20.53 7.98-.31 1.1 4.26 13.84-.87-4.75-36.04z"/><path id="id514" class="area" fill="#67b437" d="M115.33 75.8l7.98-.63-1.23-4.43 11.23-.71 6.61 32.71-18.67 1.46-5.92-28.4z"/><path id="id515" class="area" fill="#67b437" d="M135.84 69.83l17.05-1.3 6.27 32.71-16.72 1.31-6.6-32.72z"/><path id="id516" class="area" fill="#67b437" d="M155.42 68.33l16.74-1.29 6 32.72-16.47 1.28-6.27-32.71z"/><path id="id517" class="area" fill="#67b437" d="M174.68 66.85l16.85-1.29 5.63 32.72-16.47 1.28-6.01-32.71z"/><path id="id518" class="area" fill="#67b437" d="M194.06 65.36l17.07-1.31 5.35 32.72-16.79 1.31-5.63-32.72z"/><path id="id519" class="area" fill="#67b437" d="M213.65 63.85l16.37-1.25 5.41 32.69L219 96.57l-5.35-32.72z"/><path id="id520" class="area" fill="#67b437" d="M232.54 62.4l16.85-1.29 5.3 32.67-16.74 1.31-5.41-32.69z"/><path id="id521" class="area" fill="#67b437" d="M251.91 60.91l16.03-1.23 5.3 32.65-16.03 1.26-5.3-32.68z"/><path id="id522" class="area" fill="#67b437" d="M270.47 59.49l17.28-1.33 4.83 32.67-16.82 1.31-5.29-32.65z"/><path id="id523" class="area" fill="#67b437" d="M290.27 57.97l17.29-1.33 4.6 32.66-17.06 1.33-4.83-32.66z"/><path id="id524" class="area" fill="#67b437" d="M310.08 56.44l17.22-1.32 4.48 32.65-17.1 1.33-4.6-32.66z"/><path id="id525" class="area" fill="#67b437" d="M329.82 54.93l17.15-1.32L351 86.26l-16.7 1.31-4.48-32.64z"/><path id="id526" class="area" fill="#67b437" d="M349.49 53.41l17.34-1.33 3.75 32.66-17.06 1.33-4.03-32.66z"/><path id="id527" class="area" fill="#67b437" d="M369.35 51.89l17.08-1.31 3.75 32.63-17.08 1.33-3.75-32.65z"/><path id="id528" class="area" fill="#67b437" d="M388.95 50.38l42.37-3.25-37.27 35.83v-.06l-1.36.11-3.74-32.63z"/><path id="id541" class="area" fill="#67b437" d="M390.54 86.35l-33.06 31.78-3.65-29.55 36.63-2.86.08.63z"/><path id="id540" class="area" fill="#67b437" d="M355.09 119.34l-16.26 1.25-4.19-30.52 16.67-1.3 3.78 30.57z"/><path id="id539" class="area" fill="#67b437" d="M336.32 120.78l-16.99 1.31-4.3-30.48 17.1-1.34 4.19 30.51z"/><path id="id538" class="area" fill="#67b437" d="M316.81 122.29l-16.83 1.29-4.51-30.45 17.05-1.33 4.29 30.49z"/><path id="id537" class="area" fill="#67b437" d="M297.46 123.78l-16.36 1.26-4.93-30.4 16.78-1.31 4.51 30.45z"/><path id="id536" class="area" fill="#67b437" d="M278.58 125.23l-16.03 1.24-4.93-30.38 16.03-1.25 4.93 30.39z"/><path id="id535" class="area" fill="#67b437" d="M260.03 126.66l-16.65 1.28-5.02-30.35 16.74-1.31 4.93 30.38z"/><path id="id534" class="area" fill="#67b437" d="M240.86 128.13l-16.48 1.27-4.97-30.33 16.43-1.28 5.02 30.34z"/><path id="id533" class="area" fill="#67b437" d="M221.86 129.6l-16.53 1.27-5.21-30.29 16.77-1.31 4.97 30.33z"/><path id="id532" class="area" fill="#67b437" d="M202.81 131.06l-16.12 1.25-5.55-30.25 16.45-1.29 5.22 30.29z"/><path id="id531" class="area" fill="#67b437" d="M184.17 132.5l-16.22 1.25-5.79-30.21 16.46-1.29 5.55 30.25z"/><path id="id530" class="area" fill="#67b437" d="M165.42 133.94l-16.38 1.27-6.09-30.17 16.68-1.3 5.79 30.2z"/><path id="id529" class="area" fill="#67b437" d="M146.51 135.4l-9.47.67-.71-3.08-8.45.55-6.07-26.85 18.61-1.45 6.09 30.16z"/><path id="id551" class="area" fill="#67b437" d="M142.88 206.53l8.21.08.87 3.39 9.56-.27-6.09-30.17-17.67 1.21 5.12 25.76z"/><path id="id552" class="area" fill="#67b437" d="M164.05 209.53l15.63-1.19-5.76-30.04-15.96 1.09 6.09 30.14z"/><path id="id553" class="area" fill="#67b437" d="M182.21 208.15l15.62-1.2-5.49-29.91-15.88 1.09 5.75 30.02z"/><path id="id554" class="area" fill="#67b437" d="M200.35 206.76l15.29-1.17-5.13-29.8-15.64 1.08 5.48 29.89z"/><path id="id555" class="area" fill="#67b437" d="M218.16 205.4l15.9-1.21-4.86-29.68-16.16 1.11 5.12 29.78z"/><path id="id556" class="area" fill="#67b437" d="M236.58 204l16.62-1.27-4.88-29.52-16.59 1.13 4.85 29.66z"/><path id="id557" class="area" fill="#67b437" d="M255.72 202.53l4.86-.59 36.52-32.05-46.26 3.14 4.88 29.5z"/><path id="id550" class="area" fill="#67b437" d="M299.97 167.14l39.63-34.23-56.57 4.03 5.03 31.02 11.91-.82z"/><path id="id549" class="area" fill="#67b437" d="M280.51 137.12l-16.05 1.14 5.03 30.97 16.05-1.1-5.03-31.01z"/><path id="id548" class="area" fill="#67b437" d="M261.94 138.44l-16.63 1.18 5.12 30.91 16.54-1.13-5.03-30.96z"/><path id="id547" class="area" fill="#67b437" d="M242.79 139.8l-16.52 1.18 5.05 30.86 16.58-1.13-5.11-30.91z"/><path id="id546" class="area" fill="#67b437" d="M223.75 141.16l-16.44 1.17 5.3 30.79 16.18-1.11-5.04-30.85z"/><path id="id545" class="area" fill="#67b437" d="M204.78 142.51l-16.01 1.14 5.64 30.72 15.67-1.08-5.3-30.78z"/><path id="id544" class="area" fill="#67b437" d="M186.25 143.83l-16.15 1.15 5.88 30.65 15.9-1.09-5.63-30.71z"/><path id="id543" class="area" fill="#67b437" d="M167.57 145.16l-16.29 1.16 6.18 30.58 15.98-1.1-5.87-30.64z"/><path id="id542" class="area" fill="#67b437" d="M148.75 146.5l-10.05.78.63 3.64-7.34.79 5.28 26.57 17.66-1.21-6.18-30.57z"/><path id="id558" class="area" fill="#67b437" d="M146.83 224.22l7.81-.56-.79-2.92 11.02-.96 5.25 26.81-17.77 3.85-5.52-26.22z"/><path id="id559" class="area" fill="#67b437" d="M167.41 219.63l19.43-1.12 4.53 23.16-18.79 4.35-5.17-26.39z"/><path id="id560" class="area" fill="#67b437" d="M189.38 218.36l19.12-1.11 6.38 32.55-17.06-9.63-3.99.93-4.45-22.74z"/><path id="id561" class="area" fill="#67b437" d="M211.05 217.1l38.08-2.2-25.97 39.57-5.39-3.04-6.72-34.33z"/><path id="id565" class="area" fill="#67b437" d="M446.08 49.89l30.98 11.18 23-28.76-22.72 4.94-19.74 1.9-11.52 10.74z"/><path id="id566" class="area" fill="#67b437" d="M479.51 62.03l20.57 8.07 16.66-30.17-13.99-6.97-23.24 29.07z"/><path id="id567" class="area" fill="#67b437" d="M502.45 71.03l17.27 6.78 15.25-28.79-15.98-7.96-16.54 29.97z"/><path id="id568" class="area" fill="#67b437" d="M522.08 78.74l21.25 8.34 11.69-28.07-17.79-8.86-15.15 28.59z"/><path id="id569" class="area" fill="#67b437" d="M545.67 88.01l27.66 10.85.46-30.5-16.51-8.22-11.61 27.87z"/><path id="id564" class="area" fill="#67b437" d="M573.83 65.56l.42-27.18-10.62-7.91-24.43 17.84 34.63 17.25z"/><path id="id562" class="area" fill="#67b437" d="M574.3 35.27l.29-19.19-20.16 4.39 19.87 14.8z"/><path id="id563" class="area" fill="#67b437" d="M551.16 21.18l-46.21 10.06 31.71 15.8 24.86-18.14-10.36-7.72z"/><path id="id570" class="area" fill="#67b437" d="M436.29 60l11.88 4.42-14.96 26.34-20.76-7.75L436.29 60z"/><path id="id571" class="area" fill="#67b437" d="M450.56 65.31l13.18 4.9-10.66 27.98-17.48-6.53 14.96-26.35z"/><path id="id572" class="area" fill="#67b437" d="M466.11 71.09l16.48 6.13-10.67 28-16.48-6.15 10.67-27.98z"/><path id="id573" class="area" fill="#67b437" d="M484.96 78.1l16.48 6.13-10.68 28.03-16.48-6.15 10.68-28.01z"/><path id="id574" class="area" fill="#67b437" d="M503.81 85.11l16.48 6.12-10.69 28.07-16.48-6.15 10.69-28.04z"/><path id="id575" class="area" fill="#67b437" d="M522.66 92.11l16.49 6.13-10.71 28.1-16.48-6.15 10.7-28.08z"/><path id="id576" class="area" fill="#67b437" d="M541.51 99.12l13.29 4.94-6.59 29.67-17.41-6.5 10.71-28.11z"/><path id="id577" class="area" fill="#67b437" d="M557.18 104.95l16.78 6.24-.78 31.87-22.59-8.44 6.59-29.67z"/><path id="id585" class="area" fill="#67b437" d="M573.12 145.72l-.74 30.24-29.93-10.25 7.55-28.62 23.12 8.63z"/><path id="id584" class="area" fill="#67b437" d="M540.05 164.89l-20.88-7.15 10.73-28.16 17.73 6.62-7.58 28.69z"/><path id="id583" class="area" fill="#67b437" d="M516.78 156.92l-16.65-5.7 10.93-28.68 16.48 6.16-10.76 28.22z"/><path id="id582" class="area" fill="#67b437" d="M497.74 150.4l-16.64-5.7 11.12-29.2 16.48 6.16-10.96 28.74z"/><path id="id581" class="area" fill="#67b437" d="M478.71 143.88l-16.65-5.7 11.32-29.72 16.48 6.16-11.15 29.26z"/><path id="id580" class="area" fill="#67b437" d="M459.67 137.36l-16.65-5.7 11.52-30.24 16.48 6.16-11.35 29.78z"/><path id="id579" class="area" fill="#67b437" d="M440.63 130.84l-22.85-7.83 16.56-29.14 17.84 6.67-11.55 30.3z"/><path id="id578" class="area" fill="#67b437" d="M415.36 122.18l-32.12-10.99 27.2-26.25 21.51 8.04-16.59 29.2z"/><path id="id586" class="area" fill="#67b437" d="M372.98 119.88l16.25 5.78-18.17 27.7-25.56-8.82 27.48-24.66z"/><path id="id587" class="area" fill="#67b437" d="M391.69 126.49l13.96 4.71-10.32 30.43-21.81-7.43 18.17-27.71z"/><path id="id588" class="area" fill="#67b437" d="M408.04 132.01l19.38 6.53-10.35 30.51-19.35-6.6 10.32-30.44z"/><path id="id589" class="area" fill="#67b437" d="M429.81 139.35l19.37 6.53-10.37 30.58-19.35-6.6 10.35-30.51z"/><path id="id590" class="area" fill="#67b437" d="M451.57 146.69l19.37 6.53-10.39 30.65-19.36-6.6 10.38-30.58z"/><path id="id591" class="area" fill="#67b437" d="M473.33 154.03l19.37 6.53-10.41 30.72-19.36-6.59 10.4-30.66z"/><path id="id592" class="area" fill="#67b437" d="M495.09 161.37l19.38 6.54-10.45 30.78-19.35-6.59 10.42-30.73z"/><path id="id593" class="area" fill="#67b437" d="M516.86 168.71l19.37 6.54-10.47 30.86-19.35-6.6 10.45-30.8z"/><path id="id594" class="area" fill="#67b437" d="M538.62 176.05l13.53 4.57-4.81 32.84-19.19-6.54 10.47-30.87z"/><path id="id595" class="area" fill="#67b437" d="M554.58 181.43l17.48 5.9-1.38 34.09-20.91-7.13 4.81-32.86z"/><path id="id605" class="area" fill="#67b437" d="M570.58 224.05l-1.36 33.43-24.54-8.42 4.72-32.23 21.18 7.22z"/><path id="id604" class="area" fill="#67b437" d="M542.25 248.22l-25.18-8.64 10.27-30.27 19.63 6.69-4.72 32.22z"/><path id="id603" class="area" fill="#67b437" d="M514.69 238.76l-19.34-6.63 10.25-30.23 19.35 6.6-10.26 30.26z"/><path id="id602" class="area" fill="#67b437" d="M492.96 231.31l-19.34-6.63 10.24-30.19 19.35 6.59-10.25 30.23z"/><path id="id601" class="area" fill="#67b437" d="M471.24 223.86l-19.34-6.64 10.22-30.15 19.36 6.6-10.24 30.19z"/><path id="id600" class="area" fill="#67b437" d="M449.51 216.41l-19.34-6.64 10.21-30.11 19.36 6.6-10.23 30.15z"/><path id="id599" class="area" fill="#67b437" d="M427.79 208.95l-19.34-6.63 10.2-30.07 19.35 6.6-10.21 30.1z"/><path id="id598" class="area" fill="#67b437" d="M406.06 201.5l-19.33-6.64 10.18-30.02 19.35 6.6-10.2 30.06z"/><path id="id597" class="area" fill="#67b437" d="M384.34 194.04l-27.09-9.29 14.89-28.36 22.38 7.63-10.18 30.02z"/><path id="id596" class="area" fill="#67b437" d="M354.84 183.93l-39.01-13.66 27.21-23.21 26.68 8.51-14.88 28.36z"/><path id="id606" class="area" fill="#67b437" d="M305.25 179.12l21.31 7.26-8.48 25.48-34.88-11.84 22.05-20.9z"/><path id="id607" class="area" fill="#67b437" d="M328.94 187.19l16.38 5.58-8.48 25.47-16.38-5.57 8.48-25.48z"/><path id="id608" class="area" fill="#67b437" d="M347.7 193.58l16.37 5.58-8.47 25.45-16.38-5.57 8.48-25.46z"/><path id="id609" class="area" fill="#67b437" d="M366.45 199.97l16.38 5.58-8.47 25.43-16.38-5.56 8.47-25.45z"/><path id="id610" class="area" fill="#67b437" d="M385.21 206.36l16.37 5.58-8.46 25.41-16.38-5.56 8.47-25.43z"/><path id="id611" class="area" fill="#67b437" d="M403.96 212.75l16.38 5.58-8.46 25.39-16.38-5.56 8.46-25.41z"/><path id="id612" class="area" fill="#67b437" d="M422.72 219.14l16.37 5.58-8.45 25.37-16.38-5.56 8.46-25.39z"/><path id="id613" class="area" fill="#67b437" d="M441.47 225.53l16.38 5.58-8.45 25.35-16.38-5.56 8.45-25.37z"/><path id="id614" class="area" fill="#67b437" d="M460.23 231.93l16.37 5.57-8.44 25.34-16.38-5.57 8.45-25.34z"/><path id="id615" class="area" fill="#67b437" d="M478.98 238.32l16.38 5.58-8.44 25.31-16.37-5.57 8.43-25.32z"/><path id="id616" class="area" fill="#67b437" d="M497.74 244.71l16.37 5.58-8.42 25.29-16.38-5.56 8.43-25.31z"/><path id="id617" class="area" fill="#67b437" d="M516.49 251.1l16.38 5.58-8.42 25.27-16.38-5.56 8.42-25.29z"/><path id="id618" class="area" fill="#67b437" d="M535.25 257.49l16.37 5.58-8.41 25.25-16.38-5.56 8.42-25.27z"/><path id="id619" class="area" fill="#67b437" d="M554 263.88l14.59 4.97-1.75 27.5-21.25-7.22 8.41-25.25z"/><path id="id634" class="area" fill="#67b437" d="M566.67 298.96l-1.55 24.51-6.63 2.57-22.66-7.61 8.96-26.9 21.88 7.43z"/><path id="id633" class="area" fill="#67b437" d="M533.44 317.63l-16.39-5.51 8.98-26.97 16.38 5.57-8.97 26.91z"/><path id="id632" class="area" fill="#67b437" d="M514.66 311.32l-16.4-5.5 9.01-27.04 16.38 5.57-8.99 26.97z"/><path id="id631" class="area" fill="#67b437" d="M495.88 305.01l-16.4-5.5 9.03-27.1 16.38 5.56-9.01 27.04z"/><path id="id630" class="area" fill="#67b437" d="M477.1 298.71l-16.4-5.51 9.05-27.16 16.38 5.56-9.03 27.11z"/><path id="id629" class="area" fill="#67b437" d="M458.31 292.4l-16.39-5.51 9.07-27.22 16.38 5.56-9.06 27.17z"/><path id="id628" class="area" fill="#67b437" d="M439.53 286.09l-16.4-5.5 9.1-27.29 16.38 5.56-9.08 27.23z"/><path id="id627" class="area" fill="#67b437" d="M420.75 279.79l-16.4-5.51 9.11-27.36 16.38 5.57-9.09 27.3z"/><path id="id626" class="area" fill="#67b437" d="M401.97 273.48l-16.4-5.51 9.13-27.42 16.38 5.57-9.11 27.36z"/><path id="id625" class="area" fill="#67b437" d="M383.19 267.17l-16.4-5.5 9.15-27.49 16.38 5.56-9.13 27.43z"/><path id="id624" class="area" fill="#67b437" d="M364.4 260.87l-16.4-5.51 9.18-27.55 16.38 5.56-9.16 27.5z"/><path id="id623" class="area" fill="#67b437" d="M345.62 254.56l-16.4-5.51 9.2-27.61L354.8 227l-9.18 27.56z"/><path id="id622" class="area" fill="#67b437" d="M326.84 248.25l-2.64-.89-13.49-5.42 8.95-26.87 16.38 5.56-9.2 27.62z"/><path id="id621" class="area" fill="#67b437" d="M308.37 241l-16.21-6.52 8.78-25.77 16.34 5.55-8.91 26.74z"/><path id="id620" class="area" fill="#67b437" d="M289.81 233.54l-29.47-11.85 20.79-19.71 17.42 5.92-8.74 25.64z"/><path id="id637" class="area" fill="#67b437" d="M233.9 268.14l10.52-17.35 28.36 13.86-9.38 19.03-29.5-15.54z"/><path id="id635" class="area" fill="#67b437" d="M245.74 248.62l10.1-16.66 27.19 11.88-9.13 18.54-28.16-13.76z"/><path id="id636" class="area" fill="#67b437" d="M285.4 244.75l26.01 9.8-9.22 21.66-26.03-12.72 9.24-18.74z"/><path id="id638" class="area" fill="#67b437" d="M301.2 278.54L295 293.1l-4.43 4.9-24.94-13.14 9.42-19.11 26.15 12.79z"/><path id="id641" class="area" fill="#67b437" d="M303.52 303.05l10.03-23.45 29.01 9.36-6.44 18.17-32.6-4.08z"/><path id="id639" class="area" fill="#67b437" d="M314.55 277.28l8.23-19.25 27.3 9.7-6.68 18.86-28.85-9.31z"/><path id="id640" class="area" fill="#67b437" d="M352.46 268.57l25.89 9.2-5.05 18.47-27.5-8.88 6.66-18.79z"/><path id="id642" class="area" fill="#67b437" d="M372.64 298.67l-3.44 12.6-30.51-3.82 6.27-17.71 27.68 8.93z"/><path id="id646" class="area" fill="#67b437" d="M431.72 347.6l7.08-23.17-25.56-11.22-5.72 19.24 24.2 15.15z"/><path id="id644" class="area" fill="#67b437" d="M439.54 322l6.62-21.63-26.4-9.1-5.8 19.51L439.54 322z"/><path id="id643" class="area" fill="#67b437" d="M417.37 290.45l-27.65-9.52-4.72 17.15 26.63 11.68 5.74-19.31z"/><path id="id645" class="area" fill="#67b437" d="M384.33 300.54l-4.08 14.83 25.05 15.69 5.61-18.87-26.58-11.65z"/><path id="id651" class="area" fill="#67b437" d="M441.58 353.76l3.43-11.08 26.07 9.66-5.54 17.46-25.69-16.36 1.73.32z"/><path id="id649" class="area" fill="#67b437" d="M445.75 340.26l4.82-15.57 26.28 9.46-5.01 15.78-26.09-9.67z"/><path id="id647" class="area" fill="#67b437" d="M451.31 322.28l5.75-18.6 26.52 9.25-5.97 18.82-26.3-9.47z"/><path id="id648" class="area" fill="#67b437" d="M485.96 313.76l26.35 9.19-6.5 18.96-25.82-9.3 5.97-18.85z"/><path id="id650" class="area" fill="#67b437" d="M504.99 344.29l-5.46 15.9-25.32-9.38 5.01-15.8 25.77 9.28z"/><path id="id652" class="area" fill="#67b437" d="M498.71 362.58l-6.13 17.88-16.74-4.11-8.09-5.15 5.7-17.98 25.26 9.36z"/><path id="id653" class="area" fill="#67b437" d="M523.84 326.9l18.49 5.98-6.81 27.95-20.71-7.77 9.03-26.16z"/><path id="id654" class="area" fill="#67b437" d="M544.74 333.65l13.83 4.47 1.36 31.87-22.03-8.27 6.84-28.07z"/><path id="id656" class="area" fill="#67b437" d="M559.75 372.61L555.1 398l-24-8.36 6.2-25.45 22.45 8.42z"/><path id="id655" class="area" fill="#67b437" d="M528.68 388.93l-24.42-5.31 9.73-28.18 20.93 7.86-6.24 25.63z"/><path id="roads" d="M557.58 394.84l1.85.6 3-21.94-1.43-34.94a5.16 5.16 0 0 0-3.13-4.43l-32-10.66c-2-.65-5 .51-5.67 2.46l-17.9 52.92 2.36.84-1.66 4.76-9.31-3.32 1.68-4.76 2.2.78L515.2 325c.67-2-.25-5.2-2.23-5.86l-53.49-17.83c-1.88-.63-4.85.48-5.44 2.37l-13.89 44.73 2 1-2.23 4.52-8.45-4.19 2.23-4.52 1.9.94 13.58-43.73c.58-1.88-.63-4.74-2.49-5.36l-55.19-18.4c-1.92-.64-4.74 1-5.3 2.95l-8.35 28.58 2.06.82-1.91 4.67-8.37-3.32 1.86-4.68 1.61.64 8.3-28.33c.59-2-.78-5-2.78-5.68l-54.19-18.45a5 5 0 0 0-5.57 2.47l-18.2 40.92 2.45 1-1.91 4.66-9.79-4 1.91-4.66 2.68 1.1 18-40.49c.86-1.93-.61-5-2.58-5.81l-25.32-10.14-29.39-12.18a5 5 0 0 0-5.61 1.61l-16.7 26.19 2.62 1.59-2.62 4.3-9.47-5.77 2.63-4.3 2.55 1.55 23.18-36.35c1.24-1.94.74-6.17-3.56-5.9l-99.16 6.24.69 3-4.94 1.1-2.68-11.85 4.91-1.11.87 3.82 112.16-7.05v.32l80.5-70.13c3.37-2.93.4-6.52-1.8-6.37l-204.71 14.7.82 3.61-4.91 1.06-2.68-11.77 4.91-1.11.73 3.18 222.1-15.9 14.83-12.92 61.81-60c4.26-4.14 1.19-6.42-2.73-6.19l-40.59 2.37-270.62 21.95.67 3-4.91 1.12-2.61-11.85 4.93-1.09.84 3.83 271.29-21.9h.06l57.11-3.33a2.46 2.46 0 0 1 1.89 4.32L444 47.14c-1.58 1.53-1.09 5.74 1 6.52l130.41 49.25-.13 5.34L439.54 57a7.11 7.11 0 0 0-7 1.21l-50.9 49.38c-1.51 1.46-1.55 5.62.44 6.3l191.37 65.69-.13 5.3-196.77-67.53a7.12 7.12 0 0 0-6.61 1.06l-55.7 48.52a3.9 3.9 0 0 0 .9 6.56l262.53 90.3-1.67 4.78-267.25-91.93a7.72 7.72 0 0 0-7.14 1.36L263 211.63l-4.33 6.79c-1.1 1.73-.91 5.3 1 6.09L288 236.24l31.76 12.71 65.76 22.4 174.92 58.16.19-.82c.66-2.78 5-1.88 5-.2l1.81 45v.43l-3.12 23 2.59.84-1.54 4.8-9.32-3 1.54-4.8z" fill="#4d4d4c"/><path id="water" d="M191.69 247.24c-13.24 0-20.85 6.55-22.53 11.84-2.31.68-4.55 1.51-6.88 2.37-12 4.43-26.14 9.68-59.9-2.43-5.3-1.9-10-3.14-14.32-4.28-13.22-3.48-22.39-5.9-30.76-23.32-1.77-3.68-3.66-7-7.38-9.26s-9-3.48-17.56-3l.13 2.52c8-.41 12.88.66 16.11 2.66s4.84 4.89 6.43 8.2c8.88 18.47 18.51 21 32.38 24.67 4.27 1.13 9 2.36 14.11 4.21 34.64 12.42 49.27 7 61.62 2.43 1.93-.72 3.81-1.41 5.69-2a4.62 4.62 0 0 0 .2.94c.88 2.66 5.91 5.6 11.51 4.84 4.46-.61 10-3.73 13-4 4.7-.4 16.93 6.32 21.38 2.64 4.22 2.88 10.83 7.06 17.6 11.17 8.41 5.1 17.08 10.08 21.71 12.26s8.09 5.93 12.11 10.37c6.11 6.76 13.75 15.2 30.2 23.27 13 6.38 25.83 6 36.92 5.7 7.86-.22 14.81-.42 20.08 1.9 2.52 1.11 5.77 4.32 9.6 8.1 6 5.91 13.32 13.16 22.17 16.63 4.1 1.61 9 2.21 14 2.84 6.11.76 12.5 1.56 17.83 4.18a33.45 33.45 0 0 1 2.9 1.82 70.2 70.2 0 0 0 12.06 6.75c2 .84 4.13 1.75 6.36 2.7 10.23 4.39 22.9 9.83 35.71 12.8a95.09 95.09 0 0 0 12.33 1.66c5.67.52 11.33 1 15.51 2.68a133.51 133.51 0 0 0 15.29 4.56c5.94 1.52 11.4 2.91 14.62 4.79 4.46 2.6 7 5.6 9.9 9 6.5 7.6 14.47 16.91 48 27.68l.77-2.4c-32.87-10.56-40.58-19.56-46.88-26.92-3-3.52-5.71-6.68-10.55-9.49-3.54-2.06-9.15-3.5-15.26-5.06a132 132 0 0 1-15-4.46c-4.49-1.76-10.34-2.3-16.2-2.84a92.83 92.83 0 0 1-12-1.61c-12.59-2.93-25.14-8.31-35.28-12.67-2.27-1-4.42-1.9-6.37-2.71a68 68 0 0 1-11.63-6.52 34 34 0 0 0-3.18-2c-5.72-2.82-12.33-3.64-18.64-4.43-4.91-.61-9.63-1.2-13.42-2.69-8.33-3.33-15.47-10.33-21.28-16.11-4-4-7.4-7.31-10.35-8.61-5.78-2.54-13-2.34-21.17-2.11-10.8.3-23.3.66-35.75-5.45-16-7.85-23.47-16.1-29.44-22.7-4.21-4.65-7.7-8.51-12.9-11-4.58-2.16-13.16-7.09-21.48-12.14-6.78-4.11-13.4-8.3-17.55-11.14a7.56 7.56 0 0 0 .29-1.75c.5-8.76-18.35-15.13-24.87-15.13z" fill="#00cdff"/><path id="border" fill="none" stroke="#683200" stroke-miterlimit="22.93" stroke-width="2" d="M571.8 258.11l6.19-246.22L474.9 33.85l-83.52 3.95-5.76-36.73-270.36 22.04-17.05 14.22L49.27 64.5l-3.48 18.33 28.74 161.45 60.3 13.27 61.26-14.85 31.57 17.69 2.84 8.54 66 36.33 75.15 9.16 104.51 64.77 26.36 6.32 25 6.63 64.84 21.49-20.85-39.81-.03-102.92"/><g id="trees"><path d="M427.56 45.47a2.42 2.42 0 0 1 .81 4 1.9 1.9 0 0 1-2.66 2.66 3 3 0 0 1-5.28-1.22 1.54 1.54 0 0 1-.85-2.57 2.42 2.42 0 0 1 2.18-3.9 2 2 0 0 1 3.59-.69 1.54 1.54 0 0 1 2.22 1.75z" fill="#1d6d03"/><path d="M402.9 47.36a1.94 1.94 0 0 1 3.18.7 1.53 1.53 0 0 1 1.08 2.82 2.41 2.41 0 0 1-2.61 3.48 1.23 1.23 0 0 1-2.16-.21 1.94 1.94 0 0 1-2.15-2.87 1.62 1.62 0 0 1 .66-2.86 1.23 1.23 0 0 1 2-1.06zM414.53 46a3 3 0 0 1 4.94 1.09 2.38 2.38 0 0 1 1.68 4.38 3.74 3.74 0 0 1-4.06 5.41 1.92 1.92 0 0 1-3.36-.33 3 3 0 0 1-3.35-4.46 2.53 2.53 0 0 1 1-4.45 1.92 1.92 0 0 1 3.15-1.64z" fill="#227f06"/><path d="M415.63 58.23a2.45 2.45 0 0 1-1.71 3.77 1.93 1.93 0 0 1-3.77.59 3 3 0 0 1-3.61-4.15 1.56 1.56 0 0 1 .83-2.62 2.45 2.45 0 0 1 4.11-1.91 2.06 2.06 0 0 1 3.36 1.57 1.56 1.56 0 0 1 .78 2.76z" fill="#1d6d03"/></g></g><g id="dfsdfdsfdsfs" fill-rule="evenodd"><path d="M32.48 69.72a2.88 2.88 0 0 1-3.21-3.61 2.27 2.27 0 0 1 1.15-4.33 3.58 3.58 0 0 1 6.17-1.9A1.83 1.83 0 0 1 39 62a2.88 2.88 0 0 1 .09 5.32 2.41 2.41 0 0 1-3.29 2.86 1.83 1.83 0 0 1-3.33-.48" fill="#1d6d03"/><path d="M56.76 53a2.31 2.31 0 0 1-3.69 1.18 1.82 1.82 0 0 1-2.8-2.18 2.86 2.86 0 0 1 .61-5.14 1.47 1.47 0 0 1 2.35-1.07A2.31 2.31 0 0 1 57.12 47a2.35 2.35 0 0 1 0 .46 1.93 1.93 0 0 1 1 3.34 1.47 1.47 0 0 1-.86 2.2 1.46 1.46 0 0 1-.5 0M45.58 61.37a3.59 3.59 0 0 1-5.74 1.83 2.83 2.83 0 0 1-4.35-3.51 4.46 4.46 0 0 1 1-8A2.28 2.28 0 0 1 40.1 50a3.59 3.59 0 0 1 6.11 2.59 3 3 0 0 1 1.6 5.2 2.25 2.25 0 0 1 .36.87 2.28 2.28 0 0 1-2.59 2.68" fill="#227f06"/><path d="M37.15 49.45a2.92 2.92 0 0 1-.48-4.88 2.3 2.3 0 0 1 3.53-2.87 3.63 3.63 0 0 1 6.2 2.12 1.86 1.86 0 0 1 .7 3.2 2.92 2.92 0 0 1-2.53 4.49 3 3 0 0 1-.57-.07 2.45 2.45 0 0 1-4.41.39A1.86 1.86 0 0 1 37 50.07a1.89 1.89 0 0 1 .12-.62M17.3 96.09a2.92 2.92 0 0 1-.48-4.88A2.27 2.27 0 0 1 16.5 90a2.3 2.3 0 0 1 3.85-1.65 3.63 3.63 0 0 1 6.2 2.12 1.86 1.86 0 0 1 .7 3.2 2.92 2.92 0 0 1-2.53 4.49 3 3 0 0 1-.57-.07 2.45 2.45 0 0 1-4.41.39 1.86 1.86 0 0 1-2.57-1.76 1.83 1.83 0 0 1 .12-.62M35.26 122.25a2.92 2.92 0 0 1-.48-4.88 2.3 2.3 0 0 1 3.53-2.87 3.63 3.63 0 0 1 6.2 2.12 1.86 1.86 0 0 1 .7 3.2 2.92 2.92 0 0 1-2.53 4.49 3 3 0 0 1-.57-.07 2.45 2.45 0 0 1-4.41.39 1.86 1.86 0 0 1-2.57-1.76 1.82 1.82 0 0 1 .12-.62M11.31 151.87a2.92 2.92 0 0 1-.48-4.88 2.27 2.27 0 0 1-.31-1.22 2.3 2.3 0 0 1 3.85-1.65 3.63 3.63 0 0 1 6.2 2.12 1.86 1.86 0 0 1 .7 3.2 2.92 2.92 0 0 1-2.53 4.49 3 3 0 0 1-.57-.07 2.45 2.45 0 0 1-4.41.39 1.86 1.86 0 0 1-2.57-1.76 1.82 1.82 0 0 1 .12-.62M23.91 168.26a2.92 2.92 0 0 1-.48-4.88 2.3 2.3 0 0 1 3.57-2.86 3.63 3.63 0 0 1 6.2 2.12 1.86 1.86 0 0 1 .7 3.2 2.92 2.92 0 0 1-2.53 4.49 3.05 3.05 0 0 1-.57-.07 2.45 2.45 0 0 1-4.41.39 1.86 1.86 0 0 1-2.57-1.76 1.82 1.82 0 0 1 .12-.62M37.78 158.18a2.92 2.92 0 0 1-.48-4.88 2.3 2.3 0 0 1 3.53-2.87 3.63 3.63 0 0 1 6.2 2.12 1.86 1.86 0 0 1 .7 3.2 2.92 2.92 0 0 1-2.53 4.49 3 3 0 0 1-.57-.07 2.45 2.45 0 0 1-4.41.39 1.86 1.86 0 0 1-2.45-2.38M33.37 190.32a2.92 2.92 0 0 1-.48-4.88 2.27 2.27 0 0 1-.31-1.22 2.3 2.3 0 0 1 3.85-1.65 3.63 3.63 0 0 1 6.2 2.12 1.86 1.86 0 0 1 .7 3.2 2.92 2.92 0 0 1-2.53 4.49 2.87 2.87 0 0 1-.57-.07 2.45 2.45 0 0 1-4.41.39 1.86 1.86 0 0 1-2.57-1.76 1.82 1.82 0 0 1 .12-.62M47.23 208.6a2.92 2.92 0 0 1-.48-4.88 2.3 2.3 0 0 1 3.53-2.87 3.63 3.63 0 0 1 6.2 2.12 1.86 1.86 0 0 1 .7 3.2 2.92 2.92 0 0 1-2.53 4.49 3 3 0 0 1-.57-.07 2.45 2.45 0 0 1-4.41.39 1.86 1.86 0 0 1-2.57-1.76 1.83 1.83 0 0 1 .12-.62M57.95 225a2.92 2.92 0 0 1-.48-4.88 2.3 2.3 0 0 1 3.53-2.88 3.63 3.63 0 0 1 6.2 2.12 1.86 1.86 0 0 1 .7 3.2 2.92 2.92 0 0 1-2.52 4.44 3 3 0 0 1-.57-.07 2.45 2.45 0 0 1-4.41.39 1.86 1.86 0 0 1-2.57-1.76 1.82 1.82 0 0 1 .12-.62M562.82 418.49a2.92 2.92 0 0 1-.48-4.88 2.3 2.3 0 0 1 3.53-2.87 3.63 3.63 0 0 1 6.2 2.12 1.86 1.86 0 0 1 .71 3.2 2.92 2.92 0 0 1-2.53 4.49 3 3 0 0 1-.57-.07 2.45 2.45 0 0 1-4.41.39 1.86 1.86 0 0 1-2.45-2.38M380.66 337.81a2.92 2.92 0 0 1-.48-4.88 2.3 2.3 0 0 1 3.53-2.87 3.63 3.63 0 0 1 6.2 2.12 1.86 1.86 0 0 1 .71 3.2 2.92 2.92 0 0 1-2.53 4.49 2.88 2.88 0 0 1-.57-.07 2.45 2.45 0 0 1-4.41.39 1.83 1.83 0 0 1-.75.14 1.86 1.86 0 0 1-1.7-2.52M331.5 321.42a2.92 2.92 0 0 1-.48-4.88 2.3 2.3 0 0 1 3.53-2.87 3.63 3.63 0 0 1 6.2 2.12 1.86 1.86 0 0 1 .71 3.2 2.92 2.92 0 0 1-3.1 4.42 2.45 2.45 0 0 1-4.41.39 1.83 1.83 0 0 1-.75.14 1.86 1.86 0 0 1-1.7-2.52M401.46 349.79a2.92 2.92 0 0 1-.48-4.88 2.3 2.3 0 0 1 3.53-2.87 3.63 3.63 0 0 1 6.2 2.12 1.86 1.86 0 0 1 .71 3.2 2.92 2.92 0 0 1-3.1 4.42 2.45 2.45 0 0 1-4.41.39 1.82 1.82 0 0 1-.75.14 1.86 1.86 0 0 1-1.7-2.52M301.24 317.64a2.92 2.92 0 0 1-.48-4.88 2.3 2.3 0 0 1 3.53-2.87 3.63 3.63 0 0 1 6.2 2.12 1.86 1.86 0 0 1 .7 3.2 2.92 2.92 0 0 1-3.1 4.42 2.45 2.45 0 0 1-4.41.39 1.82 1.82 0 0 1-.75.14 1.86 1.86 0 0 1-1.7-2.52" fill="#1d6d03"/><path d="M36.13 95.41a3.59 3.59 0 0 1-5.74 1.83A2.83 2.83 0 0 1 26 93.73a4.46 4.46 0 0 1 .95-8 2.28 2.28 0 0 1 3.66-1.67 3.59 3.59 0 0 1 6 1.88 3.68 3.68 0 0 1 .06.71 3 3 0 0 1 1.6 5.2 2.25 2.25 0 0 1 .36.87 2.28 2.28 0 0 1-2.59 2.68M12.17 125a3.59 3.59 0 0 1-5.74 1.83 2.83 2.83 0 0 1-4.35-3.51 4.46 4.46 0 0 1 .95-8 2.28 2.28 0 0 1 3.66-1.67 3.59 3.59 0 0 1 6.11 2.59 3 3 0 0 1 1.6 5.2 2.25 2.25 0 0 1 .36.87 2.29 2.29 0 0 1-2.59 2.69M37.39 130.7a3.59 3.59 0 0 1-5.74 1.83 2.83 2.83 0 0 1-4.36-3.53 4.46 4.46 0 0 1 .95-8 2.28 2.28 0 0 1 3.66-1.67A3.59 3.59 0 0 1 38 122a3 3 0 0 1 1.6 5.2 2.25 2.25 0 0 1 .4.8 2.29 2.29 0 0 1-2.59 2.68M30.45 159.07a3.59 3.59 0 0 1-5.74 1.83 2.83 2.83 0 0 1-4.35-3.51 4.46 4.46 0 0 1 .95-8 2.28 2.28 0 0 1 3.69-1.66 3.59 3.59 0 0 1 6.11 2.59 3 3 0 0 1 1.6 5.2 2.28 2.28 0 0 1-1.45 3.54 2.24 2.24 0 0 1-.77 0M46.21 184.91a3.59 3.59 0 0 1-5.74 1.83 2.83 2.83 0 0 1-4.35-3.51 4.46 4.46 0 0 1 .95-8 2.28 2.28 0 0 1 3.66-1.67 3.59 3.59 0 0 1 6.11 2.59 3 3 0 0 1 1.6 5.2 2.29 2.29 0 0 1-2.23 3.55M63.86 217.68a3.59 3.59 0 0 1-5.74 1.83 2.83 2.83 0 0 1-4.36-3.51 4.46 4.46 0 0 1 .95-8 2.28 2.28 0 0 1 3.66-1.67 3.59 3.59 0 0 1 6.11 2.59 3 3 0 0 1 1.6 5.2 2.29 2.29 0 0 1-2.23 3.55M59.45 195.62a3.59 3.59 0 0 1-5.74 1.83 2.83 2.83 0 0 1-4.35-3.51 4.46 4.46 0 0 1 .95-8 2.28 2.28 0 0 1 3.69-1.66 3.59 3.59 0 0 1 6.11 2.59 3 3 0 0 1 1.6 5.2 2.26 2.26 0 0 1 .36.87 2.29 2.29 0 0 1-2.59 2.69" fill="#227f06"/><path d="M44.32 140.79a3.59 3.59 0 0 1-5.74 1.83 2.83 2.83 0 0 1-4.35-3.51 4.46 4.46 0 0 1 .95-8 2.28 2.28 0 0 1 3.66-1.67 3.59 3.59 0 0 1 6.11 2.56 3 3 0 0 1 1.6 5.2 2.25 2.25 0 0 1 .36.87 2.28 2.28 0 0 1-2.59 2.68M329.84 322.94a3.59 3.59 0 0 1-5.74 1.83 2.83 2.83 0 0 1-4.35-3.51 4.46 4.46 0 0 1 .95-8 2.28 2.28 0 0 1 3.66-1.67 3.59 3.59 0 0 1 6.11 2.59 3 3 0 0 1 1.6 5.2 2.25 2.25 0 0 1 .36.87 2.28 2.28 0 0 1-1.82 2.67 2.24 2.24 0 0 1-.77 0M581.33 423.79a3.59 3.59 0 0 1-5.74 1.83 2.83 2.83 0 0 1-4.35-3.51 4.46 4.46 0 0 1 .95-8 2.28 2.28 0 0 1 3.66-1.67 3.59 3.59 0 0 1 6 1.88 3.68 3.68 0 0 1 .06.71 3 3 0 0 1 1.6 5.2 2.25 2.25 0 0 1 .36.87 2.28 2.28 0 0 1-2.59 2.68M394.13 347.52a3.59 3.59 0 0 1-5.74 1.83 2.83 2.83 0 0 1-4.35-3.51 4.46 4.46 0 0 1 .95-8 2.28 2.28 0 0 1 3.66-1.67 3.59 3.59 0 0 1 6 1.88 3.68 3.68 0 0 1 .06.71 3 3 0 0 1 1.6 5.2 2.25 2.25 0 0 1 .36.87 2.28 2.28 0 0 1-2.59 2.68M36.76 209.49a3.59 3.59 0 0 1-5.76 1.83 2.83 2.83 0 0 1-4.35-3.51 4.46 4.46 0 0 1 .95-8 2.28 2.28 0 0 1 3.66-1.67 3.59 3.59 0 0 1 6.11 2.59 3 3 0 0 1 1.6 5.2 2.28 2.28 0 0 1-2.23 3.55" fill="#227f06"/><path d="M22.09 111a2.31 2.31 0 0 1-3.69 1.17 1.82 1.82 0 0 1-2.8-2.25 2.87 2.87 0 0 1 .61-5.14 1.47 1.47 0 0 1 2.35-1.07 2.31 2.31 0 0 1 3.89 1.21 2.34 2.34 0 0 1 0 .46 1.94 1.94 0 0 1 1 3.34 1.47 1.47 0 0 1-.94 2.28 1.5 1.5 0 0 1-.5 0M13.27 131.19a2.31 2.31 0 0 1-3.69 1.18 1.8 1.8 0 0 1-.89.44 1.82 1.82 0 0 1-1.91-2.7 2.87 2.87 0 0 1 .61-5.11 1.47 1.47 0 0 1 2.35-1.07 2.31 2.31 0 0 1 3.89 1.21 2.45 2.45 0 0 1 0 .46 1.93 1.93 0 0 1 1 3.34 1.47 1.47 0 0 1-1.43 2.28" fill="#1d6d03"/><path d="M41 109.76a2.31 2.31 0 0 1-3.69 1.18 1.8 1.8 0 0 1-.89.44 1.82 1.82 0 0 1-1.91-2.7 2.86 2.86 0 0 1 .61-5.14 1.47 1.47 0 0 1 2.35-1.07 2.31 2.31 0 0 1 3.89 1.21 2.35 2.35 0 0 1 0 .46 1.93 1.93 0 0 1 1 3.34 1.47 1.47 0 0 1-1.36 2.28M50.46 164a2.31 2.31 0 0 1-3.69 1.18 1.82 1.82 0 0 1-2.8-2.26 2.86 2.86 0 0 1 .61-5.14 1.47 1.47 0 0 1 2.35-1.07 2.31 2.31 0 0 1 3.89 1.21 2.33 2.33 0 0 1 0 .46 1.93 1.93 0 0 1 1 3.34 1.47 1.47 0 0 1-1.36 2.28M374.43 334.77a2.31 2.31 0 0 1-3.69 1.18 1.82 1.82 0 0 1-2.8-2.25 2.87 2.87 0 0 1 .61-5.14 1.47 1.47 0 0 1 2.35-1.07 2.31 2.31 0 0 1 3.89 1.21 2.34 2.34 0 0 1 0 .45 1.93 1.93 0 0 1 1 3.34 1.47 1.47 0 0 1-1.43 2.28M356.15 323.43a2.31 2.31 0 0 1-3.69 1.18 1.82 1.82 0 0 1-2.8-2.25 2.87 2.87 0 0 1 .61-5.14 1.47 1.47 0 0 1 2.35-1.07 2.31 2.31 0 0 1 3.89 1.21 2.34 2.34 0 0 1 0 .46 1.93 1.93 0 0 1 1 3.34 1.47 1.47 0 0 1-1.43 2.28M301.31 316.49a2.31 2.31 0 0 1-3.69 1.18 1.82 1.82 0 0 1-2.8-2.26 2.87 2.87 0 0 1 .61-5.14 1.47 1.47 0 0 1 2.35-1.07 2.31 2.31 0 0 1 3.89 1.21 2.24 2.24 0 0 1 0 .45 1.93 1.93 0 0 1 1 3.34 1.47 1.47 0 0 1-1.43 2.28M423 356.2a2.31 2.31 0 0 1-3.69 1.18 1.82 1.82 0 0 1-2.8-2.26 2.87 2.87 0 0 1 .61-5.14 1.47 1.47 0 0 1 2.35-1.07 2.31 2.31 0 0 1 3.89 1.21 2.33 2.33 0 0 1 0 .46 1.93 1.93 0 0 1 1 3.34 1.47 1.47 0 0 1-1.36 2.28M558.48 412.3a2.31 2.31 0 0 1-3.69 1.18 1.82 1.82 0 0 1-2.8-2.25 2.87 2.87 0 0 1 .61-5.14 1.47 1.47 0 0 1 2.35-1.07 2.31 2.31 0 0 1 3.89 1.21 2.33 2.33 0 0 1 0 .46 1.94 1.94 0 0 1 1 3.34 1.45 1.45 0 0 1 .23.56 1.47 1.47 0 0 1-1.17 1.72 1.43 1.43 0 0 1-.5 0" fill="#227f06"/><path d="M429.26 360a2.31 2.31 0 0 1-3.69 1.18 1.82 1.82 0 0 1-2.8-2.25 2.87 2.87 0 0 1 .61-5.14 1.47 1.47 0 0 1 2.35-1.07 2.31 2.31 0 0 1 3.89 1.21 2.24 2.24 0 0 1 0 .46 1.93 1.93 0 0 1 1 3.34 1.45 1.45 0 0 1 .23.56 1.47 1.47 0 0 1-1.17 1.72 1.43 1.43 0 0 1-.5 0" fill="#227f06"/><path d="M363 327.73a2.92 2.92 0 0 1-.48-4.88 2.3 2.3 0 0 1 3.53-2.87 3.63 3.63 0 0 1 6.2 2.12 1.86 1.86 0 0 1 .7 3.2 2.92 2.92 0 0 1-2.53 4.49 2.87 2.87 0 0 1-.57-.07 2.45 2.45 0 0 1-4.41.39 1.83 1.83 0 0 1-.75.14 1.86 1.86 0 0 1-1.82-1.9 1.89 1.89 0 0 1 .12-.62M20.13 126.35a2.92 2.92 0 0 1-.48-4.88 2.3 2.3 0 0 1 3.53-2.87 3.63 3.63 0 0 1 6.2 2.12 1.86 1.86 0 0 1 .7 3.2 2.92 2.92 0 0 1-2.53 4.49 3 3 0 0 1-.57-.07 2.45 2.45 0 0 1-4.41.39A1.86 1.86 0 0 1 20 127a1.89 1.89 0 0 1 .12-.62M44.71 178.35a2.92 2.92 0 0 1-.48-4.88 2.27 2.27 0 0 1-.31-1.22 2.3 2.3 0 0 1 3.85-1.65 3.63 3.63 0 0 1 6.2 2.12 1.86 1.86 0 0 1 .7 3.2 2.92 2.92 0 0 1-2.53 4.49 3 3 0 0 1-.57-.07 2.45 2.45 0 0 1-4.41.39 1.86 1.86 0 0 1-2.57-1.73 1.82 1.82 0 0 1 .12-.62M17.61 78.45a2.92 2.92 0 0 1-.48-4.88 2.3 2.3 0 0 1 3.53-2.87 3.63 3.63 0 0 1 6.2 2.12 1.86 1.86 0 0 1 .7 3.2A2.92 2.92 0 0 1 25 80.5a3 3 0 0 1-.57-.07 2.45 2.45 0 0 1-4.41.39 1.86 1.86 0 0 1-2.45-2.38" fill="#1d6d03"/><path d="M14.53 107.87a2.31 2.31 0 0 1-3.69 1.13A1.82 1.82 0 0 1 8 106.79a2.86 2.86 0 0 1 .61-5.14 1.47 1.47 0 0 1 2.39-1.07 2.31 2.31 0 0 1 3.89 1.21 2.33 2.33 0 0 1 0 .46 1.93 1.93 0 0 1 1 3.34 1.47 1.47 0 0 1-1.43 2.28" fill="#227f06"/><path d="M32.48 69.72a2.88 2.88 0 0 1-3.21-3.61 2.27 2.27 0 0 1 1.15-4.33 3.58 3.58 0 0 1 6.17-1.9A1.83 1.83 0 0 1 39 62a2.88 2.88 0 0 1 .09 5.32 2.41 2.41 0 0 1-3.29 2.86 1.83 1.83 0 0 1-3.33-.48" fill="#1d6d03"/><path d="M56.76 53a2.31 2.31 0 0 1-3.69 1.18 1.82 1.82 0 0 1-2.8-2.18 2.86 2.86 0 0 1 .61-5.14 1.47 1.47 0 0 1 2.35-1.07A2.31 2.31 0 0 1 57.12 47a2.35 2.35 0 0 1 0 .46 1.93 1.93 0 0 1 1 3.34 1.47 1.47 0 0 1-.86 2.2 1.46 1.46 0 0 1-.5 0M45.58 61.37a3.59 3.59 0 0 1-5.74 1.83 2.83 2.83 0 0 1-4.35-3.51 4.46 4.46 0 0 1 1-8A2.28 2.28 0 0 1 40.1 50a3.59 3.59 0 0 1 6.11 2.59 3 3 0 0 1 1.6 5.2 2.25 2.25 0 0 1 .36.87 2.28 2.28 0 0 1-2.59 2.68" fill="#227f06"/><path d="M37.15 49.45a2.92 2.92 0 0 1-.48-4.88 2.3 2.3 0 0 1 3.53-2.87 3.63 3.63 0 0 1 6.2 2.12 1.86 1.86 0 0 1 .7 3.2 2.92 2.92 0 0 1-2.53 4.49 3 3 0 0 1-.57-.07 2.45 2.45 0 0 1-4.41.39A1.86 1.86 0 0 1 37 50.07a1.89 1.89 0 0 1 .12-.62M17.3 96.09a2.92 2.92 0 0 1-.48-4.88A2.27 2.27 0 0 1 16.5 90a2.3 2.3 0 0 1 3.85-1.65 3.63 3.63 0 0 1 6.2 2.12 1.86 1.86 0 0 1 .7 3.2 2.92 2.92 0 0 1-2.53 4.49 3 3 0 0 1-.57-.07 2.45 2.45 0 0 1-4.41.39 1.86 1.86 0 0 1-2.57-1.76 1.83 1.83 0 0 1 .12-.62M35.26 122.25a2.92 2.92 0 0 1-.48-4.88 2.3 2.3 0 0 1 3.53-2.87 3.63 3.63 0 0 1 6.2 2.12 1.86 1.86 0 0 1 .7 3.2 2.92 2.92 0 0 1-2.53 4.49 3 3 0 0 1-.57-.07 2.45 2.45 0 0 1-4.41.39 1.86 1.86 0 0 1-2.57-1.76 1.82 1.82 0 0 1 .12-.62M11.31 151.87a2.92 2.92 0 0 1-.48-4.88 2.27 2.27 0 0 1-.31-1.22 2.3 2.3 0 0 1 3.85-1.65 3.63 3.63 0 0 1 6.2 2.12 1.86 1.86 0 0 1 .7 3.2 2.92 2.92 0 0 1-2.53 4.49 3 3 0 0 1-.57-.07 2.45 2.45 0 0 1-4.41.39 1.86 1.86 0 0 1-2.57-1.76 1.82 1.82 0 0 1 .12-.62M23.91 168.26a2.92 2.92 0 0 1-.48-4.88 2.3 2.3 0 0 1 3.57-2.86 3.63 3.63 0 0 1 6.2 2.12 1.86 1.86 0 0 1 .7 3.2 2.92 2.92 0 0 1-2.53 4.49 3.05 3.05 0 0 1-.57-.07 2.45 2.45 0 0 1-4.41.39 1.86 1.86 0 0 1-2.57-1.76 1.82 1.82 0 0 1 .12-.62M37.78 158.18a2.92 2.92 0 0 1-.48-4.88 2.3 2.3 0 0 1 3.53-2.87 3.63 3.63 0 0 1 6.2 2.12 1.86 1.86 0 0 1 .7 3.2 2.92 2.92 0 0 1-2.53 4.49 3 3 0 0 1-.57-.07 2.45 2.45 0 0 1-4.41.39 1.86 1.86 0 0 1-2.45-2.38M33.37 190.32a2.92 2.92 0 0 1-.48-4.88 2.27 2.27 0 0 1-.31-1.22 2.3 2.3 0 0 1 3.85-1.65 3.63 3.63 0 0 1 6.2 2.12 1.86 1.86 0 0 1 .7 3.2 2.92 2.92 0 0 1-2.53 4.49 2.87 2.87 0 0 1-.57-.07 2.45 2.45 0 0 1-4.41.39 1.86 1.86 0 0 1-2.57-1.76 1.82 1.82 0 0 1 .12-.62M47.23 208.6a2.92 2.92 0 0 1-.48-4.88 2.3 2.3 0 0 1 3.53-2.87 3.63 3.63 0 0 1 6.2 2.12 1.86 1.86 0 0 1 .7 3.2 2.92 2.92 0 0 1-2.53 4.49 3 3 0 0 1-.57-.07 2.45 2.45 0 0 1-4.41.39 1.86 1.86 0 0 1-2.57-1.76 1.83 1.83 0 0 1 .12-.62M57.95 225a2.92 2.92 0 0 1-.48-4.88 2.3 2.3 0 0 1 3.53-2.88 3.63 3.63 0 0 1 6.2 2.12 1.86 1.86 0 0 1 .7 3.2 2.92 2.92 0 0 1-2.52 4.44 3 3 0 0 1-.57-.07 2.45 2.45 0 0 1-4.41.39 1.86 1.86 0 0 1-2.57-1.76 1.82 1.82 0 0 1 .12-.62M562.82 418.49a2.92 2.92 0 0 1-.48-4.88 2.3 2.3 0 0 1 3.53-2.87 3.63 3.63 0 0 1 6.2 2.12 1.86 1.86 0 0 1 .71 3.2 2.92 2.92 0 0 1-2.53 4.49 3 3 0 0 1-.57-.07 2.45 2.45 0 0 1-4.41.39 1.86 1.86 0 0 1-2.45-2.38M380.66 337.81a2.92 2.92 0 0 1-.48-4.88 2.3 2.3 0 0 1 3.53-2.87 3.63 3.63 0 0 1 6.2 2.12 1.86 1.86 0 0 1 .71 3.2 2.92 2.92 0 0 1-2.53 4.49 2.88 2.88 0 0 1-.57-.07 2.45 2.45 0 0 1-4.41.39 1.83 1.83 0 0 1-.75.14 1.86 1.86 0 0 1-1.7-2.52M331.5 321.42a2.92 2.92 0 0 1-.48-4.88 2.3 2.3 0 0 1 3.53-2.87 3.63 3.63 0 0 1 6.2 2.12 1.86 1.86 0 0 1 .71 3.2 2.92 2.92 0 0 1-3.1 4.42 2.45 2.45 0 0 1-4.41.39 1.83 1.83 0 0 1-.75.14 1.86 1.86 0 0 1-1.7-2.52M401.46 349.79a2.92 2.92 0 0 1-.48-4.88 2.3 2.3 0 0 1 3.53-2.87 3.63 3.63 0 0 1 6.2 2.12 1.86 1.86 0 0 1 .71 3.2 2.92 2.92 0 0 1-3.1 4.42 2.45 2.45 0 0 1-4.41.39 1.82 1.82 0 0 1-.75.14 1.86 1.86 0 0 1-1.7-2.52M301.24 317.64a2.92 2.92 0 0 1-.48-4.88 2.3 2.3 0 0 1 3.53-2.87 3.63 3.63 0 0 1 6.2 2.12 1.86 1.86 0 0 1 .7 3.2 2.92 2.92 0 0 1-3.1 4.42 2.45 2.45 0 0 1-4.41.39 1.82 1.82 0 0 1-.75.14 1.86 1.86 0 0 1-1.7-2.52" fill="#1d6d03"/><path d="M36.13 95.41a3.59 3.59 0 0 1-5.74 1.83A2.83 2.83 0 0 1 26 93.73a4.46 4.46 0 0 1 .95-8 2.28 2.28 0 0 1 3.66-1.67 3.59 3.59 0 0 1 6 1.88 3.68 3.68 0 0 1 .06.71 3 3 0 0 1 1.6 5.2 2.25 2.25 0 0 1 .36.87 2.28 2.28 0 0 1-2.59 2.68M12.17 125a3.59 3.59 0 0 1-5.74 1.83 2.83 2.83 0 0 1-4.35-3.51 4.46 4.46 0 0 1 .95-8 2.28 2.28 0 0 1 3.66-1.67 3.59 3.59 0 0 1 6.11 2.59 3 3 0 0 1 1.6 5.2 2.25 2.25 0 0 1 .36.87 2.29 2.29 0 0 1-2.59 2.69M37.39 130.7a3.59 3.59 0 0 1-5.74 1.83 2.83 2.83 0 0 1-4.36-3.53 4.46 4.46 0 0 1 .95-8 2.28 2.28 0 0 1 3.66-1.67A3.59 3.59 0 0 1 38 122a3 3 0 0 1 1.6 5.2 2.25 2.25 0 0 1 .4.8 2.29 2.29 0 0 1-2.59 2.68M30.45 159.07a3.59 3.59 0 0 1-5.74 1.83 2.83 2.83 0 0 1-4.35-3.51 4.46 4.46 0 0 1 .95-8 2.28 2.28 0 0 1 3.69-1.66 3.59 3.59 0 0 1 6.11 2.59 3 3 0 0 1 1.6 5.2 2.28 2.28 0 0 1-1.45 3.54 2.24 2.24 0 0 1-.77 0M46.21 184.91a3.59 3.59 0 0 1-5.74 1.83 2.83 2.83 0 0 1-4.35-3.51 4.46 4.46 0 0 1 .95-8 2.28 2.28 0 0 1 3.66-1.67 3.59 3.59 0 0 1 6.11 2.59 3 3 0 0 1 1.6 5.2 2.29 2.29 0 0 1-2.23 3.55M63.86 217.68a3.59 3.59 0 0 1-5.74 1.83 2.83 2.83 0 0 1-4.36-3.51 4.46 4.46 0 0 1 .95-8 2.28 2.28 0 0 1 3.66-1.67 3.59 3.59 0 0 1 6.11 2.59 3 3 0 0 1 1.6 5.2 2.29 2.29 0 0 1-2.23 3.55M59.45 195.62a3.59 3.59 0 0 1-5.74 1.83 2.83 2.83 0 0 1-4.35-3.51 4.46 4.46 0 0 1 .95-8 2.28 2.28 0 0 1 3.69-1.66 3.59 3.59 0 0 1 6.11 2.59 3 3 0 0 1 1.6 5.2 2.26 2.26 0 0 1 .36.87 2.29 2.29 0 0 1-2.59 2.69" fill="#227f06"/><path d="M44.32 140.79a3.59 3.59 0 0 1-5.74 1.83 2.83 2.83 0 0 1-4.35-3.51 4.46 4.46 0 0 1 .95-8 2.28 2.28 0 0 1 3.66-1.67 3.59 3.59 0 0 1 6.11 2.56 3 3 0 0 1 1.6 5.2 2.25 2.25 0 0 1 .36.87 2.28 2.28 0 0 1-2.59 2.68M329.84 322.94a3.59 3.59 0 0 1-5.74 1.83 2.83 2.83 0 0 1-4.35-3.51 4.46 4.46 0 0 1 .95-8 2.28 2.28 0 0 1 3.66-1.67 3.59 3.59 0 0 1 6.11 2.59 3 3 0 0 1 1.6 5.2 2.25 2.25 0 0 1 .36.87 2.28 2.28 0 0 1-1.82 2.67 2.24 2.24 0 0 1-.77 0M581.33 423.79a3.59 3.59 0 0 1-5.74 1.83 2.83 2.83 0 0 1-4.35-3.51 4.46 4.46 0 0 1 .95-8 2.28 2.28 0 0 1 3.66-1.67 3.59 3.59 0 0 1 6 1.88 3.68 3.68 0 0 1 .06.71 3 3 0 0 1 1.6 5.2 2.25 2.25 0 0 1 .36.87 2.28 2.28 0 0 1-2.59 2.68M394.13 347.52a3.59 3.59 0 0 1-5.74 1.83 2.83 2.83 0 0 1-4.35-3.51 4.46 4.46 0 0 1 .95-8 2.28 2.28 0 0 1 3.66-1.67 3.59 3.59 0 0 1 6 1.88 3.68 3.68 0 0 1 .06.71 3 3 0 0 1 1.6 5.2 2.25 2.25 0 0 1 .36.87 2.28 2.28 0 0 1-2.59 2.68M36.76 209.49a3.59 3.59 0 0 1-5.76 1.83 2.83 2.83 0 0 1-4.35-3.51 4.46 4.46 0 0 1 .95-8 2.28 2.28 0 0 1 3.66-1.67 3.59 3.59 0 0 1 6.11 2.59 3 3 0 0 1 1.6 5.2 2.28 2.28 0 0 1-2.23 3.55" fill="#227f06"/><path d="M22.09 111a2.31 2.31 0 0 1-3.69 1.17 1.82 1.82 0 0 1-2.8-2.25 2.87 2.87 0 0 1 .61-5.14 1.47 1.47 0 0 1 2.35-1.07 2.31 2.31 0 0 1 3.89 1.21 2.34 2.34 0 0 1 0 .46 1.94 1.94 0 0 1 1 3.34 1.47 1.47 0 0 1-.94 2.28 1.5 1.5 0 0 1-.5 0M13.27 131.19a2.31 2.31 0 0 1-3.69 1.18 1.8 1.8 0 0 1-.89.44 1.82 1.82 0 0 1-1.91-2.7 2.87 2.87 0 0 1 .61-5.11 1.47 1.47 0 0 1 2.35-1.07 2.31 2.31 0 0 1 3.89 1.21 2.45 2.45 0 0 1 0 .46 1.93 1.93 0 0 1 1 3.34 1.47 1.47 0 0 1-1.43 2.28" fill="#1d6d03"/><path d="M41 109.76a2.31 2.31 0 0 1-3.69 1.18 1.8 1.8 0 0 1-.89.44 1.82 1.82 0 0 1-1.91-2.7 2.86 2.86 0 0 1 .61-5.14 1.47 1.47 0 0 1 2.35-1.07 2.31 2.31 0 0 1 3.89 1.21 2.35 2.35 0 0 1 0 .46 1.93 1.93 0 0 1 1 3.34 1.47 1.47 0 0 1-1.36 2.28M50.46 164a2.31 2.31 0 0 1-3.69 1.18 1.82 1.82 0 0 1-2.8-2.26 2.86 2.86 0 0 1 .61-5.14 1.47 1.47 0 0 1 2.35-1.07 2.31 2.31 0 0 1 3.89 1.21 2.33 2.33 0 0 1 0 .46 1.93 1.93 0 0 1 1 3.34 1.47 1.47 0 0 1-1.36 2.28M374.43 334.77a2.31 2.31 0 0 1-3.69 1.18 1.82 1.82 0 0 1-2.8-2.25 2.87 2.87 0 0 1 .61-5.14 1.47 1.47 0 0 1 2.35-1.07 2.31 2.31 0 0 1 3.89 1.21 2.34 2.34 0 0 1 0 .45 1.93 1.93 0 0 1 1 3.34 1.47 1.47 0 0 1-1.43 2.28M356.15 323.43a2.31 2.31 0 0 1-3.69 1.18 1.82 1.82 0 0 1-2.8-2.25 2.87 2.87 0 0 1 .61-5.14 1.47 1.47 0 0 1 2.35-1.07 2.31 2.31 0 0 1 3.89 1.21 2.34 2.34 0 0 1 0 .46 1.93 1.93 0 0 1 1 3.34 1.47 1.47 0 0 1-1.43 2.28M301.31 316.49a2.31 2.31 0 0 1-3.69 1.18 1.82 1.82 0 0 1-2.8-2.26 2.87 2.87 0 0 1 .61-5.14 1.47 1.47 0 0 1 2.35-1.07 2.31 2.31 0 0 1 3.89 1.21 2.24 2.24 0 0 1 0 .45 1.93 1.93 0 0 1 1 3.34 1.47 1.47 0 0 1-1.43 2.28M423 356.2a2.31 2.31 0 0 1-3.69 1.18 1.82 1.82 0 0 1-2.8-2.26 2.87 2.87 0 0 1 .61-5.14 1.47 1.47 0 0 1 2.35-1.07 2.31 2.31 0 0 1 3.89 1.21 2.33 2.33 0 0 1 0 .46 1.93 1.93 0 0 1 1 3.34 1.47 1.47 0 0 1-1.36 2.28M558.48 412.3a2.31 2.31 0 0 1-3.69 1.18 1.82 1.82 0 0 1-2.8-2.25 2.87 2.87 0 0 1 .61-5.14 1.47 1.47 0 0 1 2.35-1.07 2.31 2.31 0 0 1 3.89 1.21 2.33 2.33 0 0 1 0 .46 1.94 1.94 0 0 1 1 3.34 1.45 1.45 0 0 1 .23.56 1.47 1.47 0 0 1-1.17 1.72 1.43 1.43 0 0 1-.5 0" fill="#227f06"/><path d="M429.26 360a2.31 2.31 0 0 1-3.69 1.18 1.82 1.82 0 0 1-2.8-2.25 2.87 2.87 0 0 1 .61-5.14 1.47 1.47 0 0 1 2.35-1.07 2.31 2.31 0 0 1 3.89 1.21 2.24 2.24 0 0 1 0 .46 1.93 1.93 0 0 1 1 3.34 1.45 1.45 0 0 1 .23.56 1.47 1.47 0 0 1-1.17 1.72 1.43 1.43 0 0 1-.5 0" fill="#227f06"/><path d="M363 327.73a2.92 2.92 0 0 1-.48-4.88 2.3 2.3 0 0 1 3.53-2.87 3.63 3.63 0 0 1 6.2 2.12 1.86 1.86 0 0 1 .7 3.2 2.92 2.92 0 0 1-2.53 4.49 2.87 2.87 0 0 1-.57-.07 2.45 2.45 0 0 1-4.41.39 1.83 1.83 0 0 1-.75.14 1.86 1.86 0 0 1-1.82-1.9 1.89 1.89 0 0 1 .12-.62M20.13 126.35a2.92 2.92 0 0 1-.48-4.88 2.3 2.3 0 0 1 3.53-2.87 3.63 3.63 0 0 1 6.2 2.12 1.86 1.86 0 0 1 .7 3.2 2.92 2.92 0 0 1-2.53 4.49 3 3 0 0 1-.57-.07 2.45 2.45 0 0 1-4.41.39A1.86 1.86 0 0 1 20 127a1.89 1.89 0 0 1 .12-.62M44.71 178.35a2.92 2.92 0 0 1-.48-4.88 2.27 2.27 0 0 1-.31-1.22 2.3 2.3 0 0 1 3.85-1.65 3.63 3.63 0 0 1 6.2 2.12 1.86 1.86 0 0 1 .7 3.2 2.92 2.92 0 0 1-2.53 4.49 3 3 0 0 1-.57-.07 2.45 2.45 0 0 1-4.41.39 1.86 1.86 0 0 1-2.57-1.73 1.82 1.82 0 0 1 .12-.62M17.61 78.45a2.92 2.92 0 0 1-.48-4.88 2.3 2.3 0 0 1 3.53-2.87 3.63 3.63 0 0 1 6.2 2.12 1.86 1.86 0 0 1 .7 3.2A2.92 2.92 0 0 1 25 80.5a3 3 0 0 1-.57-.07 2.45 2.45 0 0 1-4.41.39 1.86 1.86 0 0 1-2.45-2.38" fill="#1d6d03"/><path d="M14.53 107.87a2.31 2.31 0 0 1-3.69 1.13A1.82 1.82 0 0 1 8 106.79a2.86 2.86 0 0 1 .61-5.14 1.47 1.47 0 0 1 2.39-1.07 2.31 2.31 0 0 1 3.89 1.21 2.33 2.33 0 0 1 0 .46 1.93 1.93 0 0 1 1 3.34 1.47 1.47 0 0 1-1.43 2.28" fill="#227f06"/></g></svg>