<svg id="main" xmlns="http://www.w3.org/2000/svg" viewBox="0 0 398.01144 540.3966"><title>plan_1</title><path class="area_alt" fill="#6bbc3a" fill-rule="evenodd" d="M1.508 295.314l23.347 38.278 4.47 9.445-.496 16.404-.993-1.988-13.909-13.919-12.419-39.769v-8.451z"/><path class="area" id="id318" fill="#6bbc3a" fill-rule="evenodd" d="M90.945 253.675l1.096-18.272-31.472-1.7-1.836 18.141 32.212 1.831z"/><path class="area" id="id317" fill="#6bbc3a" fill-rule="evenodd" d="M92.16 233.424l1.105-18.433-31.404-1.528-1.149 18.26 31.448 1.701z"/><path class="area" id="id316" fill="#6bbc3a" fill-rule="evenodd" d="M93.384 213.011l1.071-17.871-31.331-1.76-1.14 18.104 31.4 1.527z"/><path class="area" id="id315" fill="#6bbc3a" fill-rule="evenodd" d="M94.574 193.16l1.105-18.427-31.286-1.532-1.145 18.199 31.326 1.76z"/><path class="area" id="id314" fill="#6bbc3a" fill-rule="evenodd" d="M95.798 172.753l1.103-18.405-31.218-1.65-1.165 18.523 31.28 1.532z"/><path class="area" id="id313" fill="#6bbc3a" fill-rule="evenodd" d="M97.02 152.369l1.208-20.155-31.139-1.861-1.282 20.366 31.213 1.65z"/><path class="area" id="id312" fill="#6bbc3a" fill-rule="evenodd" d="M98.347 130.233l1.102-18.385-31.091-1.675-1.145 18.2 31.134 1.86z"/><path class="area" id="id311" fill="#6bbc3a" fill-rule="evenodd" d="M99.568 109.869l1.087-18.13-31.039-1.555-1.133 18.01 31.085 1.675z"/><path class="area" id="id310" fill="#6bbc3a" fill-rule="evenodd" d="M100.773 89.76l1.082-18.039-30.966-1.78-1.149 18.263 31.033 1.556z"/><path class="area" id="id309" fill="#6bbc3a" d="M71.013 67.961l30.96 1.781 1.111-18.513-30.914-1.65-1.157 18.382z"/><path class="area" id="id308" fill="#6bbc3a" d="M73.467 28.958l-1.172 18.641 30.907 1.65 1.134-18.906-30.869-1.385z"/><path class="area" id="id307" fill="#6bbc3a" d="M76.857 7.628l.141.024L73.7 26.984l30.584 1.445 1.542-22.932-1.366.073-27.603 2.058z"/><path class="area_alt" id="id306" fill="#6bbc3a" fill-rule="evenodd" d="M56.204 273.829l-38.658-2.344-1.135 14.881 4.471 16.902 11.425 19.387 57.444-43.746 1.076-23.254-32.294-1.836-2.2 20.439-.129-.429z"/><path class="area" id="id305" fill="#6bbc3a" fill-rule="evenodd" d="M19.066 251.576l-1.369 17.932 37.053 2.017 1.803-17.818-37.487-2.131z"/><path class="area" id="id304" fill="#6bbc3a" fill-rule="evenodd" d="M20.594 231.542l37.995 2.053-1.836 18.137-37.537-2.134 1.378-18.056z"/><path class="area" id="id303" fill="#6bbc3a" fill-rule="evenodd" d="M22.121 211.53l37.759 1.837-1.149 18.25-37.986-2.054 1.376-18.033z"/><path class="area" id="id302" fill="#6bbc3a" fill-rule="evenodd" d="M23.697 190.874l37.447 2.395-1.14 18.118-37.732-1.835 1.425-18.678z"/><path class="area" id="id301" fill="#6bbc3a" fill-rule="evenodd" d="M25.193 171.28l-1.367 17.906 37.442 2.103 1.144-18.185-37.219-1.824z"/><path class="area" id="id300" fill="#6bbc3a" fill-rule="evenodd" d="M26.994 149.089l-.152.571-1.499 19.642 37.194 1.822 1.165-18.53-36.788-1.945.08-1.56z"/><path class="area" id="id299" fill="#6bbc3a" fill-rule="evenodd" d="M32.515 128.288l-5.411 20.385 36.723 1.941 1.282-20.379-32.594-1.947z"/><path class="area" id="id298" fill="#6bbc3a" fill-rule="evenodd" d="M35.717 108.414l-.43 9.43-2.253 8.487 32.199 1.924 1.145-18.189-30.661-1.652z"/><path class="area" id="id297" fill="#6bbc3a" fill-rule="evenodd" d="M36.625 88.53l-.818 17.902 30.695 1.654 1.133-18.002-31.01-1.554z"/><path class="area" id="id296" fill="#6bbc3a" fill-rule="evenodd" d="M37.56 68.024l-.845 18.525 31.044 1.556 1.15-18.278-31.349-1.803z"/><path class="area" id="id295" fill="#6bbc3a" fill-rule="evenodd" d="M38.484 47.78l-.834 18.262 31.384 1.805 1.156-18.374-31.706-1.693z"/><path class="area" id="id294" fill="#6bbc3a" fill-rule="evenodd" d="M39.414 27.397l-.84 18.403 31.74 1.694 1.172-18.627-32.072-1.47z"/><path class="area" id="id293" fill="#6bbc3a" d="M39.505 25.417l32.197 1.475 3.263-19.123-34.773 2.593-.687 15.055z"/><path class="area" id="id320" fill="#6bbc3a" fill-rule="evenodd" d="M116.807 29.467l31.554 1.864 1.65-29.355-31.767 2.029-1.437 25.462z"/><path class="area" id="id321" fill="#6bbc3a" fill-rule="evenodd" d="M116.759 31.395l-1.131 18.944 31.57 1.681 1.052-18.708-31.491-1.917z"/><path class="area" id="id322" fill="#6bbc3a" fill-rule="evenodd" d="M115.578 51.239l-1.075 19.034 31.562 1.921L147.087 54l-31.564-1.681.055-1.08z"/><path class="area" id="id325" fill="#6bbc3a" fill-rule="evenodd" d="M112.101 112.645l-1.029 18.41 31.589 1.689 1.038-18.458-31.598-1.641z"/><path class="area" id="id323" fill="#6bbc3a" fill-rule="evenodd" d="M113.348 90.738l31.588 1.527 1.017-18.09-31.562-1.921-1.043 18.484z"/><path class="area" id="id324" fill="#6bbc3a" fill-rule="evenodd" d="M113.286 92.672l-1.061 17.953 31.585 1.681 1.015-18.061-31.539-1.573z"/><path class="area" id="id328" fill="#6bbc3a" fill-rule="evenodd" d="M108.204 179.856l-1.155 22.439 31.594 1.924 1.263-22.462-31.702-1.901z"/><path class="area" id="id327" fill="#6bbc3a" fill-rule="evenodd" d="M109.583 155.583l-1.15 22.215 31.585 1.978 1.252-22.28-31.687-1.913z"/><path class="area" id="id326" fill="#6bbc3a" fill-rule="evenodd" d="M109.801 153.563l31.58 1.953 1.169-20.792-31.59-1.689-1.159 20.528z"/><path class="area" id="id329" fill="#6bbc3a" fill-rule="evenodd" d="M106.938 204.276l-1.294 22.925 31.681.476 1.207-21.478-31.594-1.923z"/><path class="area" id="id330" fill="#6bbc3a" fill-rule="evenodd" d="M136.523 241.796l.69-12.139-31.681-.477-2.19 38.793 33.181-26.177z"/><path class="area" id="id340" fill="#6bbc3a" fill-rule="evenodd" d="M138.64 240.119l32.757-25.835.338-6.063-31.224-1.901-1.871 33.799z"/><path class="area" id="id339" fill="#6bbc3a" fill-rule="evenodd" d="M171.846 206.24l1.252-22.439-31.213-1.922-1.263 22.46 31.224 1.901z"/><path class="area" id="id338" fill="#6bbc3a" fill-rule="evenodd" d="M173.208 181.821l1.251-22.409-31.211-1.801-1.252 22.287 31.212 1.923z"/><path class="area" id="id337" fill="#6bbc3a" fill-rule="evenodd" d="M174.569 157.432l1.168-20.934-31.208-1.668-1.169 20.8 31.209 1.802z"/><path class="area" id="id336" fill="#6bbc3a" fill-rule="evenodd" d="M175.847 134.519l1.029-18.438-31.198-1.688-1.038 18.457 31.207 1.669z"/><path class="area" id="id335" fill="#6bbc3a" fill-rule="evenodd" d="M176.987 114.1l1.016-18.202-31.198-1.555-1.016 18.07 31.198 1.687z"/><path class="area" id="id334" fill="#6bbc3a" fill-rule="evenodd" d="M178.113 93.918l.989-17.724-31.17-1.898-1.016 18.067 31.197 1.555z"/><path class="area" id="id333" fill="#6bbc3a" fill-rule="evenodd" d="M179.212 74.213l1.03-18.446-31.176-1.661-1.023 18.209 31.169 1.898z"/><path class="area" id="id332" fill="#6bbc3a" fill-rule="evenodd" d="M180.352 53.786l1.03-18.457-31.153-1.896-1.051 18.693 31.174 1.66z"/><path class="area" id="id331" fill="#6bbc3a" fill-rule="evenodd" d="M181.493 33.348l.832-14.926-4.968-8.451-12.418-8.948-12.935.826-1.664 29.602 31.153 1.897z"/><path class="area" id="id341" fill="#6bbc3a" fill-rule="evenodd" d="M194.744 35.821l-2.696 45.325 34.508.439-31.812-45.764z"/><path class="area" id="id342" fill="#6bbc3a" fill-rule="evenodd" d="M191.93 83.125l-1.059 17.802 49.459.471-12.385-17.815-36.015-.458z"/><path class="area" id="id343" fill="#6bbc3a" fill-rule="evenodd" d="M190.754 102.906l-1.127 18.937 31.776 1.394 23.629-15.074-3.316-4.771-50.962-.486z"/><path class="area" id="id344" fill="#6bbc3a" fill-rule="evenodd" d="M189.509 123.823l-1.082 18.197 31.219 1.132.886-17.969-31.023-1.36z"/><path class="area" id="id345" fill="#6bbc3a" fill-rule="evenodd" d="M188.31 143.998l-1.095 18.406 31.425 1.129.908-18.401-31.238-1.134z"/><path class="area" id="id346" fill="#6bbc3a" fill-rule="evenodd" d="M187.097 164.383l-2.288 38.468 33.18-26.118.553-11.22-31.445-1.13z"/><path class="area" id="id347" fill="#6bbc3a" fill-rule="evenodd" d="M220.053 175.108l24.1-18.97-21.718-29.309-2.382 48.279z"/><path class="area" id="id348" fill="#6bbc3a" fill-rule="evenodd" d="M245.71 154.911l20.565-16.187-20.112-28.934-23.011 14.679 22.558 30.442z"/><path class="area" id="id350" fill="#6bbc3a" fill-rule="evenodd" d="M40.312 334.006l3.951 6.424-1.976 23.227 4.089 5.745 24.965-19.774-18.156-25.764-12.873 10.142z"/><path class="area" id="id364" fill="#6bbc3a" fill-rule="evenodd" d="M47.518 371.007l17.98 25.268 24.84-19.69-17.862-25.346-24.958 19.768z"/><path class="area" id="id365" fill="#6bbc3a" fill-rule="evenodd" d="M91.886 375.357l18.209-14.434-18.785-24.602-17.286 13.691 17.862 25.345z"/><path class="area" id="id366" fill="#6bbc3a" fill-rule="evenodd" d="M111.641 359.699l13.915-11.031-18.675-24.68-14.025 11.108 18.785 24.603z"/><path class="area" id="id367" fill="#6bbc3a" fill-rule="evenodd" d="M127.102 347.442l14.264-11.307-18.56-24.761-14.379 11.39 18.675 24.678z"/><path class="area" id="id368" fill="#6bbc3a" fill-rule="evenodd" d="M142.91 334.912l14.674-11.631-18.666-24.668-14.569 11.539 18.561 24.76z"/><path class="area" id="id369" fill="#6bbc3a" fill-rule="evenodd" d="M159.129 322.055l13.857-10.983-18.547-24.752-13.975 11.068 18.665 24.667z"/><path class="area" id="id370" fill="#6bbc3a" fill-rule="evenodd" d="M174.528 309.848l14.849-11.77-18.803-24.538-14.592 11.557 18.546 24.751z"/><path class="area" id="id371" fill="#6bbc3a" fill-rule="evenodd" d="M190.923 296.853l14.319-11.35-18.647-24.653-14.476 11.466 18.804 24.537z"/><path class="area" id="id372" fill="#6bbc3a" fill-rule="evenodd" d="M206.788 284.277l13.785-10.927-18.374-24.859-14.056 11.133 18.645 24.653z"/><path class="area" id="id373" fill="#6bbc3a" fill-rule="evenodd" d="M222.117 272.126l14.702-11.653-18.794-24.517-14.281 11.312 18.373 24.858z"/><path class="area" id="id374" fill="#6bbc3a" fill-rule="evenodd" d="M238.364 259.248l14.058-11.144-18.556-24.695-14.295 11.322 18.793 24.517z"/><path class="area" id="id375" fill="#6bbc3a" fill-rule="evenodd" d="M253.965 246.881l14.549-11.532-18.737-24.542-14.368 11.38 18.556 24.694z"/><path class="area" id="id376" fill="#6bbc3a" fill-rule="evenodd" d="M270.059 234.124l14.266-11.309-18.64-24.608-14.361 11.375 18.735 24.542z"/><path class="area" id="id377" fill="#6bbc3a" fill-rule="evenodd" d="M285.872 221.589l17.163-13.605-11.852-13.837-5.233-11.991-18.719 14.826 18.641 24.607z"/><path class="area" id="id363" fill="#6bbc3a" fill-rule="evenodd" d="M285.136 180.291l-12.719-29.14-24.99 19.687 18.616 24.575 19.093-15.122z"/><path class="area" id="id362" fill="#6bbc3a" fill-rule="evenodd" d="M245.877 172.06l-14.486 11.411 18.739 24.547 14.366-11.379-18.619-24.579z"/><path class="area" id="id361" fill="#6bbc3a" fill-rule="evenodd" d="M229.842 184.692l-14.201 11.188 18.586 24.734 14.357-11.372-18.742-24.55z"/><path class="area" id="id360" fill="#6bbc3a" fill-rule="evenodd" d="M214.094 197.098l-14.572 11.48 18.852 24.592 14.309-11.334-18.589-24.738z"/><path class="area" id="id359" fill="#6bbc3a" fill-rule="evenodd" d="M197.974 209.798l-13.857 10.917 18.456 24.969 14.255-11.29-18.854-24.596z"/><path class="area" id="id358" fill="#6bbc3a" fill-rule="evenodd" d="M182.569 221.934l-14.371 11.322 18.757 24.799 14.073-11.147-18.459-24.974z"/><path class="area" id="id357" fill="#6bbc3a" fill-rule="evenodd" d="M166.649 234.476l-14.67 11.557 18.943 24.721 14.487-11.474-18.76-24.804z"/><path class="area" id="id356" fill="#6bbc3a" fill-rule="evenodd" d="M150.43 247.254l-14.339 11.296 18.711 24.973 14.575-11.544-18.947-24.725z"/><path class="area" id="id355" fill="#6bbc3a" fill-rule="evenodd" d="M134.544 259.769l-14.126 11.128 18.858 24.922 13.982-11.074-18.714-24.976z"/><path class="area" id="id354" fill="#6bbc3a" fill-rule="evenodd" d="M118.869 272.117l-14.479 11.407 18.779 25.053 14.561-11.533-18.861-24.927z"/><path class="area" id="id353" fill="#6bbc3a" fill-rule="evenodd" d="M102.843 284.743l-14.526 11.443 18.923 25.009 14.386-11.395-18.783-25.057z"/><path class="area" id="id352" fill="#6bbc3a" fill-rule="evenodd" d="M86.767 297.408L72.6 308.568l19.062 24.965 14.031-11.114-18.926-25.011z"/><path class="area" id="id351" fill="#6bbc3a" fill-rule="evenodd" d="M71.052 309.788l-16.316 12.854 18.154 25.759 17.226-13.645-19.064-24.968z"/><path fill="#6bbc3a" fill-rule="evenodd" class="area" id="id378" d="M74.651 406.883l19.044 23.999 21.36-16.917-18.701-24.27-21.703 17.188z"/><path fill="#6bbc3a" fill-rule="evenodd" class="area" id="id392" d="M94.915 432.418l19.598 24.698 20.953-16.662-19.214-24.935-21.337 16.899z"/><path fill="#6bbc3a" fill-rule="evenodd" class="area" id="id393" d="M137.003 439.232l17.491-13.908-19.686-24.502-17.017 13.477 19.212 24.933z"/><path fill="#6bbc3a" fill-rule="evenodd" class="area" id="id394" d="M156.031 424.101l13.643-10.848-19.375-24.7-13.951 11.049 19.683 24.499z"/><path fill="#6bbc3a" fill-rule="evenodd" class="area" id="id395" d="M171.213 412.029l14.04-11.165-19.381-24.644-14.032 11.113 19.373 24.696z"/><path fill="#6bbc3a" fill-rule="evenodd" class="area" id="id396" d="M186.792 399.64l14.361-11.42-19.361-24.61-14.379 11.389 19.379 24.641z"/><path fill="#6bbc3a" fill-rule="evenodd" class="area" id="id397" d="M202.693 386.996l14.246-11.328-19.35-24.568-14.255 11.29 19.359 24.606z"/><path fill="#6bbc3a" fill-rule="evenodd" class="area" id="id398" d="M218.478 374.444l14.365-11.423-19.502-24.397-14.211 11.255 19.348 24.565z"/><path fill="#6bbc3a" fill-rule="evenodd" class="area" id="id399" d="M234.377 361.801l15.664-12.455-19.325-24.482-15.839 12.544 19.5 24.393z"/><path fill="#6bbc3a" fill-rule="evenodd" class="area" id="id400" d="M251.576 348.125l13.968-11.107-19.306-24.449-13.986 11.077 19.324 24.479z"/><path fill="#6bbc3a" fill-rule="evenodd" class="area" id="id401" d="M267.078 335.798l14.634-11.637-19.353-24.359-14.584 11.55 19.303 24.446z"/><path fill="#6bbc3a" fill-rule="evenodd" class="area" id="id402" d="M283.249 322.939l13.827-10.994-19.25-24.393-13.927 11.029 19.35 24.358z"/><path fill="#6bbc3a" fill-rule="evenodd" class="area" id="id403" d="M298.609 310.725l13.977-11.115-19.193-24.388-14.03 11.113 19.246 24.39z"/><path fill="#6bbc3a" fill-rule="evenodd" class="area" id="id404" d="M314.125 298.386l15.622-12.422-19.062-24.437-15.75 12.474 19.19 24.385z"/><path fill="#6bbc3a" fill-rule="evenodd" class="area" id="id405" d="M331.283 284.743l20.434-16.248-5.413-12.313-11.877-13.458-22.203 17.585 19.059 24.434z"/><path fill="#6bbc3a" fill-rule="evenodd" class="area" id="id391" d="M333.128 241.251l-20.289-22.99-20.655 16.357 18.833 24.145 22.111-17.512z"/><path fill="#6bbc3a" fill-rule="evenodd" class="area" id="id390" d="M290.645 235.836l-15.86 12.56 18.938 24.065 15.756-12.48-18.834-24.145z"/><path fill="#6bbc3a" fill-rule="evenodd" class="area" id="id389" d="M273.243 249.617l-14.066 11.139 18.971 24.039 14.033-11.114-18.938-24.064z"/><path fill="#6bbc3a" fill-rule="evenodd" class="area" id="id388" d="M257.641 261.973l-14.012 11.095 19.05 23.979 13.932-11.034-18.97-24.04z"/><path fill="#6bbc3a" fill-rule="evenodd" class="area" id="id387" d="M242.089 274.288l-14.509 11.489 18.98 24.037 14.58-11.547-19.051-23.979z"/><path fill="#6bbc3a" fill-rule="evenodd" class="area" id="id386" d="M226.044 286.994l-13.983 11.074 18.976 24.039 13.987-11.077-18.98-24.036z"/><path fill="#6bbc3a" fill-rule="evenodd" class="area" id="id385" d="M210.524 299.284l-15.998 12.669 19.126 23.924 15.849-12.553-18.977-24.04z"/><path fill="#6bbc3a" fill-rule="evenodd" class="area" id="id384" d="M192.991 313.168l-14.027 11.108 18.952 24.063 14.201-11.247-19.126-23.924z"/><path fill="#6bbc3a" fill-rule="evenodd" class="area" id="id383" d="M177.423 325.497l-14.241 11.278 18.94 24.074 14.253-11.289-18.952-24.063z"/><path fill="#6bbc3a" fill-rule="evenodd" class="area" id="id382" d="M161.64 337.995l-14.375 11.385 18.936 24.077 14.379-11.387-18.94-24.075z"/><path fill="#6bbc3a" fill-rule="evenodd" class="area" id="id381" d="M145.723 350.6l-13.999 11.086 18.907 24.103 14.029-11.11-18.937-24.079z"/><path fill="#6bbc3a" fill-rule="evenodd" class="area" id="id380" d="M130.182 362.907l-14.249 11.284 19.187 23.883 13.969-11.064-18.907-24.103z"/><path fill="#6bbc3a" fill-rule="evenodd" class="area" id="id379" d="M114.393 375.411l-16.499 13.066 18.7 24.269 16.986-13.453-19.187-23.882z"/><path fill="#6bbc3a" fill-rule="evenodd" class="area" id="id406" d="M122.641 468.567l20.912 23.305 21.262-16.921-19.739-24.152-22.435 17.768z"/><path fill="#6bbc3a" fill-rule="evenodd" class="area" id="id419" d="M144.956 493.268l23.938 20.601 16.784-13.389-19.619-24.007-21.103 16.795z"/><path fill="#6bbc3a" fill-rule="evenodd" class="area" id="id420" d="M187.216 499.253l15.233-12.152-19.12-24.373-15.73 12.519 19.617 24.006z"/><path fill="#6bbc3a" fill-rule="evenodd" class="area" id="id421" d="M203.985 485.875l14.127-11.269-19.172-24.302-14.072 11.2 19.117 24.371z"/><path fill="#6bbc3a" fill-rule="evenodd" class="area" id="id422" d="M219.644 473.384l14.298-11.405-19.258-24.204-14.211 11.308 19.171 24.301z"/><path fill="#6bbc3a" fill-rule="evenodd" class="area" id="id423" d="M235.478 460.754l13.901-11.09-19.21-24.213-13.947 11.1 19.256 24.203z"/><path fill="#6bbc3a" fill-rule="evenodd" class="area" id="id424" d="M250.915 448.438l14.193-11.321-19.033-24.325-14.37 11.436 19.21 24.21z"/><path fill="#6bbc3a" fill-rule="evenodd" class="area" id="id425" d="M266.641 435.894l13.905-11.092-19.044-24.287-13.892 11.056 19.031 24.323z"/><path fill="#6bbc3a" fill-rule="evenodd" class="area" id="id426" d="M282.083 423.576l16.486-13.151-19.255-24.086-16.273 12.951 19.042 24.286z"/><path fill="#6bbc3a" fill-rule="evenodd" class="area" id="id427" d="M300.099 409.203l13.884-11.074-19.227-24.079-13.909 11.07 19.252 24.083z"/><path fill="#6bbc3a" fill-rule="evenodd" class="area" id="id428" d="M315.514 396.907l14.03-11.193-19.169-24.095-14.086 11.211 19.225 24.077z"/><path fill="#6bbc3a" fill-rule="evenodd" class="area" id="id429" d="M331.081 384.489l14.419-11.502-19.197-24.044-14.39 11.452 19.168 24.094z"/><path fill="#6bbc3a" fill-rule="evenodd" class="area" id="id430" d="M347.031 371.765l13.698-10.926-18.616-24.478-14.278 11.363 19.196 24.041z"/><path fill="#6bbc3a" fill-rule="evenodd" class="area" id="id431" d="M362.264 359.613l12.799-10.21-11.472-30.136-19.941 15.871 18.614 24.475z"/><path fill="#6bbc3a" fill-rule="evenodd" class="area" id="id418" d="M362.858 317.34l-11.413-29.98-26.095 20.666 17.151 25.514 20.357-16.2z"/><path fill="#6bbc3a" fill-rule="evenodd" class="area" id="id417" d="M323.807 309.248l-16.353 12.951 19.155 23.989 14.352-11.422-17.154-25.518z"/><path fill="#6bbc3a" fill-rule="evenodd" class="area" id="id416" d="M305.919 323.415l-14.371 11.381 19.141 24.061 14.387-11.449-19.157-23.993z"/><path fill="#6bbc3a" fill-rule="evenodd" class="area" id="id415" d="M290.007 336.017l-14.159 11.214 19.214 24.063 14.09-11.213-19.145-24.064z"/><path fill="#6bbc3a" fill-rule="evenodd" class="area" id="id414" d="M274.313 348.446l-13.951 11.049 19.258 24.089 13.909-11.069-19.216-24.069z"/><path fill="#6bbc3a" fill-rule="evenodd" class="area" id="id413" d="M258.827 360.711l-16.062 12.721 19.063 24.312 16.259-12.94-19.26-24.093z"/><path fill="#6bbc3a" fill-rule="evenodd" class="area" id="id412" d="M241.223 374.653l-13.891 11.001 19.066 24.369 13.891-11.055-19.066-24.315z"/><path fill="#6bbc3a" fill-rule="evenodd" class="area" id="id411" d="M225.794 386.873l-14.571 11.539 19.262 24.276 14.379-11.443-19.07-24.372z"/><path fill="#6bbc3a" fill-rule="evenodd" class="area" id="id410" d="M209.683 399.632l-14.008 11.093 19.323 24.288 13.949-11.101-19.264-24.28z"/><path fill="#6bbc3a" fill-rule="evenodd" class="area" id="id409" d="M194.134 411.945l-14.13 11.192 19.253 24.404 14.204-11.304-19.327-24.292z"/><path fill="#6bbc3a" fill-rule="evenodd" class="area" id="id408" d="M178.467 424.354l-14.027 11.11 19.214 24.494 14.069-11.196-19.256-24.408z"/><path fill="#6bbc3a" fill-rule="evenodd" class="area" id="id407" d="M162.898 436.684l-16.279 12.893 19.736 24.148 15.761-12.543-19.218-24.498z"/><path fill="#6bbc3a" fill-rule="evenodd" class="area" id="id432" d="M180.337 521.5l6.955 2.485 40.896.744-20.637-24.988-27.214 21.759z"/><path fill="#6bbc3a" fill-rule="evenodd" class="area" id="id442" d="M233.423 524.825l35.833.651 12.281-5.455-16.447-20.183-31.667 24.987z"/><path fill="#6bbc3a" fill-rule="evenodd" class="area" id="id443" d="M283.414 519.188l19.145-8.504-20.173-24.494-15.74 12.42 16.768 20.578z"/><path fill="#6bbc3a" fill-rule="evenodd" class="area" id="id444" d="M304.438 509.85l17.389-7.724-23.621-28.419-14.265 11.256 20.497 24.887z"/><path fill="#6bbc3a" fill-rule="evenodd" class="area" id="id445" d="M323.706 501.291l17.071-7.582-26.801-32.446-14.215 11.218 23.945 28.81z"/><path fill="#6bbc3a" fill-rule="evenodd" class="area" id="id446" d="M342.661 492.872l18.071-8.027-30.644-36.295-14.553 11.483 27.126 32.839z"/><path fill="#6bbc3a" fill-rule="evenodd" class="area" id="id447" d="M362.413 483.761l10.465-18.038-26.338-30.154-14.894 11.752 30.767 36.44z"/><path fill="#6bbc3a" fill-rule="evenodd" class="area" id="id448" d="M373.928 463.914l6.103-10.519-2.484-41.757-.105-.452-29.345 23.155 25.831 29.573z"/><path fill="#6bbc3a" fill-rule="evenodd" class="area" id="id441" d="M376.941 409.052l-8.832-37.68-25.693 20.542 21.306 27.569 13.219-10.431z"/><path fill="#6bbc3a" fill-rule="evenodd" class="area" id="id440" d="M340.868 393.152l-16.927 13.533 22.847 26.159 15.378-12.134-21.298-27.558z"/><path fill="#6bbc3a" fill-rule="evenodd" class="area" id="id439" d="M322.392 407.924l-14.334 11.46 22.306 26.42 14.868-11.732-22.84-26.148z"/><path fill="#6bbc3a" fill-rule="evenodd" class="area" id="id438" d="M306.508 420.623l-14.169 11.329 21.931 26.55 14.537-11.469-22.299-26.41z"/><path fill="#6bbc3a" fill-rule="evenodd" class="area" id="id437" d="M290.788 433.192l-14.228 11.375 21.931 26.386 14.221-11.22-21.924-26.541z"/><path fill="#6bbc3a" fill-rule="evenodd" class="area" id="id436" d="M275.014 445.804l-14.064 11.244 21.728 26.382 14.259-11.25-21.923-26.376z"/><path fill="#6bbc3a" fill-rule="evenodd" class="area" id="id435" d="M259.403 458.285l-15.512 12.402 21.5 26.384 15.733-12.414-21.721-26.372z"/><path fill="#6bbc3a" class="area" id="id433" d="M230.596 524.527l-21.494-26.026 15.915-12.724 21.37 26.289-15.791 12.461z"/><path fill="#6bbc3a" class="area" id="id434" d="M247.943 510.839l-21.378-26.3 15.778-12.614 21.492 26.374-15.892 12.54z"/><path id="roads" d="M36.659 15.675L30.738 117.48l-.014.23-.066.257-8.13 31.56-10.14 139.174 4.21 15.764 11.947 18.659c1.575 2.46 6.483 2.99 8.81 1.158l56.408-44.406h-.008l15.62-269.167-2.748.096-.159-5.071 10.215-.358.158 5.07-2.371.084-14.923 257.137c-.208 3.586 2.976 5.313 6.025 2.913l70.075-55.166 9.666-182.206-2.21-3.66.617-7.557 6.46 9.163.322.017-.018.36 2.576 3.346-.02 6.483-2.959-2.248-8.705 164.246c-.222 4.199 3.424 4.85 6.083 2.757l75.227-59.221-1.813-3.616 4.53-2.267 5.287 10.54-4.531 2.267-1.147-2.287L38.218 330.074a5.804 5.804 0 0 0-1.58 6.958l1.858 4.547.195.474-.006.5-.239 22.986 24.728 32.23c1.3 1.693 4.695 1.968 6.37.644l231.914-183.3-2.054-2.51 3.935-3.221 7.194 8.79-3.935 3.221-1.93-2.358-232.624 183.86c-1.42 1.123-1.913 3.942-.81 5.38l39.464 51.435a4.87 4.87 0 0 0 6.11.781l230.404-182.24-1.406-3.095 4.808-2.684 4.412 10.26-5.008 2.367-.806-1.968-229.99 181.91c-1.352 1.07-1.376 3.823-.299 5.17l18.84 23.542 27.558 23.608a5.223 5.223 0 0 0 6.04.216l197.792-157.983-.001-3.401 4.68-3.171 2.127 14.795-5.33 1.608-.444-3.707-194.236 154.696c-1.469 1.17-1.93 4.398-.502 5.62l2.495 2.138 88.758 1.636a17.925 17.925 0 0 0 7.7-1.56l90.065-41.207 16.252-28.024 4.154 2.763-.1 16.567-16.322 11.928-.408.707-.735.337-79.362 36.313a1.445 1.445 0 0 0 .336 2.79l109.731 4.53-.198 5.07-126.49-5.056-94.382-1.74-.922-.017-.688-.59-41.05-35.165-.184-.157-.145-.181-23.129-28.904-.04-.05-76.897-100.226-.526-.685.01-.876.243-23.362-2.89-7.07-1.495-2.336-17.119-26.736-.217-.338-.1-.377L7.37 289.6l-.11-.413.03-.422 10.184-139.788.014-.192.066-.255 8.13-31.558 5.875-101.016-2.492.139-.278-5.071 10.055-.558.279 5.071-2.464.137z" fill="#4d4d4c"/><path id="border" fill="none" stroke="#683200" stroke-miterlimit="22.926" stroke-width="2" d="M271.74 539.397h-96.866l-45.204-43.249-76.003-97.932-39.74-52.197-12.916-43.746 11.922-152.116 8.445-34.798 5.961-104.891 138.096-9.445 11.426 8.451 88.918 128.752 25.335 56.671 55.635 61.145 4.471 14.416 18.38 46.232 4.968 35.295 12.915 97.931 1.669 36.21-24.261 16.803-58.629 24.576"/><path id="water" d="M358.898 522.383c4.138 5.626 10.795 7.31 22.827 7.31 15.324 0 13.056-10.462 12.307-20.868-.344-4.784-.78-11.103-5.764-11.882-6.398-1-10.258 3.02-14.942 6.443-2.884 2.108-3.59 3.923-8.107 4.779-7.994 1.515-10.911 7.976-6.32 14.218z" fill="#00cdff" fill-rule="evenodd"/><g id="trees" fill-rule="evenodd"><path d="M35.568 279.257a4.56 4.56 0 0 1 1.523 7.5 3.59 3.59 0 0 1-5.02 5.016 5.656 5.656 0 0 1-9.955-2.292 2.902 2.902 0 0 1-1.606-4.85 4.558 4.558 0 0 1 4.104-7.362 3.818 3.818 0 0 1 6.775-1.31 2.901 2.901 0 0 1 4.179 3.298z" fill="#1d6d03"/><path d="M29.019 290.356a3.51 3.51 0 0 1 5.755 1.271 2.768 2.768 0 0 1 1.961 5.108 4.363 4.363 0 0 1-4.726 6.3 2.233 2.233 0 0 1-3.915-.384 3.511 3.511 0 0 1-4.193-4.564 3.536 3.536 0 0 1 .294-.631 2.946 2.946 0 0 1 1.196-5.185 2.235 2.235 0 0 1 3.628-1.915zM45.819 278.218a2.52 2.52 0 0 1 4.131.913 1.987 1.987 0 0 1 1.408 3.665 3.132 3.132 0 0 1-3.393 4.523 1.603 1.603 0 0 1-2.81-.276 2.522 2.522 0 0 1-2.8-3.729 2.115 2.115 0 0 1 .86-3.722 1.603 1.603 0 0 1 2.603-1.374z" fill="#227f06"/><path d="M39.891 303.586a2.881 2.881 0 0 1 .963 4.739 2.268 2.268 0 0 1-3.172 3.17 3.574 3.574 0 0 1-6.29-1.45 1.833 1.833 0 0 1-1.014-3.063 2.88 2.88 0 0 1 2.592-4.652 2.413 2.413 0 0 1 4.28-.828 1.833 1.833 0 0 1 2.641 2.084zM54.214 294.432a3.541 3.541 0 0 1-2.466 5.409 2.787 2.787 0 0 1-5.444.857 4.397 4.397 0 0 1-5.209-5.99 2.254 2.254 0 0 1 1.204-3.78 3.539 3.539 0 0 1 5.939-2.751 2.967 2.967 0 0 1 4.855 2.272 2.255 2.255 0 0 1 1.12 3.983zM132.071 234.64a3.297 3.297 0 0 1 1.102 5.424 2.596 2.596 0 0 1-3.631 3.628 4.091 4.091 0 0 1-7.2-1.658 2.099 2.099 0 0 1-1.16-3.507 3.297 3.297 0 0 1 2.967-5.324 2.761 2.761 0 0 1 4.9-.948 2.098 2.098 0 0 1 3.022 2.385zM116.624 238.974a2.587 2.587 0 0 1 .864 4.254 2.036 2.036 0 0 1-2.847 2.846 3.209 3.209 0 0 1-5.647-1.3 1.646 1.646 0 0 1-.911-2.752 2.586 2.586 0 0 1 2.328-4.176 2.166 2.166 0 0 1 3.843-.743 1.646 1.646 0 0 1 2.37 1.87z" fill="#1d6d03"/><path d="M110.516 245.8a2.52 2.52 0 0 1 4.134.913 1.988 1.988 0 0 1 1.408 3.668 3.134 3.134 0 0 1-3.394 4.525 1.604 1.604 0 0 1-2.812-.276 2.521 2.521 0 0 1-3.011-3.278 2.551 2.551 0 0 1 .21-.453 2.116 2.116 0 0 1 .86-3.724 1.605 1.605 0 0 1 2.605-1.375zM376.863 378.385a3.137 3.137 0 0 1 5.145 1.137 2.474 2.474 0 0 1 1.754 4.566 3.9 3.9 0 0 1-4.225 5.633 1.996 1.996 0 0 1-3.5-.344 3.14 3.14 0 0 1-3.75-4.08 3.16 3.16 0 0 1 .263-.564 2.634 2.634 0 0 1 1.07-4.636 1.998 1.998 0 0 1 3.243-1.712z" fill="#227f06"/><path d="M379.415 375.579a2.45 2.45 0 0 1-1.706 3.743 1.929 1.929 0 0 1-3.767.594 3.043 3.043 0 0 1-3.605-4.146 1.56 1.56 0 0 1 .833-2.616 2.449 2.449 0 0 1 4.11-1.904 2.053 2.053 0 0 1 3.36 1.573 1.56 1.56 0 0 1 .775 2.756zM383.23 397.533a2.45 2.45 0 0 1-1.706 3.743 1.929 1.929 0 0 1-3.767.594 3.043 3.043 0 0 1-3.605-4.146 1.56 1.56 0 0 1 .833-2.616 2.448 2.448 0 0 1 4.11-1.903 2.053 2.053 0 0 1 3.36 1.573 1.56 1.56 0 0 1 .775 2.755zM385.62 418.47a2.89 2.89 0 0 1-2.011 4.414 2.274 2.274 0 0 1-4.442.7 3.588 3.588 0 0 1-4.25-4.888 1.839 1.839 0 0 1 .982-3.085 2.888 2.888 0 0 1 4.846-2.244 2.42 2.42 0 0 1 3.961 1.855 1.82 1.82 0 0 1 .713.253 1.839 1.839 0 0 1 .201 2.995z" fill="#1d6d03"/><path d="M386.445 427.344a2.09 2.09 0 0 1-1.455 3.19 1.644 1.644 0 0 1-3.211.507 2.594 2.594 0 0 1-3.074-3.534 1.33 1.33 0 0 1 .711-2.23 2.088 2.088 0 0 1 3.173-1.872 2.104 2.104 0 0 1 .33.249 1.75 1.75 0 0 1 2.864 1.34 1.33 1.33 0 0 1 .662 2.35z" fill="#227f06"/><path d="M385.682 439.095a2.548 2.548 0 0 1-1.774 3.892 2.005 2.005 0 0 1-3.916.617 3.164 3.164 0 0 1-3.749-4.31 1.622 1.622 0 0 1 .867-2.72 2.546 2.546 0 0 1 4.273-1.98 2.134 2.134 0 0 1 3.493 1.636 1.623 1.623 0 0 1 .806 2.865z" fill="#1d6d03"/><path d="M389.335 451.165a3.243 3.243 0 0 1-2.258 4.953 2.552 2.552 0 0 1-4.985.786 4.026 4.026 0 0 1-4.77-5.486 2.064 2.064 0 0 1 1.102-3.462 3.24 3.24 0 0 1 4.926-2.906 3.292 3.292 0 0 1 .513.387 2.717 2.717 0 0 1 4.445 2.082 2.065 2.065 0 0 1 1.027 3.646zM388.226 479.504a2.548 2.548 0 0 1-1.774 3.892 2.005 2.005 0 0 1-3.916.617 3.164 3.164 0 0 1-3.749-4.31 1.622 1.622 0 0 1 .867-2.72 2.546 2.546 0 0 1 3.87-2.284 2.57 2.57 0 0 1 .403.305 2.134 2.134 0 0 1 3.493 1.635 1.623 1.623 0 0 1 .806 2.865zM382.376 488.674a1.737 1.737 0 0 1-1.21 2.654 1.367 1.367 0 0 1-2.67.42 2.157 2.157 0 0 1-2.556-2.938 1.106 1.106 0 0 1 .59-1.855 1.736 1.736 0 0 1 2.914-1.35 1.455 1.455 0 0 1 2.382 1.116 1.106 1.106 0 0 1 .55 1.953z" fill="#227f06"/><path d="M377.07 490.398a2.663 2.663 0 0 1-1.855 4.069 2.097 2.097 0 0 1-4.094.645 3.307 3.307 0 0 1-3.919-4.506 1.695 1.695 0 0 1 .906-2.843 2.662 2.662 0 0 1 4.046-2.388 2.697 2.697 0 0 1 .421.318 2.231 2.231 0 0 1 3.652 1.71 1.696 1.696 0 0 1 .843 2.995zM361.39 497.901a1.737 1.737 0 0 1-1.209 2.654 1.367 1.367 0 0 1-2.67.421 2.157 2.157 0 0 1-2.556-2.939 1.106 1.106 0 0 1 .59-1.855 1.736 1.736 0 0 1 2.914-1.349 1.456 1.456 0 0 1 2.382 1.115 1.105 1.105 0 0 1 .795 1.672 1.09 1.09 0 0 1-.245.281z" fill="#1d6d03"/></g></svg>