<svg id="main" xmlns="http://www.w3.org/2000/svg" viewBox="0 0 398.01144 540.3966">
  <title>plan_1</title>
  <polygon class="area_alt" points="1.508 295.314 24.855 333.592 29.325 343.037 28.829 359.441 27.836 357.453 13.927 343.534 1.508 303.765 1.508 295.314 1.508 295.314" fill="#6bbc3a" fill-rule="evenodd"></polygon>
  <polygon class="area" id="id318" points="90.945 253.675 92.041 235.403 60.569 233.703 58.733 251.844 90.945 253.675 90.945 253.675" fill="#6bbc3a" fill-rule="evenodd"></polygon>
  <polygon class="area" id="id317" points="92.16 233.424 93.265 214.991 61.861 213.463 60.712 231.723 92.16 233.424 92.16 233.424" fill="#6bbc3a" fill-rule="evenodd"></polygon>
  <polygon class="area" id="id316" points="93.384 213.011 94.455 195.14 63.124 193.38 61.984 211.484 93.384 213.011 93.384 213.011" fill="#6bbc3a" fill-rule="evenodd"></polygon>
  <polygon class="area" id="id315" points="94.574 193.16 95.679 174.733 64.393 173.201 63.248 191.4 94.574 193.16 94.574 193.16" fill="#6bbc3a" fill-rule="evenodd"></polygon>
  <polygon class="area" id="id314" points="95.798 172.753 96.901 154.348 65.683 152.698 64.518 171.221 95.798 172.753 95.798 172.753" fill="#6bbc3a" fill-rule="evenodd"></polygon>
  <polygon class="area" id="id313" points="97.02 152.369 98.228 132.214 67.089 130.353 65.807 150.719 97.02 152.369 97.02 152.369" fill="#6bbc3a" fill-rule="evenodd"></polygon>
  <polygon class="area" id="id312" points="98.347 130.233 99.449 111.848 68.358 110.173 67.213 128.373 98.347 130.233 98.347 130.233" fill="#6bbc3a" fill-rule="evenodd"></polygon>
  <polygon class="area" id="id311" points="99.568 109.869 100.655 91.739 69.616 90.184 68.483 108.194 99.568 109.869 99.568 109.869" fill="#6bbc3a" fill-rule="evenodd"></polygon>
  <polygon class="area" id="id310" points="100.773 89.76 101.855 71.721 70.889 69.941 69.74 88.204 100.773 89.76 100.773 89.76" fill="#6bbc3a" fill-rule="evenodd"></polygon>
  <polygon class="area" id="id309" points="71.013 67.961 101.973 69.742 103.084 51.229 72.17 49.579 71.013 67.961" fill="#6bbc3a"></polygon>
  <polygon class="area" id="id308" points="73.467 28.958 72.295 47.599 103.202 49.249 104.336 30.343 73.467 28.958" fill="#6bbc3a"></polygon>
  <polygon class="area" id="id307" points="76.857 7.628 76.998 7.652 73.7 26.984 104.284 28.429 105.826 5.497 104.46 5.57 76.857 7.628" fill="#6bbc3a"></polygon>
  <polygon class="area_alt" id="id306" points="56.204 273.829 17.546 271.485 16.411 286.366 20.882 303.268 32.307 322.655 89.751 278.909 90.827 255.655 58.533 253.819 56.333 274.258 56.204 273.829 56.204 273.829" fill="#6bbc3a" fill-rule="evenodd"></polygon>
  <polygon class="area" id="id305" points="19.066 251.576 17.697 269.508 54.75 271.525 56.553 253.707 19.066 251.576 19.066 251.576" fill="#6bbc3a" fill-rule="evenodd"></polygon>
  <polygon class="area" id="id304" points="20.594 231.542 58.589 233.595 56.753 251.732 19.216 249.598 20.594 231.542" fill="#6bbc3a" fill-rule="evenodd"></polygon>
  <polygon class="area" id="id303" points="22.121 211.53 59.88 213.367 58.731 231.617 20.745 229.563 22.121 211.53" fill="#6bbc3a" fill-rule="evenodd"></polygon>
  <polygon class="area" id="id302" points="23.697 190.874 23.697 190.874 61.144 193.269 60.004 211.387 22.272 209.552 23.697 190.874" fill="#6bbc3a" fill-rule="evenodd"></polygon>
  <polygon class="area" id="id301" points="25.193 171.28 23.826 189.186 61.268 191.289 62.412 173.104 25.193 171.28 25.193 171.28" fill="#6bbc3a" fill-rule="evenodd"></polygon>
  <polygon class="area" id="id300" points="26.994 149.089 26.842 149.66 25.343 169.302 62.537 171.124 63.702 152.594 26.914 150.649 26.994 149.089 26.994 149.089" fill="#6bbc3a" fill-rule="evenodd"></polygon>
  <polygon class="area" id="id299" points="32.515 128.288 27.104 148.673 63.827 150.614 65.109 130.235 32.515 128.288 32.515 128.288" fill="#6bbc3a" fill-rule="evenodd"></polygon>
  <polygon class="area" id="id298" points="35.717 108.414 35.287 117.844 33.034 126.331 65.233 128.255 66.378 110.066 35.717 108.414 35.717 108.414" fill="#6bbc3a" fill-rule="evenodd"></polygon>
  <polygon class="area" id="id297" points="36.625 88.53 35.807 106.432 66.502 108.086 67.635 90.084 36.625 88.53 36.625 88.53" fill="#6bbc3a" fill-rule="evenodd"></polygon>
  <polygon class="area" id="id296" points="37.56 68.024 36.715 86.549 67.759 88.105 68.909 69.827 37.56 68.024 37.56 68.024" fill="#6bbc3a" fill-rule="evenodd"></polygon>
  <polygon class="area" id="id295" points="38.484 47.78 37.65 66.042 69.034 67.847 70.19 49.473 38.484 47.78 38.484 47.78" fill="#6bbc3a" fill-rule="evenodd"></polygon>
  <polygon class="area" id="id294" points="39.414 27.397 38.574 45.8 70.314 47.494 71.486 28.867 39.414 27.397 39.414 27.397" fill="#6bbc3a" fill-rule="evenodd"></polygon>
  <polygon class="area" id="id293" points="39.505 25.417 71.702 26.892 74.965 7.769 40.192 10.362 39.505 25.417" fill="#6bbc3a"></polygon>
  <polygon class="area" id="id320" points="116.807 29.467 148.361 31.331 150.011 1.976 118.244 4.005 116.807 29.467 116.807 29.467" fill="#6bbc3a" fill-rule="evenodd"></polygon>
  <polygon class="area" id="id321" points="116.759 31.395 115.628 50.339 147.198 52.02 148.25 33.312 116.759 31.395 116.759 31.395" fill="#6bbc3a" fill-rule="evenodd"></polygon>
  <polygon class="area" id="id322" points="115.578 51.239 114.503 70.273 146.065 72.194 147.087 54 115.523 52.319 115.578 51.239 115.578 51.239" fill="#6bbc3a" fill-rule="evenodd"></polygon>
  <polygon class="area" id="id325" points="112.101 112.645 111.072 131.055 142.661 132.744 143.699 114.286 112.101 112.645 112.101 112.645" fill="#6bbc3a" fill-rule="evenodd"></polygon>
  <polygon class="area" id="id323" points="113.348 90.738 144.936 92.265 145.953 74.175 114.391 72.254 113.348 90.738 113.348 90.738" fill="#6bbc3a" fill-rule="evenodd"></polygon>
  <polygon class="area" id="id324" points="113.286 92.672 112.225 110.625 143.81 112.306 144.825 94.245 113.286 92.672 113.286 92.672" fill="#6bbc3a" fill-rule="evenodd"></polygon>
  <polygon class="area" id="id328" points="108.204 179.856 107.049 202.295 138.643 204.219 139.906 181.757 108.204 179.856 108.204 179.856" fill="#6bbc3a" fill-rule="evenodd"></polygon>
  <polygon class="area" id="id327" points="109.583 155.583 108.433 177.798 140.018 179.776 141.27 157.496 109.583 155.583 109.583 155.583" fill="#6bbc3a" fill-rule="evenodd"></polygon>
  <polygon class="area" id="id326" points="109.801 153.563 141.381 155.516 142.55 134.724 110.96 133.035 109.801 153.563 109.801 153.563" fill="#6bbc3a" fill-rule="evenodd"></polygon>
  <polygon class="area" id="id329" points="106.938 204.276 105.644 227.201 137.325 227.677 138.532 206.199 106.938 204.276 106.938 204.276" fill="#6bbc3a" fill-rule="evenodd"></polygon>
  <polygon class="area" id="id330" points="136.523 241.796 137.213 229.657 105.532 229.18 103.342 267.973 136.523 241.796 136.523 241.796" fill="#6bbc3a" fill-rule="evenodd"></polygon>
  <polygon class="area" id="id340" points="138.64 240.119 171.397 214.284 171.735 208.221 140.511 206.32 138.64 240.119 138.64 240.119" fill="#6bbc3a" fill-rule="evenodd"></polygon>
  <polygon class="area" id="id339" points="171.846 206.24 173.098 183.801 141.885 181.879 140.622 204.339 171.846 206.24 171.846 206.24" fill="#6bbc3a" fill-rule="evenodd"></polygon>
  <polygon class="area" id="id338" points="173.208 181.821 174.459 159.412 143.248 157.611 141.996 179.898 173.208 181.821 173.208 181.821" fill="#6bbc3a" fill-rule="evenodd"></polygon>
  <polygon class="area" id="id337" points="174.569 157.432 175.737 136.498 144.529 134.83 143.36 155.63 174.569 157.432 174.569 157.432" fill="#6bbc3a" fill-rule="evenodd"></polygon>
  <polygon class="area" id="id336" points="175.847 134.519 176.876 116.081 145.678 114.393 144.64 132.85 175.847 134.519 175.847 134.519" fill="#6bbc3a" fill-rule="evenodd"></polygon>
  <polygon class="area" id="id335" points="176.987 114.1 178.003 95.898 146.805 94.343 145.789 112.413 176.987 114.1 176.987 114.1" fill="#6bbc3a" fill-rule="evenodd"></polygon>
  <polygon class="area" id="id334" points="178.113 93.918 179.102 76.194 147.932 74.296 146.916 92.363 178.113 93.918 178.113 93.918" fill="#6bbc3a" fill-rule="evenodd"></polygon>
  <polygon class="area" id="id333" points="179.212 74.213 180.242 55.767 149.066 54.106 148.043 72.315 179.212 74.213 179.212 74.213" fill="#6bbc3a" fill-rule="evenodd"></polygon>
  <polygon class="area" id="id332" points="180.352 53.786 181.382 35.329 150.229 33.433 149.178 52.126 180.352 53.786 180.352 53.786" fill="#6bbc3a" fill-rule="evenodd"></polygon>
  <polygon class="area" id="id331" points="181.493 33.348 182.325 18.422 177.357 9.971 164.939 1.023 152.004 1.849 150.34 31.451 181.493 33.348 181.493 33.348" fill="#6bbc3a" fill-rule="evenodd"></polygon>
  <polygon class="area" id="id341" points="194.744 35.821 192.048 81.146 226.556 81.585 194.744 35.821 194.744 35.821" fill="#6bbc3a" fill-rule="evenodd"></polygon>
  <polygon class="area" id="id342" points="191.93 83.125 190.871 100.927 240.33 101.398 227.945 83.583 191.93 83.125 191.93 83.125" fill="#6bbc3a" fill-rule="evenodd"></polygon>
  <polygon class="area" id="id343" points="190.754 102.906 189.627 121.843 221.403 123.237 245.032 108.163 241.716 103.392 190.754 102.906 190.754 102.906" fill="#6bbc3a" fill-rule="evenodd"></polygon>
  <polygon class="area" id="id344" points="189.509 123.823 188.427 142.02 219.646 143.152 220.532 125.183 189.509 123.823 189.509 123.823" fill="#6bbc3a" fill-rule="evenodd"></polygon>
  <polygon class="area" id="id345" points="188.31 143.998 187.215 162.404 218.64 163.533 219.548 145.132 188.31 143.998 188.31 143.998" fill="#6bbc3a" fill-rule="evenodd"></polygon>
  <polygon class="area" id="id346" points="187.097 164.383 184.809 202.851 217.989 176.733 218.542 165.513 187.097 164.383 187.097 164.383" fill="#6bbc3a" fill-rule="evenodd"></polygon>
  <polygon class="area" id="id347" points="220.053 175.108 244.153 156.138 222.435 126.829 220.053 175.108 220.053 175.108" fill="#6bbc3a" fill-rule="evenodd"></polygon>
  <polygon class="area" id="id348" points="245.71 154.911 266.275 138.724 246.163 109.79 223.152 124.469 245.71 154.911 245.71 154.911" fill="#6bbc3a" fill-rule="evenodd"></polygon>
  <polygon class="area" id="id350" points="40.312 334.006 44.263 340.43 42.287 363.657 46.376 369.402 71.341 349.628 53.185 323.864 40.312 334.006 40.312 334.006" fill="#6bbc3a" fill-rule="evenodd"></polygon>
  <polygon class="area" id="id364" points="47.518 371.007 65.498 396.275 90.338 376.585 72.476 351.239 47.518 371.007 47.518 371.007" fill="#6bbc3a" fill-rule="evenodd"></polygon>
  <polygon class="area" id="id365" points="91.886 375.357 110.095 360.923 91.31 336.321 74.024 350.012 91.886 375.357 91.886 375.357" fill="#6bbc3a" fill-rule="evenodd"></polygon>
  <polygon class="area" id="id366" points="111.641 359.699 125.556 348.668 106.881 323.988 92.856 335.096 111.641 359.699 111.641 359.699" fill="#6bbc3a" fill-rule="evenodd"></polygon>
  <polygon class="area" id="id367" points="127.102 347.442 141.366 336.135 122.806 311.374 108.427 322.764 127.102 347.442 127.102 347.442" fill="#6bbc3a" fill-rule="evenodd"></polygon>
  <polygon class="area" id="id368" points="142.91 334.912 157.584 323.281 138.918 298.613 124.349 310.152 142.91 334.912 142.91 334.912" fill="#6bbc3a" fill-rule="evenodd"></polygon>
  <polygon class="area" id="id369" points="159.129 322.055 172.986 311.072 154.439 286.32 140.464 297.388 159.129 322.055 159.129 322.055" fill="#6bbc3a" fill-rule="evenodd"></polygon>
  <polygon class="area" id="id370" points="174.528 309.848 189.377 298.078 170.574 273.54 155.982 285.097 174.528 309.848 174.528 309.848" fill="#6bbc3a" fill-rule="evenodd"></polygon>
  <polygon class="area" id="id371" points="190.923 296.853 205.242 285.503 186.595 260.85 172.119 272.316 190.923 296.853 190.923 296.853" fill="#6bbc3a" fill-rule="evenodd"></polygon>
  <polygon class="area" id="id372" points="206.788 284.277 220.573 273.35 202.199 248.491 188.143 259.624 206.788 284.277 206.788 284.277" fill="#6bbc3a" fill-rule="evenodd"></polygon>
  <polygon class="area" id="id373" points="222.117 272.126 236.819 260.473 218.025 235.956 203.744 247.268 222.117 272.126 222.117 272.126" fill="#6bbc3a" fill-rule="evenodd"></polygon>
  <polygon class="area" id="id374" points="238.364 259.248 252.422 248.104 233.866 223.409 219.571 234.731 238.364 259.248 238.364 259.248" fill="#6bbc3a" fill-rule="evenodd"></polygon>
  <polygon class="area" id="id375" points="253.965 246.881 268.514 235.349 249.777 210.807 235.409 222.187 253.965 246.881 253.965 246.881" fill="#6bbc3a" fill-rule="evenodd"></polygon>
  <polygon class="area" id="id376" points="270.059 234.124 284.325 222.815 265.685 198.207 251.324 209.582 270.059 234.124 270.059 234.124" fill="#6bbc3a" fill-rule="evenodd"></polygon>
  <polygon class="area" id="id377" points="285.872 221.589 303.035 207.984 291.183 194.147 285.95 182.156 267.231 196.982 285.872 221.589 285.872 221.589" fill="#6bbc3a" fill-rule="evenodd"></polygon>
  <polygon class="area" id="id363" points="285.136 180.291 272.417 151.151 247.427 170.838 266.043 195.413 285.136 180.291 285.136 180.291" fill="#6bbc3a" fill-rule="evenodd"></polygon>
  <polygon class="area" id="id362" points="245.877 172.06 231.391 183.471 250.13 208.018 264.496 196.639 245.877 172.06 245.877 172.06" fill="#6bbc3a" fill-rule="evenodd"></polygon>
  <polygon class="area" id="id361" points="229.842 184.692 215.641 195.88 234.227 220.614 248.584 209.242 229.842 184.692 229.842 184.692" fill="#6bbc3a" fill-rule="evenodd"></polygon>
  <polygon class="area" id="id360" points="214.094 197.098 199.522 208.578 218.374 233.17 232.683 221.836 214.094 197.098 214.094 197.098" fill="#6bbc3a" fill-rule="evenodd"></polygon>
  <polygon class="area" id="id359" points="197.974 209.798 184.117 220.715 202.573 245.684 216.828 234.394 197.974 209.798 197.974 209.798" fill="#6bbc3a" fill-rule="evenodd"></polygon>
  <polygon class="area" id="id358" points="182.569 221.934 168.198 233.256 186.955 258.055 201.028 246.908 182.569 221.934 182.569 221.934" fill="#6bbc3a" fill-rule="evenodd"></polygon>
  <polygon class="area" id="id357" points="166.649 234.476 151.979 246.033 170.922 270.754 185.409 259.28 166.649 234.476 166.649 234.476" fill="#6bbc3a" fill-rule="evenodd"></polygon>
  <polygon class="area" id="id356" points="150.43 247.254 136.091 258.55 154.802 283.523 169.377 271.979 150.43 247.254 150.43 247.254" fill="#6bbc3a" fill-rule="evenodd"></polygon>
  <polygon class="area" id="id355" points="134.544 259.769 120.418 270.897 139.276 295.819 153.258 284.745 134.544 259.769 134.544 259.769" fill="#6bbc3a" fill-rule="evenodd"></polygon>
  <polygon class="area" id="id354" points="118.869 272.117 104.39 283.524 123.169 308.577 137.73 297.044 118.869 272.117 118.869 272.117" fill="#6bbc3a" fill-rule="evenodd"></polygon>
  <polygon class="area" id="id353" points="102.843 284.743 88.317 296.186 107.24 321.195 121.626 309.8 102.843 284.743 102.843 284.743" fill="#6bbc3a" fill-rule="evenodd"></polygon>
  <polygon class="area" id="id352" points="86.767 297.408 72.6 308.568 91.662 333.533 105.693 322.419 86.767 297.408 86.767 297.408" fill="#6bbc3a" fill-rule="evenodd"></polygon>
  <polygon class="area" id="id351" points="71.052 309.788 54.736 322.642 72.89 348.401 90.116 334.756 71.052 309.788 71.052 309.788" fill="#6bbc3a" fill-rule="evenodd"></polygon>
  <polygon points="74.651 406.883 93.695 430.882 115.055 413.965 96.354 389.695 74.651 406.883 74.651 406.883" fill="#6bbc3a" fill-rule="evenodd" class="area" id="id378"></polygon>
  <polygon points="94.915 432.418 114.513 457.116 135.466 440.454 116.252 415.519 94.915 432.418 94.915 432.418" fill="#6bbc3a" fill-rule="evenodd" class="area" id="id392"></polygon>
  <polygon points="137.003 439.232 154.494 425.324 134.808 400.822 117.791 414.299 137.003 439.232 137.003 439.232" fill="#6bbc3a" fill-rule="evenodd" class="area" id="id393"></polygon>
  <polygon points="156.031 424.101 169.674 413.253 150.299 388.553 136.348 399.602 156.031 424.101 156.031 424.101" fill="#6bbc3a" fill-rule="evenodd" class="area" id="id394"></polygon>
  <polygon points="171.213 412.029 185.253 400.864 165.872 376.22 151.84 387.333 171.213 412.029 171.213 412.029" fill="#6bbc3a" fill-rule="evenodd" class="area" id="id395"></polygon>
  <polygon points="186.792 399.64 201.153 388.22 181.792 363.61 167.413 374.999 186.792 399.64 186.792 399.64" fill="#6bbc3a" fill-rule="evenodd" class="area" id="id396"></polygon>
  <polygon points="202.693 386.996 216.939 375.668 197.589 351.1 183.334 362.39 202.693 386.996 202.693 386.996" fill="#6bbc3a" fill-rule="evenodd" class="area" id="id397"></polygon>
  <polygon points="218.478 374.444 232.843 363.021 213.341 338.624 199.13 349.879 218.478 374.444 218.478 374.444" fill="#6bbc3a" fill-rule="evenodd" class="area" id="id398"></polygon>
  <polygon points="234.377 361.801 250.041 349.346 230.716 324.864 214.877 337.408 234.377 361.801 234.377 361.801" fill="#6bbc3a" fill-rule="evenodd" class="area" id="id399"></polygon>
  <polygon points="251.576 348.125 265.544 337.018 246.238 312.569 232.252 323.646 251.576 348.125 251.576 348.125" fill="#6bbc3a" fill-rule="evenodd" class="area" id="id400"></polygon>
  <polygon points="267.078 335.798 281.712 324.161 262.359 299.802 247.775 311.352 267.078 335.798 267.078 335.798" fill="#6bbc3a" fill-rule="evenodd" class="area" id="id401"></polygon>
  <polygon points="283.249 322.939 297.076 311.945 277.826 287.552 263.899 298.581 283.249 322.939 283.249 322.939" fill="#6bbc3a" fill-rule="evenodd" class="area" id="id402"></polygon>
  <polygon points="298.609 310.725 312.586 299.61 293.393 275.222 279.363 286.335 298.609 310.725 298.609 310.725" fill="#6bbc3a" fill-rule="evenodd" class="area" id="id403"></polygon>
  <polygon points="314.125 298.386 329.747 285.964 310.685 261.527 294.935 274.001 314.125 298.386 314.125 298.386" fill="#6bbc3a" fill-rule="evenodd" class="area" id="id404"></polygon>
  <polygon points="331.283 284.743 351.717 268.495 346.304 256.182 334.427 242.724 312.224 260.309 331.283 284.743 331.283 284.743" fill="#6bbc3a" fill-rule="evenodd" class="area" id="id405"></polygon>
  <polygon points="333.128 241.251 312.839 218.261 292.184 234.618 311.017 258.763 333.128 241.251 333.128 241.251" fill="#6bbc3a" fill-rule="evenodd" class="area" id="id391"></polygon>
  <polygon points="290.645 235.836 274.785 248.396 293.723 272.461 309.479 259.981 290.645 235.836 290.645 235.836" fill="#6bbc3a" fill-rule="evenodd" class="area" id="id390"></polygon>
  <polygon points="273.243 249.617 259.177 260.756 278.148 284.795 292.181 273.681 273.243 249.617 273.243 249.617" fill="#6bbc3a" fill-rule="evenodd" class="area" id="id389"></polygon>
  <polygon points="257.641 261.973 243.629 273.068 262.679 297.047 276.611 286.013 257.641 261.973 257.641 261.973" fill="#6bbc3a" fill-rule="evenodd" class="area" id="id388"></polygon>
  <polygon points="242.089 274.288 227.58 285.777 246.56 309.814 261.14 298.267 242.089 274.288 242.089 274.288" fill="#6bbc3a" fill-rule="evenodd" class="area" id="id387"></polygon>
  <polygon points="226.044 286.994 212.061 298.068 231.037 322.107 245.024 311.03 226.044 286.994 226.044 286.994" fill="#6bbc3a" fill-rule="evenodd" class="area" id="id386"></polygon>
  <polygon points="210.524 299.284 194.526 311.953 213.652 335.877 229.501 323.324 210.524 299.284 210.524 299.284" fill="#6bbc3a" fill-rule="evenodd" class="area" id="id385"></polygon>
  <polygon points="192.991 313.168 178.964 324.276 197.916 348.339 212.117 337.092 192.991 313.168 192.991 313.168" fill="#6bbc3a" fill-rule="evenodd" class="area" id="id384"></polygon>
  <polygon points="177.423 325.497 163.182 336.775 182.122 360.849 196.375 349.56 177.423 325.497 177.423 325.497" fill="#6bbc3a" fill-rule="evenodd" class="area" id="id383"></polygon>
  <polygon points="161.64 337.995 147.265 349.38 166.201 373.457 180.58 362.07 161.64 337.995 161.64 337.995" fill="#6bbc3a" fill-rule="evenodd" class="area" id="id382"></polygon>
  <polygon points="145.723 350.6 131.724 361.686 150.631 385.789 164.66 374.679 145.723 350.6 145.723 350.6" fill="#6bbc3a" fill-rule="evenodd" class="area" id="id381"></polygon>
  <polygon points="130.182 362.907 115.933 374.191 135.12 398.074 149.089 387.01 130.182 362.907 130.182 362.907" fill="#6bbc3a" fill-rule="evenodd" class="area" id="id380"></polygon>
  <polygon points="114.393 375.411 97.894 388.477 116.594 412.746 133.58 399.293 114.393 375.411 114.393 375.411" fill="#6bbc3a" fill-rule="evenodd" class="area" id="id379"></polygon>
  <polygon points="122.641 468.567 143.553 491.872 164.815 474.951 145.076 450.799 122.641 468.567 122.641 468.567" fill="#6bbc3a" fill-rule="evenodd" class="area" id="id406"></polygon>
  <polygon points="144.956 493.268 168.894 513.869 185.678 500.48 166.059 476.473 144.956 493.268 144.956 493.268" fill="#6bbc3a" fill-rule="evenodd" class="area" id="id419"></polygon>
  <polygon points="187.216 499.253 202.449 487.101 183.329 462.728 167.599 475.247 187.216 499.253 187.216 499.253" fill="#6bbc3a" fill-rule="evenodd" class="area" id="id420"></polygon>
  <polygon points="203.985 485.875 218.112 474.606 198.94 450.304 184.868 461.504 203.985 485.875 203.985 485.875" fill="#6bbc3a" fill-rule="evenodd" class="area" id="id421"></polygon>
  <polygon points="219.644 473.384 233.942 461.979 214.684 437.775 200.473 449.083 219.644 473.384 219.644 473.384" fill="#6bbc3a" fill-rule="evenodd" class="area" id="id422"></polygon>
  <polygon points="235.478 460.754 249.379 449.664 230.169 425.451 216.222 436.551 235.478 460.754 235.478 460.754" fill="#6bbc3a" fill-rule="evenodd" class="area" id="id423"></polygon>
  <polygon points="250.915 448.438 265.108 437.117 246.075 412.792 231.705 424.228 250.915 448.438 250.915 448.438" fill="#6bbc3a" fill-rule="evenodd" class="area" id="id424"></polygon>
  <polygon points="266.641 435.894 280.546 424.802 261.502 400.515 247.61 411.571 266.641 435.894 266.641 435.894" fill="#6bbc3a" fill-rule="evenodd" class="area" id="id425"></polygon>
  <polygon points="282.083 423.576 298.569 410.425 279.314 386.339 263.041 399.29 282.083 423.576 282.083 423.576" fill="#6bbc3a" fill-rule="evenodd" class="area" id="id426"></polygon>
  <polygon points="300.099 409.203 313.983 398.129 294.756 374.05 280.847 385.12 300.099 409.203 300.099 409.203" fill="#6bbc3a" fill-rule="evenodd" class="area" id="id427"></polygon>
  <polygon points="315.514 396.907 329.544 385.714 310.375 361.619 296.289 372.83 315.514 396.907 315.514 396.907" fill="#6bbc3a" fill-rule="evenodd" class="area" id="id428"></polygon>
  <polygon points="331.081 384.489 345.5 372.987 326.303 348.943 311.913 360.395 331.081 384.489 331.081 384.489" fill="#6bbc3a" fill-rule="evenodd" class="area" id="id429"></polygon>
  <polygon points="347.031 371.765 360.729 360.839 342.113 336.361 327.835 347.724 347.031 371.765 347.031 371.765" fill="#6bbc3a" fill-rule="evenodd" class="area" id="id430"></polygon>
  <polygon points="362.264 359.613 375.063 349.403 363.591 319.267 343.65 335.138 362.264 359.613 362.264 359.613" fill="#6bbc3a" fill-rule="evenodd" class="area" id="id431"></polygon>
  <polygon points="362.858 317.34 351.445 287.36 325.35 308.026 342.501 333.54 362.858 317.34 362.858 317.34" fill="#6bbc3a" fill-rule="evenodd" class="area" id="id418"></polygon>
  <polygon points="323.807 309.248 307.454 322.199 326.609 346.188 340.961 334.766 323.807 309.248 323.807 309.248" fill="#6bbc3a" fill-rule="evenodd" class="area" id="id417"></polygon>
  <polygon points="305.919 323.415 291.548 334.796 310.689 358.857 325.076 347.408 305.919 323.415 305.919 323.415" fill="#6bbc3a" fill-rule="evenodd" class="area" id="id416"></polygon>
  <polygon points="290.007 336.017 275.848 347.231 295.062 371.294 309.152 360.081 290.007 336.017 290.007 336.017" fill="#6bbc3a" fill-rule="evenodd" class="area" id="id415"></polygon>
  <polygon points="274.313 348.446 260.362 359.495 279.62 383.584 293.529 372.515 274.313 348.446 274.313 348.446" fill="#6bbc3a" fill-rule="evenodd" class="area" id="id414"></polygon>
  <polygon points="258.827 360.711 242.765 373.432 261.828 397.744 278.087 384.804 258.827 360.711 258.827 360.711" fill="#6bbc3a" fill-rule="evenodd" class="area" id="id413"></polygon>
  <polygon points="241.223 374.653 227.332 385.654 246.398 410.023 260.289 398.968 241.223 374.653 241.223 374.653" fill="#6bbc3a" fill-rule="evenodd" class="area" id="id412"></polygon>
  <polygon points="225.794 386.873 211.223 398.412 230.485 422.688 244.864 411.245 225.794 386.873 225.794 386.873" fill="#6bbc3a" fill-rule="evenodd" class="area" id="id411"></polygon>
  <polygon points="209.683 399.632 195.675 410.725 214.998 435.013 228.947 423.912 209.683 399.632 209.683 399.632" fill="#6bbc3a" fill-rule="evenodd" class="area" id="id410"></polygon>
  <polygon points="194.134 411.945 180.004 423.137 199.257 447.541 213.461 436.237 194.134 411.945 194.134 411.945" fill="#6bbc3a" fill-rule="evenodd" class="area" id="id409"></polygon>
  <polygon points="178.467 424.354 164.44 435.464 183.654 459.958 197.723 448.762 178.467 424.354 178.467 424.354" fill="#6bbc3a" fill-rule="evenodd" class="area" id="id408"></polygon>
  <polygon points="162.898 436.684 146.619 449.577 166.355 473.725 182.116 461.182 162.898 436.684 162.898 436.684" fill="#6bbc3a" fill-rule="evenodd" class="area" id="id407"></polygon>
  <polygon points="180.337 521.5 187.292 523.985 228.188 524.729 207.551 499.741 180.337 521.5 180.337 521.5" fill="#6bbc3a" fill-rule="evenodd" class="area" id="id432"></polygon>
  <polygon points="233.423 524.825 269.256 525.476 281.537 520.021 265.09 499.838 233.423 524.825 233.423 524.825" fill="#6bbc3a" fill-rule="evenodd" class="area" id="id442"></polygon>
  <polygon points="283.414 519.188 302.559 510.684 282.386 486.19 266.646 498.61 283.414 519.188 283.414 519.188" fill="#6bbc3a" fill-rule="evenodd" class="area" id="id443"></polygon>
  <polygon points="304.438 509.85 321.827 502.126 298.206 473.707 283.941 484.963 304.438 509.85 304.438 509.85" fill="#6bbc3a" fill-rule="evenodd" class="area" id="id444"></polygon>
  <polygon points="323.706 501.291 340.777 493.709 313.976 461.263 299.761 472.481 323.706 501.291 323.706 501.291" fill="#6bbc3a" fill-rule="evenodd" class="area" id="id445"></polygon>
  <polygon points="342.661 492.872 360.732 484.845 330.088 448.55 315.535 460.033 342.661 492.872 342.661 492.872" fill="#6bbc3a" fill-rule="evenodd" class="area" id="id446"></polygon>
  <polygon points="362.413 483.761 372.878 465.723 346.54 435.569 331.646 447.321 362.413 483.761 362.413 483.761" fill="#6bbc3a" fill-rule="evenodd" class="area" id="id447"></polygon>
  <polygon points="373.928 463.914 380.031 453.395 377.547 411.638 377.442 411.186 348.097 434.341 373.928 463.914 373.928 463.914" fill="#6bbc3a" fill-rule="evenodd" class="area" id="id448"></polygon>
  <polygon points="376.941 409.052 368.109 371.372 342.416 391.914 363.722 419.483 376.941 409.052 376.941 409.052" fill="#6bbc3a" fill-rule="evenodd" class="area" id="id441"></polygon>
  <polygon points="340.868 393.152 323.941 406.685 346.788 432.844 362.166 420.71 340.868 393.152 340.868 393.152" fill="#6bbc3a" fill-rule="evenodd" class="area" id="id440"></polygon>
  <polygon points="322.392 407.924 308.058 419.384 330.364 445.804 345.232 434.072 322.392 407.924 322.392 407.924" fill="#6bbc3a" fill-rule="evenodd" class="area" id="id439"></polygon>
  <polygon points="306.508 420.623 292.339 431.952 314.27 458.502 328.807 447.033 306.508 420.623 306.508 420.623" fill="#6bbc3a" fill-rule="evenodd" class="area" id="id438"></polygon>
  <polygon points="290.788 433.192 276.56 444.567 298.491 470.953 312.712 459.733 290.788 433.192 290.788 433.192" fill="#6bbc3a" fill-rule="evenodd" class="area" id="id437"></polygon>
  <polygon points="275.014 445.804 260.95 457.048 282.678 483.43 296.937 472.18 275.014 445.804 275.014 445.804" fill="#6bbc3a" fill-rule="evenodd" class="area" id="id436"></polygon>
  <polygon points="259.403 458.285 243.891 470.687 265.391 497.071 281.124 484.657 259.403 458.285 259.403 458.285" fill="#6bbc3a" fill-rule="evenodd" class="area" id="id435"></polygon>
  <polygon points="230.596 524.527 209.102 498.501 225.017 485.777 246.387 512.066 230.596 524.527" fill="#6bbc3a" class="area" id="id433"></polygon>
  <polygon points="247.943 510.839 226.565 484.539 242.343 471.925 263.835 498.299 247.943 510.839" fill="#6bbc3a" class="area" id="id434"></polygon>
  <path id="roads" d="M36.659,15.67492L30.7376,117.48127l-0.01351.22978-0.06614.25728-8.13055,31.5604L12.38856,288.70223l4.21036,15.764,11.94642,18.65848c1.57485,2.4597,6.48243,2.99119,8.81039,1.15854L93.7633,279.87694l-0.00807-.00031,15.62054-269.167-2.74884.0964-0.15866-5.071,10.2143-.35827,0.15866,5.071-2.37143.08327L99.5471,267.66763c-0.208,3.58646,2.97566,5.31386,6.02522,2.91289l70.07493-55.16578,9.666-182.20547-2.2095-3.65972,0.61649-7.55745,6.45883,9.163,0.32338,0.01647-0.01894.36044L193.06,34.87787l-0.01987,6.48343-2.959-2.24872-8.70482,164.24651c-0.22247,4.19867,3.42355,4.85057,6.08281,2.757l75.22687-59.22136-1.81331-3.61528,4.53094-2.26713,5.28608,10.53932-4.53079,2.267-1.14682-2.28616L38.2175,330.07392a5.80414,5.80414,0,0,0-1.57935,6.95822l1.85833,4.54653,0.19406,0.47471-0.00512.49972L38.446,365.53865l24.72776,32.22978c1.29959,1.69345,4.69489,1.96836,6.36956.64475L301.458,215.11272l-2.05363-2.50918,3.93463-3.22175,7.19362,8.78963-3.93463,3.22167-1.93021-2.3584L72.04411,402.8957c-1.42068,1.12273-1.91313,3.94108-.80993,5.37841l39.464,51.43622a4.87051,4.87051,0,0,0,6.10905.78073L347.21208,278.25169l-1.4064-3.09544,4.80853-2.68451,4.41156,10.26076-5.0074,2.36632-0.80667-1.96805-229.9894,181.9111c-1.35191,1.06932-1.37675,3.822-.29885,5.1684l18.83885,23.54226,27.559,23.60833a5.22345,5.22345,0,0,0,6.04059.2165L369.153,359.59417l-0.00109-3.40135,4.68092-3.17079,2.12645,14.79532-5.32939,1.60753-0.4451-3.70679L175.94937,520.4137c-1.46912,1.17-1.93021,4.39823-.50223,5.62125l2.49485,2.1372,88.75823,1.63608a17.92463,17.92463,0,0,0,7.69989-1.56l90.06527-41.20681,16.25209-28.02489,4.15338,2.7639-0.10029,16.567-16.32165,11.92717-0.408.70748-0.73464.33663-79.3624,36.31329a1.44464,1.44464,0,0,0,.3358,2.78988l109.73176,4.52986-0.19887,5.071-126.489-5.057L176.9411,533.2262l-0.92171-.01725-0.68791-.58917-41.051-35.16605-0.18319-.15692-0.14485-.18115-23.12932-28.90409-0.03959-.04975L33.88637,367.936l-0.526-.68546,0.00931-.87562L33.613,343.013l-2.89012-7.07047-1.49536-2.33564L12.10911,306.87147l-0.21719-.33869-0.1006-.377L7.37,289.60123l-0.11054-.413,0.03089-.4222L17.47421,148.9782l0.01351-.19218,0.066-.25511,8.12993-31.55768L31.55887,15.95736l-2.49144.13819-0.27836-5.071,10.05533-.55705,0.27836,5.071-2.4638.13641h0Z" fill="#4d4d4c"></path>
  <polyline id="border" points="271.74 539.397 174.874 539.397 129.67 496.148 53.667 398.216 13.927 346.019 1.011 302.273 12.933 150.157 21.378 115.359 27.339 10.468 165.435 1.023 176.861 9.474 265.779 138.226 291.114 194.897 346.749 256.042 351.22 270.458 369.6 316.69 374.568 351.985 387.483 449.916 389.152 486.126 364.891 502.929 306.262 527.505" fill="none" stroke="#683200" stroke-miterlimit="22.92558" stroke-width="2.00013"></polyline>
  <path id="water" d="M358.8983,522.38284c4.13739,5.62587,10.79509,7.3107,22.8272,7.3107,15.32308,0,13.05552-10.46242,12.30628-20.86859-0.34419-4.78423-.78028-11.10317-5.76378-11.88243-6.39766-1.00042-10.25762,3.0211-14.94179,6.44342-2.88468,2.10765-3.5906,3.92271-8.10742,4.77879-7.99378,1.51529-10.91122,7.976-6.3205,14.21811h0Z" fill="#00cdff" fill-rule="evenodd"></path>
  <g id="trees">
    <path d="M35.56787,279.25689a4.55993,4.55993,0,0,1,1.523,7.5,3.58945,3.58945,0,0,1-5.02013,5.01619,5.6564,5.6564,0,0,1-9.955-2.29237,2.90175,2.90175,0,0,1-1.60543-4.84917,4.55844,4.55844,0,0,1,4.1037-7.36263A3.81838,3.81838,0,0,1,31.389,275.959a2.901,2.901,0,0,1,4.17884,3.29788h0Z" fill="#1d6d03" fill-rule="evenodd"></path>
    <path d="M29.019,290.356a3.50929,3.50929,0,0,1,5.75524,1.27141,2.76768,2.76768,0,0,1,1.96126,5.10746,4.36321,4.36321,0,0,1-4.72625,6.30049,2.23337,2.23337,0,0,1-3.91492-.38444,3.51144,3.51144,0,0,1-4.19312-4.56424,3.53589,3.53589,0,0,1,.29389-0.631,2.946,2.946,0,0,1,1.19619-5.18507A2.23461,2.23461,0,0,1,29.019,290.356h0Z" fill="#227f06" fill-rule="evenodd"></path>
    <path d="M45.8185,278.21775a2.5195,2.5195,0,0,1,4.13164.91283,1.98652,1.98652,0,0,1,1.4078,3.66578,3.13235,3.13235,0,0,1-3.393,4.52268,1.60279,1.60279,0,0,1-2.81016-.276,2.522,2.522,0,0,1-2.79883-3.729,2.11481,2.11481,0,0,1,.85853-3.7221,1.60348,1.60348,0,0,1,2.604-1.37418h0Z" fill="#227f06" fill-rule="evenodd"></path>
    <path d="M39.8914,303.58594a2.881,2.881,0,0,1,.96254,4.73871,2.2682,2.2682,0,0,1-3.1722,3.16978,3.57429,3.57429,0,0,1-6.29023-1.44852,1.83345,1.83345,0,0,1-1.01393-3.064,2.87991,2.87991,0,0,1,2.59266-4.65178,2.41255,2.41255,0,0,1,4.28068-.82808,1.83323,1.83323,0,0,1,2.64048,2.08388h0Z" fill="#1d6d03" fill-rule="evenodd"></path>
    <path d="M54.21375,294.43168a3.54138,3.54138,0,0,1-2.46567,5.409,2.78713,2.78713,0,0,1-5.44365.8576A4.39694,4.39694,0,0,1,41.095,294.708a2.25366,2.25366,0,0,1,1.20411-3.78051,3.53872,3.53872,0,0,1,5.93874-2.75092,2.96656,2.96656,0,0,1,4.85495,2.27287,2.25486,2.25486,0,0,1,1.1209,3.98225h0Z" fill="#1d6d03" fill-rule="evenodd"></path>
    <path d="M132.071,234.6403a3.29747,3.29747,0,0,1,1.10165,5.42386,2.596,2.596,0,0,1-3.63066,3.62795,4.09112,4.09112,0,0,1-7.19983-1.65779,2.09877,2.09877,0,0,1-1.1608-3.50707,3.297,3.297,0,0,1,2.9679-5.32466,2.76139,2.76139,0,0,1,4.89982-.94732,2.09774,2.09774,0,0,1,3.02192,2.385h0Z" fill="#1d6d03" fill-rule="evenodd"></path>
    <path d="M116.62419,238.9739a2.58661,2.58661,0,0,1,.86412,4.25421,2.03618,2.03618,0,0,1-2.84773,2.84554,3.20884,3.20884,0,0,1-5.647-1.30031,1.646,1.646,0,0,1-.91054-2.75092,2.586,2.586,0,0,1,2.328-4.1763,2.16589,2.16589,0,0,1,3.84288-.74318,1.64551,1.64551,0,0,1,2.37034,1.871h0Z" fill="#1d6d03" fill-rule="evenodd"></path>
    <path d="M110.51638,245.79975a2.5204,2.5204,0,0,1,4.1332.91306,1.98765,1.98765,0,0,1,1.40857,3.668,3.13367,3.13367,0,0,1-3.39421,4.52516,1.604,1.604,0,0,1-2.81187-.27631,2.52143,2.52143,0,0,1-3.01137-3.27768,2.55128,2.55128,0,0,1,.21083-0.45311,2.11616,2.11616,0,0,1,.8593-3.72427,1.60516,1.60516,0,0,1,2.60555-1.37488h0Z" fill="#227f06" fill-rule="evenodd"></path>
    <path d="M376.86341,378.3851a3.13682,3.13682,0,0,1,5.145,1.13679,2.47429,2.47429,0,0,1,1.75354,4.56595,3.90076,3.90076,0,0,1-4.22541,5.63274,1.99639,1.99639,0,0,1-3.50025-.34374,3.13938,3.13938,0,0,1-3.74864-4.08044,3.16,3.16,0,0,1,.26284-0.56381,2.63417,2.63417,0,0,1,1.06936-4.636,1.9982,1.9982,0,0,1,3.24362-1.71147h0Z" fill="#227f06" fill-rule="evenodd"></path>
    <path d="M379.41493,375.57864a2.45043,2.45043,0,0,1-1.70634,3.743,1.92878,1.92878,0,0,1-3.767.594,3.043,3.043,0,0,1-3.60488-4.14569,1.55919,1.55919,0,0,1,.83338-2.616,2.44853,2.44853,0,0,1,4.10944-1.90381,2.053,2.053,0,0,1,3.3599,1.573,1.55994,1.55994,0,0,1,.77547,2.75551h0Z" fill="#1d6d03" fill-rule="evenodd"></path>
    <path d="M383.23018,397.53321a2.45055,2.45055,0,0,1-1.70619,3.743,1.92877,1.92877,0,0,1-3.767.5938,3.043,3.043,0,0,1-3.60519-4.14561,1.55942,1.55942,0,0,1,.83369-2.616,2.44814,2.44814,0,0,1,4.10913-1.90381,2.053,2.053,0,0,1,3.36006,1.573,1.55986,1.55986,0,0,1,.77547,2.75559h0Z" fill="#1d6d03" fill-rule="evenodd"></path>
    <path d="M385.62039,418.47032a2.88935,2.88935,0,0,1-2.01156,4.4133,2.27406,2.27406,0,0,1-4.44152.69991,3.5876,3.5876,0,0,1-4.25041-4.88778,1.83875,1.83875,0,0,1,.98242-3.08457,2.88785,2.88785,0,0,1,4.84563-2.24444,2.42026,2.42026,0,0,1,3.961,1.85479,1.82,1.82,0,0,1,.71321.25363,1.839,1.839,0,0,1,.2012,2.99515h0Z" fill="#1d6d03" fill-rule="evenodd"></path>
    <path d="M386.44461,427.34384a2.08957,2.08957,0,0,1-1.45453,3.19107,1.64425,1.64425,0,0,1-3.21148.50578,2.59363,2.59363,0,0,1-3.07316-3.53372,1.32945,1.32945,0,0,1,.71058-2.23023,2.08765,2.08765,0,0,1,3.17329-1.87219,2.10415,2.10415,0,0,1,.32975.24936,1.75029,1.75029,0,0,1,2.86435,1.34093,1.33017,1.33017,0,0,1,.66121,2.349h0Z" fill="#227f06" fill-rule="evenodd"></path>
    <path d="M385.68249,439.095a2.548,2.548,0,0,1-1.77419,3.89167,2.00522,2.00522,0,0,1-3.91647.61691,3.16355,3.16355,0,0,1-3.74833-4.30979,1.62179,1.62179,0,0,1,.86676-2.72024,2.54611,2.54611,0,0,1,4.27277-1.97916,2.13417,2.13417,0,0,1,3.49295,1.63538,1.62272,1.62272,0,0,1,.80652,2.86523h0Z" fill="#1d6d03" fill-rule="evenodd"></path>
    <path d="M389.33457,451.16505a3.24253,3.24253,0,0,1-2.25763,4.95307,2.55235,2.55235,0,0,1-4.985.7854,4.02625,4.02625,0,0,1-4.77049-5.48519,2.06357,2.06357,0,0,1,1.10289-3.462,3.2405,3.2405,0,0,1,4.92605-2.90644,3.29151,3.29151,0,0,1,.51217.38712,2.71671,2.71671,0,0,1,4.44587,2.08166,2.06456,2.06456,0,0,1,1.0262,3.64636h0Z" fill="#227f06" fill-rule="evenodd"></path>
    <path d="M388.22625,479.50413a2.54811,2.54811,0,0,1-1.77419,3.89167,2.00522,2.00522,0,0,1-3.91647.61694,3.16358,3.16358,0,0,1-3.74833-4.30979,1.62159,1.62159,0,0,1,.86691-2.72024,2.54569,2.54569,0,0,1,3.8702-2.28332,2.57021,2.57021,0,0,1,.40241.30412,2.13414,2.13414,0,0,1,3.49295,1.63542,1.62267,1.62267,0,0,1,.80652,2.86519h0Z" fill="#227f06" fill-rule="evenodd"></path>
    <path d="M382.37553,488.67432a1.73716,1.73716,0,0,1-1.20955,2.65347,1.36743,1.36743,0,0,1-2.67059.421,2.1573,2.1573,0,0,1-2.55571-2.93887,1.10578,1.10578,0,0,1,.59088-1.85476,1.73586,1.73586,0,0,1,2.91325-1.34928,1.45547,1.45547,0,0,1,2.38183,1.11515,1.106,1.106,0,0,1,.54989,1.95326h0Z" fill="#227f06" fill-rule="evenodd"></path>
    <path d="M377.06989,490.39842a2.66319,2.66319,0,0,1-1.85445,4.06848,2.09656,2.09656,0,0,1-4.09469.64541,3.30733,3.30733,0,0,1-3.91849-4.50605,1.69511,1.69511,0,0,1,.906-2.8436,2.66152,2.66152,0,0,1,4.0461-2.38726,2.69733,2.69733,0,0,1,.42073.31787,2.23149,2.23149,0,0,1,3.65177,1.71,1.69591,1.69591,0,0,1,.843,2.99512h0Z" fill="#1d6d03" fill-rule="evenodd"></path>
    <path d="M361.39067,497.90145a1.73736,1.73736,0,0,1-1.2097,2.65351,1.36744,1.36744,0,0,1-2.67059.421,2.15742,2.15742,0,0,1-2.55571-2.93884,1.10576,1.10576,0,0,1,.59088-1.85476,1.73586,1.73586,0,0,1,2.91325-1.34928,1.45553,1.45553,0,0,1,2.382,1.11515A1.10511,1.10511,0,0,1,361.636,497.62a1.09043,1.09043,0,0,1-.24529.2814h0Z" fill="#1d6d03" fill-rule="evenodd"></path>
  </g>
</svg>