<svg id="main" xmlns="http://www.w3.org/2000/svg" width="427.81" height="540.4" viewBox="0 0 427.81 540.4">
  <title>plan_1_alt</title>
  <polygon points="1.51 295.31 24.86 333.59 29.32 343.04 28.83 359.44 27.84 357.45 13.93 343.53 1.51 303.76 1.51 295.31 1.51 295.31" fill="#6bbc3a"/>
  <polygon id="id318" class="area" points="90.94 253.68 92.04 235.4 60.57 233.7 58.73 251.84 90.94 253.68 90.94 253.68" fill="#6bbc3a"/>
  <polygon id="id317" class="area" points="92.16 233.42 93.27 214.99 61.86 213.46 60.71 231.72 92.16 233.42 92.16 233.42" fill="#6bbc3a"/>
  <polygon id="id316" class="area" points="93.38 213.01 94.45 195.14 63.12 193.38 61.98 211.48 93.38 213.01 93.38 213.01" fill="#6bbc3a"/>
  <polygon id="id315" class="area" points="94.57 193.16 95.68 174.73 64.39 173.2 63.25 191.4 94.57 193.16 94.57 193.16" fill="#6bbc3a"/>
  <polygon id="id314" class="area" points="95.8 172.75 96.9 154.35 65.68 152.7 64.52 171.22 95.8 172.75 95.8 172.75" fill="#6bbc3a"/>
  <polygon id="id313" class="area" points="97.02 152.37 98.23 132.21 67.09 130.35 65.81 150.72 97.02 152.37 97.02 152.37" fill="#6bbc3a"/>
  <polygon id="id312" class="area" points="98.35 130.23 99.45 111.85 68.36 110.17 67.21 128.37 98.35 130.23 98.35 130.23" fill="#6bbc3a"/>
  <polygon id="id311" class="area" points="99.57 109.87 100.66 91.74 69.62 90.18 68.48 108.19 99.57 109.87 99.57 109.87" fill="#6bbc3a"/>
  <polygon id="id310" class="area" points="100.77 89.76 101.86 71.72 70.89 69.94 69.74 88.2 100.77 89.76 100.77 89.76" fill="#6bbc3a"/>
  <polygon id="id309" class="area" points="71.01 67.96 101.97 69.74 103.08 51.23 72.17 49.58 71.01 67.96" fill="#6bbc3a"/>
  <polygon id="id308" class="area" points="73.47 28.96 72.3 47.6 103.2 49.25 104.34 30.34 73.47 28.96" fill="#6bbc3a"/>
  <polygon id="id307" class="area" points="76.86 7.63 77 7.65 73.7 26.98 104.28 28.43 105.83 5.5 104.46 5.57 76.86 7.63" fill="#6bbc3a"/>
  <polygon id="id306" class="area" points="56.2 273.83 17.55 271.49 16.41 286.37 20.88 303.27 32.31 322.65 89.75 278.91 90.83 255.66 58.53 253.82 56.33 274.26 56.2 273.83 56.2 273.83" fill="#6bbc3a"/>
  <polygon id="id305" class="area" points="19.07 251.58 17.7 269.51 54.75 271.52 56.55 253.71 19.07 251.58 19.07 251.58" fill="#6bbc3a"/>
  <polygon id="id304" class="area" points="20.59 231.54 58.59 233.59 56.75 251.73 19.22 249.6 20.59 231.54" fill="#6bbc3a"/>
  <polygon id="id303" class="area" points="22.12 211.53 59.88 213.37 58.73 231.62 20.75 229.56 22.12 211.53" fill="#6bbc3a"/>
  <polygon id="id302" class="area" points="23.7 190.87 23.7 190.87 61.14 193.27 60 211.39 22.27 209.55 23.7 190.87" fill="#6bbc3a"/>
  <polygon id="id301" class="area" points="25.19 171.28 23.83 189.19 61.27 191.29 62.41 173.1 25.19 171.28 25.19 171.28" fill="#6bbc3a"/>
  <polygon id="id300" class="area" points="26.99 149.09 26.84 149.66 25.34 169.3 62.54 171.12 63.7 152.59 26.91 150.65 26.99 149.09 26.99 149.09" fill="#6bbc3a"/>
  <polygon id="id299" class="area" points="32.52 128.29 27.1 148.67 63.83 150.61 65.11 130.24 32.52 128.29 32.52 128.29" fill="#6bbc3a"/>
  <polygon id="id298" class="area" points="35.72 108.41 35.29 117.84 33.03 126.33 65.23 128.25 66.38 110.07 35.72 108.41 35.72 108.41" fill="#6bbc3a"/>
  <polygon id="id297" class="area" points="36.63 88.53 35.81 106.43 66.5 108.09 67.64 90.08 36.63 88.53 36.63 88.53" fill="#6bbc3a"/>
  <polygon id="id296" class="area" points="37.56 68.02 36.72 86.55 67.76 88.11 68.91 69.83 37.56 68.02 37.56 68.02" fill="#6bbc3a"/>
  <polygon id="id295" class="area" points="38.48 47.78 37.65 66.04 69.03 67.85 70.19 49.47 38.48 47.78 38.48 47.78" fill="#6bbc3a"/>
  <polygon id="id294" class="area" points="39.41 27.4 38.57 45.8 70.31 47.49 71.49 28.87 39.41 27.4 39.41 27.4" fill="#6bbc3a"/>
  <polygon id="id293" class="area" points="39.51 25.42 71.7 26.89 74.97 7.77 40.19 10.36 39.51 25.42" fill="#6bbc3a"/>
  <polygon id="id320" class="area" points="116.81 29.47 148.36 31.33 150.01 1.98 118.24 4 116.81 29.47 116.81 29.47" fill="#6bbc3a"/>
  <polygon id="id321" class="area" points="116.76 31.39 115.63 50.34 147.2 52.02 148.25 33.31 116.76 31.39 116.76 31.39" fill="#6bbc3a"/>
  <polygon id="id322" class="area" points="115.58 51.24 114.5 70.27 146.06 72.19 147.09 54 115.52 52.32 115.58 51.24 115.58 51.24" fill="#6bbc3a"/>
  <polygon id="id325" class="area" points="112.1 112.64 111.07 131.06 142.66 132.74 143.7 114.29 112.1 112.64 112.1 112.64" fill="#6bbc3a"/>
  <polygon id="id323" class="area" points="113.35 90.74 144.94 92.27 145.95 74.17 114.39 72.25 113.35 90.74 113.35 90.74" fill="#6bbc3a"/>
  <polygon id="id324" class="area" points="113.29 92.67 112.22 110.63 143.81 112.31 144.82 94.25 113.29 92.67 113.29 92.67" fill="#6bbc3a"/>
  <polygon id="id328" class="area" points="108.2 179.86 107.05 202.29 138.64 204.22 139.91 181.76 108.2 179.86 108.2 179.86" fill="#6bbc3a"/>
  <polygon id="id327" class="area" points="109.58 155.58 108.43 177.8 140.02 179.78 141.27 157.5 109.58 155.58 109.58 155.58" fill="#6bbc3a"/>
  <polygon id="id326" class="area" points="109.8 153.56 141.38 155.52 142.55 134.72 110.96 133.03 109.8 153.56 109.8 153.56" fill="#6bbc3a"/>
  <polygon id="id329" class="area" points="106.94 204.28 105.64 227.2 137.32 227.68 138.53 206.2 106.94 204.28 106.94 204.28" fill="#6bbc3a"/>
  <polygon id="id330" class="area" points="136.52 241.8 137.21 229.66 105.53 229.18 103.34 267.97 136.52 241.8 136.52 241.8" fill="#6bbc3a"/>
  <polygon id="id340" class="area" points="138.64 240.12 171.4 214.28 171.74 208.22 140.51 206.32 138.64 240.12 138.64 240.12" fill="#6bbc3a"/>
  <polygon id="id339" class="area" points="171.85 206.24 173.1 183.8 141.88 181.88 140.62 204.34 171.85 206.24 171.85 206.24" fill="#6bbc3a"/>
  <polygon id="id338" class="area" points="173.21 181.82 174.46 159.41 143.25 157.61 142 179.9 173.21 181.82 173.21 181.82" fill="#6bbc3a"/>
  <polygon id="id337" class="area" points="174.57 157.43 175.74 136.5 144.53 134.83 143.36 155.63 174.57 157.43 174.57 157.43" fill="#6bbc3a"/>
  <polygon id="id336" class="area" points="175.85 134.52 176.88 116.08 145.68 114.39 144.64 132.85 175.85 134.52 175.85 134.52" fill="#6bbc3a"/>
  <polygon id="id335" class="area" points="176.99 114.1 178 95.9 146.81 94.34 145.79 112.41 176.99 114.1 176.99 114.1" fill="#6bbc3a"/>
  <polygon id="id334" class="area" points="178.11 93.92 179.1 76.19 147.93 74.3 146.92 92.36 178.11 93.92 178.11 93.92" fill="#6bbc3a"/>
  <polygon id="id333" class="area" points="179.21 74.21 180.24 55.77 149.07 54.11 148.04 72.31 179.21 74.21 179.21 74.21" fill="#6bbc3a"/>
  <polygon id="id332" class="area" points="180.35 53.79 181.38 35.33 150.23 33.43 149.18 52.13 180.35 53.79 180.35 53.79" fill="#6bbc3a"/>
  <polygon id="id331" class="area" points="181.49 33.35 182.32 18.42 177.36 9.97 164.94 1.02 152 1.85 150.34 31.45 181.49 33.35 181.49 33.35" fill="#6bbc3a"/>
  <polygon id="id341" class="area" points="194.74 35.82 192.05 81.15 226.56 81.58 194.74 35.82 194.74 35.82" fill="#6bbc3a"/>
  <polygon id="id342" class="area" points="191.93 83.13 190.87 100.93 240.33 101.4 227.94 83.58 191.93 83.13 191.93 83.13" fill="#6bbc3a"/>
  <polygon id="id343" class="area" points="190.75 102.91 189.63 121.84 221.4 123.24 245.03 108.16 241.72 103.39 190.75 102.91 190.75 102.91" fill="#6bbc3a"/>
  <polygon id="id344" class="area" points="189.51 123.82 188.43 142.02 219.65 143.15 220.53 125.18 189.51 123.82 189.51 123.82" fill="#6bbc3a"/>
  <polygon id="id345" class="area" points="188.31 144 187.22 162.4 218.64 163.53 219.55 145.13 188.31 144 188.31 144" fill="#6bbc3a"/>
  <polygon id="id346" class="area" points="187.1 164.38 184.81 202.85 217.99 176.73 218.54 165.51 187.1 164.38 187.1 164.38" fill="#6bbc3a"/>
  <polygon id="id347" class="area" points="220.05 175.11 244.15 156.14 222.44 126.83 220.05 175.11 220.05 175.11" fill="#6bbc3a"/>
  <polygon id="id348" class="area" points="245.71 154.91 266.27 138.72 246.16 109.79 223.15 124.47 245.71 154.91 245.71 154.91" fill="#6bbc3a"/>
  <polygon id="id350" class="area" points="40.31 334.01 44.26 340.43 42.29 363.66 46.38 369.4 71.34 349.63 53.19 323.86 40.31 334.01 40.31 334.01" fill="#6bbc3a"/>
  <polygon id="id364" class="area" points="47.52 371.01 65.5 396.27 90.34 376.58 72.48 351.24 47.52 371.01 47.52 371.01" fill="#6bbc3a"/>
  <polygon id="id365" class="area" points="91.89 375.36 110.09 360.92 91.31 336.32 74.02 350.01 91.89 375.36 91.89 375.36" fill="#6bbc3a"/>
  <polygon id="id366" class="area" points="111.64 359.7 125.56 348.67 106.88 323.99 92.86 335.1 111.64 359.7 111.64 359.7" fill="#6bbc3a"/>
  <polygon id="id367" class="area" points="127.1 347.44 141.37 336.13 122.81 311.37 108.43 322.76 127.1 347.44 127.1 347.44" fill="#6bbc3a"/>
  <polygon id="id368" class="area" points="142.91 334.91 157.58 323.28 138.92 298.61 124.35 310.15 142.91 334.91 142.91 334.91" fill="#6bbc3a"/>
  <polygon id="id369" class="area" points="159.13 322.06 172.99 311.07 154.44 286.32 140.46 297.39 159.13 322.06 159.13 322.06" fill="#6bbc3a"/>
  <polygon id="id370" class="area" points="174.53 309.85 189.38 298.08 170.57 273.54 155.98 285.1 174.53 309.85 174.53 309.85" fill="#6bbc3a"/>
  <polygon id="id371" class="area" points="190.92 296.85 205.24 285.5 186.59 260.85 172.12 272.32 190.92 296.85 190.92 296.85" fill="#6bbc3a"/>
  <polygon id="id372" class="area" points="206.79 284.28 220.57 273.35 202.2 248.49 188.14 259.62 206.79 284.28 206.79 284.28" fill="#6bbc3a"/>
  <polygon id="id373" class="area" points="222.12 272.13 236.82 260.47 218.03 235.96 203.74 247.27 222.12 272.13 222.12 272.13" fill="#6bbc3a"/>
  <polygon id="id374" class="area" points="238.36 259.25 252.42 248.1 233.87 223.41 219.57 234.73 238.36 259.25 238.36 259.25" fill="#6bbc3a"/>
  <polygon id="id375" class="area" points="253.97 246.88 268.51 235.35 249.78 210.81 235.41 222.19 253.97 246.88 253.97 246.88" fill="#6bbc3a"/>
  <polygon id="id376" class="area" points="270.06 234.12 284.32 222.81 265.69 198.21 251.32 209.58 270.06 234.12 270.06 234.12" fill="#6bbc3a"/>
  <polygon id="id377" class="area" points="285.87 221.59 303.04 207.98 291.18 194.15 285.95 182.16 267.23 196.98 285.87 221.59 285.87 221.59" fill="#6bbc3a"/>
  <polygon id="id363" class="area" points="285.14 180.29 272.42 151.15 247.43 170.84 266.04 195.41 285.14 180.29 285.14 180.29" fill="#6bbc3a"/>
  <polygon id="id362" class="area" points="245.88 172.06 231.39 183.47 250.13 208.02 264.5 196.64 245.88 172.06 245.88 172.06" fill="#6bbc3a"/>
  <polygon id="id361" class="area" points="229.84 184.69 215.64 195.88 234.23 220.61 248.58 209.24 229.84 184.69 229.84 184.69" fill="#6bbc3a"/>
  <polygon id="id360" class="area" points="214.09 197.1 199.52 208.58 218.37 233.17 232.68 221.84 214.09 197.1 214.09 197.1" fill="#6bbc3a"/>
  <polygon id="id359" class="area" points="197.97 209.8 184.12 220.72 202.57 245.68 216.83 234.39 197.97 209.8 197.97 209.8" fill="#6bbc3a"/>
  <polygon id="id358" class="area" points="182.57 221.93 168.2 233.26 186.96 258.06 201.03 246.91 182.57 221.93 182.57 221.93" fill="#6bbc3a"/>
  <polygon id="id357" class="area" points="166.65 234.48 151.98 246.03 170.92 270.75 185.41 259.28 166.65 234.48 166.65 234.48" fill="#6bbc3a"/>
  <polygon id="id356" class="area" points="150.43 247.25 136.09 258.55 154.8 283.52 169.38 271.98 150.43 247.25 150.43 247.25" fill="#6bbc3a"/>
  <polygon id="id355" class="area" points="134.54 259.77 120.42 270.9 139.28 295.82 153.26 284.75 134.54 259.77 134.54 259.77" fill="#6bbc3a"/>
  <polygon id="id354" class="area" points="118.87 272.12 104.39 283.52 123.17 308.58 137.73 297.04 118.87 272.12 118.87 272.12" fill="#6bbc3a"/>
  <polygon id="id353" class="area" points="102.84 284.74 88.32 296.19 107.24 321.19 121.63 309.8 102.84 284.74 102.84 284.74" fill="#6bbc3a"/>
  <polygon id="id352" class="area" points="86.77 297.41 72.6 308.57 91.66 333.53 105.69 322.42 86.77 297.41 86.77 297.41" fill="#6bbc3a"/>
  <polygon id="id351" class="area" points="71.05 309.79 54.74 322.64 72.89 348.4 90.12 334.76 71.05 309.79 71.05 309.79" fill="#6bbc3a"/>
  <polygon id="id378" class="area" points="74.65 406.88 93.69 430.88 115.06 413.96 96.35 389.69 74.65 406.88 74.65 406.88" fill="#6bbc3a"/>
  <polygon id="id392" class="area" points="94.92 432.42 114.51 457.12 135.47 440.45 116.25 415.52 94.92 432.42 94.92 432.42" fill="#6bbc3a"/>
  <polygon id="id393" class="area" points="137 439.23 154.49 425.32 134.81 400.82 117.79 414.3 137 439.23 137 439.23" fill="#6bbc3a"/>
  <polygon id="id394" class="area" points="156.03 424.1 169.67 413.25 150.3 388.55 136.35 399.6 156.03 424.1 156.03 424.1" fill="#6bbc3a"/>
  <polygon id="id395" class="area" points="171.21 412.03 185.25 400.86 165.87 376.22 151.84 387.33 171.21 412.03 171.21 412.03" fill="#6bbc3a"/>
  <polygon id="id396" class="area" points="186.79 399.64 201.15 388.22 181.79 363.61 167.41 375 186.79 399.64 186.79 399.64" fill="#6bbc3a"/>
  <polygon id="id397" class="area" points="202.69 387 216.94 375.67 197.59 351.1 183.33 362.39 202.69 387 202.69 387" fill="#6bbc3a"/>
  <polygon id="id398" class="area" points="218.48 374.44 232.84 363.02 213.34 338.62 199.13 349.88 218.48 374.44 218.48 374.44" fill="#6bbc3a"/>
  <polygon id="id399" class="area" points="234.38 361.8 250.04 349.35 230.72 324.86 214.88 337.41 234.38 361.8 234.38 361.8" fill="#6bbc3a"/>
  <polygon id="id400" class="area" points="251.58 348.13 265.54 337.02 246.24 312.57 232.25 323.65 251.58 348.13 251.58 348.13" fill="#6bbc3a"/>
  <polygon id="id401" class="area" points="267.08 335.8 281.71 324.16 262.36 299.8 247.78 311.35 267.08 335.8 267.08 335.8" fill="#6bbc3a"/>
  <polygon id="id402" class="area" points="283.25 322.94 297.08 311.94 277.83 287.55 263.9 298.58 283.25 322.94 283.25 322.94" fill="#6bbc3a"/>
  <polygon id="id403" class="area" points="298.61 310.73 312.59 299.61 293.39 275.22 279.36 286.33 298.61 310.73 298.61 310.73" fill="#6bbc3a"/>
  <polygon id="id404" class="area" points="314.13 298.39 329.75 285.96 310.69 261.53 294.94 274 314.13 298.39 314.13 298.39" fill="#6bbc3a"/>
  <polygon id="id405" class="area" points="331.28 284.74 351.72 268.5 346.3 256.18 334.43 242.72 312.22 260.31 331.28 284.74 331.28 284.74" fill="#6bbc3a"/>
  <polygon id="id391" class="area" points="333.13 241.25 312.84 218.26 292.18 234.62 311.02 258.76 333.13 241.25 333.13 241.25" fill="#6bbc3a"/>
  <polygon id="id390" class="area" points="290.64 235.84 274.79 248.4 293.72 272.46 309.48 259.98 290.64 235.84 290.64 235.84" fill="#6bbc3a"/>
  <polygon id="id389" class="area" points="273.24 249.62 259.18 260.76 278.15 284.8 292.18 273.68 273.24 249.62 273.24 249.62" fill="#6bbc3a"/>
  <polygon id="id388" class="area" points="257.64 261.97 243.63 273.07 262.68 297.05 276.61 286.01 257.64 261.97 257.64 261.97" fill="#6bbc3a"/>
  <polygon id="id387" class="area" points="242.09 274.29 227.58 285.78 246.56 309.81 261.14 298.27 242.09 274.29 242.09 274.29" fill="#6bbc3a"/>
  <polygon id="id386" class="area" points="226.04 286.99 212.06 298.07 231.04 322.11 245.02 311.03 226.04 286.99 226.04 286.99" fill="#6bbc3a"/>
  <polygon id="id385" class="area" points="210.52 299.28 194.53 311.95 213.65 335.88 229.5 323.32 210.52 299.28 210.52 299.28" fill="#6bbc3a"/>
  <polygon id="id384" class="area" points="192.99 313.17 178.96 324.28 197.92 348.34 212.12 337.09 192.99 313.17 192.99 313.17" fill="#6bbc3a"/>
  <polygon id="id383" class="area" points="177.42 325.5 163.18 336.77 182.12 360.85 196.38 349.56 177.42 325.5 177.42 325.5" fill="#6bbc3a"/>
  <polygon id="id382" class="area" points="161.64 338 147.26 349.38 166.2 373.46 180.58 362.07 161.64 338 161.64 338" fill="#6bbc3a"/>
  <polygon id="id381" class="area" points="145.72 350.6 131.72 361.69 150.63 385.79 164.66 374.68 145.72 350.6 145.72 350.6" fill="#6bbc3a"/>
  <polygon id="id380" class="area" points="130.18 362.91 115.93 374.19 135.12 398.07 149.09 387.01 130.18 362.91 130.18 362.91" fill="#6bbc3a"/>
  <polygon id="id379" class="area" points="114.39 375.41 97.89 388.48 116.59 412.75 133.58 399.29 114.39 375.41 114.39 375.41" fill="#6bbc3a"/>
  <polygon id="id406" class="area" points="122.64 468.57 143.55 491.87 164.81 474.95 145.08 450.8 122.64 468.57 122.64 468.57" fill="#6bbc3a"/>
  <polygon id="id419" class="area" points="144.96 493.27 168.89 513.87 185.68 500.48 166.06 476.47 144.96 493.27 144.96 493.27" fill="#6bbc3a"/>
  <polygon id="id420" class="area" points="187.22 499.25 202.45 487.1 183.33 462.73 167.6 475.25 187.22 499.25 187.22 499.25" fill="#6bbc3a"/>
  <polygon id="id421" class="area" points="203.99 485.88 218.11 474.61 198.94 450.3 184.87 461.5 203.99 485.88 203.99 485.88" fill="#6bbc3a"/>
  <polygon id="id422" class="area" points="219.64 473.38 233.94 461.98 214.68 437.77 200.47 449.08 219.64 473.38 219.64 473.38" fill="#6bbc3a"/>
  <polygon id="id423" class="area" points="235.48 460.75 249.38 449.66 230.17 425.45 216.22 436.55 235.48 460.75 235.48 460.75" fill="#6bbc3a"/>
  <polygon id="id424" class="area" points="250.91 448.44 265.11 437.12 246.07 412.79 231.71 424.23 250.91 448.44 250.91 448.44" fill="#6bbc3a"/>
  <polygon id="id425" class="area" points="266.64 435.89 280.55 424.8 261.5 400.51 247.61 411.57 266.64 435.89 266.64 435.89" fill="#6bbc3a"/>
  <polygon id="id426" class="area" points="282.08 423.58 298.57 410.43 279.31 386.34 263.04 399.29 282.08 423.58 282.08 423.58" fill="#6bbc3a"/>
  <polygon id="id427" class="area" points="300.1 409.2 313.98 398.13 294.76 374.05 280.85 385.12 300.1 409.2 300.1 409.2" fill="#6bbc3a"/>
  <polygon id="id428" class="area" points="315.51 396.91 329.54 385.71 310.38 361.62 296.29 372.83 315.51 396.91 315.51 396.91" fill="#6bbc3a"/>
  <polygon id="id429" class="area" points="331.08 384.49 345.5 372.99 326.3 348.94 311.91 360.39 331.08 384.49 331.08 384.49" fill="#6bbc3a"/>
  <polygon id="id430" class="area" points="347.03 371.76 360.73 360.84 342.11 336.36 327.83 347.72 347.03 371.76 347.03 371.76" fill="#6bbc3a"/>
  <polygon id="id431" class="area" points="362.26 359.61 375.06 349.4 363.59 319.27 343.65 335.14 362.26 359.61 362.26 359.61" fill="#6bbc3a"/>
  <polygon id="id418" class="area" points="362.86 317.34 351.44 287.36 325.35 308.03 342.5 333.54 362.86 317.34 362.86 317.34" fill="#6bbc3a"/>
  <polygon id="id417" class="area" points="323.81 309.25 307.45 322.2 326.61 346.19 340.96 334.77 323.81 309.25 323.81 309.25" fill="#6bbc3a"/>
  <polygon id="id416" class="area" points="305.92 323.42 291.55 334.8 310.69 358.86 325.08 347.41 305.92 323.42 305.92 323.42" fill="#6bbc3a"/>
  <polygon id="id415" class="area" points="290.01 336.02 275.85 347.23 295.06 371.29 309.15 360.08 290.01 336.02 290.01 336.02" fill="#6bbc3a"/>
  <polygon id="id414" class="area" points="274.31 348.45 260.36 359.5 279.62 383.58 293.53 372.51 274.31 348.45 274.31 348.45" fill="#6bbc3a"/>
  <polygon id="id413" class="area" points="258.83 360.71 242.76 373.43 261.83 397.74 278.09 384.8 258.83 360.71 258.83 360.71" fill="#6bbc3a"/>
  <polygon id="id412" class="area" points="241.22 374.65 227.33 385.65 246.4 410.02 260.29 398.97 241.22 374.65 241.22 374.65" fill="#6bbc3a"/>
  <polygon id="id411" class="area" points="225.79 386.87 211.22 398.41 230.49 422.69 244.86 411.25 225.79 386.87 225.79 386.87" fill="#6bbc3a"/>
  <polygon id="id410" class="area" points="209.68 399.63 195.68 410.73 215 435.01 228.95 423.91 209.68 399.63 209.68 399.63" fill="#6bbc3a"/>
  <polygon id="id409" class="area" points="194.13 411.94 180 423.14 199.26 447.54 213.46 436.24 194.13 411.94 194.13 411.94" fill="#6bbc3a"/>
  <polygon id="id408" class="area" points="178.47 424.35 164.44 435.46 183.65 459.96 197.72 448.76 178.47 424.35 178.47 424.35" fill="#6bbc3a"/>
  <polygon id="id407" class="area" points="162.9 436.68 146.62 449.58 166.35 473.73 182.12 461.18 162.9 436.68 162.9 436.68" fill="#6bbc3a"/>
  <polygon id="id432" class="area" points="180.34 521.5 187.29 523.99 228.19 524.73 207.55 499.74 180.34 521.5 180.34 521.5" fill="#6bbc3a"/>
  <polygon id="id442" class="area" points="233.42 524.83 269.26 525.48 281.54 520.02 265.09 499.84 233.42 524.83 233.42 524.83" fill="#6bbc3a"/>
  <polygon id="id443" class="area" points="283.41 519.19 302.56 510.68 282.39 486.19 266.65 498.61 283.41 519.19 283.41 519.19" fill="#6bbc3a"/>
  <polygon id="id444" class="area" points="304.44 509.85 321.83 502.13 298.21 473.71 283.94 484.96 304.44 509.85 304.44 509.85" fill="#6bbc3a"/>
  <polygon id="id445" class="area" points="323.71 501.29 340.78 493.71 313.98 461.26 299.76 472.48 323.71 501.29 323.71 501.29" fill="#6bbc3a"/>
  <polygon id="id446" class="area" points="342.66 492.87 360.73 484.85 330.09 448.55 315.54 460.03 342.66 492.87 342.66 492.87" fill="#6bbc3a"/>
  <polygon id="id447" class="area" points="362.41 483.76 372.88 465.72 346.54 435.57 331.65 447.32 362.41 483.76 362.41 483.76" fill="#6bbc3a"/>
  <polygon id="id448" class="area" points="373.93 463.91 380.03 453.39 377.55 411.64 377.44 411.19 348.1 434.34 373.93 463.91 373.93 463.91" fill="#6bbc3a"/>
  <polygon id="id441" class="area" points="376.94 409.05 368.11 371.37 342.42 391.91 363.72 419.48 376.94 409.05 376.94 409.05" fill="#6bbc3a"/>
  <polygon id="id440" class="area" points="340.87 393.15 323.94 406.69 346.79 432.84 362.17 420.71 340.87 393.15 340.87 393.15" fill="#6bbc3a"/>
  <polygon id="id439" class="area" points="322.39 407.92 308.06 419.38 330.36 445.8 345.23 434.07 322.39 407.92 322.39 407.92" fill="#6bbc3a"/>
  <polygon id="id438" class="area" points="306.51 420.62 292.34 431.95 314.27 458.5 328.81 447.03 306.51 420.62 306.51 420.62" fill="#6bbc3a"/>
  <polygon id="id437" class="area" points="290.79 433.19 276.56 444.57 298.49 470.95 312.71 459.73 290.79 433.19 290.79 433.19" fill="#6bbc3a"/>
  <polygon id="id436" class="area" points="275.01 445.8 260.95 457.05 282.68 483.43 296.94 472.18 275.01 445.8 275.01 445.8" fill="#6bbc3a"/>
  <polygon id="id435" class="area" points="259.4 458.29 243.89 470.69 265.39 497.07 281.12 484.66 259.4 458.29 259.4 458.29" fill="#6bbc3a"/>
  <polygon id="id433" class="area" points="230.6 524.53 209.1 498.5 225.02 485.78 246.39 512.07 230.6 524.53" fill="#6bbc3a"/>
  <polygon id="id434" class="area" points="247.94 510.84 226.56 484.54 242.34 471.93 263.83 498.3 247.94 510.84" fill="#6bbc3a"/>
  <path id="roads" d="M36.66,15.67,30.74,117.48v.23l-.07.26-8.13,31.56L12.39,288.7l4.21,15.76,11.95,18.66c1.57,2.46,6.48,3,8.81,1.16l56.41-44.41h0L109.38,10.71l-2.75.1-.16-5.07,10.21-.36.16,5.07-2.37.08L99.55,267.67c-.21,3.59,3,5.31,6,2.91l70.07-55.17,9.67-182.21-2.21-3.66.62-7.56,6.46,9.16.32,0,0,.36,2.58,3.35,0,6.48-3-2.25-8.7,164.25c-.22,4.2,3.42,4.85,6.08,2.76l75.23-59.22-1.81-3.62L265.4,141l5.29,10.54-4.53,2.27L265,151.53,38.22,330.07a5.8,5.8,0,0,0-1.58,7l1.86,4.55.19.47v.5l-.24,23,24.73,32.23c1.3,1.69,4.69,2,6.37.64l231.91-183.3-2.05-2.51,3.93-3.22,7.19,8.79-3.93,3.22L304.67,219,72,402.9c-1.42,1.12-1.91,3.94-.81,5.38l39.46,51.44a4.87,4.87,0,0,0,6.11.78l230.4-182.24-1.41-3.1,4.81-2.68L355,282.73l-5,2.37-.81-2L119.22,465c-1.35,1.07-1.38,3.82-.3,5.17l18.84,23.54,27.56,23.61a5.22,5.22,0,0,0,6,.22l197.79-158v-3.4l4.68-3.17,2.13,14.8-5.33,1.61-.45-3.71L175.95,520.41c-1.47,1.17-1.93,4.4-.5,5.62l2.49,2.14,88.76,1.64a17.92,17.92,0,0,0,7.7-1.56L364.47,487l16.25-28,4.15,2.76-.1,16.57-16.32,11.93L368,491l-.73.34-79.36,36.31a1.44,1.44,0,0,0,.34,2.79L398,535l-.2,5.07L271.32,535l-94.38-1.74-.92,0-.69-.59-41.05-35.17-.18-.16-.14-.18-23.13-28.9,0,0L33.89,367.94l-.53-.69v-.88L33.61,343l-2.89-7.07-1.5-2.34L12.11,306.87l-.22-.34-.1-.38L7.37,289.6l-.11-.41,0-.42L17.47,149v-.19l.07-.26L25.68,117,31.56,16l-2.49.14L28.79,11l10.06-.56.28,5.07-2.46.14h0Z" fill="#4d4d4c"/>
  <polyline id="border" points="271.74 539.4 174.87 539.4 129.67 496.15 53.67 398.22 13.93 346.02 1.01 302.27 12.93 150.16 21.38 115.36 27.34 10.47 165.44 1.02 176.86 9.47 265.78 138.23 291.11 194.9 346.75 256.04 351.22 270.46 369.6 316.69 374.57 351.99 387.48 449.92 389.15 486.13 364.89 502.93 306.26 527.5" fill="none" stroke="#683200" stroke-miterlimit="22.93" stroke-width="2"/>
  <path id="water" d="M358.9,522.38c4.14,5.63,10.8,7.31,22.83,7.31,15.32,0,13.06-10.46,12.31-20.87-.34-4.78-.78-11.1-5.76-11.88-6.4-1-10.26,3-14.94,6.44-2.88,2.11-3.59,3.92-8.11,4.78-8,1.52-10.91,8-6.32,14.22h0Z" fill="#00cdff"/>
  <g id="trees_2">
    <path d="M118.36,232.82a2.2,2.2,0,0,1,3.61.8,1.73,1.73,0,0,1,1.23,3.2,2.73,2.73,0,0,1-3,3.95,1.4,1.4,0,0,1-2.45-.24,2.2,2.2,0,0,1-2.63-2.86,2.09,2.09,0,0,1,.18-.4,1.84,1.84,0,0,1,.75-3.25,1.4,1.4,0,0,1,1.86-1.43,1.42,1.42,0,0,1,.41.23" fill="#227f06" fill-rule="evenodd"/>
    <path d="M344.07,224.46a4.54,4.54,0,0,1-1.52-7.48,3.58,3.58,0,0,1,5-5,5.64,5.64,0,0,1,9.93,2.28,2.89,2.89,0,0,1,1.6,4.83,4.54,4.54,0,0,1-3.19,7.35,4.62,4.62,0,0,1-.9,0,3.81,3.81,0,0,1-6.76,1.31,2.89,2.89,0,0,1-4.17-3.29" fill="#1d6d03" fill-rule="evenodd"/>
    <path d="M350.61,213.39a3.5,3.5,0,0,1-5.74-1.27,2.76,2.76,0,0,1-2-5.09,4.35,4.35,0,0,1,4.71-6.28,2.23,2.23,0,0,1,3.9.38,3.5,3.5,0,0,1,4.18,4.55,3.52,3.52,0,0,1-.29.63,2.94,2.94,0,0,1-1.19,5.17,2.23,2.23,0,0,1-3.62,1.91" fill="#227f06" fill-rule="evenodd"/>
    <path d="M333.85,225.49a2.51,2.51,0,0,1-4.12-.91,2,2,0,0,1-1.4-3.65,3.12,3.12,0,0,1,3.38-4.51,1.6,1.6,0,0,1,2.8.28,2.51,2.51,0,0,1,3,3.27,2.57,2.57,0,0,1-.21.45,2.11,2.11,0,0,1-.86,3.71,1.58,1.58,0,0,1-.09.65,1.6,1.6,0,0,1-2,1,1.54,1.54,0,0,1-.47-.26" fill="#227f06" fill-rule="evenodd"/>
    <path d="M339.76,200.21a2.87,2.87,0,0,1-1-4.72,2.26,2.26,0,0,1,3.16-3.16,3.57,3.57,0,0,1,6.27,1.44,1.83,1.83,0,0,1,1,3.05,2.87,2.87,0,0,1-2.59,4.64,2.41,2.41,0,0,1-4.27.82,1.8,1.8,0,0,1-.72.21,1.83,1.83,0,0,1-1.91-2.29" fill="#1d6d03" fill-rule="evenodd"/>
    <path d="M325.48,209.33a3.53,3.53,0,0,1,2.46-5.39,2.78,2.78,0,0,1,5.43-.85,4.38,4.38,0,0,1,5.2,6,2.25,2.25,0,0,1-1.2,3.77A3.53,3.53,0,0,1,332,216a3.56,3.56,0,0,1-.56-.42,3,3,0,0,1-4.84-2.27,2.25,2.25,0,0,1-1.12-4" fill="#1d6d03" fill-rule="evenodd"/>
    <path d="M286.58,89.91a4.54,4.54,0,0,1-7.22,2.46,3.58,3.58,0,0,1-5.6-4.33,5.64,5.64,0,0,1,1-10.14,2.89,2.89,0,0,1,4.59-2.2,4.54,4.54,0,0,1,7.8,3.13,3.81,3.81,0,0,1,2.16,6.54,2.89,2.89,0,0,1-1.75,4.51,2.92,2.92,0,0,1-1,0" fill="#1d6d03" fill-rule="evenodd"/>
    <path d="M274.78,84.84a3.5,3.5,0,0,1-.53,5.86,2.76,2.76,0,0,1-4.8,2.59,4.35,4.35,0,0,1-6.83-3.88,2.23,2.23,0,0,1-.12-3.92,3.5,3.5,0,0,1,4-4.73,3.55,3.55,0,0,1,.66.21,2.94,2.94,0,0,1,5.28.53,2.2,2.2,0,0,1,.92,0,2.23,2.23,0,0,1,1.71,2.64,2.2,2.2,0,0,1-.28.7" fill="#227f06" fill-rule="evenodd"/>
    <path d="M288.91,99.92a2.51,2.51,0,0,1-.38,4.2,2,2,0,0,1,.07,1.08,2,2,0,0,1-3.52.78,3.12,3.12,0,0,1-4.9-2.78,1.6,1.6,0,0,1-.08-2.81A2.51,2.51,0,0,1,283,97a2.54,2.54,0,0,1,.47.15,2.11,2.11,0,0,1,3.79.38,1.58,1.58,0,0,1,.66,0,1.6,1.6,0,0,1,1,2.4" fill="#227f06" fill-rule="evenodd"/>
    <path d="M263.08,97.28a2.87,2.87,0,0,1-4.56,1.55A2.26,2.26,0,0,1,255,96.1a3.56,3.56,0,0,1,.63-6.41,1.83,1.83,0,0,1,2.9-1.39,2.87,2.87,0,0,1,4.93,2,2.41,2.41,0,0,1,1.36,4.13,1.83,1.83,0,0,1-1.11,2.85,1.81,1.81,0,0,1-.62,0" fill="#1d6d03" fill-rule="evenodd"/>
    <path d="M273.95,110.29a3.53,3.53,0,0,1-5.66-1.75,2.78,2.78,0,0,1-1.54-5.28A4.38,4.38,0,0,1,272,97.34a2.25,2.25,0,0,1,3.89.71,3.53,3.53,0,0,1,3.47,5.53,3,3,0,0,1-1.63,5.09,2.25,2.25,0,0,1-3.79,1.61" fill="#1d6d03" fill-rule="evenodd"/>
    <path d="M326.54,179.34a4.54,4.54,0,0,1-7.22,2.46,3.58,3.58,0,0,1-5.6-4.33,5.64,5.64,0,0,1,1-10.14,2.89,2.89,0,0,1,4.59-2.2,4.54,4.54,0,0,1,7.7,2.23,4.59,4.59,0,0,1,.1.89,3.81,3.81,0,0,1,2.16,6.54,2.89,2.89,0,0,1-2.73,4.55" fill="#1d6d03" fill-rule="evenodd"/>
    <path d="M313.91,199.71a3.53,3.53,0,0,1-5.66-1.75,2.78,2.78,0,0,1-1.54-5.28,4.38,4.38,0,0,1,5.26-5.91,2.25,2.25,0,0,1,3.89.71,3.53,3.53,0,0,1,3.47,5.53,3,3,0,0,1-1.63,5.09,2.25,2.25,0,0,1-3.79,1.61" fill="#1d6d03" fill-rule="evenodd"/>
    <path d="M244.86,75.82a4.54,4.54,0,0,1-1.21-7.53,3.58,3.58,0,0,1,5.21-4.79,5.64,5.64,0,0,1,9.83,2.69,2.89,2.89,0,0,1,1.4,4.89,4.54,4.54,0,0,1-4.39,7.16,3.81,3.81,0,0,1-6.81,1,2.89,2.89,0,0,1-4-3.46" fill="#1d6d03" fill-rule="evenodd"/>
    <path d="M226.9,59.95a3.53,3.53,0,0,1,2.68-5.29A2.78,2.78,0,0,1,235,54,4.38,4.38,0,0,1,240,60.21a2.25,2.25,0,0,1-1.35,3.72,3.53,3.53,0,0,1-5.49,2.94,3.62,3.62,0,0,1-.54-.44A3,3,0,0,1,227.85,64a2.25,2.25,0,0,1-1-4" fill="#1d6d03" fill-rule="evenodd"/>
    <path d="M293.3,127.66a4.54,4.54,0,0,1-5.33,5.46,3.58,3.58,0,0,1-6.95-1.33,5.64,5.64,0,0,1-3.69-9.5,2.89,2.89,0,0,1,3.1-4,4.54,4.54,0,0,1,8.37-.74,3.81,3.81,0,0,1,4.88,4.86,2.84,2.84,0,0,1,.92.76,2.89,2.89,0,0,1-.44,4.06,2.85,2.85,0,0,1-.85.47" fill="#1d6d03" fill-rule="evenodd"/>
    <path d="M307.09,149a3.53,3.53,0,0,1-5.84,1,2.75,2.75,0,0,1-1.44.48,2.78,2.78,0,0,1-2.32-4.49,4.39,4.39,0,0,1,2-7.65,2.25,2.25,0,0,1,3.79-1.12,3.53,3.53,0,0,1,5.6,3.36,3,3,0,0,1,.85,5.28,2.22,2.22,0,0,1,.23.89,2.25,2.25,0,0,1-2.13,2.35,2.21,2.21,0,0,1-.75-.09" fill="#1d6d03" fill-rule="evenodd"/>
    <path d="M373.8,247.55A4.54,4.54,0,0,1,369,253.5a3.58,3.58,0,0,1-7-.66,5.64,5.64,0,0,1-4.58-9.1,2.89,2.89,0,0,1,2.7-4.32,4.54,4.54,0,0,1,7.7-2.24,4.66,4.66,0,0,1,.56.7,3.81,3.81,0,0,1,5.32,4.37,2.89,2.89,0,0,1,.94,4.75,2.9,2.9,0,0,1-.81.56" fill="#1d6d03" fill-rule="evenodd"/>
    <path d="M374,271.52a3.53,3.53,0,0,1-5.72,1.55,2.78,2.78,0,0,1-4.13-3.63,4.38,4.38,0,0,1,1.27-7.81,2.25,2.25,0,0,1,3.67-1.48,3.53,3.53,0,0,1,5.86,2.11,3.61,3.61,0,0,1,0,.7,3,3,0,0,1,1.35,5.17,2.25,2.25,0,0,1-2.34,3.39" fill="#1d6d03" fill-rule="evenodd"/>
    <path d="M296.69,172.17A3.5,3.5,0,0,1,291,170.9a2.76,2.76,0,0,1-2-5.09,4.35,4.35,0,0,1,4.71-6.28,2.23,2.23,0,0,1,3.9.38,3.5,3.5,0,0,1,4.18,4.55,3.52,3.52,0,0,1-.29.63,2.94,2.94,0,0,1-1.19,5.17,2.23,2.23,0,0,1-3.62,1.91" fill="#227f06" fill-rule="evenodd"/>
    <path d="M285.85,159a2.87,2.87,0,0,1-1-4.72,2.26,2.26,0,0,1,3.16-3.16,3.57,3.57,0,0,1,6.27,1.44,1.83,1.83,0,0,1,1,3.05,2.87,2.87,0,0,1-2.59,4.64,2.41,2.41,0,0,1-4.27.82,1.8,1.8,0,0,1-.72.21,1.83,1.83,0,0,1-1.91-2.29" fill="#1d6d03" fill-rule="evenodd"/>
    <path d="M324.11,159.88a4.13,4.13,0,0,1-.62,6.9,3.25,3.25,0,0,1-5.66,3.05,5.13,5.13,0,0,1-8.05-4.57,2.63,2.63,0,0,1-.14-4.62,4.13,4.13,0,0,1,5.47-5.33,3.46,3.46,0,0,1,6.22.62,2.59,2.59,0,0,1,1.08,0,2.63,2.63,0,0,1,2,3.12,2.6,2.6,0,0,1-.33.83" fill="#227f06" fill-rule="evenodd"/>
    <path d="M360.89,241.06a4.13,4.13,0,0,1-.62,6.9,3.25,3.25,0,0,1-5.66,3.05,5.13,5.13,0,0,1-8.05-4.57,2.63,2.63,0,0,1-.14-4.62,4.13,4.13,0,0,1,5.47-5.33,3.46,3.46,0,0,1,6.22.62,2.63,2.63,0,0,1,2.77,3.95" fill="#227f06" fill-rule="evenodd"/>
    <path d="M380.55,285.46a4.13,4.13,0,0,1-.62,6.9,3.25,3.25,0,0,1-5.66,3.05,5.13,5.13,0,0,1-8.05-4.57,2.63,2.63,0,0,1-.14-4.62,4.13,4.13,0,0,1,5.47-5.33,3.46,3.46,0,0,1,6.22.62,2.63,2.63,0,0,1,2.77,3.95" fill="#227f06" fill-rule="evenodd"/>
    <path d="M405.92,334.3a4.13,4.13,0,0,1-.62,6.9,3.25,3.25,0,0,1-5.66,3.05,5.13,5.13,0,0,1-8.05-4.57,2.63,2.63,0,0,1-.14-4.62,4.13,4.13,0,0,1,4.69-5.57,4,4,0,0,1,.78.25,3.46,3.46,0,0,1,6.22.62,2.63,2.63,0,0,1,2.77,3.95" fill="#227f06" fill-rule="evenodd"/>
    <path d="M404,388.84a4.13,4.13,0,0,1-.62,6.9,3.25,3.25,0,0,1-5.66,3.05,5.13,5.13,0,0,1-8.05-4.57,2.63,2.63,0,0,1-.14-4.62,4.13,4.13,0,0,1,5.47-5.33,3.46,3.46,0,0,1,6.22.62,2.63,2.63,0,0,1,2.77,3.95" fill="#227f06" fill-rule="evenodd"/>
    <path d="M418.61,457.34a4.13,4.13,0,0,1-.62,6.9,3.25,3.25,0,0,1-5.66,3.05,5.13,5.13,0,0,1-8.05-4.57,2.63,2.63,0,0,1-.14-4.62,4.13,4.13,0,0,1,5.47-5.33,3.46,3.46,0,0,1,6.22.62,2.63,2.63,0,0,1,2.77,3.95" fill="#227f06" fill-rule="evenodd"/>
    <path d="M411,489.05a4.13,4.13,0,0,1-.62,6.9,3.25,3.25,0,0,1-5.66,3.05,5.13,5.13,0,0,1-8.05-4.57,2.63,2.63,0,0,1-.14-4.62,4.13,4.13,0,0,1,5.47-5.33,3.46,3.46,0,0,1,6.22.62,2.63,2.63,0,0,1,2.78,3.95" fill="#227f06" fill-rule="evenodd"/>
    <path d="M243.7,27.76a3.5,3.5,0,0,1-.53,5.85,2.76,2.76,0,0,1-4.8,2.59,4.35,4.35,0,0,1-6.83-3.88,2.23,2.23,0,0,1-.12-3.92,3.5,3.5,0,0,1,4.64-4.52,2.94,2.94,0,0,1,5.28.53,2.2,2.2,0,0,1,.92,0,2.23,2.23,0,0,1,1.43,3.34" fill="#227f06" fill-rule="evenodd"/>
    <path d="M386.4,298a3.5,3.5,0,0,1-.53,5.85,2.76,2.76,0,0,1-4.8,2.59,4.35,4.35,0,0,1-6.83-3.88,2.23,2.23,0,0,1-.12-3.92,3.5,3.5,0,0,1,4-4.73,3.58,3.58,0,0,1,.66.21,2.93,2.93,0,0,1,5.28.53A2.23,2.23,0,0,1,386.4,298" fill="#227f06" fill-rule="evenodd"/>
    <path d="M397.82,344.25a3.5,3.5,0,0,1-.53,5.85,2.76,2.76,0,0,1-4.8,2.59,4.35,4.35,0,0,1-6.83-3.88,2.23,2.23,0,0,1-.12-3.92,3.5,3.5,0,0,1,4-4.73,3.58,3.58,0,0,1,.66.21,2.93,2.93,0,0,1,5.28.53,2.23,2.23,0,0,1,2.35,3.35" fill="#1d6d03" fill-rule="evenodd"/>
    <path d="M390.21,288.44a3.5,3.5,0,0,1-.53,5.86,2.76,2.76,0,0,1-4.8,2.59,4.35,4.35,0,0,1-6.83-3.88,2.23,2.23,0,0,1-.12-3.92,3.5,3.5,0,0,1,4-4.73,3.52,3.52,0,0,1,.66.21,2.94,2.94,0,0,1,5.28.53,2.2,2.2,0,0,1,.92,0,2.23,2.23,0,0,1,1.44,3.34" fill="#1d6d03" fill-rule="evenodd"/>
    <path d="M412.41,366.45a3.5,3.5,0,0,1-.53,5.85,2.76,2.76,0,0,1-4.8,2.59,4.35,4.35,0,0,1-6.83-3.88,2.23,2.23,0,0,1-.12-3.92,3.5,3.5,0,0,1,4-4.73,3.55,3.55,0,0,1,.66.21,2.93,2.93,0,0,1,5.28.53,2.23,2.23,0,0,1,2.35,3.35" fill="#1d6d03" fill-rule="evenodd"/>
    <path d="M408,436.85a3.5,3.5,0,0,1-.53,5.86,2.76,2.76,0,0,1-4.8,2.59,4.35,4.35,0,0,1-6.83-3.88,2.23,2.23,0,0,1-.12-3.92,3.5,3.5,0,0,1,4.64-4.52,2.94,2.94,0,0,1,5.28.53,2.2,2.2,0,0,1,.92,0,2.23,2.23,0,0,1,1.43,3.34" fill="#1d6d03" fill-rule="evenodd"/>
    <path d="M423.19,450.17a3.5,3.5,0,0,1-.53,5.85,2.76,2.76,0,0,1-4.8,2.59,4.35,4.35,0,0,1-6.83-3.88,2.23,2.23,0,0,1-.12-3.92,3.5,3.5,0,0,1,4-4.73,3.55,3.55,0,0,1,.66.21,2.93,2.93,0,0,1,5.28.53,2.23,2.23,0,0,1,2.35,3.35" fill="#1d6d03" fill-rule="evenodd"/>
    <path d="M426.19,524.49a4.2,4.2,0,0,1-.63,7,3.31,3.31,0,0,1-5.76,3.11,5.22,5.22,0,0,1-8.2-4.65,2.67,2.67,0,0,1-.14-4.71,4.2,4.2,0,0,1,4.78-5.68,4.22,4.22,0,0,1,.79.25,3.52,3.52,0,0,1,6.34.63,2.68,2.68,0,0,1,2.82,4" fill="#1d6d03" fill-rule="evenodd"/>
    <path d="M421.29,492a3.5,3.5,0,0,1-.53,5.85,2.76,2.76,0,0,1-4.8,2.59,4.35,4.35,0,0,1-6.83-3.88,2.23,2.23,0,0,1-.12-3.92,3.5,3.5,0,0,1,4.64-4.52,2.94,2.94,0,0,1,5.28.53,2.23,2.23,0,0,1,2.63,2.65,2.2,2.2,0,0,1-.28.7" fill="#1d6d03" fill-rule="evenodd"/>
    <path d="M198.6,7.13a4.13,4.13,0,0,1,5.71,3.92,3.25,3.25,0,0,1-.11,6.43,5.13,5.13,0,0,1-7.93,4.78,2.63,2.63,0,0,1-4.1-2.15,4.13,4.13,0,0,1-2-7.38,3.46,3.46,0,0,1,3.59-5.12A2.63,2.63,0,0,1,198,6.44a2.6,2.6,0,0,1,.56.69" fill="#227f06" fill-rule="evenodd"/>
    <path d="M263.6,55.19a4.13,4.13,0,0,1,5.71,3.92,3.25,3.25,0,0,1-.11,6.43,5.13,5.13,0,0,1-7.93,4.78,2.63,2.63,0,0,1-4.1-2.15,4.13,4.13,0,0,1-2-7.38,3.46,3.46,0,0,1,3.59-5.12,2.6,2.6,0,0,1,.53-.94,2.63,2.63,0,0,1,4.26.46" fill="#227f06" fill-rule="evenodd"/>
    <path d="M229.8,17.24a3.5,3.5,0,0,1,4.85,3.33,2.76,2.76,0,0,1-.1,5.45,4.35,4.35,0,0,1-6.73,4.05,2.23,2.23,0,0,1-3.48-1.82,3.5,3.5,0,0,1-2.17-5.79,3.56,3.56,0,0,1,.51-.47,2.94,2.94,0,0,1,3-4.34,2.23,2.23,0,0,1,4.07-.41" fill="#1d6d03" fill-rule="evenodd"/>
    <path d="M221.59,53.29a2.51,2.51,0,0,1-4.12-.91,2,2,0,0,1-1.4-3.65,3.12,3.12,0,0,1,3.38-4.51,1.6,1.6,0,0,1,2.8.28A2.52,2.52,0,0,1,225,48.21a2.11,2.11,0,0,1-.86,3.71,1.57,1.57,0,0,1-.09.65,1.6,1.6,0,0,1-2,1,1.62,1.62,0,0,1-.47-.26" fill="#227f06" fill-rule="evenodd"/>
    <path d="M213.22,40a3.53,3.53,0,0,1,2.46-5.39,2.78,2.78,0,0,1,5.43-.85,4.38,4.38,0,0,1,5.2,6,2.25,2.25,0,0,1-1.2,3.77,3.53,3.53,0,0,1-5.92,2.74A3,3,0,0,1,214.33,44a2.25,2.25,0,0,1-1.12-4" fill="#1d6d03" fill-rule="evenodd"/>
    <path d="M279.22,122.9a3.5,3.5,0,0,1-.53,5.86,2.76,2.76,0,0,1-4.8,2.59,4.35,4.35,0,0,1-6.83-3.88,2.23,2.23,0,0,1-.12-3.92,3.5,3.5,0,0,1,4-4.73,3.53,3.53,0,0,1,.66.21,2.94,2.94,0,0,1,5.28.53,2.2,2.2,0,0,1,.92,0,2.23,2.23,0,0,1,1.43,3.34" fill="#227f06" fill-rule="evenodd"/>
    <path d="M248.32,86a2.51,2.51,0,0,1-.38,4.2A2,2,0,0,1,244.5,92a3.12,3.12,0,0,1-4.9-2.78,1.6,1.6,0,0,1-.08-2.81A2.51,2.51,0,0,1,242.37,83a2.45,2.45,0,0,1,.47.15,2.11,2.11,0,0,1,3.79.38,1.58,1.58,0,0,1,.66,0,1.6,1.6,0,0,1,1,2.4" fill="#227f06" fill-rule="evenodd"/>
    <path d="M310.79,185.25a4.13,4.13,0,0,1-.62,6.9,3.25,3.25,0,0,1-5.66,3.05,5.13,5.13,0,0,1-8.05-4.57,2.63,2.63,0,0,1-.14-4.62,4.13,4.13,0,0,1,5.47-5.33,3.46,3.46,0,0,1,6.22.62,2.63,2.63,0,0,1,2.77,3.94" fill="#227f06" fill-rule="evenodd"/>
    <path d="M421.21,437.66a4.54,4.54,0,0,0,1.21-7.53,3.58,3.58,0,0,0-5.21-4.79,5.64,5.64,0,0,0-9.83,2.69,2.89,2.89,0,0,0-1.4,4.9,4.54,4.54,0,0,0,3.49,7.22,4.59,4.59,0,0,0,.9-.05,3.81,3.81,0,0,0,6.81,1,2.89,2.89,0,0,0,4-3.46" fill="#1d6d03" fill-rule="evenodd"/>
    <path d="M390.53,403.08a3.53,3.53,0,0,1,2.68-5.29,2.78,2.78,0,0,1,5.46-.63,4.38,4.38,0,0,1,4.95,6.18,2.25,2.25,0,0,1-1.35,3.72,3.53,3.53,0,0,1-6,2.5,3,3,0,0,1-4.75-2.46,2.25,2.25,0,0,1-1-4" fill="#1d6d03" fill-rule="evenodd"/>
    <path d="M402.46,417a4.13,4.13,0,0,0-5.71,3.92,3.25,3.25,0,0,0,.11,6.43,5.13,5.13,0,0,0,7.93,4.78,2.63,2.63,0,0,0,4.1-2.15,4.13,4.13,0,0,0,2-7.38,3.46,3.46,0,0,0-3.59-5.12,2.63,2.63,0,0,0-4.24-1.18,2.65,2.65,0,0,0-.56.69" fill="#227f06" fill-rule="evenodd"/>
    <path d="M409.78,509.75a3.17,3.17,0,0,1-.48,5.29,2.49,2.49,0,0,1-4.34,2.34,3.93,3.93,0,0,1-6.18-3.5,2,2,0,0,1-.11-3.55,3.17,3.17,0,0,1,3.6-4.27,3.19,3.19,0,0,1,.6.19,2.65,2.65,0,0,1,4.77.48,2,2,0,0,1,2.13,3" fill="#227f06" fill-rule="evenodd"/>
    <path d="M419.73,409.72a4.13,4.13,0,0,1-6.89.77,3.25,3.25,0,0,1-4.12-4.93,5.13,5.13,0,0,1,2.87-8.8,2.63,2.63,0,0,1,4.5-1.06,4.13,4.13,0,0,1,6.31,4.3,3.46,3.46,0,0,1,.64,6.22,2.59,2.59,0,0,1,.21,1.06,2.63,2.63,0,0,1-3.52,2.45" fill="#227f06" fill-rule="evenodd"/>
    <path d="M394.41,369.52a3.5,3.5,0,0,1-5.84.65,2.76,2.76,0,0,1-3.49-4.19,4.35,4.35,0,0,1,2.43-7.47,2.23,2.23,0,0,1,3.82-.9,3.5,3.5,0,0,1,5.43,3,3.62,3.62,0,0,1-.07.69,2.94,2.94,0,0,1,.54,5.28,2.23,2.23,0,0,1-2.07,3.11,2.25,2.25,0,0,1-.74-.13" fill="#1d6d03" fill-rule="evenodd"/>
    <path d="M387,324.82a3.5,3.5,0,0,1-5.84.66,2.76,2.76,0,0,1-3.49-4.19,4.35,4.35,0,0,1,2.43-7.47,2.23,2.23,0,0,1,3.82-.9,3.5,3.5,0,0,1,5.35,3.64,2.94,2.94,0,0,1,.54,5.28,2.23,2.23,0,0,1-2.81,3" fill="#1d6d03" fill-rule="evenodd"/>
    <path d="M241.66,51.4a2.51,2.51,0,0,1-.38,4.2,2,2,0,0,1-3.45,1.86,3.12,3.12,0,0,1-4.9-2.78,1.6,1.6,0,0,1-.08-2.81,2.51,2.51,0,0,1,2.86-3.39,2.45,2.45,0,0,1,.47.15A2.11,2.11,0,0,1,240,49a1.58,1.58,0,0,1,.66,0,1.6,1.6,0,0,1,1,2.4" fill="#227f06" fill-rule="evenodd"/>
    <path d="M225.17,17.47a2.51,2.51,0,0,1-.38,4.2,2,2,0,0,1-3.45,1.86,3.12,3.12,0,0,1-4.9-2.78,1.6,1.6,0,0,1-.08-2.81,2.51,2.51,0,0,1,2.86-3.39,2.45,2.45,0,0,1,.47.15,2.11,2.11,0,0,1,3.79.38,1.58,1.58,0,0,1,.66,0,1.6,1.6,0,0,1,1,2.4" fill="#227f06" fill-rule="evenodd"/>
    <path d="M198,23.81a3.53,3.53,0,0,1,2.46-5.39,2.78,2.78,0,0,1,5.43-.85,4.38,4.38,0,0,1,5.2,6,2.25,2.25,0,0,1-1.2,3.77,3.53,3.53,0,0,1-5.37,3.16A3.41,3.41,0,0,1,204,30a3,3,0,0,1-4.84-2.27,2.22,2.22,0,0,1-.87-.31,2.25,2.25,0,0,1-.25-3.66" fill="#1d6d03" fill-rule="evenodd"/>
    <path d="M311.89,137a4.13,4.13,0,0,1,.62-6.9,3.25,3.25,0,0,1,5.66-3.05,5.13,5.13,0,0,1,8.05,4.57,2.63,2.63,0,0,1,.14,4.62,4.13,4.13,0,0,1-4.69,5.57,4.18,4.18,0,0,1-.78-.25,3.46,3.46,0,0,1-6.22-.62,2.63,2.63,0,0,1-2.77-3.94" fill="#227f06" fill-rule="evenodd"/>
    <path d="M297.3,68.48a4.13,4.13,0,0,1,.62-6.9,3.25,3.25,0,0,1,5.66-3.05,5.13,5.13,0,0,1,8.05,4.57,2.63,2.63,0,0,1,.14,4.62A4.13,4.13,0,0,1,306.3,73a3.46,3.46,0,0,1-6.22-.62,2.63,2.63,0,0,1-2.77-3.94" fill="#227f06" fill-rule="evenodd"/>
    <path d="M307.94,89a3.5,3.5,0,0,1,.53-5.86,2.76,2.76,0,0,1,4.8-2.59,4.35,4.35,0,0,1,6.83,3.88,2.23,2.23,0,0,1,.12,3.92,3.5,3.5,0,0,1-4,4.73,3.39,3.39,0,0,1-.66-.21,2.94,2.94,0,0,1-5.28-.52,2.23,2.23,0,0,1-2.63-2.65,2.19,2.19,0,0,1,.28-.7" fill="#1d6d03" fill-rule="evenodd"/>
    <path d="M292.72,75.65a3.5,3.5,0,0,1,.53-5.85,2.76,2.76,0,0,1,4.8-2.59,4.35,4.35,0,0,1,6.83,3.88A2.23,2.23,0,0,1,305,75a3.5,3.5,0,0,1-4,4.73,3.55,3.55,0,0,1-.66-.21,2.94,2.94,0,0,1-5.28-.53,2.19,2.19,0,0,1-.92,0,2.23,2.23,0,0,1-1.71-2.64,2.26,2.26,0,0,1,.28-.7" fill="#1d6d03" fill-rule="evenodd"/>
    <path d="M294.7,88.16a4.54,4.54,0,0,0-1.21,7.53,3.58,3.58,0,0,0,5.21,4.79,5.64,5.64,0,0,0,9.83-2.69,2.89,2.89,0,0,0,1.4-4.89,4.54,4.54,0,0,0-3.49-7.22,4.48,4.48,0,0,0-.9.05,3.81,3.81,0,0,0-6.81-1,2.89,2.89,0,0,0-4.16,2.48,2.92,2.92,0,0,0,.13,1" fill="#1d6d03" fill-rule="evenodd"/>
    <path d="M325.38,122.75A3.53,3.53,0,0,1,322.7,128a2.75,2.75,0,0,1-.47,1.44,2.78,2.78,0,0,1-5-.81,4.38,4.38,0,0,1-4.95-6.18,2.25,2.25,0,0,1,1.35-3.72,3.53,3.53,0,0,1,5.49-2.94,3.62,3.62,0,0,1,.54.44,3,3,0,0,1,4.75,2.46,2.25,2.25,0,0,1,1.48,3.46,2.28,2.28,0,0,1-.52.55" fill="#1d6d03" fill-rule="evenodd"/>
    <path d="M313.44,108.8a4.13,4.13,0,0,0,5.71-3.92,3.25,3.25,0,0,0-.11-6.43,5.13,5.13,0,0,0-7.93-4.78,2.63,2.63,0,0,0-4.1,2.15,4.13,4.13,0,0,0-2.56,6.82,4.18,4.18,0,0,0,.6.56,3.46,3.46,0,0,0,3.59,5.12,2.63,2.63,0,0,0,4.8.48" fill="#227f06" fill-rule="evenodd"/>
    <path d="M296.18,116.1a4.13,4.13,0,0,1,6.89-.77,3.25,3.25,0,0,1,4.12,4.93,5.13,5.13,0,0,1-2.87,8.8,2.63,2.63,0,0,1-4.5,1.06,4.13,4.13,0,0,1-6.4-3.48,4.18,4.18,0,0,1,.09-.81,3.46,3.46,0,0,1-.64-6.22,2.63,2.63,0,0,1,3.31-3.51" fill="#227f06" fill-rule="evenodd"/>
    <path d="M345.84,168.51a3.53,3.53,0,0,0-5.89-.66,2.78,2.78,0,0,0-3.52,4.22,4.38,4.38,0,0,0,2.45,7.52,2.25,2.25,0,0,0,3.85.91,3.53,3.53,0,0,0,5.47-3,3.39,3.39,0,0,0-.07-.7,3,3,0,0,0,.55-5.32,2.25,2.25,0,0,0-2.83-3" fill="#1d6d03" fill-rule="evenodd"/>
    <path d="M342.53,150.57a4.13,4.13,0,0,0-1.67-6.73,3.25,3.25,0,0,0-6.06-2.15,5.13,5.13,0,0,0-7.26,5.74,2.63,2.63,0,0,0,.57,4.59,4.13,4.13,0,0,0,5.49,4.79,4.15,4.15,0,0,0,.73-.36,3.46,3.46,0,0,0,6.06-1.56,2.63,2.63,0,0,0,2.59-3.56,2.66,2.66,0,0,0-.45-.76" fill="#227f06" fill-rule="evenodd"/>
    <path d="M350,99.07a4.13,4.13,0,0,0-1.67-6.73,3.25,3.25,0,0,0-6.06-2.15A5.13,5.13,0,0,0,335,95.94a2.63,2.63,0,0,0,.57,4.59,4.13,4.13,0,0,0,5.49,4.79,4.19,4.19,0,0,0,.73-.36,3.46,3.46,0,0,0,6.06-1.56A2.63,2.63,0,0,0,350,99.07" fill="#227f06" fill-rule="evenodd"/>
    <path d="M346.41,137.34a3.5,3.5,0,0,0-1.41-5.71,2.76,2.76,0,0,0-5.14-1.83,4.35,4.35,0,0,0-6.16,4.87,2.23,2.23,0,0,0,.48,3.89,3.5,3.5,0,0,0,4.65,4.07,3.58,3.58,0,0,0,.62-.31,2.94,2.94,0,0,0,5.14-1.32,2.23,2.23,0,0,0,2.2-3,2.24,2.24,0,0,0-.38-.65" fill="#227f06" fill-rule="evenodd"/>
    <path d="M340.48,90.47a3.5,3.5,0,0,0-1.41-5.71,2.76,2.76,0,0,0-5.14-1.83,4.35,4.35,0,0,0-6.16,4.87,2.23,2.23,0,0,0,.48,3.89,3.5,3.5,0,0,0,4.65,4.07,3.41,3.41,0,0,0,.62-.31,2.94,2.94,0,0,0,5.14-1.32,2.23,2.23,0,0,0,1.82-3.66" fill="#1d6d03" fill-rule="evenodd"/>
    <path d="M351.62,146.16a3.5,3.5,0,0,0-1.41-5.71,2.76,2.76,0,0,0-5.14-1.83,4.35,4.35,0,0,0-6.16,4.87,2.23,2.23,0,0,0,.48,3.89,3.5,3.5,0,0,0,4.65,4.07,3.43,3.43,0,0,0,.62-.31,2.94,2.94,0,0,0,5.14-1.32,2.23,2.23,0,0,0,1.82-3.66" fill="#1d6d03" fill-rule="evenodd"/>
    <path d="M340.34,104.35a3.5,3.5,0,0,0-5.87.24,2.76,2.76,0,0,0-2.82,4.67,4.35,4.35,0,0,0,3.54,7,2.23,2.23,0,0,0,3.91.31,3.5,3.5,0,0,0,4.73-4.42,2.94,2.94,0,0,0-.27-5.3,2.2,2.2,0,0,0,0-.92,2.23,2.23,0,0,0-3.27-1.59" fill="#1d6d03" fill-rule="evenodd"/>
    <path d="M252.68,45.47a4.13,4.13,0,0,1-3.12-6.19,3.25,3.25,0,0,1,3.19-5.58,5.13,5.13,0,0,1,9.25-.38,2.63,2.63,0,0,1,2.56,3.85,4.13,4.13,0,0,1-1,7.21,4.18,4.18,0,0,1-.79.2,3.46,3.46,0,0,1-5.61,2.77,2.63,2.63,0,0,1-4.44-1.88" fill="#227f06" fill-rule="evenodd"/>
    <path d="M254.3,32.74a3.5,3.5,0,0,1-2.65-5.25,2.76,2.76,0,0,1,2.7-4.74,4.35,4.35,0,0,1,7.85-.32,2.23,2.23,0,0,1,2.17,3.27,3.5,3.5,0,0,1-.88,6.12,3.55,3.55,0,0,1-.67.17,2.93,2.93,0,0,1-4.76,2.35,2.19,2.19,0,0,1-.78.48,2.23,2.23,0,0,1-3-2.08" fill="#1d6d03" fill-rule="evenodd"/>
    <path d="M349.92,122.76a2.18,2.18,0,0,1-1.65-3.27,1.72,1.72,0,0,1,1.68-2.95,2.71,2.71,0,0,1,4.88-.2,1.39,1.39,0,0,1,1.35,2,2.18,2.18,0,0,1-.55,3.81,2.23,2.23,0,0,1-.42.11,1.83,1.83,0,0,1-3,1.46,1.39,1.39,0,0,1-2.34-1" fill="#1d6d03" fill-rule="evenodd"/>
    <path d="M278.08,43.74a3.5,3.5,0,0,1,4.61-3.65,2.76,2.76,0,0,1,5.18,1.7,4.35,4.35,0,0,1,1.88,7.62A2.23,2.23,0,0,1,287,52.2a3.5,3.5,0,0,1-6.47-.26,2.94,2.94,0,0,1-3.25-4.19,2.23,2.23,0,0,1,.11-3.73,2.23,2.23,0,0,1,.7-.28" fill="#288b0c" fill-rule="evenodd"/>
    <path d="M279.47,55.55a3.5,3.5,0,0,1,4.61-3.65,2.76,2.76,0,0,1,5.18,1.7,4.35,4.35,0,0,1,1.88,7.62A2.23,2.23,0,0,1,288.38,64a3.5,3.5,0,0,1-6.17.36,3.44,3.44,0,0,1-.3-.62,2.94,2.94,0,0,1-3.25-4.19,2.23,2.23,0,0,1,.81-4" fill="#1d6d03" fill-rule="evenodd"/>
    <path d="M362.8,142.36a4.54,4.54,0,0,1,7.59-.79,3.58,3.58,0,0,1,4.49,5.47,5.64,5.64,0,0,1-3.24,9.66,2.89,2.89,0,0,1-5,1.12,4.54,4.54,0,0,1-6.91-4.79,3.81,3.81,0,0,1-.64-6.85,2.89,2.89,0,0,1,3.68-3.83" fill="#1d6d03" fill-rule="evenodd"/>
    <path d="M382.15,256.47a3.5,3.5,0,0,1-3.72-4.55,2.76,2.76,0,0,1,1.61-5.21,4.35,4.35,0,0,1,7.59-2,2.23,2.23,0,0,1,2.83,2.72,3.5,3.5,0,0,1-.15,6.47,2.94,2.94,0,0,1-4.14,3.32,2.23,2.23,0,0,1-4-.74" fill="#227f06" fill-rule="evenodd"/>
    <path d="M365.3,226a2.51,2.51,0,0,1,1.31-4,2,2,0,0,1,3.77-1,3.12,3.12,0,0,1,4.16,3.81,1.6,1.6,0,0,1-.55,2.76,2.52,2.52,0,0,1-4,2.42,2.11,2.11,0,0,1-3.61-1.21A1.6,1.6,0,0,1,365.3,226" fill="#227f06" fill-rule="evenodd"/>
    <path d="M381.8,239.4a2.87,2.87,0,0,1,2.17-4.3,2.26,2.26,0,0,1,4.44-.52,3.56,3.56,0,0,1,4,5,1.83,1.83,0,0,1-1.1,3,2.87,2.87,0,0,1-4.46,2.4,2.92,2.92,0,0,1-.44-.36,2.41,2.41,0,0,1-3.86-2,1.83,1.83,0,0,1-1.21-2.81,1.86,1.86,0,0,1,.42-.45" fill="#1d6d03" fill-rule="evenodd"/>
    <path d="M370.48,168.65a4.13,4.13,0,0,1-4.69-5.1,3.25,3.25,0,0,1,1.55-6.24,5.13,5.13,0,0,1,8.8-2.89,2.63,2.63,0,0,1,3.51,3,4.13,4.13,0,0,1,.26,7.63,3.46,3.46,0,0,1-4.64,4.19,2.63,2.63,0,0,1-4.79-.6" fill="#227f06" fill-rule="evenodd"/>
    <path d="M379,180.56a4.13,4.13,0,0,1,1.67,6.73,3.25,3.25,0,0,1-4.35,4.73,5.13,5.13,0,0,1-9.1-1.69,2.63,2.63,0,0,1-1.64-4.33,4.13,4.13,0,0,1,3.44-6.82,3.46,3.46,0,0,1,6.08-1.44,2.63,2.63,0,0,1,3.91,2.82" fill="#227f06" fill-rule="evenodd"/>
    <path d="M374.54,192.61a3.5,3.5,0,0,1,1.41,5.71,2.76,2.76,0,0,1-3.69,4,4.35,4.35,0,0,1-7.72-1.44,2.23,2.23,0,0,1-1.39-3.67,3.5,3.5,0,0,1,2.22-5.77,3.64,3.64,0,0,1,.69,0,2.94,2.94,0,0,1,5.16-1.22,2.19,2.19,0,0,1,.87-.3,2.23,2.23,0,0,1,2.48,1.94,2.2,2.2,0,0,1,0,.75" fill="#1d6d03" fill-rule="evenodd"/>
    <path d="M353.81,176.58a3.5,3.5,0,0,1-5.31,2.52,2.76,2.76,0,0,1-4.67-2.82,4.35,4.35,0,0,1-.13-7.85,2.23,2.23,0,0,1,3.32-2.1,3.5,3.5,0,0,1,6.09,1,3.52,3.52,0,0,1,.16.68,2.94,2.94,0,0,1,2.23,4.81,2.23,2.23,0,0,1-1.69,3.73" fill="#288b0c" fill-rule="evenodd"/>
    <path d="M392.61,210.62a4.13,4.13,0,0,1-.62,6.9,3.25,3.25,0,0,1-5.66,3.05,5.13,5.13,0,0,1-8.05-4.57,2.63,2.63,0,0,1-.14-4.62,4.13,4.13,0,0,1,5.47-5.33,3.46,3.46,0,0,1,6.22.62,2.6,2.6,0,0,1,1.08,0,2.63,2.63,0,0,1,1.69,3.94" fill="#227f06" fill-rule="evenodd"/>
    <path d="M397.19,203.45a3.5,3.5,0,0,1-.53,5.85,2.76,2.76,0,0,1-4.8,2.59A4.35,4.35,0,0,1,385,208a2.23,2.23,0,0,1-.12-3.92,3.5,3.5,0,0,1,4-4.73,3.54,3.54,0,0,1,.66.21,2.94,2.94,0,0,1,5.28.53,2.23,2.23,0,0,1,2.63,2.65,2.19,2.19,0,0,1-.28.7" fill="#1d6d03" fill-rule="evenodd"/>
    <path d="M408.51,464.72A3.16,3.16,0,0,1,408,470a2.49,2.49,0,0,1-4.34,2.34,3.93,3.93,0,0,1-6.18-3.5,2,2,0,0,1-.11-3.55A3.17,3.17,0,0,1,401,461a3.22,3.22,0,0,1,.6.19,2.65,2.65,0,0,1,4.77.48,2,2,0,0,1,2.13,3" fill="#1d6d03" fill-rule="evenodd"/>
    <path d="M386.27,269.39a4.13,4.13,0,0,1,3.94-5.7,3.25,3.25,0,0,1,6.43.14,5.13,5.13,0,0,1,4.75,7.95,2.63,2.63,0,0,1-2.16,4.09,4.13,4.13,0,0,1-6.83,2.53,4.2,4.2,0,0,1-.56-.6,3.46,3.46,0,0,1-5.11-3.61,2.63,2.63,0,0,1-.47-4.8" fill="#227f06" fill-rule="evenodd"/>
    <path d="M398.23,264.73a3.5,3.5,0,0,1,3.35-4.83A2.76,2.76,0,0,1,407,260a4.35,4.35,0,0,1,4,6.74,2.23,2.23,0,0,1-1.83,3.47,3.5,3.5,0,0,1-5.79,2.15,3.56,3.56,0,0,1-.47-.51,2.93,2.93,0,0,1-4.33-3.06,2.2,2.2,0,0,1-.8-.46,2.23,2.23,0,0,1,.4-3.62" fill="#1d6d03" fill-rule="evenodd"/>
    <path d="M396.49,238.23a3.5,3.5,0,0,1,3.35-4.83,2.76,2.76,0,0,1,5.45.12,4.35,4.35,0,0,1,4,6.74,2.23,2.23,0,0,1-1.83,3.47,3.5,3.5,0,0,1-5.79,2.15,3.56,3.56,0,0,1-.47-.51,2.94,2.94,0,0,1-4.33-3.06,2.2,2.2,0,0,1-.8-.46,2.23,2.23,0,0,1,.4-3.62" fill="#1d6d03" fill-rule="evenodd"/>
    <path d="M396.85,304a2.37,2.37,0,0,1,3.66,1.57,1.87,1.87,0,0,1,.66,3.64,2.95,2.95,0,0,1-3.93,3.59,1.51,1.51,0,0,1-2.55-.75,2.37,2.37,0,0,1-1.94-3.94,2,2,0,0,1,1.44-3.29,1.51,1.51,0,0,1,2.65-.81" fill="#1d6d03" fill-rule="evenodd"/>
    <path d="M398.32,299.84a4.13,4.13,0,0,1,3.94-5.7,3.25,3.25,0,0,1,6.43.14,5.13,5.13,0,0,1,4.75,7.95,2.63,2.63,0,0,1-2.16,4.09,4.13,4.13,0,0,1-6.83,2.53,4.19,4.19,0,0,1-.56-.6,3.46,3.46,0,0,1-5.11-3.61,2.63,2.63,0,0,1-.47-4.8" fill="#227f06" fill-rule="evenodd"/>
    <path d="M400,328.24a3.53,3.53,0,0,1,2.68-5.29,2.78,2.78,0,0,1,5.46-.63,4.38,4.38,0,0,1,4.95,6.18,2.25,2.25,0,0,1-1.35,3.72,3.53,3.53,0,0,1-5.49,2.94,3.48,3.48,0,0,1-.54-.44,3,3,0,0,1-4.75-2.46,2.25,2.25,0,0,1-1-4" fill="#1d6d03" fill-rule="evenodd"/>
    <path d="M409.78,371.59a2.89,2.89,0,0,0-4,2.75,2.28,2.28,0,0,0,.08,4.51,3.59,3.59,0,0,0,5.56,3.35,1.84,1.84,0,0,0,2.87-1.5,2.89,2.89,0,0,0,1.79-4.78,3,3,0,0,0-.42-.39,2.43,2.43,0,0,0-2.52-3.59,1.82,1.82,0,0,0-.37-.66,1.84,1.84,0,0,0-3,.32" fill="#227f06" fill-rule="evenodd"/>
    <path d="M415.13,356.68a3.5,3.5,0,0,1-3.72-4.55,2.76,2.76,0,0,1,1.61-5.21,4.35,4.35,0,0,1,7.59-2,2.23,2.23,0,0,1,2.83,2.72,3.5,3.5,0,0,1-.15,6.47,2.94,2.94,0,0,1-4.14,3.32,2.23,2.23,0,0,1-4-.74" fill="#227f06" fill-rule="evenodd"/>
    <path d="M414.78,339.61a2.87,2.87,0,0,1,2.17-4.3,2.26,2.26,0,0,1,4.44-.52,3.57,3.57,0,0,1,4,5,1.83,1.83,0,0,1-1.1,3,2.87,2.87,0,0,1-4.9,2,2.41,2.41,0,0,1-3.86-2,1.83,1.83,0,0,1-1.21-2.81,1.81,1.81,0,0,1,.42-.45" fill="#1d6d03" fill-rule="evenodd"/>
  </g>
  <g id="trees">
    <path d="M35.57,279.26a4.56,4.56,0,0,1,1.52,7.5,3.59,3.59,0,0,1-5,5,5.66,5.66,0,0,1-10-2.29,2.9,2.9,0,0,1-1.61-4.85,4.56,4.56,0,0,1,4.1-7.36A3.82,3.82,0,0,1,31.39,276a2.9,2.9,0,0,1,4.18,3.3h0Z" fill="#1d6d03"/>
    <path d="M29,290.36a3.51,3.51,0,0,1,5.76,1.27,2.77,2.77,0,0,1,2,5.11A4.36,4.36,0,0,1,32,303a2.23,2.23,0,0,1-3.91-.38,3.51,3.51,0,0,1-3.9-5.2,2.95,2.95,0,0,1,1.2-5.19A2.23,2.23,0,0,1,29,290.36Z" fill="#227f06"/>
    <path d="M45.82,278.22a2.52,2.52,0,0,1,4.13.91,2,2,0,0,1,1.41,3.67A3.13,3.13,0,0,1,48,287.32a1.6,1.6,0,0,1-2.81-.28,2.52,2.52,0,0,1-2.8-3.73,2.11,2.11,0,0,1,.86-3.72,1.6,1.6,0,0,1,2.6-1.37h0Z" fill="#227f06"/>
    <path d="M39.89,303.59a2.88,2.88,0,0,1,1,4.74,2.27,2.27,0,0,1-3.17,3.17A3.57,3.57,0,0,1,31.39,310a1.83,1.83,0,0,1-1-3.06A2.88,2.88,0,0,1,33,302.33a2.41,2.41,0,0,1,4.28-.83,1.83,1.83,0,0,1,2.64,2.08h0Z" fill="#1d6d03"/>
    <path d="M54.21,294.43a3.54,3.54,0,0,1-2.47,5.41,2.79,2.79,0,0,1-5.44.86,4.4,4.4,0,0,1-5.21-6,2.25,2.25,0,0,1,1.2-3.78,3.54,3.54,0,0,1,5.94-2.75,3,3,0,0,1,4.85,2.27,2.25,2.25,0,0,1,1.12,4h0Z" fill="#1d6d03"/>
    <path d="M132.07,234.64a3.3,3.3,0,0,1,1.1,5.42,2.6,2.6,0,0,1-3.63,3.63,4.09,4.09,0,0,1-7.2-1.66,2.1,2.1,0,0,1-1.16-3.51,3.3,3.3,0,0,1,3-5.32,2.76,2.76,0,0,1,4.9-.95,2.1,2.1,0,0,1,3,2.38h0Z" fill="#1d6d03"/>
    <path d="M116.62,239a2.59,2.59,0,0,1,.86,4.25,2,2,0,0,1-2.85,2.85,3.21,3.21,0,0,1-5.65-1.3,1.65,1.65,0,0,1-.91-2.75,2.59,2.59,0,0,1,2.33-4.18,2.17,2.17,0,0,1,3.84-.74,1.65,1.65,0,0,1,2.37,1.87h0Z" fill="#1d6d03"/>
    <path d="M110.52,245.8a2.52,2.52,0,0,1,4.13.91,2,2,0,0,1,1.41,3.67,3.13,3.13,0,0,1-3.39,4.53,1.6,1.6,0,0,1-2.81-.28,2.52,2.52,0,0,1-3-3.28,2.55,2.55,0,0,1,.21-.45,2.12,2.12,0,0,1,.86-3.72,1.61,1.61,0,0,1,2.61-1.37h0Z" fill="#227f06"/>
    <path d="M376.86,378.38a3.14,3.14,0,0,1,5.14,1.14,2.47,2.47,0,0,1,1.75,4.57,3.9,3.9,0,0,1-4.23,5.63,2,2,0,0,1-3.5-.34,3.14,3.14,0,0,1-3.49-4.64,2.63,2.63,0,0,1,1.07-4.64,2,2,0,0,1,3.24-1.71h0Z" fill="#227f06"/>
    <path d="M379.42,375.58a2.45,2.45,0,0,1-1.71,3.74,1.93,1.93,0,0,1-3.77.59,3,3,0,0,1-3.6-4.15,1.56,1.56,0,0,1,.83-2.62,2.45,2.45,0,0,1,4.11-1.9,2.05,2.05,0,0,1,3.36,1.57,1.56,1.56,0,0,1,.78,2.76h0Z" fill="#1d6d03"/>
    <path d="M383.23,397.53a2.45,2.45,0,0,1-1.71,3.74,1.93,1.93,0,0,1-3.77.59,3,3,0,0,1-3.61-4.15,1.56,1.56,0,0,1,.83-2.62,2.45,2.45,0,0,1,4.11-1.9,2.05,2.05,0,0,1,3.36,1.57,1.56,1.56,0,0,1,.78,2.76h0Z" fill="#1d6d03"/>
    <path d="M385.62,418.47a2.89,2.89,0,0,1-2,4.41,2.27,2.27,0,0,1-4.44.7,3.59,3.59,0,0,1-4.25-4.89,1.84,1.84,0,0,1,1-3.08,2.89,2.89,0,0,1,4.85-2.24,2.42,2.42,0,0,1,4,1.85,1.82,1.82,0,0,1,.71.25,1.84,1.84,0,0,1,.2,3h0Z" fill="#1d6d03"/>
    <path d="M386.45,427.34a2.09,2.09,0,0,1-1.45,3.19,1.64,1.64,0,0,1-3.21.51,2.59,2.59,0,0,1-3.07-3.53,1.33,1.33,0,0,1,.71-2.23,2.09,2.09,0,0,1,3.5-1.62,1.75,1.75,0,0,1,2.86,1.34,1.33,1.33,0,0,1,.66,2.35Z" fill="#227f06"/>
    <path d="M385.68,439.09a2.55,2.55,0,0,1-1.77,3.89,2,2,0,0,1-3.92.62,3.16,3.16,0,0,1-3.75-4.31,1.62,1.62,0,0,1,.87-2.72,2.55,2.55,0,0,1,4.27-2,2.13,2.13,0,0,1,3.49,1.64,1.62,1.62,0,0,1,.81,2.87Z" fill="#1d6d03"/>
    <path d="M389.34,451.16a3.24,3.24,0,0,1-2.26,5,2.55,2.55,0,0,1-5,.79,4,4,0,0,1-4.77-5.49,2.06,2.06,0,0,1,1.1-3.46,3.24,3.24,0,0,1,4.93-2.91,3.29,3.29,0,0,1,.51.39,2.72,2.72,0,0,1,4.45,2.08,2.06,2.06,0,0,1,1,3.65h0Z" fill="#227f06"/>
    <path d="M388.23,479.5a2.55,2.55,0,0,1-1.77,3.89,2,2,0,0,1-3.92.62,3.16,3.16,0,0,1-3.75-4.31,1.62,1.62,0,0,1,.87-2.72,2.55,2.55,0,0,1,4.27-2,2.13,2.13,0,0,1,3.49,1.64,1.62,1.62,0,0,1,.81,2.87h0Z" fill="#227f06"/>
    <path d="M382.38,488.67a1.74,1.74,0,0,1-1.21,2.65,1.37,1.37,0,0,1-2.67.42,2.16,2.16,0,0,1-2.56-2.94,1.11,1.11,0,0,1,.59-1.85,1.74,1.74,0,0,1,2.91-1.35,1.46,1.46,0,0,1,2.38,1.12,1.11,1.11,0,0,1,.55,2h0Z" fill="#227f06"/>
    <path d="M377.07,490.4a2.66,2.66,0,0,1-1.85,4.07,2.1,2.1,0,0,1-4.09.65,3.31,3.31,0,0,1-3.92-4.51,1.7,1.7,0,0,1,.91-2.84,2.66,2.66,0,0,1,4-2.39,2.7,2.7,0,0,1,.42.32,2.23,2.23,0,0,1,3.65,1.71,1.7,1.7,0,0,1,.84,3h0Z" fill="#1d6d03"/>
    <path d="M361.39,497.9a1.74,1.74,0,0,1-1.21,2.65,1.37,1.37,0,0,1-2.67.42A2.16,2.16,0,0,1,355,498a1.11,1.11,0,0,1,.59-1.85,1.74,1.74,0,0,1,2.91-1.35,1.46,1.46,0,0,1,2.38,1.12,1.11,1.11,0,0,1,.8,1.67,1.09,1.09,0,0,1-.25.28h0Z" fill="#1d6d03"/>
  </g>
</svg>
