<svg id="main" xmlns="http://www.w3.org/2000/svg" viewBox="0 0 562.03324 437.07219">
  <title>plan_2</title>
  <polygon points="356.653 38.2 351.602 3.208 334.914 4.636 339.307 39.418 356.653 38.2 356.653 38.2" fill="#67b437" fill-rule="evenodd" class="area" id="id513"></polygon>
  <polygon points="332.4 4.682 314.909 6.179 319.549 41.353 336.479 39.948 332.4 4.682 332.4 4.682" fill="#67b437" fill-rule="evenodd" class="area" id="id512"></polygon>
  <polygon points="312.396 6.383 294.105 7.864 298.755 43.12 317.037 41.566 312.396 6.383 312.396 6.383" fill="#67b437" fill-rule="evenodd" class="area" id="id511"></polygon>
  <polygon points="291.592 8.068 275.104 9.403 279.764 44.733 296.244 43.333 291.592 8.068 291.592 8.068" fill="#67b437" fill-rule="evenodd" class="area" id="id510"></polygon>
  <polygon points="272.591 9.607 255.799 10.967 260.47 46.373 277.253 44.947 272.591 9.607 272.591 9.607" fill="#67b437" fill-rule="evenodd" class="area" id="id509"></polygon>
  <polygon points="253.286 11.17 235.943 12.575 240.624 48.059 257.958 46.586 253.286 11.17 253.286 11.17" fill="#67b437" fill-rule="evenodd" class="area" id="id508"></polygon>
  <polygon points="233.43 12.778 216.722 14.132 221.412 49.691 238.113 48.272 233.43 12.778 233.43 12.778" fill="#67b437" fill-rule="evenodd" class="area" id="id507"></polygon>
  <polygon points="214.209 14.335 197.125 15.718 201.826 51.355 218.9 49.905 214.209 14.335 214.209 14.335" fill="#67b437" fill-rule="evenodd" class="area" id="id506"></polygon>
  <polygon points="194.612 15.922 177.619 17.298 182.331 53.012 199.314 51.569 194.612 15.922 194.612 15.922" fill="#67b437" fill-rule="evenodd" class="area" id="id505"></polygon>
  <polygon points="175.106 17.502 158.586 18.84 163.307 54.628 179.819 53.225 175.106 17.502 175.106 17.502" fill="#67b437" fill-rule="evenodd" class="area" id="id504"></polygon>
  <polygon points="156.073 19.043 138.886 20.435 143.618 56.301 160.795 54.842 156.073 19.043 156.073 19.043" fill="#67b437" fill-rule="evenodd" class="area" id="id503"></polygon>
  <polygon points="136.374 20.639 119.673 21.991 124.414 57.933 141.106 56.515 136.374 20.639 136.374 20.639" fill="#67b437" fill-rule="evenodd" class="area" id="id502"></polygon>
  <polygon points="117.16 22.195 99.785 23.602 104.537 59.622 121.903 58.146 117.16 22.195 117.16 22.195" fill="#67b437" fill-rule="evenodd" class="area" id="id501"></polygon>
  <polygon points="97.272 23.805 88.266 24.535 75.004 36.225 79.109 56.763 87.082 56.447 88.187 60.712 102.025 59.835 97.272 23.805 97.272 23.805" fill="#67b437" fill-rule="evenodd" class="area" id="id500"></polygon>
  <polygon points="82.977 75.799 90.95 75.167 89.726 70.744 100.957 70.029 107.564 102.743 88.892 104.201 82.977 75.799 82.977 75.799" fill="#67b437" fill-rule="evenodd" class="area" id="id514"></polygon>
  <polygon points="103.484 69.835 120.532 68.525 126.801 101.242 110.09 102.546 103.484 69.835 103.484 69.835" fill="#67b437" fill-rule="evenodd" class="area" id="id515"></polygon>
  <polygon points="123.062 68.33 139.804 67.044 145.806 99.758 129.331 101.044 123.062 68.33 123.062 68.33" fill="#67b437" fill-rule="evenodd" class="area" id="id516"></polygon>
  <polygon points="142.328 66.849 159.174 65.555 164.806 98.275 148.33 99.561 142.328 66.849 142.328 66.849" fill="#67b437" fill-rule="evenodd" class="area" id="id517"></polygon>
  <polygon points="161.7 65.361 178.777 64.048 184.129 96.766 167.332 98.077 161.7 65.361 161.7 65.361" fill="#67b437" fill-rule="evenodd" class="area" id="id518"></polygon>
  <polygon points="181.298 63.854 197.665 62.597 203.072 95.287 186.65 96.569 181.298 63.854 181.298 63.854" fill="#67b437" fill-rule="evenodd" class="area" id="id519"></polygon>
  <polygon points="200.186 62.403 217.034 61.108 222.337 93.783 205.593 95.09 200.186 62.403 200.186 62.403" fill="#67b437" fill-rule="evenodd" class="area" id="id520"></polygon>
  <polygon points="219.555 60.914 235.59 59.682 240.887 92.335 224.858 93.586 219.555 60.914 219.555 60.914" fill="#67b437" fill-rule="evenodd" class="area" id="id521"></polygon>
  <polygon points="238.111 59.488 255.39 58.16 260.225 90.825 243.408 92.138 238.111 59.488 238.111 59.488" fill="#67b437" fill-rule="evenodd" class="area" id="id522"></polygon>
  <polygon points="257.912 57.966 275.21 56.637 279.808 89.296 262.747 90.628 257.912 57.966 257.912 57.966" fill="#67b437" fill-rule="evenodd" class="area" id="id523"></polygon>
  <polygon points="277.729 56.443 294.946 55.12 299.428 87.765 282.326 89.1 277.729 56.443 277.729 56.443" fill="#67b437" fill-rule="evenodd" class="area" id="id524"></polygon>
  <polygon points="297.463 54.927 314.616 53.608 318.648 86.264 301.945 87.569 297.463 54.927 297.463 54.927" fill="#67b437" fill-rule="evenodd" class="area" id="id525"></polygon>
  <polygon points="317.136 53.414 334.478 52.082 338.226 84.736 321.168 86.068 317.136 53.414 317.136 53.414" fill="#67b437" fill-rule="evenodd" class="area" id="id526"></polygon>
  <polygon points="336.995 51.888 354.077 50.576 357.82 83.206 340.742 84.539 336.995 51.888 336.995 51.888" fill="#67b437" fill-rule="evenodd" class="area" id="id527"></polygon>
  <polygon points="356.594 50.382 398.964 47.126 361.698 82.964 361.694 82.904 360.336 83.01 356.594 50.382 356.594 50.382" fill="#67b437" fill-rule="evenodd" class="area" id="id528"></polygon>
  <polygon points="358.18 86.347 325.127 118.133 321.478 88.576 358.108 85.716 358.18 86.347 358.18 86.347" fill="#67b437" fill-rule="evenodd" class="area" id="id541"></polygon>
  <polygon points="322.733 119.339 306.478 120.591 302.288 90.074 318.958 88.773 322.733 119.339 322.733 119.339" fill="#67b437" fill-rule="evenodd" class="area" id="id540"></polygon>
  <polygon points="303.962 120.784 286.971 122.093 282.679 91.605 299.773 90.27 303.962 120.784 303.962 120.784" fill="#67b437" fill-rule="evenodd" class="area" id="id539"></polygon>
  <polygon points="284.453 122.287 267.625 123.583 263.117 93.132 280.161 91.801 284.453 122.287 284.453 122.287" fill="#67b437" fill-rule="evenodd" class="area" id="id538"></polygon>
  <polygon points="265.103 123.777 248.745 125.036 243.813 94.639 260.596 93.329 265.103 123.777 265.103 123.777" fill="#67b437" fill-rule="evenodd" class="area" id="id537"></polygon>
  <polygon points="246.224 125.23 230.194 126.465 225.264 96.087 241.293 94.836 246.224 125.23 246.224 125.23" fill="#67b437" fill-rule="evenodd" class="area" id="id536"></polygon>
  <polygon points="227.673 126.659 211.028 127.941 206.007 97.591 222.743 96.284 227.673 126.659 227.673 126.659" fill="#67b437" fill-rule="evenodd" class="area" id="id535"></polygon>
  <polygon points="208.506 128.135 192.022 129.404 187.059 99.07 203.486 97.787 208.506 128.135 208.506 128.135" fill="#67b437" fill-rule="evenodd" class="area" id="id534"></polygon>
  <polygon points="189.501 129.598 172.977 130.87 167.762 100.576 184.538 99.267 189.501 129.598 189.501 129.598" fill="#67b437" fill-rule="evenodd" class="area" id="id533"></polygon>
  <polygon points="170.451 131.065 154.337 132.306 148.788 102.058 165.237 100.773 170.451 131.065 170.451 131.065" fill="#67b437" fill-rule="evenodd" class="area" id="id532"></polygon>
  <polygon points="151.813 132.5 135.598 133.749 129.809 103.539 146.264 102.255 151.813 132.5 151.813 132.5" fill="#67b437" fill-rule="evenodd" class="area" id="id531"></polygon>
  <polygon points="133.068 133.943 116.685 135.205 110.593 105.039 127.279 103.737 133.068 133.943 133.068 133.943" fill="#67b437" fill-rule="evenodd" class="area" id="id530"></polygon>
  <polygon points="114.158 135.399 104.684 136.068 103.974 132.988 95.528 133.54 89.455 106.69 108.067 105.237 114.158 135.399 114.158 135.399" fill="#67b437" fill-rule="evenodd" class="area" id="id529"></polygon>
  <polygon points="110.528 206.527 118.737 206.606 119.605 210.002 129.167 209.726 123.076 179.564 105.41 180.773 110.528 206.527 110.528 206.527" fill="#67b437" fill-rule="evenodd" class="area" id="id551"></polygon>
  <polygon points="131.695 209.533 147.324 208.34 141.567 178.298 125.608 179.39 131.695 209.533 131.695 209.533" fill="#67b437" fill-rule="evenodd" class="area" id="id552"></polygon>
  <polygon points="149.855 208.147 165.473 206.954 159.984 177.038 144.102 178.125 149.855 208.147 149.855 208.147" fill="#67b437" fill-rule="evenodd" class="area" id="id553"></polygon>
  <polygon points="167.997 206.762 183.281 205.595 178.151 175.794 162.512 176.865 167.997 206.762 167.997 206.762" fill="#67b437" fill-rule="evenodd" class="area" id="id554"></polygon>
  <polygon points="185.808 205.403 201.703 204.189 196.849 174.515 180.681 175.621 185.808 205.403 185.808 205.403" fill="#67b437" fill-rule="evenodd" class="area" id="id555"></polygon>
  <polygon points="204.225 203.996 220.845 202.728 215.962 173.207 199.373 174.342 204.225 203.996 204.225 203.996" fill="#67b437" fill-rule="evenodd" class="area" id="id556"></polygon>
  <polygon points="223.367 202.535 228.223 201.945 264.747 169.89 218.487 173.034 223.367 202.535 223.367 202.535" fill="#67b437" fill-rule="evenodd" class="area" id="id557"></polygon>
  <polygon points="267.612 167.143 307.24 132.908 250.676 136.937 255.708 167.957 267.612 167.143 267.612 167.143" fill="#67b437" fill-rule="evenodd" class="area" id="id550"></polygon>
  <polygon points="248.152 137.117 232.109 138.259 237.135 169.228 253.184 168.13 248.152 137.117 248.152 137.117" fill="#67b437" fill-rule="evenodd" class="area" id="id549"></polygon>
  <polygon points="229.585 138.439 212.96 139.623 218.073 170.533 234.611 169.401 229.585 138.439 229.585 138.439" fill="#67b437" fill-rule="evenodd" class="area" id="id548"></polygon>
  <polygon points="210.436 139.802 193.916 140.979 198.964 171.841 215.548 170.706 210.436 139.802 210.436 139.802" fill="#67b437" fill-rule="evenodd" class="area" id="id547"></polygon>
  <polygon points="191.392 141.159 174.95 142.33 180.251 173.122 196.44 172.013 191.392 141.159 191.392 141.159" fill="#67b437" fill-rule="evenodd" class="area" id="id546"></polygon>
  <polygon points="172.421 142.51 156.418 143.65 162.054 174.367 177.721 173.295 172.421 142.51 172.421 142.51" fill="#67b437" fill-rule="evenodd" class="area" id="id545"></polygon>
  <polygon points="153.892 143.829 137.75 144.979 143.623 175.628 159.526 174.54 153.892 143.829 153.892 143.829" fill="#67b437" fill-rule="evenodd" class="area" id="id544"></polygon>
  <polygon points="135.217 145.16 118.93 146.32 125.104 176.896 141.089 175.802 135.217 145.16 135.217 145.16" fill="#67b437" fill-rule="evenodd" class="area" id="id543"></polygon>
  <polygon points="116.399 146.5 106.344 147.284 106.975 150.918 99.634 151.707 104.914 178.277 122.573 177.069 116.399 146.5 116.399 146.5" fill="#67b437" fill-rule="evenodd" class="area" id="id542"></polygon>
  <polygon points="114.474 224.218 122.289 223.665 121.499 220.743 132.514 219.781 137.764 246.587 120 250.443 114.474 224.218 114.474 224.218" fill="#67b437" fill-rule="evenodd" class="area" id="id558"></polygon>
  <polygon points="135.057 219.634 154.481 218.508 159.017 241.667 140.224 246.017 135.057 219.634 135.057 219.634" fill="#67b437" fill-rule="evenodd" class="area" id="id559"></polygon>
  <polygon points="157.024 218.36 176.149 217.252 182.523 249.797 165.468 240.174 161.477 241.098 157.024 218.36 157.024 218.36" fill="#67b437" fill-rule="evenodd" class="area" id="id560"></polygon>
  <polygon points="178.691 217.105 216.777 214.897 190.807 254.471 185.414 251.429 178.691 217.105 178.691 217.105" fill="#67b437" fill-rule="evenodd" class="area" id="id561"></polygon>
  <polygon points="413.723 49.891 444.709 61.066 467.7 32.307 444.982 37.253 425.248 39.148 413.723 49.891 413.723 49.891" fill="#67b437" fill-rule="evenodd" class="area" id="id565"></polygon>
  <polygon points="447.158 62.028 467.725 70.103 484.38 39.933 470.394 32.964 447.158 62.028 447.158 62.028" fill="#67b437" fill-rule="evenodd" class="area" id="id566"></polygon>
  <polygon points="470.092 71.033 487.364 77.815 502.616 49.02 486.639 41.059 470.092 71.033 470.092 71.033" fill="#67b437" fill-rule="evenodd" class="area" id="id567"></polygon>
  <polygon points="489.726 78.743 510.971 87.085 522.661 59.009 504.873 50.145 489.726 78.743 489.726 78.743" fill="#67b437" fill-rule="evenodd" class="area" id="id568"></polygon>
  <polygon points="513.318 88.006 540.97 98.864 541.436 68.365 524.923 60.136 513.318 88.006 513.318 88.006" fill="#67b437" fill-rule="evenodd" class="area" id="id569"></polygon>
  <polygon points="541.479 65.564 541.894 38.379 531.278 30.471 506.844 48.306 541.479 65.564 541.479 65.564" fill="#67b437" fill-rule="evenodd" class="area" id="id564"></polygon>
  <polygon points="541.941 35.273 542.234 16.083 522.073 20.472 541.941 35.273 541.941 35.273" fill="#67b437" fill-rule="evenodd" class="area" id="id562"></polygon>
  <polygon points="518.809 21.182 472.599 31.241 504.309 47.042 529.167 28.898 518.809 21.182 518.809 21.182" fill="#67b437" fill-rule="evenodd" class="area" id="id563"></polygon>
  <polygon points="403.935 60.002 415.819 64.42 400.852 90.762 380.094 83.006 403.935 60.002 403.935 60.002" fill="#67b437" fill-rule="evenodd" class="area" id="id570"></polygon>
  <polygon points="418.21 65.309 431.385 70.208 420.722 98.186 403.242 91.655 418.21 65.309 418.21 65.309" fill="#67b437" fill-rule="evenodd" class="area" id="id571"></polygon>
  <polygon points="433.751 71.087 450.237 77.217 439.561 105.225 423.086 99.069 433.751 71.087 433.751 71.087" fill="#67b437" fill-rule="evenodd" class="area" id="id572"></polygon>
  <polygon points="452.603 78.097 469.088 84.226 458.401 112.264 441.926 106.109 452.603 78.097 452.603 78.097" fill="#67b437" fill-rule="evenodd" class="area" id="id573"></polygon>
  <polygon points="471.454 85.105 487.94 91.235 477.242 119.304 460.766 113.148 471.454 85.105 471.454 85.105" fill="#67b437" fill-rule="evenodd" class="area" id="id574"></polygon>
  <polygon points="490.305 92.115 506.791 98.244 496.081 126.342 479.606 120.187 490.305 92.115 490.305 92.115" fill="#67b437" fill-rule="evenodd" class="area" id="id575"></polygon>
  <polygon points="509.156 99.124 522.445 104.064 515.856 133.731 498.445 127.226 509.156 99.124 509.156 99.124" fill="#67b437" fill-rule="evenodd" class="area" id="id576"></polygon>
  <polygon points="524.826 104.949 541.602 111.187 540.825 143.06 518.236 134.621 524.826 104.949 524.826 104.949" fill="#67b437" fill-rule="evenodd" class="area" id="id577"></polygon>
  <polygon points="540.76 145.725 540.024 175.959 510.09 165.708 517.645 137.088 540.76 145.725 540.76 145.725" fill="#67b437" fill-rule="evenodd" class="area" id="id585"></polygon>
  <polygon points="507.699 164.889 486.816 157.737 497.549 129.579 515.272 136.201 507.699 164.889 507.699 164.889" fill="#67b437" fill-rule="evenodd" class="area" id="id584"></polygon>
  <polygon points="484.427 156.919 467.779 151.217 478.709 122.54 495.184 128.696 484.427 156.919 484.427 156.919" fill="#67b437" fill-rule="evenodd" class="area" id="id583"></polygon>
  <polygon points="465.389 150.399 448.741 144.697 459.869 115.501 476.344 121.657 465.389 150.399 465.389 150.399" fill="#67b437" fill-rule="evenodd" class="area" id="id582"></polygon>
  <polygon points="446.351 143.879 429.703 138.178 441.029 108.462 457.504 114.618 446.351 143.879 446.351 143.879" fill="#67b437" fill-rule="evenodd" class="area" id="id581"></polygon>
  <polygon points="427.314 137.359 410.665 131.658 422.189 101.423 438.665 107.579 427.314 137.359 427.314 137.359" fill="#67b437" fill-rule="evenodd" class="area" id="id580"></polygon>
  <polygon points="408.276 130.84 385.425 123.014 401.982 93.873 419.825 100.539 408.276 130.84 408.276 130.84" fill="#67b437" fill-rule="evenodd" class="area" id="id579"></polygon>
  <polygon points="383 122.184 350.889 111.187 378.086 84.945 399.592 92.98 383 122.184 383 122.184" fill="#67b437" fill-rule="evenodd" class="area" id="id578"></polygon>
  <polygon points="340.627 119.875 356.875 125.662 338.703 153.359 313.146 144.545 340.627 119.875 340.627 119.875" fill="#67b437" fill-rule="evenodd" class="area" id="id586"></polygon>
  <polygon points="359.338 126.493 373.298 131.202 362.976 161.635 341.161 154.197 359.338 126.493 359.338 126.493" fill="#67b437" fill-rule="evenodd" class="area" id="id587"></polygon>
  <polygon points="375.687 132.008 395.06 138.543 384.715 169.047 365.363 162.449 375.687 132.008 375.687 132.008" fill="#67b437" fill-rule="evenodd" class="area" id="id588"></polygon>
  <polygon points="397.45 139.348 416.823 145.883 406.454 176.459 387.102 169.861 397.45 139.348 397.45 139.348" fill="#67b437" fill-rule="evenodd" class="area" id="id589"></polygon>
  <polygon points="419.213 146.689 438.586 153.224 428.192 183.871 408.84 177.273 419.213 146.689 419.213 146.689" fill="#67b437" fill-rule="evenodd" class="area" id="id590"></polygon>
  <polygon points="440.975 154.03 460.349 160.564 449.931 191.283 430.579 184.685 440.975 154.03 440.975 154.03" fill="#67b437" fill-rule="evenodd" class="area" id="id591"></polygon>
  <polygon points="462.738 161.37 482.112 167.905 471.67 198.695 452.318 192.097 462.738 161.37 462.738 161.37" fill="#67b437" fill-rule="evenodd" class="area" id="id592"></polygon>
  <polygon points="484.501 168.711 503.874 175.246 493.408 206.107 474.056 199.509 484.501 168.711 484.501 168.711" fill="#67b437" fill-rule="evenodd" class="area" id="id593"></polygon>
  <polygon points="506.264 176.052 519.792 180.615 514.985 213.464 495.795 206.92 506.264 176.052 506.264 176.052" fill="#67b437" fill-rule="evenodd" class="area" id="id594"></polygon>
  <polygon points="522.223 181.434 539.708 187.332 538.327 221.422 517.414 214.292 522.223 181.434 522.223 181.434" fill="#67b437" fill-rule="evenodd" class="area" id="id595"></polygon>
  <polygon points="538.22 224.051 536.866 257.475 512.326 249.056 517.042 216.83 538.22 224.051 538.22 224.051" fill="#67b437" fill-rule="evenodd" class="area" id="id605"></polygon>
  <polygon points="509.898 248.223 484.717 239.584 494.984 209.31 514.613 216.002 509.898 248.223 509.898 248.223" fill="#67b437" fill-rule="evenodd" class="area" id="id604"></polygon>
  <polygon points="482.332 238.765 462.993 232.13 473.246 201.898 492.598 208.496 482.332 238.765 482.332 238.765" fill="#67b437" fill-rule="evenodd" class="area" id="id603"></polygon>
  <polygon points="460.608 231.312 441.268 224.677 451.507 194.486 470.86 201.084 460.608 231.312 460.608 231.312" fill="#67b437" fill-rule="evenodd" class="area" id="id602"></polygon>
  <polygon points="438.883 223.859 419.544 217.224 429.769 187.074 449.12 193.672 438.883 223.859 438.883 223.859" fill="#67b437" fill-rule="evenodd" class="area" id="id601"></polygon>
  <polygon points="417.159 216.406 397.819 209.77 408.03 179.662 427.382 186.26 417.159 216.406 417.159 216.406" fill="#67b437" fill-rule="evenodd" class="area" id="id600"></polygon>
  <polygon points="395.434 208.952 376.094 202.317 386.291 172.25 405.644 178.848 395.434 208.952 395.434 208.952" fill="#67b437" fill-rule="evenodd" class="area" id="id599"></polygon>
  <polygon points="373.709 201.499 354.37 194.863 364.553 164.838 383.905 171.436 373.709 201.499 373.709 201.499" fill="#67b437" fill-rule="evenodd" class="area" id="id598"></polygon>
  <polygon points="351.985 194.045 324.899 184.753 339.785 156.393 362.166 164.024 351.985 194.045 351.985 194.045" fill="#67b437" fill-rule="evenodd" class="area" id="id597"></polygon>
  <polygon points="322.486 183.925 283.476 170.271 310.687 147.057 337.369 155.57 322.486 183.925 322.486 183.925" fill="#67b437" fill-rule="evenodd" class="area" id="id596"></polygon>
  <polygon points="272.899 179.117 294.209 186.379 285.721 211.863 250.848 200.019 272.899 179.117 272.899 179.117" fill="#67b437" fill-rule="evenodd" class="area" id="id606"></polygon>
  <polygon points="296.59 187.19 312.964 192.769 304.481 218.235 288.102 212.672 296.59 187.19 296.59 187.19" fill="#67b437" fill-rule="evenodd" class="area" id="id607"></polygon>
  <polygon points="315.345 193.581 331.719 199.16 323.243 224.607 306.863 219.044 315.345 193.581 315.345 193.581" fill="#67b437" fill-rule="evenodd" class="area" id="id608"></polygon>
  <polygon points="334.1 199.971 350.474 205.551 342.004 230.978 325.624 225.416 334.1 199.971 334.1 199.971" fill="#67b437" fill-rule="evenodd" class="area" id="id609"></polygon>
  <polygon points="352.854 206.362 369.228 211.942 360.764 237.35 344.385 231.787 352.854 206.362 352.854 206.362" fill="#67b437" fill-rule="evenodd" class="area" id="id610"></polygon>
  <polygon points="371.609 212.753 387.982 218.332 379.525 243.722 363.146 238.159 371.609 212.753 371.609 212.753" fill="#67b437" fill-rule="evenodd" class="area" id="id611"></polygon>
  <polygon points="390.363 219.144 406.737 224.723 398.286 250.093 381.907 244.53 390.363 219.144 390.363 219.144" fill="#67b437" fill-rule="evenodd" class="area" id="id612"></polygon>
  <polygon points="409.118 225.534 425.491 231.114 417.047 256.465 400.668 250.902 409.118 225.534 409.118 225.534" fill="#67b437" fill-rule="evenodd" class="area" id="id613"></polygon>
  <polygon points="427.873 231.925 444.246 237.504 435.808 262.836 419.429 257.274 427.873 231.925 427.873 231.925" fill="#67b437" fill-rule="evenodd" class="area" id="id614"></polygon>
  <polygon points="446.627 238.316 463 243.895 454.568 269.208 438.19 263.645 446.627 238.316 446.627 238.316" fill="#67b437" fill-rule="evenodd" class="area" id="id615"></polygon>
  <polygon points="465.381 244.706 481.755 250.286 473.33 275.58 456.95 270.017 465.381 244.706 465.381 244.706" fill="#67b437" fill-rule="evenodd" class="area" id="id616"></polygon>
  <polygon points="484.136 251.097 500.51 256.676 492.091 281.952 475.711 276.389 484.136 251.097 484.136 251.097" fill="#67b437" fill-rule="evenodd" class="area" id="id617"></polygon>
  <polygon points="502.891 257.488 519.264 263.067 510.851 288.323 494.472 282.761 502.891 257.488 502.891 257.488" fill="#67b437" fill-rule="evenodd" class="area" id="id618"></polygon>
  <polygon points="521.645 263.878 536.234 268.85 534.486 296.35 513.233 289.132 521.645 263.878 521.645 263.878" fill="#67b437" fill-rule="evenodd" class="area" id="id619"></polygon>
  <polygon points="534.32 298.958 532.761 323.471 526.13 326.038 503.474 318.43 512.435 291.526 534.32 298.958 534.32 298.958" fill="#67b437" fill-rule="evenodd" class="area" id="id634"></polygon>
  <polygon points="501.089 317.629 484.691 312.123 493.675 285.154 510.054 290.717 501.089 317.629 501.089 317.629" fill="#67b437" fill-rule="evenodd" class="area" id="id633"></polygon>
  <polygon points="482.307 311.322 465.909 305.816 474.914 278.783 491.293 284.345 482.307 311.322 482.307 311.322" fill="#67b437" fill-rule="evenodd" class="area" id="id632"></polygon>
  <polygon points="463.525 305.015 447.127 299.508 456.153 272.411 472.533 277.974 463.525 305.015 463.525 305.015" fill="#67b437" fill-rule="evenodd" class="area" id="id631"></polygon>
  <polygon points="444.742 298.708 428.345 293.201 437.392 266.039 453.771 271.602 444.742 298.708 444.742 298.708" fill="#67b437" fill-rule="evenodd" class="area" id="id630"></polygon>
  <polygon points="425.96 292.401 409.562 286.894 418.631 259.667 435.01 265.23 425.96 292.401 425.96 292.401" fill="#67b437" fill-rule="evenodd" class="area" id="id629"></polygon>
  <polygon points="407.178 286.093 390.78 280.587 399.87 253.296 416.25 258.858 407.178 286.093 407.178 286.093" fill="#67b437" fill-rule="evenodd" class="area" id="id628"></polygon>
  <polygon points="388.395 279.786 371.997 274.28 381.11 246.924 397.488 252.487 388.395 279.786 388.395 279.786" fill="#67b437" fill-rule="evenodd" class="area" id="id627"></polygon>
  <polygon points="369.613 273.479 353.215 267.973 362.349 240.552 378.728 246.115 369.613 273.479 369.613 273.479" fill="#67b437" fill-rule="evenodd" class="area" id="id626"></polygon>
  <polygon points="350.831 267.172 334.433 261.666 343.588 234.181 359.967 239.743 350.831 267.172 350.831 267.172" fill="#67b437" fill-rule="evenodd" class="area" id="id625"></polygon>
  <polygon points="332.048 260.865 315.65 255.358 324.827 227.809 341.206 233.372 332.048 260.865 332.048 260.865" fill="#67b437" fill-rule="evenodd" class="area" id="id624"></polygon>
  <polygon points="313.266 254.558 296.868 249.051 306.066 221.437 322.445 227 313.266 254.558 313.266 254.558" fill="#67b437" fill-rule="evenodd" class="area" id="id623"></polygon>
  <polygon points="294.483 248.251 291.844 247.364 278.353 241.941 287.305 215.066 303.684 220.629 294.483 248.251 294.483 248.251" fill="#67b437" fill-rule="evenodd" class="area" id="id622"></polygon>
  <polygon points="276.015 241.001 259.801 234.483 268.583 208.707 284.923 214.257 276.015 241.001 276.015 241.001" fill="#67b437" fill-rule="evenodd" class="area" id="id621"></polygon>
  <polygon points="257.459 233.541 227.984 221.692 248.778 201.981 266.195 207.896 257.459 233.541 257.459 233.541" fill="#67b437" fill-rule="evenodd" class="area" id="id620"></polygon>
  <polygon points="201.542 268.136 212.067 250.786 240.426 264.647 231.046 283.679 201.542 268.136 201.542 268.136" fill="#67b437" fill-rule="evenodd" class="area" id="id637"></polygon>
  <polygon points="213.382 248.617 223.487 231.959 250.679 243.844 241.543 262.381 213.382 248.617 213.382 248.617" fill="#67b437" fill-rule="evenodd" class="area" id="id635"></polygon>
  <polygon points="253.041 244.75 279.059 254.55 269.833 276.208 243.807 263.488 253.041 244.75 253.041 244.75" fill="#67b437" fill-rule="evenodd" class="area" id="id636"></polygon>
  <polygon points="268.842 278.535 262.64 293.097 258.219 297.995 233.276 284.855 242.69 265.753 268.842 278.535 268.842 278.535" fill="#67b437" fill-rule="evenodd" class="area" id="id638"></polygon>
  <polygon points="271.165 303.05 281.195 279.603 310.205 288.965 303.768 307.129 271.165 303.05 271.165 303.05" fill="#67b437" fill-rule="evenodd" class="area" id="id641"></polygon>
  <polygon points="282.19 277.276 290.426 258.026 317.73 267.729 311.047 286.589 282.19 277.276 282.19 277.276" fill="#67b437" fill-rule="evenodd" class="area" id="id639"></polygon>
  <polygon points="320.106 268.573 345.998 277.773 340.949 296.239 313.448 287.364 320.106 268.573 320.106 268.573" fill="#67b437" fill-rule="evenodd" class="area" id="id640"></polygon>
  <polygon points="340.284 298.672 336.841 311.266 306.33 307.449 312.606 289.74 340.284 298.672 340.284 298.672" fill="#67b437" fill-rule="evenodd" class="area" id="id642"></polygon>
  <polygon points="399.361 347.601 406.447 324.428 380.881 313.214 375.164 332.449 399.361 347.601 399.361 347.601" fill="#67b437" fill-rule="evenodd" class="area" id="id646"></polygon>
  <polygon points="407.189 322.001 413.806 300.365 387.401 291.274 381.604 310.779 407.189 322.001 407.189 322.001" fill="#67b437" fill-rule="evenodd" class="area" id="id644"></polygon>
  <polygon points="385.016 290.453 357.366 280.933 352.65 298.079 379.279 309.759 385.016 290.453 385.016 290.453" fill="#67b437" fill-rule="evenodd" class="area" id="id643"></polygon>
  <polygon points="351.974 300.535 347.893 315.373 372.948 331.061 378.555 312.194 351.974 300.535 351.974 300.535" fill="#67b437" fill-rule="evenodd" class="area" id="id645"></polygon>
  <polygon points="409.229 353.761 412.652 342.681 438.723 352.34 433.186 369.796 407.492 353.445 409.229 353.761 409.229 353.761" fill="#67b437" fill-rule="evenodd" class="area" id="id651"></polygon>
  <polygon points="413.398 340.265 418.212 324.685 444.492 334.151 439.487 349.931 413.398 340.265 413.398 340.265" fill="#67b437" fill-rule="evenodd" class="area" id="id649"></polygon>
  <polygon points="418.956 322.277 424.701 303.682 451.222 312.932 445.253 331.75 418.956 322.277 418.956 322.277" fill="#67b437" fill-rule="evenodd" class="area" id="id647"></polygon>
  <polygon points="453.607 313.764 479.957 322.955 473.453 341.908 447.631 332.606 453.607 313.764 453.607 313.764" fill="#67b437" fill-rule="evenodd" class="area" id="id648"></polygon>
  <polygon points="472.635 344.29 467.178 360.192 441.857 350.81 446.869 335.008 472.635 344.29 472.635 344.29" fill="#67b437" fill-rule="evenodd" class="area" id="id650"></polygon>
  <polygon points="466.359 362.58 460.223 380.46 443.488 376.352 435.39 371.199 441.093 353.219 466.359 362.58 466.359 362.58" fill="#67b437" fill-rule="evenodd" class="area" id="id652"></polygon>
  <polygon points="491.482 326.905 509.978 332.878 503.168 360.832 482.454 353.059 491.482 326.905 491.482 326.905" fill="#67b437" fill-rule="evenodd" class="area" id="id653"></polygon>
  <polygon points="512.381 333.654 526.214 338.121 527.58 369.992 505.543 361.723 512.381 333.654 512.381 333.654" fill="#67b437" fill-rule="evenodd" class="area" id="id654"></polygon>
  <polygon points="527.395 372.612 522.741 397.996 498.741 389.642 504.943 364.187 527.395 372.612 527.395 372.612" fill="#67b437" fill-rule="evenodd" class="area" id="id656"></polygon>
  <polygon points="496.323 388.931 471.905 383.62 481.632 355.44 502.568 363.296 496.323 388.931 496.323 388.931" fill="#67b437" fill-rule="evenodd" class="area" id="id655"></polygon>
  <path id="roads" d="M525.22458,394.83611l1.85264,0.59682,2.97156-21.93966-1.40338-34.93784a5.1618,5.1618,0,0,0-3.13121-4.43047l-31.98223-10.663c-1.95409-.65166-5.00975.51127-5.66993,2.46407L469.9652,378.84871l2.36149,0.84123-1.67773,4.759-9.31477-3.31772,1.67758-4.759,2.20223,0.78457,17.63188-52.14c0.66989-1.98076-.2513-5.2007-2.23291-5.86166l-53.48645-17.8327c-1.87538-.62521-4.849.48435-5.43543,2.37269l-13.89392,44.7256,1.971,0.977-2.22983,4.52184-8.44623-4.18656,2.22975-4.52184,1.9039,0.94367,13.58487-43.73148c0.58247-1.87511-.62834-4.73606-2.48853-5.35659L359.13,278.66577c-1.91786-.63948-4.73725,1.0038-5.30392,2.94518l-8.34579,28.58238,2.05538,0.81508-1.85518,4.68021-8.36722-3.31779,1.85534-4.68021,1.61167,0.63913,8.26662-28.31089c0.59111-2.02407-.7812-5.00546-2.77538-5.68474l-54.186-18.4542a5.02918,5.02918,0,0,0-5.56925,2.46688l-18.20364,40.92172,2.446,1.00662-1.914,4.66019-9.78817-4.02824,1.914-4.66008,2.68333,1.10412,18.00953-40.48677c0.86029-1.93459-.61107-5.01912-2.57518-5.80546l-25.33892-10.1421-0.01966-.01007-29.392-12.18094a5.01006,5.01006,0,0,0-5.60972,1.60822L202.0282,256.51969l2.62028,1.59495-2.625,4.30478-9.47234-5.76608,2.625-4.30474,2.55259,1.55372,23.18464-36.355c1.23525-1.93675.74089-6.16913-3.56252-5.89865l-99.15917,6.23578,0.68916,3.04156-4.91416,1.10551-2.68434-11.84843,4.91409-1.10555L117.06251,212.9l112.15725-7.0529,0.02012,0.31816,80.484-70.11893c3.36579-2.93226.39823-6.52474-1.80014-6.36784l-204.7061,14.65218,0.82314,3.609-4.91416,1.10558-2.68434-11.76937,4.91409-1.10547,0.72531,3.18056,222.096-15.8968,14.83122-12.921,61.812-59.95778c4.26478-4.13669,1.18745-6.41952-2.73306-6.19088L357.4932,46.75175l0.00031,0.00355L86.88466,68.60686l0.668,3.03848-4.93344,1.08611L80.01386,60.883l4.93351-1.08618L85.78971,63.628,357.099,41.71972h0.05913l57.111-3.3306a2.45593,2.45593,0,0,1,1.8945,4.32476L411.6019,47.139c-1.57536,1.528-1.09094,5.74364.96267,6.51888L542.97,102.91031l-0.13136,5.34074L407.18217,57.01468a7.11132,7.11132,0,0,0-7.00423,1.20613l-50.9041,49.37935c-1.50937,1.46416-1.55339,5.61528.4357,6.29772l191.37153,65.68973-0.13043,5.29639L344.19317,117.346a7.12015,7.12015,0,0,0-6.61317,1.06258l-55.69824,48.52489a3.89685,3.89685,0,0,0,.904,6.55814l262.52917,90.3038-1.63818,4.7791L276.39692,176.63673a7.71881,7.71881,0,0,0-7.13852,1.36311l-38.60365,33.632-4.32876,6.78747c-1.10482,1.73249-.90686,5.30214.99165,6.08848L255.62311,236.238l0.00069-.00139L287.37909,248.947l65.761,22.39616-0.00216.00567,174.91646,58.15972,0.19465-.81755c0.663-2.78322,4.965-1.87546,5.03234-.19774L535.09,373.51865l0.00925,0.2232-0.02891.2114-3.122,23.04952,2.59137,0.83514-1.53943,4.79838-9.31524-3.0018,1.53951-4.79838h0Z" fill="#4d4d4c"></path>
  <path id="water" d="M159.33121,247.24174c-13.24261,0-20.84974,6.54526-22.52917,11.83806-2.30884.67959-4.555,1.51106-6.88213,2.37269-11.96242,4.4287-26.13732,9.676-59.90351-2.43433-5.29937-1.90018-10.01658-3.144-14.317-4.27786-13.21763-3.48441-22.38783-5.90223-30.75608-23.31758-1.76827-3.67961-3.65891-6.96014-7.37834-9.26079C13.91712,219.905,8.58946,218.68362,0,219.1247l0.12812,2.51779c8.016-.4113,12.88253.66308,16.11426,2.66246,3.16093,1.95534,4.84008,4.89338,6.43105,8.204,8.8763,18.47287,18.50551,21.01149,32.38432,24.67031,4.273,1.12633,8.96079,2.36267,14.11015,4.20912,34.63836,12.423,49.27154,7.00593,61.62055,2.43425,1.93466-.71611,3.81251-1.41148,5.69067-2.00621a4.62491,4.62491,0,0,0,.19966.94116c0.8751,2.66,5.90551,5.60309,11.50637,4.83961,4.45835-.608,9.97071-3.73438,12.9866-3.99163,4.69786-.40162,16.92515,6.32028,21.385,2.63782,4.22138,2.87961,10.8307,7.064,17.59827,11.16564,8.41478,5.09969,17.08048,10.07657,21.71142,12.26328,4.752,2.24372,8.08723,5.93016,12.10564,10.37251,6.11272,6.75735,13.75485,15.20491,30.19643,23.26875,13.00633,6.37945,25.83475,6.01686,36.92361,5.70379,7.8562-.22181,14.81218-0.41813,20.08249,1.89976h0.0047c2.52145,1.10879,5.77045,4.31878,9.59661,8.09936,5.97951,5.90863,13.32208,13.16468,22.17,16.6322,4.09781,1.60606,8.9705,2.21367,14.035,2.8449,6.10632,0.76089,12.50334,1.55873,17.82992,4.1844a33.447,33.447,0,0,1,2.89956,1.81664,70.198,70.198,0,0,0,12.05623,6.74844c2.02524,0.8415,4.13211,1.74649,6.35508,2.70015,10.23489,4.39248,22.8951,9.82649,35.70771,12.80495a95.08786,95.08786,0,0,0,12.335,1.66337c5.66669,0.523,11.32876,1.04572,15.50566,2.67832a133.50412,133.50412,0,0,0,15.292,4.55983c5.941,1.51719,11.39713,2.91116,14.62031,4.79017,4.462,2.6016,7.03214,5.60483,9.89624,8.95131,6.50479,7.601,14.46883,16.90623,48.02458,27.681l0.76972-2.39958c-32.87406-10.55587-40.58279-19.56307-46.8796-26.92082-3.01134-3.51839-5.71318-6.67535-10.54786-9.49437-3.53615-2.06179-9.15012-3.49621-15.26183-5.0568a132.04793,132.04793,0,0,1-14.99557-4.4609c-4.49119-1.75547-10.34158-2.29533-16.19652-2.83591a92.8261,92.8261,0,0,1-11.99926-1.61466c-12.59068-2.92655-25.13911-8.31288-35.28389-12.66672-2.27122-.97441-4.425-1.89941-6.37443-2.70944a68.0257,68.0257,0,0,1-11.63233-6.52127,33.971,33.971,0,0,0-3.176-1.975c-5.72173-2.82056-12.33074-3.64451-18.639-4.4309-4.90769-.61151-9.62914-1.2005-13.4226-2.68726-8.36907-3.27976-15.50828-10.33444-21.32175-16.079-4.00184-3.95407-7.39946-7.31159-10.35237-8.61129l0.00077-.00181c-5.77831-2.5414-13.00541-2.33756-21.16734-2.10684-10.8031.30481-23.30143,0.6581-35.74926-5.44727-16.00688-7.85074-23.46863-16.09871-29.43681-22.69634-4.20735-4.65117-7.69949-8.51093-12.89533-10.96427-4.583-2.1638-13.15812-7.08873-21.48456-12.135-6.78184-4.11023-13.39547-8.29853-17.54955-11.13946a7.55661,7.55661,0,0,0,.29108-1.74757c0.50485-8.76248-18.35157-15.12789-24.86777-15.12789h0Z" fill="#00cdff" fill-rule="evenodd"></path>
  <polyline id="border" points="539.441 258.111 545.634 11.893 442.541 33.853 359.025 37.802 353.262 1.072 82.902 23.11 65.851 37.328 16.91 64.5 13.437 82.826 42.17 244.281 102.478 257.551 163.734 242.701 195.309 260.395 198.15 268.926 264.142 305.261 339.291 314.424 443.804 379.195 470.169 385.514 495.168 392.139 560 413.635 539.16 373.824 539.12 270.899" fill="none" stroke="#683200" stroke-miterlimit="22.92558" stroke-width="2.00013"></polyline>
  <g id="trees">
    <path d="M395.20079,45.46817a2.41776,2.41776,0,0,1,.80772,3.977,1.90346,1.90346,0,0,1-2.66229,2.66,2.99962,2.99962,0,0,1-5.27887-1.21554,1.53842,1.53842,0,0,1-.85135-2.57125,2.41766,2.41766,0,0,1,2.17641-3.90412,2.02486,2.02486,0,0,1,3.59266-.69471,1.5379,1.5379,0,0,1,2.21572,1.74865h0Z" fill="#1d6d03" fill-rule="evenodd"></path>
    <path d="M370.5414,47.36338a1.93634,1.93634,0,0,1,3.17531.701,1.52689,1.52689,0,0,1,1.08192,2.81771,2.40731,2.40731,0,0,1-2.60748,3.47585,1.23224,1.23224,0,0,1-2.16022-.21213,1.9386,1.9386,0,0,1-2.151-2.866,1.62486,1.62486,0,0,1,.65979-2.86029,1.23249,1.23249,0,0,1,2.00165-1.0561h0Z" fill="#227f06" fill-rule="evenodd"></path>
    <path d="M382.17226,46.01562a3.01177,3.01177,0,0,1,4.93945,1.09089,2.37522,2.37522,0,0,1,1.68313,4.38315,3.74478,3.74478,0,0,1-4.05634,5.40716,1.917,1.917,0,0,1-3.36039-.33031,3.01584,3.01584,0,0,1-3.34621-4.45813,2.52832,2.52832,0,0,1,1.0268-4.45018,1.91748,1.91748,0,0,1,3.11356-1.64258h0Z" fill="#227f06" fill-rule="evenodd"></path>
    <path d="M383.27392,58.22838a2.45325,2.45325,0,0,1-1.70849,3.74738,1.9311,1.9311,0,0,1-3.77165.59427,3.04641,3.04641,0,0,1-3.60954-4.15027,1.56129,1.56129,0,0,1,.83455-2.61923,2.45183,2.45183,0,0,1,3.72725-2.1989,2.469,2.469,0,0,1,.38744.293,2.0553,2.0553,0,0,1,3.36378,1.57478,1.562,1.562,0,0,1,.77666,2.75893h0Z" fill="#1d6d03" fill-rule="evenodd"></path>
  </g>
</svg>