<svg xmlns="http://www.w3.org/2000/svg" width="594.39" height="437.07" viewBox="0 0 594.39 437.07">
  <title>plan_2_alt</title>
  <g id="main">
    <polygon id="id513" class="area" points="389.01 38.2 383.96 3.21 367.27 4.64 371.66 39.42 389.01 38.2 389.01 38.2" fill="#67b437"/>
    <polygon id="id512" class="area" points="364.75 4.68 347.26 6.18 351.9 41.35 368.83 39.95 364.75 4.68 364.75 4.68" fill="#67b437"/>
    <polygon id="id511" class="area" points="344.75 6.38 326.46 7.86 331.11 43.12 349.39 41.57 344.75 6.38 344.75 6.38" fill="#67b437"/>
    <polygon id="id510" class="area" points="323.95 8.07 307.46 9.4 312.12 44.73 328.6 43.33 323.95 8.07 323.95 8.07" fill="#67b437"/>
    <polygon id="id509" class="area" points="304.95 9.61 288.15 10.97 292.82 46.37 309.61 44.95 304.95 9.61 304.95 9.61" fill="#67b437"/>
    <polygon id="id508" class="area" points="285.64 11.17 268.3 12.57 272.98 48.06 290.31 46.59 285.64 11.17 285.64 11.17" fill="#67b437"/>
    <polygon id="id507" class="area" points="265.79 12.78 249.08 14.13 253.77 49.69 270.47 48.27 265.79 12.78 265.79 12.78" fill="#67b437"/>
    <polygon id="id506" class="area" points="246.56 14.34 229.48 15.72 234.18 51.35 251.25 49.91 246.56 14.34 246.56 14.34" fill="#67b437"/>
    <polygon id="id505" class="area" points="226.97 15.92 209.97 17.3 214.69 53.01 231.67 51.57 226.97 15.92 226.97 15.92" fill="#67b437"/>
    <polygon id="id504" class="area" points="207.46 17.5 190.94 18.84 195.66 54.63 212.17 53.23 207.46 17.5 207.46 17.5" fill="#67b437"/>
    <polygon id="id503" class="area" points="188.43 19.04 171.24 20.43 175.97 56.3 193.15 54.84 188.43 19.04 188.43 19.04" fill="#67b437"/>
    <polygon id="id502" class="area" points="168.73 20.64 152.03 21.99 156.77 57.93 173.46 56.52 168.73 20.64 168.73 20.64" fill="#67b437"/>
    <polygon id="id501" class="area" points="149.51 22.2 132.14 23.6 136.89 59.62 154.26 58.15 149.51 22.2 149.51 22.2" fill="#67b437"/>
    <polygon id="id500" class="area" points="129.63 23.8 120.62 24.54 107.36 36.23 111.46 56.76 119.44 56.45 120.54 60.71 134.38 59.84 129.63 23.8 129.63 23.8" fill="#67b437"/>
    <polygon id="id514" class="area" points="115.33 75.8 123.31 75.17 122.08 70.74 133.31 70.03 139.92 102.74 121.25 104.2 115.33 75.8 115.33 75.8" fill="#67b437"/>
    <polygon id="id515" class="area" points="135.84 69.83 152.89 68.53 159.16 101.24 142.44 102.55 135.84 69.83 135.84 69.83" fill="#67b437"/>
    <polygon id="id516" class="area" points="155.42 68.33 172.16 67.04 178.16 99.76 161.69 101.04 155.42 68.33 155.42 68.33" fill="#67b437"/>
    <polygon id="id517" class="area" points="174.68 66.85 191.53 65.56 197.16 98.28 180.69 99.56 174.68 66.85 174.68 66.85" fill="#67b437"/>
    <polygon id="id518" class="area" points="194.06 65.36 211.13 64.05 216.48 96.77 199.69 98.08 194.06 65.36 194.06 65.36" fill="#67b437"/>
    <polygon id="id519" class="area" points="213.65 63.85 230.02 62.6 235.43 95.29 219 96.57 213.65 63.85 213.65 63.85" fill="#67b437"/>
    <polygon id="id520" class="area" points="232.54 62.4 249.39 61.11 254.69 93.78 237.95 95.09 232.54 62.4 232.54 62.4" fill="#67b437"/>
    <polygon id="id521" class="area" points="251.91 60.91 267.94 59.68 273.24 92.33 257.21 93.59 251.91 60.91 251.91 60.91" fill="#67b437"/>
    <polygon id="id522" class="area" points="270.47 59.49 287.75 58.16 292.58 90.83 275.76 92.14 270.47 59.49 270.47 59.49" fill="#67b437"/>
    <polygon id="id523" class="area" points="290.27 57.97 307.56 56.64 312.16 89.3 295.1 90.63 290.27 57.97 290.27 57.97" fill="#67b437"/>
    <polygon id="id524" class="area" points="310.08 56.44 327.3 55.12 331.78 87.77 314.68 89.1 310.08 56.44 310.08 56.44" fill="#67b437"/>
    <polygon id="id525" class="area" points="329.82 54.93 346.97 53.61 351 86.26 334.3 87.57 329.82 54.93 329.82 54.93" fill="#67b437"/>
    <polygon id="id526" class="area" points="349.49 53.41 366.83 52.08 370.58 84.74 353.52 86.07 349.49 53.41 349.49 53.41" fill="#67b437"/>
    <polygon id="id527" class="area" points="369.35 51.89 386.43 50.58 390.18 83.21 373.1 84.54 369.35 51.89 369.35 51.89" fill="#67b437"/>
    <polygon id="id528" class="area" points="388.95 50.38 431.32 47.13 394.05 82.96 394.05 82.9 392.69 83.01 388.95 50.38 388.95 50.38" fill="#67b437"/>
    <polygon id="id541" class="area" points="390.54 86.35 357.48 118.13 353.83 88.58 390.46 85.72 390.54 86.35 390.54 86.35" fill="#67b437"/>
    <polygon id="id540" class="area" points="355.09 119.34 338.83 120.59 334.64 90.07 351.31 88.77 355.09 119.34 355.09 119.34" fill="#67b437"/>
    <polygon id="id539" class="area" points="336.32 120.78 319.33 122.09 315.03 91.61 332.13 90.27 336.32 120.78 336.32 120.78" fill="#67b437"/>
    <polygon id="id538" class="area" points="316.81 122.29 299.98 123.58 295.47 93.13 312.52 91.8 316.81 122.29 316.81 122.29" fill="#67b437"/>
    <polygon id="id537" class="area" points="297.46 123.78 281.1 125.04 276.17 94.64 292.95 93.33 297.46 123.78 297.46 123.78" fill="#67b437"/>
    <polygon id="id536" class="area" points="278.58 125.23 262.55 126.47 257.62 96.09 273.65 94.84 278.58 125.23 278.58 125.23" fill="#67b437"/>
    <polygon id="id535" class="area" points="260.03 126.66 243.38 127.94 238.36 97.59 255.1 96.28 260.03 126.66 260.03 126.66" fill="#67b437"/>
    <polygon id="id534" class="area" points="240.86 128.13 224.38 129.4 219.41 99.07 235.84 97.79 240.86 128.13 240.86 128.13" fill="#67b437"/>
    <polygon id="id533" class="area" points="221.86 129.6 205.33 130.87 200.12 100.58 216.89 99.27 221.86 129.6 221.86 129.6" fill="#67b437"/>
    <polygon id="id532" class="area" points="202.81 131.06 186.69 132.31 181.14 102.06 197.59 100.77 202.81 131.06 202.81 131.06" fill="#67b437"/>
    <polygon id="id531" class="area" points="184.17 132.5 167.95 133.75 162.16 103.54 178.62 102.25 184.17 132.5 184.17 132.5" fill="#67b437"/>
    <polygon id="id530" class="area" points="165.42 133.94 149.04 135.21 142.95 105.04 159.63 103.74 165.42 133.94 165.42 133.94" fill="#67b437"/>
    <polygon id="id529" class="area" points="146.51 135.4 137.04 136.07 136.33 132.99 127.88 133.54 121.81 106.69 140.42 105.24 146.51 135.4 146.51 135.4" fill="#67b437"/>
    <polygon id="id551" class="area" points="142.88 206.53 151.09 206.61 151.96 210 161.52 209.73 155.43 179.56 137.76 180.77 142.88 206.53 142.88 206.53" fill="#67b437"/>
    <polygon id="id552" class="area" points="164.05 209.53 179.68 208.34 173.92 178.3 157.96 179.39 164.05 209.53 164.05 209.53" fill="#67b437"/>
    <polygon id="id553" class="area" points="182.21 208.15 197.83 206.95 192.34 177.04 176.46 178.13 182.21 208.15 182.21 208.15" fill="#67b437"/>
    <polygon id="id554" class="area" points="200.35 206.76 215.64 205.59 210.51 175.79 194.87 176.87 200.35 206.76 200.35 206.76" fill="#67b437"/>
    <polygon id="id555" class="area" points="218.16 205.4 234.06 204.19 229.2 174.51 213.04 175.62 218.16 205.4 218.16 205.4" fill="#67b437"/>
    <polygon id="id556" class="area" points="236.58 204 253.2 202.73 248.32 173.21 231.73 174.34 236.58 204 236.58 204" fill="#67b437"/>
    <polygon id="id557" class="area" points="255.72 202.53 260.58 201.94 297.1 169.89 250.84 173.03 255.72 202.53 255.72 202.53" fill="#67b437"/>
    <polygon id="id550" class="area" points="299.97 167.14 339.6 132.91 283.03 136.94 288.06 167.96 299.97 167.14 299.97 167.14" fill="#67b437"/>
    <polygon id="id549" class="area" points="280.51 137.12 264.46 138.26 269.49 169.23 285.54 168.13 280.51 137.12 280.51 137.12" fill="#67b437"/>
    <polygon id="id548" class="area" points="261.94 138.44 245.31 139.62 250.43 170.53 266.97 169.4 261.94 138.44 261.94 138.44" fill="#67b437"/>
    <polygon id="id547" class="area" points="242.79 139.8 226.27 140.98 231.32 171.84 247.9 170.71 242.79 139.8 242.79 139.8" fill="#67b437"/>
    <polygon id="id546" class="area" points="223.75 141.16 207.31 142.33 212.61 173.12 228.79 172.01 223.75 141.16 223.75 141.16" fill="#67b437"/>
    <polygon id="id545" class="area" points="204.78 142.51 188.77 143.65 194.41 174.37 210.08 173.29 204.78 142.51 204.78 142.51" fill="#67b437"/>
    <polygon id="id544" class="area" points="186.25 143.83 170.1 144.98 175.98 175.63 191.88 174.54 186.25 143.83 186.25 143.83" fill="#67b437"/>
    <polygon id="id543" class="area" points="167.57 145.16 151.28 146.32 157.46 176.9 173.44 175.8 167.57 145.16 167.57 145.16" fill="#67b437"/>
    <polygon id="id542" class="area" points="148.75 146.5 138.7 147.28 139.33 150.92 131.99 151.71 137.27 178.28 154.93 177.07 148.75 146.5 148.75 146.5" fill="#67b437"/>
    <polygon id="id558" class="area" points="146.83 224.22 154.64 223.66 153.85 220.74 164.87 219.78 170.12 246.59 152.35 250.44 146.83 224.22 146.83 224.22" fill="#67b437"/>
    <polygon id="id559" class="area" points="167.41 219.63 186.84 218.51 191.37 241.67 172.58 246.02 167.41 219.63 167.41 219.63" fill="#67b437"/>
    <polygon id="id560" class="area" points="189.38 218.36 208.5 217.25 214.88 249.8 197.82 240.17 193.83 241.1 189.38 218.36 189.38 218.36" fill="#67b437"/>
    <polygon id="id561" class="area" points="211.05 217.1 249.13 214.9 223.16 254.47 217.77 251.43 211.05 217.1 211.05 217.1" fill="#67b437"/>
    <polygon id="id565" class="area" points="446.08 49.89 477.06 61.07 500.06 32.31 477.34 37.25 457.6 39.15 446.08 49.89 446.08 49.89" fill="#67b437"/>
    <polygon id="id566" class="area" points="479.51 62.03 500.08 70.1 516.74 39.93 502.75 32.96 479.51 62.03 479.51 62.03" fill="#67b437"/>
    <polygon id="id567" class="area" points="502.45 71.03 519.72 77.81 534.97 49.02 518.99 41.06 502.45 71.03 502.45 71.03" fill="#67b437"/>
    <polygon id="id568" class="area" points="522.08 78.74 543.33 87.08 555.02 59.01 537.23 50.15 522.08 78.74 522.08 78.74" fill="#67b437"/>
    <polygon id="id569" class="area" points="545.67 88.01 573.33 98.86 573.79 68.36 557.28 60.14 545.67 88.01 545.67 88.01" fill="#67b437"/>
    <polygon id="id564" class="area" points="573.83 65.56 574.25 38.38 563.63 30.47 539.2 48.31 573.83 65.56 573.83 65.56" fill="#67b437"/>
    <polygon id="id562" class="area" points="574.3 35.27 574.59 16.08 554.43 20.47 574.3 35.27 574.3 35.27" fill="#67b437"/>
    <polygon id="id563" class="area" points="551.16 21.18 504.95 31.24 536.66 47.04 561.52 28.9 551.16 21.18 551.16 21.18" fill="#67b437"/>
    <polygon id="id570" class="area" points="436.29 60 448.17 64.42 433.21 90.76 412.45 83.01 436.29 60 436.29 60" fill="#67b437"/>
    <polygon id="id571" class="area" points="450.56 65.31 463.74 70.21 453.08 98.19 435.6 91.66 450.56 65.31 450.56 65.31" fill="#67b437"/>
    <polygon id="id572" class="area" points="466.11 71.09 482.59 77.22 471.92 105.22 455.44 99.07 466.11 71.09 466.11 71.09" fill="#67b437"/>
    <polygon id="id573" class="area" points="484.96 78.1 501.44 84.23 490.76 112.26 474.28 106.11 484.96 78.1 484.96 78.1" fill="#67b437"/>
    <polygon id="id574" class="area" points="503.81 85.11 520.29 91.23 509.6 119.3 493.12 113.15 503.81 85.11 503.81 85.11" fill="#67b437"/>
    <polygon id="id575" class="area" points="522.66 92.11 539.15 98.24 528.44 126.34 511.96 120.19 522.66 92.11 522.66 92.11" fill="#67b437"/>
    <polygon id="id576" class="area" points="541.51 99.12 554.8 104.06 548.21 133.73 530.8 127.23 541.51 99.12 541.51 99.12" fill="#67b437"/>
    <polygon id="id577" class="area" points="557.18 104.95 573.96 111.19 573.18 143.06 550.59 134.62 557.18 104.95 557.18 104.95" fill="#67b437"/>
    <polygon id="id585" class="area" points="573.12 145.72 572.38 175.96 542.45 165.71 550 137.09 573.12 145.72 573.12 145.72" fill="#67b437"/>
    <polygon id="id584" class="area" points="540.05 164.89 519.17 157.74 529.9 129.58 547.63 136.2 540.05 164.89 540.05 164.89" fill="#67b437"/>
    <polygon id="id583" class="area" points="516.78 156.92 500.13 151.22 511.06 122.54 527.54 128.7 516.78 156.92 516.78 156.92" fill="#67b437"/>
    <polygon id="id582" class="area" points="497.74 150.4 481.1 144.7 492.22 115.5 508.7 121.66 497.74 150.4 497.74 150.4" fill="#67b437"/>
    <polygon id="id581" class="area" points="478.71 143.88 462.06 138.18 473.38 108.46 489.86 114.62 478.71 143.88 478.71 143.88" fill="#67b437"/>
    <polygon id="id580" class="area" points="459.67 137.36 443.02 131.66 454.54 101.42 471.02 107.58 459.67 137.36 459.67 137.36" fill="#67b437"/>
    <polygon id="id579" class="area" points="440.63 130.84 417.78 123.01 434.34 93.87 452.18 100.54 440.63 130.84 440.63 130.84" fill="#67b437"/>
    <polygon id="id578" class="area" points="415.36 122.18 383.24 111.19 410.44 84.94 431.95 92.98 415.36 122.18 415.36 122.18" fill="#67b437"/>
    <polygon id="id586" class="area" points="372.98 119.88 389.23 125.66 371.06 153.36 345.5 144.54 372.98 119.88 372.98 119.88" fill="#67b437"/>
    <polygon id="id587" class="area" points="391.69 126.49 405.65 131.2 395.33 161.63 373.52 154.2 391.69 126.49 391.69 126.49" fill="#67b437"/>
    <polygon id="id588" class="area" points="408.04 132.01 427.42 138.54 417.07 169.05 397.72 162.45 408.04 132.01 408.04 132.01" fill="#67b437"/>
    <polygon id="id589" class="area" points="429.81 139.35 449.18 145.88 438.81 176.46 419.46 169.86 429.81 139.35 429.81 139.35" fill="#67b437"/>
    <polygon id="id590" class="area" points="451.57 146.69 470.94 153.22 460.55 183.87 441.19 177.27 451.57 146.69 451.57 146.69" fill="#67b437"/>
    <polygon id="id591" class="area" points="473.33 154.03 492.7 160.56 482.29 191.28 462.93 184.69 473.33 154.03 473.33 154.03" fill="#67b437"/>
    <polygon id="id592" class="area" points="495.09 161.37 514.47 167.91 504.02 198.69 484.67 192.1 495.09 161.37 495.09 161.37" fill="#67b437"/>
    <polygon id="id593" class="area" points="516.86 168.71 536.23 175.25 525.76 206.11 506.41 199.51 516.86 168.71 516.86 168.71" fill="#67b437"/>
    <polygon id="id594" class="area" points="538.62 176.05 552.15 180.62 547.34 213.46 528.15 206.92 538.62 176.05 538.62 176.05" fill="#67b437"/>
    <polygon id="id595" class="area" points="554.58 181.43 572.06 187.33 570.68 221.42 549.77 214.29 554.58 181.43 554.58 181.43" fill="#67b437"/>
    <polygon id="id605" class="area" points="570.58 224.05 569.22 257.48 544.68 249.06 549.4 216.83 570.58 224.05 570.58 224.05" fill="#67b437"/>
    <polygon id="id604" class="area" points="542.25 248.22 517.07 239.58 527.34 209.31 546.97 216 542.25 248.22 542.25 248.22" fill="#67b437"/>
    <polygon id="id603" class="area" points="514.69 238.76 495.35 232.13 505.6 201.9 524.95 208.5 514.69 238.76 514.69 238.76" fill="#67b437"/>
    <polygon id="id602" class="area" points="492.96 231.31 473.62 224.68 483.86 194.49 503.21 201.08 492.96 231.31 492.96 231.31" fill="#67b437"/>
    <polygon id="id601" class="area" points="471.24 223.86 451.9 217.22 462.12 187.07 481.48 193.67 471.24 223.86 471.24 223.86" fill="#67b437"/>
    <polygon id="id600" class="area" points="449.51 216.41 430.17 209.77 440.38 179.66 459.74 186.26 449.51 216.41 449.51 216.41" fill="#67b437"/>
    <polygon id="id599" class="area" points="427.79 208.95 408.45 202.32 418.65 172.25 438 178.85 427.79 208.95 427.79 208.95" fill="#67b437"/>
    <polygon id="id598" class="area" points="406.06 201.5 386.73 194.86 396.91 164.84 416.26 171.44 406.06 201.5 406.06 201.5" fill="#67b437"/>
    <polygon id="id597" class="area" points="384.34 194.04 357.25 184.75 372.14 156.39 394.52 164.02 384.34 194.04 384.34 194.04" fill="#67b437"/>
    <polygon id="id596" class="area" points="354.84 183.93 315.83 170.27 343.04 147.06 369.72 155.57 354.84 183.93 354.84 183.93" fill="#67b437"/>
    <polygon id="id606" class="area" points="305.25 179.12 326.56 186.38 318.08 211.86 283.2 200.02 305.25 179.12 305.25 179.12" fill="#67b437"/>
    <polygon id="id607" class="area" points="328.94 187.19 345.32 192.77 336.84 218.24 320.46 212.67 328.94 187.19 328.94 187.19" fill="#67b437"/>
    <polygon id="id608" class="area" points="347.7 193.58 364.07 199.16 355.6 224.61 339.22 219.04 347.7 193.58 347.7 193.58" fill="#67b437"/>
    <polygon id="id609" class="area" points="366.45 199.97 382.83 205.55 374.36 230.98 357.98 225.42 366.45 199.97 366.45 199.97" fill="#67b437"/>
    <polygon id="id610" class="area" points="385.21 206.36 401.58 211.94 393.12 237.35 376.74 231.79 385.21 206.36 385.21 206.36" fill="#67b437"/>
    <polygon id="id611" class="area" points="403.96 212.75 420.34 218.33 411.88 243.72 395.5 238.16 403.96 212.75 403.96 212.75" fill="#67b437"/>
    <polygon id="id612" class="area" points="422.72 219.14 439.09 224.72 430.64 250.09 414.26 244.53 422.72 219.14 422.72 219.14" fill="#67b437"/>
    <polygon id="id613" class="area" points="441.47 225.53 457.85 231.11 449.4 256.46 433.02 250.9 441.47 225.53 441.47 225.53" fill="#67b437"/>
    <polygon id="id614" class="area" points="460.23 231.93 476.6 237.5 468.16 262.84 451.78 257.27 460.23 231.93 460.23 231.93" fill="#67b437"/>
    <polygon id="id615" class="area" points="478.98 238.32 495.36 243.9 486.92 269.21 470.55 263.64 478.98 238.32 478.98 238.32" fill="#67b437"/>
    <polygon id="id616" class="area" points="497.74 244.71 514.11 250.29 505.69 275.58 489.31 270.02 497.74 244.71 497.74 244.71" fill="#67b437"/>
    <polygon id="id617" class="area" points="516.49 251.1 532.87 256.68 524.45 281.95 508.07 276.39 516.49 251.1 516.49 251.1" fill="#67b437"/>
    <polygon id="id618" class="area" points="535.25 257.49 551.62 263.07 543.21 288.32 526.83 282.76 535.25 257.49 535.25 257.49" fill="#67b437"/>
    <polygon id="id619" class="area" points="554 263.88 568.59 268.85 566.84 296.35 545.59 289.13 554 263.88 554 263.88" fill="#67b437"/>
    <polygon id="id634" class="area" points="566.67 298.96 565.12 323.47 558.49 326.04 535.83 318.43 544.79 291.53 566.67 298.96 566.67 298.96" fill="#67b437"/>
    <polygon id="id633" class="area" points="533.44 317.63 517.05 312.12 526.03 285.15 542.41 290.72 533.44 317.63 533.44 317.63" fill="#67b437"/>
    <polygon id="id632" class="area" points="514.66 311.32 498.26 305.82 507.27 278.78 523.65 284.35 514.66 311.32 514.66 311.32" fill="#67b437"/>
    <polygon id="id631" class="area" points="495.88 305.01 479.48 299.51 488.51 272.41 504.89 277.97 495.88 305.01 495.88 305.01" fill="#67b437"/>
    <polygon id="id630" class="area" points="477.1 298.71 460.7 293.2 469.75 266.04 486.13 271.6 477.1 298.71 477.1 298.71" fill="#67b437"/>
    <polygon id="id629" class="area" points="458.31 292.4 441.92 286.89 450.99 259.67 467.37 265.23 458.31 292.4 458.31 292.4" fill="#67b437"/>
    <polygon id="id628" class="area" points="439.53 286.09 423.13 280.59 432.23 253.3 448.61 258.86 439.53 286.09 439.53 286.09" fill="#67b437"/>
    <polygon id="id627" class="area" points="420.75 279.79 404.35 274.28 413.46 246.92 429.84 252.49 420.75 279.79 420.75 279.79" fill="#67b437"/>
    <polygon id="id626" class="area" points="401.97 273.48 385.57 267.97 394.7 240.55 411.08 246.12 401.97 273.48 401.97 273.48" fill="#67b437"/>
    <polygon id="id625" class="area" points="383.19 267.17 366.79 261.67 375.94 234.18 392.32 239.74 383.19 267.17 383.19 267.17" fill="#67b437"/>
    <polygon id="id624" class="area" points="364.4 260.87 348 255.36 357.18 227.81 373.56 233.37 364.4 260.87 364.4 260.87" fill="#67b437"/>
    <polygon id="id623" class="area" points="345.62 254.56 329.22 249.05 338.42 221.44 354.8 227 345.62 254.56 345.62 254.56" fill="#67b437"/>
    <polygon id="id622" class="area" points="326.84 248.25 324.2 247.36 310.71 241.94 319.66 215.07 336.04 220.63 326.84 248.25 326.84 248.25" fill="#67b437"/>
    <polygon id="id621" class="area" points="308.37 241 292.16 234.48 300.94 208.71 317.28 214.26 308.37 241 308.37 241" fill="#67b437"/>
    <polygon id="id620" class="area" points="289.81 233.54 260.34 221.69 281.13 201.98 298.55 207.9 289.81 233.54 289.81 233.54" fill="#67b437"/>
    <polygon id="id637" class="area" points="233.9 268.14 244.42 250.79 272.78 264.65 263.4 283.68 233.9 268.14 233.9 268.14" fill="#67b437"/>
    <polygon id="id635" class="area" points="245.74 248.62 255.84 231.96 283.03 243.84 273.9 262.38 245.74 248.62 245.74 248.62" fill="#67b437"/>
    <polygon id="id636" class="area" points="285.4 244.75 311.41 254.55 302.19 276.21 276.16 263.49 285.4 244.75 285.4 244.75" fill="#67b437"/>
    <polygon id="id638" class="area" points="301.2 278.54 295 293.1 290.57 298 265.63 284.86 275.05 265.75 301.2 278.54 301.2 278.54" fill="#67b437"/>
    <polygon id="id641" class="area" points="303.52 303.05 313.55 279.6 342.56 288.96 336.12 307.13 303.52 303.05 303.52 303.05" fill="#67b437"/>
    <polygon id="id639" class="area" points="314.55 277.28 322.78 258.03 350.08 267.73 343.4 286.59 314.55 277.28 314.55 277.28" fill="#67b437"/>
    <polygon id="id640" class="area" points="352.46 268.57 378.35 277.77 373.3 296.24 345.8 287.36 352.46 268.57 352.46 268.57" fill="#67b437"/>
    <polygon id="id642" class="area" points="372.64 298.67 369.2 311.27 338.69 307.45 344.96 289.74 372.64 298.67 372.64 298.67" fill="#67b437"/>
    <polygon id="id646" class="area" points="431.72 347.6 438.8 324.43 413.24 313.21 407.52 332.45 431.72 347.6 431.72 347.6" fill="#67b437"/>
    <polygon id="id644" class="area" points="439.54 322 446.16 300.37 419.76 291.27 413.96 310.78 439.54 322 439.54 322" fill="#67b437"/>
    <polygon id="id643" class="area" points="417.37 290.45 389.72 280.93 385 298.08 411.63 309.76 417.37 290.45 417.37 290.45" fill="#67b437"/>
    <polygon id="id645" class="area" points="384.33 300.54 380.25 315.37 405.3 331.06 410.91 312.19 384.33 300.54 384.33 300.54" fill="#67b437"/>
    <polygon id="id651" class="area" points="441.58 353.76 445.01 342.68 471.08 352.34 465.54 369.8 439.85 353.44 441.58 353.76 441.58 353.76" fill="#67b437"/>
    <polygon id="id649" class="area" points="445.75 340.26 450.57 324.69 476.85 334.15 471.84 349.93 445.75 340.26 445.75 340.26" fill="#67b437"/>
    <polygon id="id647" class="area" points="451.31 322.28 457.06 303.68 483.58 312.93 477.61 331.75 451.31 322.28 451.31 322.28" fill="#67b437"/>
    <polygon id="id648" class="area" points="485.96 313.76 512.31 322.95 505.81 341.91 479.99 332.61 485.96 313.76 485.96 313.76" fill="#67b437"/>
    <polygon id="id650" class="area" points="504.99 344.29 499.53 360.19 474.21 350.81 479.22 335.01 504.99 344.29 504.99 344.29" fill="#67b437"/>
    <polygon id="id652" class="area" points="498.71 362.58 492.58 380.46 475.84 376.35 467.75 371.2 473.45 353.22 498.71 362.58 498.71 362.58" fill="#67b437"/>
    <polygon id="id653" class="area" points="523.84 326.9 542.33 332.88 535.52 360.83 514.81 353.06 523.84 326.9 523.84 326.9" fill="#67b437"/>
    <polygon id="id654" class="area" points="544.74 333.65 558.57 338.12 559.93 369.99 537.9 361.72 544.74 333.65 544.74 333.65" fill="#67b437"/>
    <polygon id="id656" class="area" points="559.75 372.61 555.1 398 531.1 389.64 537.3 364.19 559.75 372.61 559.75 372.61" fill="#67b437"/>
    <polygon id="id655" class="area" points="528.68 388.93 504.26 383.62 513.99 355.44 534.92 363.3 528.68 388.93 528.68 388.93" fill="#67b437"/>
    <path id="roads" d="M557.58,394.84l1.85.6,3-21.94L561,338.56a5.16,5.16,0,0,0-3.13-4.43l-32-10.66c-2-.65-5,.51-5.67,2.46l-17.9,52.92,2.36.84L503,384.45l-9.31-3.32,1.68-4.76,2.2.78L515.2,325c.67-2-.25-5.2-2.23-5.86l-53.49-17.83c-1.88-.63-4.85.48-5.44,2.37l-13.89,44.73,2,1-2.23,4.52-8.45-4.19,2.23-4.52,1.9.94,13.58-43.73c.58-1.88-.63-4.74-2.49-5.36l-55.19-18.4c-1.92-.64-4.74,1-5.3,2.95l-8.35,28.58,2.06.82L378,315.69l-8.37-3.32,1.86-4.68,1.61.64L381.4,280c.59-2-.78-5-2.78-5.68l-54.19-18.45a5,5,0,0,0-5.57,2.47l-18.2,40.92,2.45,1-1.91,4.66-9.79-4,1.91-4.66,2.68,1.1,18-40.49c.86-1.93-.61-5-2.58-5.81L286.1,240.92h0l-29.39-12.18a5,5,0,0,0-5.61,1.61l-16.7,26.19,2.62,1.59-2.62,4.3-9.47-5.77,2.63-4.3,2.55,1.55,23.18-36.35c1.24-1.94.74-6.17-3.56-5.9l-99.16,6.24.69,3L146.32,222l-2.68-11.85,4.91-1.11.87,3.82,112.16-7.05,0,.32L342.08,136c3.37-2.93.4-6.52-1.8-6.37L135.57,144.33l.82,3.61L131.48,149l-2.68-11.77,4.91-1.11.73,3.18,222.1-15.9,14.83-12.92,61.81-60c4.26-4.14,1.19-6.42-2.73-6.19l-40.59,2.37h0L119.24,68.61l.67,3L115,72.73l-2.61-11.85,4.93-1.09.84,3.83L389.45,41.72h.06l57.11-3.33a2.46,2.46,0,0,1,1.89,4.32L444,47.14c-1.58,1.53-1.09,5.74,1,6.52l130.41,49.25-.13,5.34L439.54,57a7.11,7.11,0,0,0-7,1.21l-50.9,49.38c-1.51,1.46-1.55,5.62.44,6.3l191.37,65.69-.13,5.3L376.55,117.35a7.12,7.12,0,0,0-6.61,1.06l-55.7,48.52a3.9,3.9,0,0,0,.9,6.56l262.53,90.3L576,268.57,308.75,176.64a7.72,7.72,0,0,0-7.14,1.36L263,211.63l-4.33,6.79c-1.1,1.73-.91,5.3,1,6.09L288,236.24h0l31.76,12.71,65.76,22.4h0l174.92,58.16.19-.82c.66-2.78,5-1.88,5-.2l1.81,45v.22l0,.21-3.12,23,2.59.84-1.54,4.8-9.32-3,1.54-4.8h0Z" fill="#4d4d4c"/>
    <path id="water" d="M191.69,247.24c-13.24,0-20.85,6.55-22.53,11.84-2.31.68-4.55,1.51-6.88,2.37-12,4.43-26.14,9.68-59.9-2.43-5.3-1.9-10-3.14-14.32-4.28-13.22-3.48-22.39-5.9-30.76-23.32-1.77-3.68-3.66-7-7.38-9.26s-9-3.48-17.56-3l.13,2.52c8-.41,12.88.66,16.11,2.66s4.84,4.89,6.43,8.2c8.88,18.47,18.51,21,32.38,24.67,4.27,1.13,9,2.36,14.11,4.21,34.64,12.42,49.27,7,61.62,2.43,1.93-.72,3.81-1.41,5.69-2a4.62,4.62,0,0,0,.2.94c.88,2.66,5.91,5.6,11.51,4.84,4.46-.61,10-3.73,13-4,4.7-.4,16.93,6.32,21.38,2.64,4.22,2.88,10.83,7.06,17.6,11.17,8.41,5.1,17.08,10.08,21.71,12.26s8.09,5.93,12.11,10.37c6.11,6.76,13.75,15.2,30.2,23.27,13,6.38,25.83,6,36.92,5.7,7.86-.22,14.81-.42,20.08,1.9h0c2.52,1.11,5.77,4.32,9.6,8.1,6,5.91,13.32,13.16,22.17,16.63,4.1,1.61,9,2.21,14,2.84,6.11.76,12.5,1.56,17.83,4.18a33.45,33.45,0,0,1,2.9,1.82,70.2,70.2,0,0,0,12.06,6.75c2,.84,4.13,1.75,6.36,2.7,10.23,4.39,22.9,9.83,35.71,12.8a95.09,95.09,0,0,0,12.33,1.66c5.67.52,11.33,1,15.51,2.68a133.51,133.51,0,0,0,15.29,4.56c5.94,1.52,11.4,2.91,14.62,4.79,4.46,2.6,7,5.6,9.9,9,6.5,7.6,14.47,16.91,48,27.68l.77-2.4c-32.87-10.56-40.58-19.56-46.88-26.92-3-3.52-5.71-6.68-10.55-9.49-3.54-2.06-9.15-3.5-15.26-5.06a132,132,0,0,1-15-4.46c-4.49-1.76-10.34-2.3-16.2-2.84a92.83,92.83,0,0,1-12-1.61c-12.59-2.93-25.14-8.31-35.28-12.67-2.27-1-4.42-1.9-6.37-2.71a68,68,0,0,1-11.63-6.52,34,34,0,0,0-3.18-2c-5.72-2.82-12.33-3.64-18.64-4.43-4.91-.61-9.63-1.2-13.42-2.69C377.85,350,370.71,343,364.9,337.22c-4-4-7.4-7.31-10.35-8.61h0c-5.78-2.54-13-2.34-21.17-2.11-10.8.3-23.3.66-35.75-5.45-16-7.85-23.47-16.1-29.44-22.7-4.21-4.65-7.7-8.51-12.9-11-4.58-2.16-13.16-7.09-21.48-12.14-6.78-4.11-13.4-8.3-17.55-11.14a7.56,7.56,0,0,0,.29-1.75c.5-8.76-18.35-15.13-24.87-15.13h0Z" fill="#00cdff"/>
    <polyline id="border" points="571.8 258.11 577.99 11.89 474.9 33.85 391.38 37.8 385.62 1.07 115.26 23.11 98.21 37.33 49.27 64.5 45.79 82.83 74.53 244.28 134.83 257.55 196.09 242.7 227.66 260.39 230.5 268.93 296.5 305.26 371.65 314.42 476.16 379.19 502.52 385.51 527.52 392.14 592.36 413.63 571.51 373.82 571.48 270.9" fill="none" stroke="#683200" stroke-miterlimit="22.93" stroke-width="2"/>
    <g id="trees">
      <path d="M427.56,45.47a2.42,2.42,0,0,1,.81,4,1.9,1.9,0,0,1-2.66,2.66,3,3,0,0,1-5.28-1.22,1.54,1.54,0,0,1-.85-2.57,2.42,2.42,0,0,1,2.18-3.9,2,2,0,0,1,3.59-.69,1.54,1.54,0,0,1,2.22,1.75h0Z" fill="#1d6d03"/>
      <path d="M402.9,47.36a1.94,1.94,0,0,1,3.18.7,1.53,1.53,0,0,1,1.08,2.82,2.41,2.41,0,0,1-2.61,3.48,1.23,1.23,0,0,1-2.16-.21,1.94,1.94,0,0,1-2.15-2.87,1.62,1.62,0,0,1,.66-2.86,1.23,1.23,0,0,1,2-1.06h0Z" fill="#227f06"/>
      <path d="M414.53,46a3,3,0,0,1,4.94,1.09,2.38,2.38,0,0,1,1.68,4.38,3.74,3.74,0,0,1-4.06,5.41,1.92,1.92,0,0,1-3.36-.33,3,3,0,0,1-3.35-4.46,2.53,2.53,0,0,1,1-4.45A1.92,1.92,0,0,1,414.53,46Z" fill="#227f06"/>
      <path d="M415.63,58.23A2.45,2.45,0,0,1,413.92,62a1.93,1.93,0,0,1-3.77.59,3,3,0,0,1-3.61-4.15,1.56,1.56,0,0,1,.83-2.62,2.45,2.45,0,0,1,4.11-1.91,2.06,2.06,0,0,1,3.36,1.57,1.56,1.56,0,0,1,.78,2.76h0Z" fill="#1d6d03"/>
    </g>
  </g>
  <g id="dfsdfdsfdsfs">
    <path d="M32.48,69.72a2.88,2.88,0,0,1-3.21-3.61,2.27,2.27,0,0,1,1.15-4.33,3.58,3.58,0,0,1,6.17-1.9A1.83,1.83,0,0,1,39,62a2.88,2.88,0,0,1,.09,5.32,2.41,2.41,0,0,1-3.29,2.86,1.83,1.83,0,0,1-3.33-.48" fill="#1d6d03" fill-rule="evenodd"/>
    <path d="M56.76,53a2.31,2.31,0,0,1-3.69,1.18A1.82,1.82,0,0,1,50.27,52a2.86,2.86,0,0,1,.61-5.14,1.47,1.47,0,0,1,2.35-1.07,2.31,2.31,0,0,1,3.89,1.21,2.35,2.35,0,0,1,0,.46,1.93,1.93,0,0,1,1,3.34A1.47,1.47,0,0,1,57.26,53a1.46,1.46,0,0,1-.5,0" fill="#227f06" fill-rule="evenodd"/>
    <path d="M45.58,61.37a3.59,3.59,0,0,1-5.74,1.83,2.83,2.83,0,0,1-4.35-3.51,4.46,4.46,0,0,1,1-8A2.28,2.28,0,0,1,40.1,50a3.59,3.59,0,0,1,6.11,2.59,3,3,0,0,1,1.6,5.2,2.25,2.25,0,0,1,.36.87,2.28,2.28,0,0,1-2.59,2.68" fill="#227f06" fill-rule="evenodd"/>
    <path d="M37.15,49.45a2.92,2.92,0,0,1-.48-4.88,2.3,2.3,0,0,1,3.53-2.87,3.63,3.63,0,0,1,6.2,2.12,1.86,1.86,0,0,1,.7,3.2,2.92,2.92,0,0,1-2.53,4.49,3,3,0,0,1-.57-.07,2.45,2.45,0,0,1-4.41.39A1.86,1.86,0,0,1,37,50.07a1.89,1.89,0,0,1,.12-.62" fill="#1d6d03" fill-rule="evenodd"/>
    <path d="M17.3,96.09a2.92,2.92,0,0,1-.48-4.88A2.27,2.27,0,0,1,16.5,90a2.3,2.3,0,0,1,3.85-1.65,3.63,3.63,0,0,1,6.2,2.12,1.86,1.86,0,0,1,.7,3.2,2.92,2.92,0,0,1-2.53,4.49,3,3,0,0,1-.57-.07,2.45,2.45,0,0,1-4.41.39,1.86,1.86,0,0,1-2.57-1.76,1.83,1.83,0,0,1,.12-.62" fill="#1d6d03" fill-rule="evenodd"/>
    <path d="M35.26,122.25a2.92,2.92,0,0,1-.48-4.88,2.3,2.3,0,0,1,3.53-2.87,3.63,3.63,0,0,1,6.2,2.12,1.86,1.86,0,0,1,.7,3.2,2.92,2.92,0,0,1-2.53,4.49,3,3,0,0,1-.57-.07,2.45,2.45,0,0,1-4.41.39,1.86,1.86,0,0,1-2.57-1.76,1.82,1.82,0,0,1,.12-.62" fill="#1d6d03" fill-rule="evenodd"/>
    <path d="M11.31,151.87a2.92,2.92,0,0,1-.48-4.88,2.27,2.27,0,0,1-.31-1.22,2.3,2.3,0,0,1,3.85-1.65,3.63,3.63,0,0,1,6.2,2.12,1.86,1.86,0,0,1,.7,3.2,2.92,2.92,0,0,1-2.53,4.49,3,3,0,0,1-.57-.07,2.45,2.45,0,0,1-4.41.39,1.86,1.86,0,0,1-2.57-1.76,1.82,1.82,0,0,1,.12-.62" fill="#1d6d03" fill-rule="evenodd"/>
    <path d="M23.91,168.26a2.92,2.92,0,0,1-.48-4.88A2.3,2.3,0,0,1,27,160.52a3.63,3.63,0,0,1,6.2,2.12,1.86,1.86,0,0,1,.7,3.2,2.92,2.92,0,0,1-2.53,4.49,3.05,3.05,0,0,1-.57-.07,2.45,2.45,0,0,1-4.41.39,1.86,1.86,0,0,1-2.57-1.76,1.82,1.82,0,0,1,.12-.62" fill="#1d6d03" fill-rule="evenodd"/>
    <path d="M37.78,158.18a2.92,2.92,0,0,1-.48-4.88,2.3,2.3,0,0,1,3.53-2.87,3.63,3.63,0,0,1,6.2,2.12,1.86,1.86,0,0,1,.7,3.2,2.92,2.92,0,0,1-2.53,4.49,3,3,0,0,1-.57-.07,2.45,2.45,0,0,1-4.41.39,1.86,1.86,0,0,1-2.45-2.38" fill="#1d6d03" fill-rule="evenodd"/>
    <path d="M33.37,190.32a2.92,2.92,0,0,1-.48-4.88,2.27,2.27,0,0,1-.31-1.22,2.3,2.3,0,0,1,3.85-1.65,3.63,3.63,0,0,1,6.2,2.12,1.86,1.86,0,0,1,.7,3.2,2.92,2.92,0,0,1-2.53,4.49,2.87,2.87,0,0,1-.57-.07,2.45,2.45,0,0,1-4.41.39,1.86,1.86,0,0,1-2.57-1.76,1.82,1.82,0,0,1,.12-.62" fill="#1d6d03" fill-rule="evenodd"/>
    <path d="M47.23,208.6a2.92,2.92,0,0,1-.48-4.88,2.3,2.3,0,0,1,3.53-2.87,3.63,3.63,0,0,1,6.2,2.12,1.86,1.86,0,0,1,.7,3.2,2.92,2.92,0,0,1-2.53,4.49,3,3,0,0,1-.57-.07,2.45,2.45,0,0,1-4.41.39,1.86,1.86,0,0,1-2.57-1.76,1.83,1.83,0,0,1,.12-.62" fill="#1d6d03" fill-rule="evenodd"/>
    <path d="M57.95,225a2.92,2.92,0,0,1-.48-4.88A2.3,2.3,0,0,1,61,217.24a3.63,3.63,0,0,1,6.2,2.12,1.86,1.86,0,0,1,.7,3.2A2.92,2.92,0,0,1,65.38,227a3,3,0,0,1-.57-.07,2.45,2.45,0,0,1-4.41.39,1.86,1.86,0,0,1-2.57-1.76,1.82,1.82,0,0,1,.12-.62" fill="#1d6d03" fill-rule="evenodd"/>
    <path d="M562.82,418.49a2.92,2.92,0,0,1-.48-4.88,2.3,2.3,0,0,1,3.53-2.87,3.63,3.63,0,0,1,6.2,2.12,1.86,1.86,0,0,1,.71,3.2,2.92,2.92,0,0,1-2.53,4.49,3,3,0,0,1-.57-.07,2.45,2.45,0,0,1-4.41.39,1.86,1.86,0,0,1-2.45-2.38" fill="#1d6d03" fill-rule="evenodd"/>
    <path d="M380.66,337.81a2.92,2.92,0,0,1-.48-4.88,2.3,2.3,0,0,1,3.53-2.87,3.63,3.63,0,0,1,6.2,2.12,1.86,1.86,0,0,1,.71,3.2,2.92,2.92,0,0,1-2.53,4.49,2.88,2.88,0,0,1-.57-.07,2.45,2.45,0,0,1-4.41.39,1.83,1.83,0,0,1-.75.14,1.86,1.86,0,0,1-1.7-2.52" fill="#1d6d03" fill-rule="evenodd"/>
    <path d="M331.5,321.42a2.92,2.92,0,0,1-.48-4.88,2.3,2.3,0,0,1,3.53-2.87,3.63,3.63,0,0,1,6.2,2.12,1.86,1.86,0,0,1,.71,3.2,2.92,2.92,0,0,1-3.1,4.42,2.45,2.45,0,0,1-4.41.39,1.83,1.83,0,0,1-.75.14,1.86,1.86,0,0,1-1.7-2.52" fill="#1d6d03" fill-rule="evenodd"/>
    <path d="M401.46,349.79a2.92,2.92,0,0,1-.48-4.88,2.3,2.3,0,0,1,3.53-2.87,3.63,3.63,0,0,1,6.2,2.12,1.86,1.86,0,0,1,.71,3.2,2.92,2.92,0,0,1-3.1,4.42,2.45,2.45,0,0,1-4.41.39,1.82,1.82,0,0,1-.75.14,1.86,1.86,0,0,1-1.7-2.52" fill="#1d6d03" fill-rule="evenodd"/>
    <path d="M301.24,317.64a2.92,2.92,0,0,1-.48-4.88,2.3,2.3,0,0,1,3.53-2.87,3.63,3.63,0,0,1,6.2,2.12,1.86,1.86,0,0,1,.7,3.2,2.92,2.92,0,0,1-3.1,4.42,2.45,2.45,0,0,1-4.41.39,1.82,1.82,0,0,1-.75.14,1.86,1.86,0,0,1-1.7-2.52" fill="#1d6d03" fill-rule="evenodd"/>
    <path d="M36.13,95.41a3.59,3.59,0,0,1-5.74,1.83A2.83,2.83,0,0,1,26,93.73a4.46,4.46,0,0,1,.95-8,2.28,2.28,0,0,1,3.66-1.67,3.59,3.59,0,0,1,6,1.88,3.68,3.68,0,0,1,.06.71,3,3,0,0,1,1.6,5.2,2.25,2.25,0,0,1,.36.87,2.28,2.28,0,0,1-2.59,2.68" fill="#227f06" fill-rule="evenodd"/>
    <path d="M12.17,125a3.59,3.59,0,0,1-5.74,1.83,2.83,2.83,0,0,1-4.35-3.51,4.46,4.46,0,0,1,.95-8,2.28,2.28,0,0,1,3.66-1.67,3.59,3.59,0,0,1,6.11,2.59,3,3,0,0,1,1.6,5.2,2.25,2.25,0,0,1,.36.87A2.29,2.29,0,0,1,12.17,125" fill="#227f06" fill-rule="evenodd"/>
    <path d="M37.39,130.7a3.59,3.59,0,0,1-5.74,1.83A2.83,2.83,0,0,1,27.29,129a4.46,4.46,0,0,1,.95-8,2.28,2.28,0,0,1,3.66-1.67A3.59,3.59,0,0,1,38,122a3,3,0,0,1,1.6,5.2A2.25,2.25,0,0,1,40,128a2.29,2.29,0,0,1-2.59,2.68" fill="#227f06" fill-rule="evenodd"/>
    <path d="M30.45,159.07a3.59,3.59,0,0,1-5.74,1.83,2.83,2.83,0,0,1-4.35-3.51,4.46,4.46,0,0,1,.95-8A2.28,2.28,0,0,1,25,147.73a3.59,3.59,0,0,1,6.11,2.59,3,3,0,0,1,1.6,5.2,2.28,2.28,0,0,1-1.45,3.54,2.24,2.24,0,0,1-.77,0" fill="#227f06" fill-rule="evenodd"/>
    <path d="M46.21,184.91a3.59,3.59,0,0,1-5.74,1.83,2.83,2.83,0,0,1-4.35-3.51,4.46,4.46,0,0,1,.95-8,2.28,2.28,0,0,1,3.66-1.67,3.59,3.59,0,0,1,6.11,2.59,3,3,0,0,1,1.6,5.2,2.29,2.29,0,0,1-2.23,3.55" fill="#227f06" fill-rule="evenodd"/>
    <path d="M63.86,217.68a3.59,3.59,0,0,1-5.74,1.83A2.83,2.83,0,0,1,53.76,216a4.46,4.46,0,0,1,.95-8,2.28,2.28,0,0,1,3.66-1.67,3.59,3.59,0,0,1,6.11,2.59,3,3,0,0,1,1.6,5.2,2.29,2.29,0,0,1-2.23,3.55" fill="#227f06" fill-rule="evenodd"/>
    <path d="M59.45,195.62a3.59,3.59,0,0,1-5.74,1.83,2.83,2.83,0,0,1-4.35-3.51,4.46,4.46,0,0,1,.95-8A2.28,2.28,0,0,1,54,184.28a3.59,3.59,0,0,1,6.11,2.59,3,3,0,0,1,1.6,5.2,2.26,2.26,0,0,1,.36.87,2.29,2.29,0,0,1-2.59,2.69" fill="#227f06" fill-rule="evenodd"/>
    <path d="M44.32,140.79a3.59,3.59,0,0,1-5.74,1.83,2.83,2.83,0,0,1-4.35-3.51,4.46,4.46,0,0,1,.95-8,2.28,2.28,0,0,1,3.66-1.67A3.59,3.59,0,0,1,44.95,132a3,3,0,0,1,1.6,5.2,2.25,2.25,0,0,1,.36.87,2.28,2.28,0,0,1-2.59,2.68" fill="#227f06" fill-rule="evenodd"/>
    <path d="M329.84,322.94a3.59,3.59,0,0,1-5.74,1.83,2.83,2.83,0,0,1-4.35-3.51,4.46,4.46,0,0,1,.95-8,2.28,2.28,0,0,1,3.66-1.67,3.59,3.59,0,0,1,6.11,2.59,3,3,0,0,1,1.6,5.2,2.25,2.25,0,0,1,.36.87,2.28,2.28,0,0,1-1.82,2.67,2.24,2.24,0,0,1-.77,0" fill="#227f06" fill-rule="evenodd"/>
    <path d="M581.33,423.79a3.59,3.59,0,0,1-5.74,1.83,2.83,2.83,0,0,1-4.35-3.51,4.46,4.46,0,0,1,.95-8,2.28,2.28,0,0,1,3.66-1.67,3.59,3.59,0,0,1,6,1.88,3.68,3.68,0,0,1,.06.71,3,3,0,0,1,1.6,5.2,2.25,2.25,0,0,1,.36.87,2.28,2.28,0,0,1-2.59,2.68" fill="#227f06" fill-rule="evenodd"/>
    <path d="M394.13,347.52a3.59,3.59,0,0,1-5.74,1.83,2.83,2.83,0,0,1-4.35-3.51,4.46,4.46,0,0,1,.95-8,2.28,2.28,0,0,1,3.66-1.67,3.59,3.59,0,0,1,6,1.88,3.68,3.68,0,0,1,.06.71,3,3,0,0,1,1.6,5.2,2.25,2.25,0,0,1,.36.87,2.28,2.28,0,0,1-2.59,2.68" fill="#227f06" fill-rule="evenodd"/>
    <path d="M36.76,209.49A3.59,3.59,0,0,1,31,211.32a2.83,2.83,0,0,1-4.35-3.51,4.46,4.46,0,0,1,.95-8,2.28,2.28,0,0,1,3.66-1.67,3.59,3.59,0,0,1,6.11,2.59,3,3,0,0,1,1.6,5.2,2.28,2.28,0,0,1-2.23,3.55" fill="#227f06" fill-rule="evenodd"/>
    <path d="M22.09,111a2.31,2.31,0,0,1-3.69,1.17,1.82,1.82,0,0,1-2.8-2.25,2.87,2.87,0,0,1,.61-5.14,1.47,1.47,0,0,1,2.35-1.07,2.31,2.31,0,0,1,3.89,1.21,2.34,2.34,0,0,1,0,.46,1.94,1.94,0,0,1,1,3.34,1.47,1.47,0,0,1-.94,2.28,1.5,1.5,0,0,1-.5,0" fill="#1d6d03" fill-rule="evenodd"/>
    <path d="M13.27,131.19a2.31,2.31,0,0,1-3.69,1.18,1.8,1.8,0,0,1-.89.44,1.82,1.82,0,0,1-1.91-2.7A2.87,2.87,0,0,1,7.39,125a1.47,1.47,0,0,1,2.35-1.07,2.31,2.31,0,0,1,3.89,1.21,2.45,2.45,0,0,1,0,.46,1.93,1.93,0,0,1,1,3.34,1.47,1.47,0,0,1-1.43,2.28" fill="#1d6d03" fill-rule="evenodd"/>
    <path d="M41,109.76a2.31,2.31,0,0,1-3.69,1.18,1.8,1.8,0,0,1-.89.44,1.82,1.82,0,0,1-1.91-2.7,2.86,2.86,0,0,1,.61-5.14,1.47,1.47,0,0,1,2.35-1.07,2.31,2.31,0,0,1,3.89,1.21,2.35,2.35,0,0,1,0,.46,1.93,1.93,0,0,1,1,3.34A1.47,1.47,0,0,1,41,109.76" fill="#227f06" fill-rule="evenodd"/>
    <path d="M50.46,164a2.31,2.31,0,0,1-3.69,1.18,1.82,1.82,0,0,1-2.8-2.26,2.86,2.86,0,0,1,.61-5.14,1.47,1.47,0,0,1,2.35-1.07,2.31,2.31,0,0,1,3.89,1.21,2.33,2.33,0,0,1,0,.46,1.93,1.93,0,0,1,1,3.34A1.47,1.47,0,0,1,50.46,164" fill="#227f06" fill-rule="evenodd"/>
    <path d="M374.43,334.77a2.31,2.31,0,0,1-3.69,1.18,1.82,1.82,0,0,1-2.8-2.25,2.87,2.87,0,0,1,.61-5.14,1.47,1.47,0,0,1,2.35-1.07,2.31,2.31,0,0,1,3.89,1.21,2.34,2.34,0,0,1,0,.45,1.93,1.93,0,0,1,1,3.34,1.47,1.47,0,0,1-1.43,2.28" fill="#227f06" fill-rule="evenodd"/>
    <path d="M356.15,323.43a2.31,2.31,0,0,1-3.69,1.18,1.82,1.82,0,0,1-2.8-2.25,2.87,2.87,0,0,1,.61-5.14,1.47,1.47,0,0,1,2.35-1.07,2.31,2.31,0,0,1,3.89,1.21,2.34,2.34,0,0,1,0,.46,1.93,1.93,0,0,1,1,3.34,1.47,1.47,0,0,1-1.43,2.28" fill="#227f06" fill-rule="evenodd"/>
    <path d="M301.31,316.49a2.31,2.31,0,0,1-3.69,1.18,1.82,1.82,0,0,1-2.8-2.26,2.87,2.87,0,0,1,.61-5.14,1.47,1.47,0,0,1,2.35-1.07,2.31,2.31,0,0,1,3.89,1.21,2.24,2.24,0,0,1,0,.45,1.93,1.93,0,0,1,1,3.34,1.47,1.47,0,0,1-1.43,2.28" fill="#227f06" fill-rule="evenodd"/>
    <path d="M423,356.2a2.31,2.31,0,0,1-3.69,1.18,1.82,1.82,0,0,1-2.8-2.26,2.87,2.87,0,0,1,.61-5.14,1.47,1.47,0,0,1,2.35-1.07,2.31,2.31,0,0,1,3.89,1.21,2.33,2.33,0,0,1,0,.46,1.93,1.93,0,0,1,1,3.34A1.47,1.47,0,0,1,423,356.2" fill="#227f06" fill-rule="evenodd"/>
    <path d="M558.48,412.3a2.31,2.31,0,0,1-3.69,1.18,1.82,1.82,0,0,1-2.8-2.25,2.87,2.87,0,0,1,.61-5.14,1.47,1.47,0,0,1,2.35-1.07,2.31,2.31,0,0,1,3.89,1.21,2.33,2.33,0,0,1,0,.46,1.94,1.94,0,0,1,1,3.34,1.45,1.45,0,0,1,.23.56,1.47,1.47,0,0,1-1.17,1.72,1.43,1.43,0,0,1-.5,0" fill="#227f06" fill-rule="evenodd"/>
    <path d="M429.26,360a2.31,2.31,0,0,1-3.69,1.18,1.82,1.82,0,0,1-2.8-2.25,2.87,2.87,0,0,1,.61-5.14,1.47,1.47,0,0,1,2.35-1.07,2.31,2.31,0,0,1,3.89,1.21,2.24,2.24,0,0,1,0,.46,1.93,1.93,0,0,1,1,3.34,1.45,1.45,0,0,1,.23.56,1.47,1.47,0,0,1-1.17,1.72,1.43,1.43,0,0,1-.5,0" fill="#227f06" fill-rule="evenodd"/>
    <path d="M363,327.73a2.92,2.92,0,0,1-.48-4.88,2.3,2.3,0,0,1,3.53-2.87,3.63,3.63,0,0,1,6.2,2.12,1.86,1.86,0,0,1,.7,3.2,2.92,2.92,0,0,1-2.53,4.49,2.87,2.87,0,0,1-.57-.07,2.45,2.45,0,0,1-4.41.39,1.83,1.83,0,0,1-.75.14,1.86,1.86,0,0,1-1.82-1.9,1.89,1.89,0,0,1,.12-.62" fill="#1d6d03" fill-rule="evenodd"/>
    <path d="M20.13,126.35a2.92,2.92,0,0,1-.48-4.88,2.3,2.3,0,0,1,3.53-2.87,3.63,3.63,0,0,1,6.2,2.12,1.86,1.86,0,0,1,.7,3.2,2.92,2.92,0,0,1-2.53,4.49,3,3,0,0,1-.57-.07,2.45,2.45,0,0,1-4.41.39A1.86,1.86,0,0,1,20,127a1.89,1.89,0,0,1,.12-.62" fill="#1d6d03" fill-rule="evenodd"/>
    <path d="M44.71,178.35a2.92,2.92,0,0,1-.48-4.88,2.27,2.27,0,0,1-.31-1.22,2.3,2.3,0,0,1,3.85-1.65,3.63,3.63,0,0,1,6.2,2.12,1.86,1.86,0,0,1,.7,3.2,2.92,2.92,0,0,1-2.53,4.49,3,3,0,0,1-.57-.07,2.45,2.45,0,0,1-4.41.39A1.86,1.86,0,0,1,44.59,179a1.82,1.82,0,0,1,.12-.62" fill="#1d6d03" fill-rule="evenodd"/>
    <path d="M17.61,78.45a2.92,2.92,0,0,1-.48-4.88,2.3,2.3,0,0,1,3.53-2.87,3.63,3.63,0,0,1,6.2,2.12,1.86,1.86,0,0,1,.7,3.2A2.92,2.92,0,0,1,25,80.5a3,3,0,0,1-.57-.07,2.45,2.45,0,0,1-4.41.39,1.86,1.86,0,0,1-2.45-2.38" fill="#1d6d03" fill-rule="evenodd"/>
    <path d="M14.53,107.87A2.31,2.31,0,0,1,10.84,109,1.82,1.82,0,0,1,8,106.79a2.86,2.86,0,0,1,.61-5.14A1.47,1.47,0,0,1,11,100.58a2.31,2.31,0,0,1,3.89,1.21,2.33,2.33,0,0,1,0,.46,1.93,1.93,0,0,1,1,3.34,1.47,1.47,0,0,1-1.43,2.28" fill="#227f06" fill-rule="evenodd"/>
    <path d="M32.48,69.72a2.88,2.88,0,0,1-3.21-3.61,2.27,2.27,0,0,1,1.15-4.33,3.58,3.58,0,0,1,6.17-1.9A1.83,1.83,0,0,1,39,62a2.88,2.88,0,0,1,.09,5.32,2.41,2.41,0,0,1-3.29,2.86,1.83,1.83,0,0,1-3.33-.48" fill="#1d6d03" fill-rule="evenodd"/>
    <path d="M56.76,53a2.31,2.31,0,0,1-3.69,1.18A1.82,1.82,0,0,1,50.27,52a2.86,2.86,0,0,1,.61-5.14,1.47,1.47,0,0,1,2.35-1.07,2.31,2.31,0,0,1,3.89,1.21,2.35,2.35,0,0,1,0,.46,1.93,1.93,0,0,1,1,3.34A1.47,1.47,0,0,1,57.26,53a1.46,1.46,0,0,1-.5,0" fill="#227f06" fill-rule="evenodd"/>
    <path d="M45.58,61.37a3.59,3.59,0,0,1-5.74,1.83,2.83,2.83,0,0,1-4.35-3.51,4.46,4.46,0,0,1,1-8A2.28,2.28,0,0,1,40.1,50a3.59,3.59,0,0,1,6.11,2.59,3,3,0,0,1,1.6,5.2,2.25,2.25,0,0,1,.36.87,2.28,2.28,0,0,1-2.59,2.68" fill="#227f06" fill-rule="evenodd"/>
    <path d="M37.15,49.45a2.92,2.92,0,0,1-.48-4.88,2.3,2.3,0,0,1,3.53-2.87,3.63,3.63,0,0,1,6.2,2.12,1.86,1.86,0,0,1,.7,3.2,2.92,2.92,0,0,1-2.53,4.49,3,3,0,0,1-.57-.07,2.45,2.45,0,0,1-4.41.39A1.86,1.86,0,0,1,37,50.07a1.89,1.89,0,0,1,.12-.62" fill="#1d6d03" fill-rule="evenodd"/>
    <path d="M17.3,96.09a2.92,2.92,0,0,1-.48-4.88A2.27,2.27,0,0,1,16.5,90a2.3,2.3,0,0,1,3.85-1.65,3.63,3.63,0,0,1,6.2,2.12,1.86,1.86,0,0,1,.7,3.2,2.92,2.92,0,0,1-2.53,4.49,3,3,0,0,1-.57-.07,2.45,2.45,0,0,1-4.41.39,1.86,1.86,0,0,1-2.57-1.76,1.83,1.83,0,0,1,.12-.62" fill="#1d6d03" fill-rule="evenodd"/>
    <path d="M35.26,122.25a2.92,2.92,0,0,1-.48-4.88,2.3,2.3,0,0,1,3.53-2.87,3.63,3.63,0,0,1,6.2,2.12,1.86,1.86,0,0,1,.7,3.2,2.92,2.92,0,0,1-2.53,4.49,3,3,0,0,1-.57-.07,2.45,2.45,0,0,1-4.41.39,1.86,1.86,0,0,1-2.57-1.76,1.82,1.82,0,0,1,.12-.62" fill="#1d6d03" fill-rule="evenodd"/>
    <path d="M11.31,151.87a2.92,2.92,0,0,1-.48-4.88,2.27,2.27,0,0,1-.31-1.22,2.3,2.3,0,0,1,3.85-1.65,3.63,3.63,0,0,1,6.2,2.12,1.86,1.86,0,0,1,.7,3.2,2.92,2.92,0,0,1-2.53,4.49,3,3,0,0,1-.57-.07,2.45,2.45,0,0,1-4.41.39,1.86,1.86,0,0,1-2.57-1.76,1.82,1.82,0,0,1,.12-.62" fill="#1d6d03" fill-rule="evenodd"/>
    <path d="M23.91,168.26a2.92,2.92,0,0,1-.48-4.88A2.3,2.3,0,0,1,27,160.52a3.63,3.63,0,0,1,6.2,2.12,1.86,1.86,0,0,1,.7,3.2,2.92,2.92,0,0,1-2.53,4.49,3.05,3.05,0,0,1-.57-.07,2.45,2.45,0,0,1-4.41.39,1.86,1.86,0,0,1-2.57-1.76,1.82,1.82,0,0,1,.12-.62" fill="#1d6d03" fill-rule="evenodd"/>
    <path d="M37.78,158.18a2.92,2.92,0,0,1-.48-4.88,2.3,2.3,0,0,1,3.53-2.87,3.63,3.63,0,0,1,6.2,2.12,1.86,1.86,0,0,1,.7,3.2,2.92,2.92,0,0,1-2.53,4.49,3,3,0,0,1-.57-.07,2.45,2.45,0,0,1-4.41.39,1.86,1.86,0,0,1-2.45-2.38" fill="#1d6d03" fill-rule="evenodd"/>
    <path d="M33.37,190.32a2.92,2.92,0,0,1-.48-4.88,2.27,2.27,0,0,1-.31-1.22,2.3,2.3,0,0,1,3.85-1.65,3.63,3.63,0,0,1,6.2,2.12,1.86,1.86,0,0,1,.7,3.2,2.92,2.92,0,0,1-2.53,4.49,2.87,2.87,0,0,1-.57-.07,2.45,2.45,0,0,1-4.41.39,1.86,1.86,0,0,1-2.57-1.76,1.82,1.82,0,0,1,.12-.62" fill="#1d6d03" fill-rule="evenodd"/>
    <path d="M47.23,208.6a2.92,2.92,0,0,1-.48-4.88,2.3,2.3,0,0,1,3.53-2.87,3.63,3.63,0,0,1,6.2,2.12,1.86,1.86,0,0,1,.7,3.2,2.92,2.92,0,0,1-2.53,4.49,3,3,0,0,1-.57-.07,2.45,2.45,0,0,1-4.41.39,1.86,1.86,0,0,1-2.57-1.76,1.83,1.83,0,0,1,.12-.62" fill="#1d6d03" fill-rule="evenodd"/>
    <path d="M57.95,225a2.92,2.92,0,0,1-.48-4.88A2.3,2.3,0,0,1,61,217.24a3.63,3.63,0,0,1,6.2,2.12,1.86,1.86,0,0,1,.7,3.2A2.92,2.92,0,0,1,65.38,227a3,3,0,0,1-.57-.07,2.45,2.45,0,0,1-4.41.39,1.86,1.86,0,0,1-2.57-1.76,1.82,1.82,0,0,1,.12-.62" fill="#1d6d03" fill-rule="evenodd"/>
    <path d="M562.82,418.49a2.92,2.92,0,0,1-.48-4.88,2.3,2.3,0,0,1,3.53-2.87,3.63,3.63,0,0,1,6.2,2.12,1.86,1.86,0,0,1,.71,3.2,2.92,2.92,0,0,1-2.53,4.49,3,3,0,0,1-.57-.07,2.45,2.45,0,0,1-4.41.39,1.86,1.86,0,0,1-2.45-2.38" fill="#1d6d03" fill-rule="evenodd"/>
    <path d="M380.66,337.81a2.92,2.92,0,0,1-.48-4.88,2.3,2.3,0,0,1,3.53-2.87,3.63,3.63,0,0,1,6.2,2.12,1.86,1.86,0,0,1,.71,3.2,2.92,2.92,0,0,1-2.53,4.49,2.88,2.88,0,0,1-.57-.07,2.45,2.45,0,0,1-4.41.39,1.83,1.83,0,0,1-.75.14,1.86,1.86,0,0,1-1.7-2.52" fill="#1d6d03" fill-rule="evenodd"/>
    <path d="M331.5,321.42a2.92,2.92,0,0,1-.48-4.88,2.3,2.3,0,0,1,3.53-2.87,3.63,3.63,0,0,1,6.2,2.12,1.86,1.86,0,0,1,.71,3.2,2.92,2.92,0,0,1-3.1,4.42,2.45,2.45,0,0,1-4.41.39,1.83,1.83,0,0,1-.75.14,1.86,1.86,0,0,1-1.7-2.52" fill="#1d6d03" fill-rule="evenodd"/>
    <path d="M401.46,349.79a2.92,2.92,0,0,1-.48-4.88,2.3,2.3,0,0,1,3.53-2.87,3.63,3.63,0,0,1,6.2,2.12,1.86,1.86,0,0,1,.71,3.2,2.92,2.92,0,0,1-3.1,4.42,2.45,2.45,0,0,1-4.41.39,1.82,1.82,0,0,1-.75.14,1.86,1.86,0,0,1-1.7-2.52" fill="#1d6d03" fill-rule="evenodd"/>
    <path d="M301.24,317.64a2.92,2.92,0,0,1-.48-4.88,2.3,2.3,0,0,1,3.53-2.87,3.63,3.63,0,0,1,6.2,2.12,1.86,1.86,0,0,1,.7,3.2,2.92,2.92,0,0,1-3.1,4.42,2.45,2.45,0,0,1-4.41.39,1.82,1.82,0,0,1-.75.14,1.86,1.86,0,0,1-1.7-2.52" fill="#1d6d03" fill-rule="evenodd"/>
    <path d="M36.13,95.41a3.59,3.59,0,0,1-5.74,1.83A2.83,2.83,0,0,1,26,93.73a4.46,4.46,0,0,1,.95-8,2.28,2.28,0,0,1,3.66-1.67,3.59,3.59,0,0,1,6,1.88,3.68,3.68,0,0,1,.06.71,3,3,0,0,1,1.6,5.2,2.25,2.25,0,0,1,.36.87,2.28,2.28,0,0,1-2.59,2.68" fill="#227f06" fill-rule="evenodd"/>
    <path d="M12.17,125a3.59,3.59,0,0,1-5.74,1.83,2.83,2.83,0,0,1-4.35-3.51,4.46,4.46,0,0,1,.95-8,2.28,2.28,0,0,1,3.66-1.67,3.59,3.59,0,0,1,6.11,2.59,3,3,0,0,1,1.6,5.2,2.25,2.25,0,0,1,.36.87A2.29,2.29,0,0,1,12.17,125" fill="#227f06" fill-rule="evenodd"/>
    <path d="M37.39,130.7a3.59,3.59,0,0,1-5.74,1.83A2.83,2.83,0,0,1,27.29,129a4.46,4.46,0,0,1,.95-8,2.28,2.28,0,0,1,3.66-1.67A3.59,3.59,0,0,1,38,122a3,3,0,0,1,1.6,5.2A2.25,2.25,0,0,1,40,128a2.29,2.29,0,0,1-2.59,2.68" fill="#227f06" fill-rule="evenodd"/>
    <path d="M30.45,159.07a3.59,3.59,0,0,1-5.74,1.83,2.83,2.83,0,0,1-4.35-3.51,4.46,4.46,0,0,1,.95-8A2.28,2.28,0,0,1,25,147.73a3.59,3.59,0,0,1,6.11,2.59,3,3,0,0,1,1.6,5.2,2.28,2.28,0,0,1-1.45,3.54,2.24,2.24,0,0,1-.77,0" fill="#227f06" fill-rule="evenodd"/>
    <path d="M46.21,184.91a3.59,3.59,0,0,1-5.74,1.83,2.83,2.83,0,0,1-4.35-3.51,4.46,4.46,0,0,1,.95-8,2.28,2.28,0,0,1,3.66-1.67,3.59,3.59,0,0,1,6.11,2.59,3,3,0,0,1,1.6,5.2,2.29,2.29,0,0,1-2.23,3.55" fill="#227f06" fill-rule="evenodd"/>
    <path d="M63.86,217.68a3.59,3.59,0,0,1-5.74,1.83A2.83,2.83,0,0,1,53.76,216a4.46,4.46,0,0,1,.95-8,2.28,2.28,0,0,1,3.66-1.67,3.59,3.59,0,0,1,6.11,2.59,3,3,0,0,1,1.6,5.2,2.29,2.29,0,0,1-2.23,3.55" fill="#227f06" fill-rule="evenodd"/>
    <path d="M59.45,195.62a3.59,3.59,0,0,1-5.74,1.83,2.83,2.83,0,0,1-4.35-3.51,4.46,4.46,0,0,1,.95-8A2.28,2.28,0,0,1,54,184.28a3.59,3.59,0,0,1,6.11,2.59,3,3,0,0,1,1.6,5.2,2.26,2.26,0,0,1,.36.87,2.29,2.29,0,0,1-2.59,2.69" fill="#227f06" fill-rule="evenodd"/>
    <path d="M44.32,140.79a3.59,3.59,0,0,1-5.74,1.83,2.83,2.83,0,0,1-4.35-3.51,4.46,4.46,0,0,1,.95-8,2.28,2.28,0,0,1,3.66-1.67A3.59,3.59,0,0,1,44.95,132a3,3,0,0,1,1.6,5.2,2.25,2.25,0,0,1,.36.87,2.28,2.28,0,0,1-2.59,2.68" fill="#227f06" fill-rule="evenodd"/>
    <path d="M329.84,322.94a3.59,3.59,0,0,1-5.74,1.83,2.83,2.83,0,0,1-4.35-3.51,4.46,4.46,0,0,1,.95-8,2.28,2.28,0,0,1,3.66-1.67,3.59,3.59,0,0,1,6.11,2.59,3,3,0,0,1,1.6,5.2,2.25,2.25,0,0,1,.36.87,2.28,2.28,0,0,1-1.82,2.67,2.24,2.24,0,0,1-.77,0" fill="#227f06" fill-rule="evenodd"/>
    <path d="M581.33,423.79a3.59,3.59,0,0,1-5.74,1.83,2.83,2.83,0,0,1-4.35-3.51,4.46,4.46,0,0,1,.95-8,2.28,2.28,0,0,1,3.66-1.67,3.59,3.59,0,0,1,6,1.88,3.68,3.68,0,0,1,.06.71,3,3,0,0,1,1.6,5.2,2.25,2.25,0,0,1,.36.87,2.28,2.28,0,0,1-2.59,2.68" fill="#227f06" fill-rule="evenodd"/>
    <path d="M394.13,347.52a3.59,3.59,0,0,1-5.74,1.83,2.83,2.83,0,0,1-4.35-3.51,4.46,4.46,0,0,1,.95-8,2.28,2.28,0,0,1,3.66-1.67,3.59,3.59,0,0,1,6,1.88,3.68,3.68,0,0,1,.06.71,3,3,0,0,1,1.6,5.2,2.25,2.25,0,0,1,.36.87,2.28,2.28,0,0,1-2.59,2.68" fill="#227f06" fill-rule="evenodd"/>
    <path d="M36.76,209.49A3.59,3.59,0,0,1,31,211.32a2.83,2.83,0,0,1-4.35-3.51,4.46,4.46,0,0,1,.95-8,2.28,2.28,0,0,1,3.66-1.67,3.59,3.59,0,0,1,6.11,2.59,3,3,0,0,1,1.6,5.2,2.28,2.28,0,0,1-2.23,3.55" fill="#227f06" fill-rule="evenodd"/>
    <path d="M22.09,111a2.31,2.31,0,0,1-3.69,1.17,1.82,1.82,0,0,1-2.8-2.25,2.87,2.87,0,0,1,.61-5.14,1.47,1.47,0,0,1,2.35-1.07,2.31,2.31,0,0,1,3.89,1.21,2.34,2.34,0,0,1,0,.46,1.94,1.94,0,0,1,1,3.34,1.47,1.47,0,0,1-.94,2.28,1.5,1.5,0,0,1-.5,0" fill="#1d6d03" fill-rule="evenodd"/>
    <path d="M13.27,131.19a2.31,2.31,0,0,1-3.69,1.18,1.8,1.8,0,0,1-.89.44,1.82,1.82,0,0,1-1.91-2.7A2.87,2.87,0,0,1,7.39,125a1.47,1.47,0,0,1,2.35-1.07,2.31,2.31,0,0,1,3.89,1.21,2.45,2.45,0,0,1,0,.46,1.93,1.93,0,0,1,1,3.34,1.47,1.47,0,0,1-1.43,2.28" fill="#1d6d03" fill-rule="evenodd"/>
    <path d="M41,109.76a2.31,2.31,0,0,1-3.69,1.18,1.8,1.8,0,0,1-.89.44,1.82,1.82,0,0,1-1.91-2.7,2.86,2.86,0,0,1,.61-5.14,1.47,1.47,0,0,1,2.35-1.07,2.31,2.31,0,0,1,3.89,1.21,2.35,2.35,0,0,1,0,.46,1.93,1.93,0,0,1,1,3.34A1.47,1.47,0,0,1,41,109.76" fill="#227f06" fill-rule="evenodd"/>
    <path d="M50.46,164a2.31,2.31,0,0,1-3.69,1.18,1.82,1.82,0,0,1-2.8-2.26,2.86,2.86,0,0,1,.61-5.14,1.47,1.47,0,0,1,2.35-1.07,2.31,2.31,0,0,1,3.89,1.21,2.33,2.33,0,0,1,0,.46,1.93,1.93,0,0,1,1,3.34A1.47,1.47,0,0,1,50.46,164" fill="#227f06" fill-rule="evenodd"/>
    <path d="M374.43,334.77a2.31,2.31,0,0,1-3.69,1.18,1.82,1.82,0,0,1-2.8-2.25,2.87,2.87,0,0,1,.61-5.14,1.47,1.47,0,0,1,2.35-1.07,2.31,2.31,0,0,1,3.89,1.21,2.34,2.34,0,0,1,0,.45,1.93,1.93,0,0,1,1,3.34,1.47,1.47,0,0,1-1.43,2.28" fill="#227f06" fill-rule="evenodd"/>
    <path d="M356.15,323.43a2.31,2.31,0,0,1-3.69,1.18,1.82,1.82,0,0,1-2.8-2.25,2.87,2.87,0,0,1,.61-5.14,1.47,1.47,0,0,1,2.35-1.07,2.31,2.31,0,0,1,3.89,1.21,2.34,2.34,0,0,1,0,.46,1.93,1.93,0,0,1,1,3.34,1.47,1.47,0,0,1-1.43,2.28" fill="#227f06" fill-rule="evenodd"/>
    <path d="M301.31,316.49a2.31,2.31,0,0,1-3.69,1.18,1.82,1.82,0,0,1-2.8-2.26,2.87,2.87,0,0,1,.61-5.14,1.47,1.47,0,0,1,2.35-1.07,2.31,2.31,0,0,1,3.89,1.21,2.24,2.24,0,0,1,0,.45,1.93,1.93,0,0,1,1,3.34,1.47,1.47,0,0,1-1.43,2.28" fill="#227f06" fill-rule="evenodd"/>
    <path d="M423,356.2a2.31,2.31,0,0,1-3.69,1.18,1.82,1.82,0,0,1-2.8-2.26,2.87,2.87,0,0,1,.61-5.14,1.47,1.47,0,0,1,2.35-1.07,2.31,2.31,0,0,1,3.89,1.21,2.33,2.33,0,0,1,0,.46,1.93,1.93,0,0,1,1,3.34A1.47,1.47,0,0,1,423,356.2" fill="#227f06" fill-rule="evenodd"/>
    <path d="M558.48,412.3a2.31,2.31,0,0,1-3.69,1.18,1.82,1.82,0,0,1-2.8-2.25,2.87,2.87,0,0,1,.61-5.14,1.47,1.47,0,0,1,2.35-1.07,2.31,2.31,0,0,1,3.89,1.21,2.33,2.33,0,0,1,0,.46,1.94,1.94,0,0,1,1,3.34,1.45,1.45,0,0,1,.23.56,1.47,1.47,0,0,1-1.17,1.72,1.43,1.43,0,0,1-.5,0" fill="#227f06" fill-rule="evenodd"/>
    <path d="M429.26,360a2.31,2.31,0,0,1-3.69,1.18,1.82,1.82,0,0,1-2.8-2.25,2.87,2.87,0,0,1,.61-5.14,1.47,1.47,0,0,1,2.35-1.07,2.31,2.31,0,0,1,3.89,1.21,2.24,2.24,0,0,1,0,.46,1.93,1.93,0,0,1,1,3.34,1.45,1.45,0,0,1,.23.56,1.47,1.47,0,0,1-1.17,1.72,1.43,1.43,0,0,1-.5,0" fill="#227f06" fill-rule="evenodd"/>
    <path d="M363,327.73a2.92,2.92,0,0,1-.48-4.88,2.3,2.3,0,0,1,3.53-2.87,3.63,3.63,0,0,1,6.2,2.12,1.86,1.86,0,0,1,.7,3.2,2.92,2.92,0,0,1-2.53,4.49,2.87,2.87,0,0,1-.57-.07,2.45,2.45,0,0,1-4.41.39,1.83,1.83,0,0,1-.75.14,1.86,1.86,0,0,1-1.82-1.9,1.89,1.89,0,0,1,.12-.62" fill="#1d6d03" fill-rule="evenodd"/>
    <path d="M20.13,126.35a2.92,2.92,0,0,1-.48-4.88,2.3,2.3,0,0,1,3.53-2.87,3.63,3.63,0,0,1,6.2,2.12,1.86,1.86,0,0,1,.7,3.2,2.92,2.92,0,0,1-2.53,4.49,3,3,0,0,1-.57-.07,2.45,2.45,0,0,1-4.41.39A1.86,1.86,0,0,1,20,127a1.89,1.89,0,0,1,.12-.62" fill="#1d6d03" fill-rule="evenodd"/>
    <path d="M44.71,178.35a2.92,2.92,0,0,1-.48-4.88,2.27,2.27,0,0,1-.31-1.22,2.3,2.3,0,0,1,3.85-1.65,3.63,3.63,0,0,1,6.2,2.12,1.86,1.86,0,0,1,.7,3.2,2.92,2.92,0,0,1-2.53,4.49,3,3,0,0,1-.57-.07,2.45,2.45,0,0,1-4.41.39A1.86,1.86,0,0,1,44.59,179a1.82,1.82,0,0,1,.12-.62" fill="#1d6d03" fill-rule="evenodd"/>
    <path d="M17.61,78.45a2.92,2.92,0,0,1-.48-4.88,2.3,2.3,0,0,1,3.53-2.87,3.63,3.63,0,0,1,6.2,2.12,1.86,1.86,0,0,1,.7,3.2A2.92,2.92,0,0,1,25,80.5a3,3,0,0,1-.57-.07,2.45,2.45,0,0,1-4.41.39,1.86,1.86,0,0,1-2.45-2.38" fill="#1d6d03" fill-rule="evenodd"/>
    <path d="M14.53,107.87A2.31,2.31,0,0,1,10.84,109,1.82,1.82,0,0,1,8,106.79a2.86,2.86,0,0,1,.61-5.14A1.47,1.47,0,0,1,11,100.58a2.31,2.31,0,0,1,3.89,1.21,2.33,2.33,0,0,1,0,.46,1.93,1.93,0,0,1,1,3.34,1.47,1.47,0,0,1-1.43,2.28" fill="#227f06" fill-rule="evenodd"/>
  </g>
</svg>
